<?xml version="1.0" encoding="UTF-8" standalone="no"?>
<!-- Created with Inkscape (http://www.inkscape.org/) -->

<svg
   width="8.5in"
   height="11in"
   viewBox="0 0 215.9 279.4"
   version="1.1"
   id="svg5"
   inkscape:version="1.2.1 (9c6d41e410, 2022-07-14)"
   sodipodi:docname="ThumbNut(M).svg"
   xmlns:inkscape="http://www.inkscape.org/namespaces/inkscape"
   xmlns:sodipodi="http://sodipodi.sourceforge.net/DTD/sodipodi-0.dtd"
   xmlns="http://www.w3.org/2000/svg"
   xmlns:svg="http://www.w3.org/2000/svg">
  <sodipodi:namedview
     id="namedview7"
     pagecolor="#ffffff"
     bordercolor="#666666"
     borderopacity="1.0"
     inkscape:pageshadow="2"
     inkscape:pageopacity="0.0"
     inkscape:pagecheckerboard="0"
     inkscape:deskcolor="#d1d1d1"
     inkscape:document-units="mm"
     showgrid="false"
     inkscape:showpageshadow="2"
     inkscape:zoom="3.2689394"
     inkscape:cx="278.53071"
     inkscape:cy="84.736964"
     inkscape:window-width="2560"
     inkscape:window-height="1017"
     inkscape:window-x="-8"
     inkscape:window-y="-8"
     inkscape:window-maximized="1"
     inkscape:current-layer="layer1" />
  <defs
     id="defs2" />
  <g
     inkscape:label="Layer 1"
     inkscape:groupmode="layer"
     id="layer1">
    <path
       id="path231-2-0"
       style="fill:#cccccc;fill-opacity:1;stroke:none;stroke-width:0.132;stop-color:#000000"
       d="m 50.050176,27.220561 a 3.75,1.1500306 0 0 0 -3.289205,0.599447 1.4425441,0.55201471 0 0 0 -1.361158,0.55087 v 2.999817 h 9.300208 v -2.999817 a 1.4425441,0.55201471 0 0 0 -1.35909,-0.551387 3.75,1.1500306 0 0 0 -3.290755,-0.59893 z" />
    <circle
       style="fill:none;stroke:#000000;stroke-width:0.132;stop-color:#000000"
       id="path231"
       cx="24.874969"
       cy="28.679081"
       r="3.75" />
    <circle
       style="fill:none;stroke:#000000;stroke-width:0.132;stop-color:#000000"
       id="path393"
       cx="24.874969"
       cy="28.679081"
       r="1.6" />
    <circle
       style="fill:none;stroke:#000000;stroke-width:0.132;stop-color:#000000"
       id="path395"
       cx="24.874969"
       cy="28.679081"
       r="1.25" />
    <rect
       style="fill:none;stroke:#000000;stroke-width:0.132;stop-color:#000000"
       id="rect397"
       width="9.3000002"
       height="3.6000001"
       x="20.22497"
       y="26.879082" />
    <rect
       style="fill:none;stroke:#000000;stroke-width:0.132;stop-color:#000000"
       id="rect399"
       width="7.499999"
       height="7.6176229"
       x="21.124969"
       y="21.061459" />
    <rect
       style="fill:none;stroke:#000000;stroke-width:0.132;stop-color:#000000"
       id="rect399-8"
       width="7.499999"
       height="3"
       x="21.124969"
       y="18.061459" />
    <path
       style="fill:#999999;fill-opacity:1;stroke:none;stroke-width:0.132;stroke-opacity:1;stop-color:#000000"
       d="m 53.330438,31.921847 h 1.368101 c 1.17326,0 2.14621,-1.145924 2.5,-1.589474 0.353791,-0.44355 1.917589,-5.253708 1.917589,-5.253708 v -1.157909 c 0,-0.337566 -0.20742,-0.633751 -0.381492,-0.412966 -0.772647,1.055876 -3.491136,5.414058 -4.036097,5.414058 l -1.305504,-0.03658 z"
       id="path641"
       sodipodi:nodetypes="ccccssccc" />
    <path
       style="fill:#cccccc;fill-opacity:1;stroke:none;stroke-width:0.132;stop-color:#000000"
       d="m 53.340931,27.819491 1.357608,-0.297854 c 0.512068,0 1.845094,-3.572576 2.324797,-4.905999 0.109778,-0.272128 0.305911,-0.390477 0.549492,-0.226254 l 1.383569,0.980437 c 0.242141,0.182512 0.161885,0.423518 0.06528,0.713499 -0.445434,1.33704 -1.546722,4.502297 -1.823138,4.848842 -0.353791,0.44355 -1.32674,1.839655 -2.5,1.839655 l -1.357608,0.04797"
       id="path643"
       sodipodi:nodetypes="ccccccscc" />
    <path
       style="fill:#b2b2b2;fill-opacity:1;stroke:none;stroke-width:0.132;stop-color:#000000"
       d="m 53.393035,28.055784 1.116029,2.217748 0.386318,0.02862 -0.04292,-2.661298 z"
       id="path743"
       sodipodi:nodetypes="ccccc" />
    <path
       style="fill:#999999;fill-opacity:1;stroke:none;stroke-width:0.132;stop-color:#000000"
       d="m 46.744243,31.921847 h -1.368101 c -0.249926,0 -0.490762,-0.052 -0.71846,-0.138129 -0.841216,-0.318205 -1.503114,-1.10228 -1.78154,-1.451345 -0.35379,-0.443551 -1.917589,-5.253708 -1.917589,-5.253708 v -1.157909 c 0,-0.337566 0.20742,-0.633751 0.381492,-0.412966 0.772647,1.055876 3.491136,5.414058 4.036097,5.414058 l 1.305504,-0.07705 z"
       id="path641-8"
       sodipodi:nodetypes="ccccsssc" />
    <path
       style="fill:#cccccc;fill-opacity:1;stroke:none;stroke-width:0.132;stop-color:#000000"
       d="m 46.73375,27.819491 -1.357608,-0.297854 c -0.512068,0 -1.845094,-3.572576 -2.324797,-4.905999 -0.109778,-0.272128 -0.305911,-0.390477 -0.549492,-0.226254 l -1.383569,0.980437 c -0.242141,0.182512 -0.161885,0.423518 -0.06528,0.713499 0.445434,1.33704 1.546722,4.502297 1.823138,4.848842 0.353791,0.44355 1.32674,1.839655 2.5,1.839655 l 1.357608,0.04797"
       id="path643-1"
       sodipodi:nodetypes="ccccccscc" />
    <path
       style="fill:#b2b2b2;fill-opacity:1;stroke:none;stroke-width:0.132;stop-color:#000000"
       d="m 46.681646,28.055784 -1.116029,2.217748 -0.386318,0.02862 0.04292,-2.661298 z"
       id="path743-2"
       sodipodi:nodetypes="ccccc" />
    <path
       id="path782"
       style="fill:none;stroke:#000000;stroke-width:0.132;stop-color:#000000"
       d="m 42.715222,22.314401 c -0.06566,6e-5 -0.137305,0.02361 -0.213423,0.07493 l -1.383379,0.980302 c -0.154796,0.116677 -0.177587,0.257613 -0.148828,0.419613 -0.0068,0.04241 -0.01085,0.08625 -0.01085,0.131258 v 1.158069 c 0,0 1.563405,4.810393 1.917196,5.253943 0.35379,0.443549 1.326847,1.589567 2.500106,1.589567 h 1.368392 l -5.17e-4,-0.001 a 1.4425441,0.55201471 0 0 0 0.01705,0.001 3.75,1.1500306 0 0 0 3.289205,0.59893 3.75,1.1500306 0 0 0 3.289205,-0.59893 h 1.35909 c 1.173259,0 2.146316,-1.146018 2.500106,-1.589567 0.35379,-0.44355 1.917712,-5.253943 1.917712,-5.253943 v -1.158069 c 0,-0.045 -0.004,-0.08886 -0.01085,-0.131258 0.02875,-0.161991 0.006,-0.302942 -0.148828,-0.419613 l -1.383895,-0.980302 c -0.243581,-0.164222 -0.439542,-0.04579 -0.54932,0.226343 -0.479703,1.333422 -1.812855,4.906161 -2.324923,4.906161 l -1.35754,0.297656 a 3.75,1.1500306 0 0 0 -3.290755,-0.59893 3.75,1.1500306 0 0 0 -3.289205,0.599447 1.4425441,0.55201471 0 0 0 -0.02739,10e-4 v -0.0016 l -1.35754,-0.297656 c -0.512068,0 -1.845221,-3.572739 -2.324923,-4.906161 -0.07547,-0.187088 -0.191435,-0.301406 -0.335897,-0.301273 z" />
    <path
       id="path231-2"
       style="fill:#8c8c8c;fill-opacity:1;stroke:none;stroke-width:0.132;stop-color:#000000"
       d="m 50.050176,30.220895 c -1.371051,2.68e-4 -2.632332,0.22998 -3.289205,0.599049 -0.763594,0.01651 -1.360793,0.258203 -1.361158,0.550872 1.46e-4,0.29273 0.597405,0.534515 1.361158,0.55103 0.656873,0.369069 1.918154,0.598781 3.289205,0.599049 1.371051,-2.68e-4 2.632332,-0.22998 3.289205,-0.599049 0.763549,-0.01662 1.360509,-0.258373 1.36064,-0.55103 -8.3e-5,-0.292441 -0.596153,-0.534112 -1.35909,-0.55103 -0.657275,-0.369157 -1.919258,-0.598828 -3.290755,-0.598891 z"
       sodipodi:nodetypes="ccccccccc" />
    <ellipse
       style="fill:#666666;fill-opacity:1;stroke:none;stroke-width:0.132;stop-color:#000000"
       id="path393-1"
       cx="50.049973"
       cy="31.37088"
       rx="1.6"
       ry="0.49067974" />
    <ellipse
       style="fill:#4d4d4d;fill-opacity:1;stroke:none;stroke-width:0.132;stop-color:#000000"
       id="path395-5"
       cx="50.049973"
       cy="31.263544"
       rx="1.25"
       ry="0.38334355" />
    <path
       id="rect34533-0-8-7"
       style="fill:#ffffff;stroke:#000000;stroke-width:0.132292;stroke-miterlimit:4;stroke-dasharray:none;stop-color:#000000"
       d="m 67.070325,16.097725 v 20.00033 h 35.874815 v -20.00033 z"
       sodipodi:nodetypes="ccccc" />
    <text
       xml:space="preserve"
       style="font-size:4.23333px;line-height:1.25;font-family:Ste;-inkscape-font-specification:Ste;stroke-width:0.264583"
       x="67.735733"
       y="20.298136"
       id="text34591-3-6-7"><tspan
         sodipodi:role="line"
         id="tspan34589-2-0-0"
         style="font-style:normal;font-variant:normal;font-weight:bold;font-stretch:normal;font-size:4.23333px;font-family:sans-serif;-inkscape-font-specification:sans-serif;stroke-width:0.264583"
         x="67.735733"
         y="20.298136">Wing Nut M3</tspan></text>
    <path
       style="fill:#c8c8c8;fill-opacity:1;stroke:#000000;stroke-width:0.132292;stroke-miterlimit:4;stroke-dasharray:none;stroke-opacity:1;stop-color:#000000"
       d="m 98.206473,16.627053 h 4.209497 v 4.209499 z"
       id="path13761-4" />
    <path
       id="path10369"
       style="fill:#cccccc;fill-opacity:1;stroke:none;stroke-width:0.132;stop-color:#000000"
       d="m 85.504344,28.278895 a 3.75,1.1500306 0 0 0 -3.289205,0.599447 1.4425441,0.55201471 0 0 0 -1.361158,0.55087 v 2.999817 h 9.300208 v -2.999817 a 1.4425441,0.55201471 0 0 0 -1.35909,-0.551387 3.75,1.1500306 0 0 0 -3.290755,-0.59893 z" />
    <path
       style="fill:#999999;fill-opacity:1;stroke:none;stroke-width:0.132;stroke-opacity:1;stop-color:#000000"
       d="m 88.784606,32.980181 h 1.368101 c 1.17326,0 2.14621,-1.145924 2.5,-1.589474 0.353791,-0.44355 1.917589,-5.253708 1.917589,-5.253708 V 24.97909 c 0,-0.337566 -0.20742,-0.633751 -0.381492,-0.412966 -0.772647,1.055876 -3.491136,5.414058 -4.036097,5.414058 l -1.305504,-0.03658 z"
       id="path10371"
       sodipodi:nodetypes="ccccssccc" />
    <path
       style="fill:#cccccc;fill-opacity:1;stroke:none;stroke-width:0.132;stop-color:#000000"
       d="m 88.795099,28.877825 1.357608,-0.297854 c 0.512068,0 1.845094,-3.572576 2.324797,-4.905999 0.109778,-0.272128 0.305911,-0.390477 0.549492,-0.226254 l 1.383569,0.980437 c 0.242141,0.182512 0.161885,0.423518 0.06528,0.713499 -0.445434,1.33704 -1.546722,4.502297 -1.823138,4.848842 -0.353791,0.44355 -1.32674,1.839655 -2.5,1.839655 l -1.357608,0.04797"
       id="path10373"
       sodipodi:nodetypes="ccccccscc" />
    <path
       style="fill:#b2b2b2;fill-opacity:1;stroke:none;stroke-width:0.132;stop-color:#000000"
       d="m 88.847203,29.114118 1.116029,2.217748 0.386318,0.02862 -0.04292,-2.661298 z"
       id="path10375"
       sodipodi:nodetypes="ccccc" />
    <path
       style="fill:#999999;fill-opacity:1;stroke:none;stroke-width:0.132;stop-color:#000000"
       d="M 82.198411,32.980181 H 80.83031 c -0.249926,0 -0.490762,-0.052 -0.71846,-0.138129 -0.841216,-0.318205 -1.503114,-1.10228 -1.78154,-1.451345 -0.35379,-0.443551 -1.917589,-5.253708 -1.917589,-5.253708 V 24.97909 c 0,-0.337566 0.20742,-0.633751 0.381492,-0.412966 0.772647,1.055876 3.491136,5.414058 4.036097,5.414058 l 1.305504,-0.07705 z"
       id="path10377"
       sodipodi:nodetypes="ccccsssc" />
    <path
       style="fill:#cccccc;fill-opacity:1;stroke:none;stroke-width:0.132;stop-color:#000000"
       d="M 82.187918,28.877825 80.83031,28.579971 c -0.512068,0 -1.845094,-3.572576 -2.324797,-4.905999 -0.109778,-0.272128 -0.305911,-0.390477 -0.549492,-0.226254 l -1.383569,0.980437 c -0.242141,0.182512 -0.161885,0.423518 -0.06528,0.713499 0.445434,1.33704 1.546722,4.502297 1.823138,4.848842 0.353791,0.44355 1.32674,1.839655 2.5,1.839655 l 1.357608,0.04797"
       id="path10379"
       sodipodi:nodetypes="ccccccscc" />
    <path
       style="fill:#b2b2b2;fill-opacity:1;stroke:none;stroke-width:0.132;stop-color:#000000"
       d="m 82.135814,29.114118 -1.116029,2.217748 -0.386318,0.02862 0.04292,-2.661298 z"
       id="path10381"
       sodipodi:nodetypes="ccccc" />
    <path
       id="path10383"
       style="fill:none;stroke:#000000;stroke-width:0.132;stop-color:#000000"
       d="m 78.16939,23.372735 c -0.06566,6e-5 -0.137305,0.02361 -0.213423,0.07493 l -1.383379,0.980302 c -0.154796,0.116677 -0.177587,0.257613 -0.148828,0.419613 -0.0068,0.04241 -0.01085,0.08625 -0.01085,0.131258 v 1.158069 c 0,0 1.563405,4.810393 1.917196,5.253943 0.35379,0.443549 1.326847,1.589567 2.500106,1.589567 h 1.368392 l -5.17e-4,-0.001 a 1.4425441,0.55201471 0 0 0 0.01705,0.001 3.75,1.1500306 0 0 0 3.289205,0.59893 3.75,1.1500306 0 0 0 3.289205,-0.59893 h 1.35909 c 1.173259,0 2.146316,-1.146018 2.500106,-1.589567 0.35379,-0.44355 1.917712,-5.253943 1.917712,-5.253943 v -1.158069 c 0,-0.045 -0.004,-0.08886 -0.01085,-0.131258 0.02875,-0.161991 0.006,-0.302942 -0.148828,-0.419613 l -1.383895,-0.980302 c -0.243581,-0.164222 -0.439542,-0.04579 -0.54932,0.226343 -0.479703,1.333422 -1.812855,4.906161 -2.324923,4.906161 l -1.35754,0.297656 a 3.75,1.1500306 0 0 0 -3.290755,-0.59893 3.75,1.1500306 0 0 0 -3.289205,0.599447 1.4425441,0.55201471 0 0 0 -0.02739,0.001 v -0.0016 l -1.35754,-0.297656 c -0.512068,0 -1.845221,-3.572739 -2.324923,-4.906161 -0.07547,-0.187088 -0.191435,-0.301406 -0.335897,-0.301273 z" />
    <path
       id="path10385"
       style="fill:#8c8c8c;fill-opacity:1;stroke:none;stroke-width:0.132;stop-color:#000000"
       d="m 85.504344,31.279229 c -1.371051,2.68e-4 -2.632332,0.22998 -3.289205,0.599049 -0.763594,0.01651 -1.360793,0.258203 -1.361158,0.550872 1.46e-4,0.29273 0.597405,0.534515 1.361158,0.55103 0.656873,0.369069 1.918154,0.598781 3.289205,0.599049 1.371051,-2.68e-4 2.632332,-0.22998 3.289205,-0.599049 0.763549,-0.01662 1.360509,-0.258373 1.36064,-0.55103 -8.3e-5,-0.292441 -0.596153,-0.534112 -1.35909,-0.55103 -0.657275,-0.369157 -1.919258,-0.598828 -3.290755,-0.598891 z"
       sodipodi:nodetypes="ccccccccc" />
    <ellipse
       style="fill:#666666;fill-opacity:1;stroke:none;stroke-width:0.132;stop-color:#000000"
       id="ellipse10387"
       cx="85.504128"
       cy="32.429214"
       rx="1.6"
       ry="0.49067974" />
    <ellipse
       style="fill:#4d4d4d;fill-opacity:1;stroke:none;stroke-width:0.132;stop-color:#000000"
       id="ellipse10389"
       cx="85.504128"
       cy="32.321877"
       rx="1.25"
       ry="0.38334355" />
  </g>
</svg>
