<?xml version="1.0" encoding="UTF-8" standalone="no"?>
<!-- Created with Inkscape (http://www.inkscape.org/) -->

<svg
   xmlns:dc="http://purl.org/dc/elements/1.1/"
   xmlns:cc="http://creativecommons.org/ns#"
   xmlns:rdf="http://www.w3.org/1999/02/22-rdf-syntax-ns#"
   xmlns:svg="http://www.w3.org/2000/svg"
   xmlns="http://www.w3.org/2000/svg"
   xmlns:sodipodi="http://sodipodi.sourceforge.net/DTD/sodipodi-0.dtd"
   xmlns:inkscape="http://www.inkscape.org/namespaces/inkscape"
   width="210mm"
   height="297mm"
   viewBox="0 0 210 297"
   version="1.1"
   id="svg5"
   inkscape:version="0.92.4 (5da689c313, 2019-01-14)"
   sodipodi:docname="WoodThreads(S).svg">
  <metadata
     id="metadata85">
    <rdf:RDF>
      <cc:Work
         rdf:about="">
        <dc:format>image/svg+xml</dc:format>
        <dc:type
           rdf:resource="http://purl.org/dc/dcmitype/StillImage" />
      </cc:Work>
    </rdf:RDF>
  </metadata>
  <sodipodi:namedview
     id="namedview7"
     pagecolor="#ffffff"
     bordercolor="#666666"
     borderopacity="1.0"
     inkscape:pageshadow="2"
     inkscape:pageopacity="0.0"
     inkscape:pagecheckerboard="0"
     inkscape:document-units="mm"
     showgrid="false"
     inkscape:zoom="1.5108867"
     inkscape:cx="208.22838"
     inkscape:cy="844.23839"
     inkscape:window-width="2560"
     inkscape:window-height="1017"
     inkscape:window-x="-8"
     inkscape:window-y="-8"
     inkscape:window-maximized="1"
     inkscape:current-layer="layer1"
     inkscape:snap-bbox="true"
     inkscape:bbox-paths="true"
     inkscape:bbox-nodes="true"
     inkscape:snap-bbox-edge-midpoints="true"
     inkscape:snap-bbox-midpoints="true"
     inkscape:object-paths="true"
     inkscape:snap-intersection-paths="true"
     inkscape:snap-smooth-nodes="true"
     inkscape:snap-midpoints="true"
     inkscape:snap-global="false" />
  <defs
     id="defs2" />
  <g
     inkscape:label="Layer 1"
     inkscape:groupmode="layer"
     id="layer1">
    <circle
       style="fill:#969696;fill-opacity:1;stroke:#000000;stroke-width:0.132292;stroke-miterlimit:4;stroke-dasharray:none;stroke-opacity:1;stop-color:#000000"
       id="path2533"
       cx="44.436844"
       cy="73.414505"
       r="4.1599998" />
    <path
       id="rect1212-2"
       style="fill:#969696;fill-opacity:1;stroke:none;stroke-width:0.152553;stroke-miterlimit:4;stroke-dasharray:none;stroke-opacity:1;stop-color:#000000"
       d="m 57.436711,77.572675 a 3.1049999,1.5525 0 0 0 -3.104722,1.552876 3.1049999,1.5525 0 0 0 0,0.0016 v 8.086328 c 1.54e-4,0.857313 1.390095,1.552284 3.104722,1.552361 1.714828,6.6e-5 3.105084,-0.694947 3.105237,-1.552361 v -8.086328 a 3.1049999,1.5525 0 0 0 0,-0.0016 3.1049999,1.5525 0 0 0 -3.105237,-1.552876 z" />
    <path
       id="path24420-0-5"
       style="fill:#646464;fill-opacity:1;stroke:none;stroke-width:0.0957688;stroke-miterlimit:4;stroke-dasharray:none;stroke-opacity:1;stop-color:#000000"
       inkscape:transform-center-x="-4.16005"
       inkscape:transform-center-y="-0.78605057"
       d="m 60.540349,82.586114 v 1.396863 l -0.0062,0.0017 a 1.5892113,3.1792252 75.638727 0 1 0.0078,0.05092 1.5892113,3.1792252 75.638727 0 1 -3.104722,2.214179 1.5892113,3.1792252 75.638727 0 1 -3.105237,-1.040468 v -1.443985 a 2.1291848,4.2594451 75.638729 0 0 -1.055232,1.643304 2.1291848,4.2594451 75.638729 0 0 4.159954,1.394153 2.1291848,4.2594451 75.638729 0 0 4.159953,-2.966503 2.1291848,4.2594451 75.638729 0 0 -1.056267,-1.25008 z" />
    <circle
       style="fill:#3c3c3c;fill-opacity:1;stroke:none;stroke-width:0.158893;stroke-miterlimit:4;stroke-dasharray:none;stroke-opacity:1;stop-color:#000000"
       id="path1054-9-4-1"
       cx="56.443359"
       cy="-120.65724"
       r="1.9817818"
       transform="matrix(-0.89442719,0.4472136,-0.89442719,-0.4472136,0,0)" />
    <path
       id="path2533-1-5-3"
       style="fill:#c8c8c8;fill-opacity:1;stroke:none;stroke-width:0.0935448;stroke-miterlimit:4;stroke-dasharray:none;stroke-opacity:1;stop-color:#000000"
       inkscape:transform-center-x="-4.160001"
       inkscape:transform-center-y="-0.75000408"
       d="m 60.54035,82.586114 v 1.332735 l -0.0062,0.0016 a 1.5203394,3.1706817 76.659074 0 1 0.0078,0.04858 1.5203394,3.1706817 76.659074 0 1 -3.104721,2.112532 1.5203394,3.1706817 76.659074 0 1 -3.105238,-0.992704 v -1.377693 a 2.036912,4.2479986 76.659075 0 0 -1.055232,1.567862 2.036912,4.2479986 76.659075 0 0 4.159954,1.330151 2.036912,4.2479986 76.659075 0 0 4.159953,-2.830317 2.036912,4.2479986 76.659075 0 0 -1.056267,-1.192691 z" />
    <path
       id="path24420-0"
       style="fill:#646464;fill-opacity:1;stroke:none;stroke-width:0.0957688;stroke-miterlimit:4;stroke-dasharray:none;stroke-opacity:1;stop-color:#000000"
       inkscape:transform-center-x="-4.16005"
       inkscape:transform-center-y="-0.78605057"
       d="m 60.540348,80.984235 v 1.396863 l -0.0062,0.0017 a 1.5892113,3.1792252 75.638727 0 1 0.0078,0.05092 1.5892113,3.1792252 75.638727 0 1 -3.104722,2.214179 1.5892113,3.1792252 75.638727 0 1 -3.105237,-1.040468 v -1.443985 a 2.1291848,4.2594451 75.638729 0 0 -1.055232,1.643304 2.1291848,4.2594451 75.638729 0 0 4.159954,1.394153 2.1291848,4.2594451 75.638729 0 0 4.159953,-2.966503 2.1291848,4.2594451 75.638729 0 0 -1.056267,-1.25008 z" />
    <path
       id="path2533-1-5"
       style="fill:#c8c8c8;fill-opacity:1;stroke:none;stroke-width:0.0935448;stroke-miterlimit:4;stroke-dasharray:none;stroke-opacity:1;stop-color:#000000"
       inkscape:transform-center-x="-4.160001"
       inkscape:transform-center-y="-0.75000408"
       d="m 60.540349,80.984235 v 1.332735 l -0.0062,0.0016 a 1.5203394,3.1706817 76.659074 0 1 0.0078,0.04858 1.5203394,3.1706817 76.659074 0 1 -3.104721,2.112532 1.5203394,3.1706817 76.659074 0 1 -3.105238,-0.992704 v -1.377693 a 2.036912,4.2479986 76.659075 0 0 -1.055232,1.567862 2.036912,4.2479986 76.659075 0 0 4.159954,1.330151 2.036912,4.2479986 76.659075 0 0 4.159953,-2.830317 2.036912,4.2479986 76.659075 0 0 -1.056267,-1.192691 z" />
    <path
       id="path24420"
       style="fill:#646464;fill-opacity:1;stroke:none;stroke-width:0.0957688;stroke-miterlimit:4;stroke-dasharray:none;stroke-opacity:1;stop-color:#000000"
       inkscape:transform-center-x="-4.16005"
       inkscape:transform-center-y="-0.78605057"
       d="m 60.540397,79.720348 v 1.396863 l -0.0062,0.0017 a 1.5892113,3.1792252 75.638727 0 1 0.0078,0.05092 1.5892113,3.1792252 75.638727 0 1 -3.104722,2.214179 1.5892113,3.1792252 75.638727 0 1 -3.105237,-1.040468 v -1.443985 a 2.1291848,4.2594451 75.638729 0 0 -1.055232,1.643304 2.1291848,4.2594451 75.638729 0 0 4.159954,1.394153 2.1291848,4.2594451 75.638729 0 0 4.159953,-2.966503 2.1291848,4.2594451 75.638729 0 0 -1.056267,-1.25008 z" />
    <path
       id="path846-1-3-3"
       style="fill:#646464;fill-opacity:1;stroke:none;stroke-width:0.0935445;stroke-miterlimit:4;stroke-dasharray:none;stroke-opacity:1;stop-color:#000000"
       d="m 57.330774,77.573707 a 3.1049999,1.5525001 0 0 0 -2.089795,0.454236 3.1049999,1.5525001 0 0 0 0,2.195216 3.1049999,1.5525001 0 0 0 4.390948,0 3.1049999,1.5525001 0 0 0 0,-2.195216 3.1049999,1.5525001 0 0 0 -2.301153,-0.454236 z m 0.105937,0.469222 a 2.1649999,1.0825 0 0 1 2.165241,1.082622 2.1649999,1.0825 0 0 1 -2.165241,1.082622 2.1649999,1.0825 0 0 1 -2.164726,-1.082622 2.1649999,1.0825 0 0 1 2.164726,-1.082622 z" />
    <circle
       style="fill:none;stroke:#000000;stroke-width:0.132292;stroke-miterlimit:4;stroke-dasharray:none;stroke-opacity:1;stop-color:#000000"
       id="path846"
       cx="43.254707"
       cy="60.118004"
       r="3.105" />
    <circle
       style="fill:none;stroke:#000000;stroke-width:0.132292;stroke-miterlimit:4;stroke-dasharray:none;stroke-opacity:1;stop-color:#000000"
       id="path950"
       cx="43.254707"
       cy="60.118004"
       r="2.165" />
    <circle
       style="fill:#969696;fill-opacity:1;stroke:#000000;stroke-width:0.132292;stroke-miterlimit:4;stroke-dasharray:none;stroke-opacity:1;stop-color:#000000"
       id="path846-1"
       cx="44.436749"
       cy="73.414719"
       r="3.105" />
    <path
       id="path2533-1"
       style="fill:#c8c8c8;fill-opacity:1;stroke:none;stroke-width:0.0935448;stroke-miterlimit:4;stroke-dasharray:none;stroke-opacity:1;stop-color:#000000"
       inkscape:transform-center-x="-4.160001"
       inkscape:transform-center-y="-0.75000408"
       d="m 60.540398,79.720348 v 1.332735 l -0.0062,0.0015 a 1.5203394,3.1706817 76.659074 0 1 0.0078,0.04858 1.5203394,3.1706817 76.659074 0 1 -3.104721,2.112531 1.5203394,3.1706817 76.659074 0 1 -3.105238,-0.992704 v -1.377693 a 2.036912,4.2479986 76.659075 0 0 -1.055232,1.567863 2.036912,4.2479986 76.659075 0 0 4.159954,1.33015 2.036912,4.2479986 76.659075 0 0 4.159954,-2.830317 2.036912,4.2479986 76.659075 0 0 -1.056267,-1.192691 z" />
    <circle
       style="fill:#323232;fill-opacity:1;stroke:#000000;stroke-width:0.132292;stroke-miterlimit:4;stroke-dasharray:none;stroke-opacity:1;stop-color:#000000"
       id="path950-9"
       cx="44.436749"
       cy="73.414719"
       r="2.165" />
    <circle
       style="fill:none;stroke:#000000;stroke-width:0.132292;stroke-miterlimit:4;stroke-dasharray:none;stroke-opacity:1;stop-color:#000000"
       id="path1054"
       cx="43.254707"
       cy="60.118004"
       r="1.65" />
    <path
       id="rect1212"
       style="fill:#c8c8c8;fill-opacity:1;stroke:#000000;stroke-width:0.153;stroke-miterlimit:4;stroke-dasharray:none;stroke-opacity:1;stop-color:#000000"
       d="m 41.331856,82.869524 v 9.600446 h 6.209956 v -9.600446 h -2.354895 v 1.400432 h -1.500166 v -1.400432 z" />
    <rect
       style="fill:none;stroke:#000000;stroke-width:0.114173;stroke-miterlimit:4;stroke-dasharray:none;stroke-opacity:1;stop-color:#000000"
       id="rect1420"
       width="11.076208"
       height="1.5"
       x="37.716602"
       y="59.368004" />
    <path
       id="path846-0"
       style="fill:#c8c8c8;fill-opacity:1;stroke:#000000;stroke-width:0.132292;stroke-miterlimit:4;stroke-dasharray:none;stroke-opacity:1;stop-color:#000000"
       d="m 44.436751,70.309731 a 3.1049999,3.1049999 0 0 0 -3.006535,2.354895 h 0.976686 a 2.1649999,2.1649999 0 0 1 2.029849,-1.414902 2.1649999,2.1649999 0 0 1 2.030367,1.414902 h 0.97617 a 3.1049999,3.1049999 0 0 0 -3.006537,-2.354895 z m -3.006535,3.854545 a 3.1049999,3.1049999 0 0 0 3.006535,2.355411 3.1049999,3.1049999 0 0 0 3.013255,-2.355411 h -0.982369 a 2.1649999,2.1649999 0 0 1 -2.030886,1.415418 2.1649999,2.1649999 0 0 1 -2.030365,-1.415418 z" />
    <circle
       style="fill:#ffffff;fill-opacity:1;stroke:#000000;stroke-width:0.132292;stroke-miterlimit:4;stroke-dasharray:none;stroke-opacity:1;stop-color:#000000"
       id="path1054-9"
       cx="44.436844"
       cy="73.414505"
       r="1.65" />
    <circle
       style="fill:#969696;fill-opacity:1;stroke:#000000;stroke-width:0.132292;stroke-miterlimit:4;stroke-dasharray:none;stroke-opacity:1;stop-color:#000000"
       id="path2533-8"
       cx="81.027222"
       cy="88.310051"
       r="4.1599998" />
    <circle
       style="fill:#969696;fill-opacity:1;stroke:#000000;stroke-width:0.132292;stroke-miterlimit:4;stroke-dasharray:none;stroke-opacity:1;stop-color:#000000"
       id="path846-1-5"
       cx="81.027122"
       cy="88.310265"
       r="3.105" />
    <circle
       style="fill:#323232;fill-opacity:1;stroke:#000000;stroke-width:0.132292;stroke-miterlimit:4;stroke-dasharray:none;stroke-opacity:1;stop-color:#000000"
       id="path950-9-3"
       cx="81.027122"
       cy="88.310265"
       r="2.165" />
    <path
       id="path846-0-8"
       style="fill:#c8c8c8;fill-opacity:1;stroke:#000000;stroke-width:0.132292;stroke-miterlimit:4;stroke-dasharray:none;stroke-opacity:1;stop-color:#000000"
       d="m 81.027119,85.205274 a 3.1049999,3.1049999 0 0 0 -3.006532,2.354895 h 0.976685 a 2.1649999,2.1649999 0 0 1 2.029847,-1.414902 2.1649999,2.1649999 0 0 1 2.03038,1.414902 h 0.97617 a 3.1049999,3.1049999 0 0 0 -3.00655,-2.354895 z m -3.006532,3.854545 a 3.1049999,3.1049999 0 0 0 3.006532,2.355411 3.1049999,3.1049999 0 0 0 3.01326,-2.355411 h -0.98236 a 2.1649999,2.1649999 0 0 1 -2.0309,1.415418 2.1649999,2.1649999 0 0 1 -2.030367,-1.415418 z" />
    <circle
       style="fill:#ffffff;fill-opacity:1;stroke:#000000;stroke-width:0.132292;stroke-miterlimit:4;stroke-dasharray:none;stroke-opacity:1;stop-color:#000000"
       id="path1054-9-2"
       cx="81.027222"
       cy="88.310051"
       r="1.65" />
    <circle
       style="fill:none;stroke:#000000;stroke-width:0.132292;stroke-miterlimit:4;stroke-dasharray:none;stroke-opacity:1;stop-color:#000000"
       id="path846-5"
       cx="54.330917"
       cy="60.118004"
       r="3.105" />
    <circle
       style="fill:none;stroke:#000000;stroke-width:0.132292;stroke-miterlimit:4;stroke-dasharray:none;stroke-opacity:1;stop-color:#000000"
       id="path950-1"
       cx="54.330917"
       cy="60.118004"
       r="2.165" />
    <circle
       style="fill:none;stroke:#000000;stroke-width:0.132292;stroke-miterlimit:4;stroke-dasharray:none;stroke-opacity:1;stop-color:#000000"
       id="path1054-0"
       cx="54.330917"
       cy="60.118004"
       r="1.65" />
    <rect
       style="fill:none;stroke:#000000;stroke-width:0.114173;stroke-miterlimit:4;stroke-dasharray:none;stroke-opacity:1;stop-color:#000000"
       id="rect1420-0"
       width="11.076208"
       height="1.5"
       x="48.792809"
       y="59.368004" />
    <path
       style="fill:none;stroke:#000000;stroke-width:0.132292;stroke-miterlimit:4;stroke-dasharray:none;stroke-opacity:1;stop-color:#000000"
       d="m 40.276748,90.669729 8.32,-1.500002"
       id="path1738" />
    <path
       style="fill:none;stroke:#000000;stroke-width:0.132292;stroke-miterlimit:4;stroke-dasharray:none;stroke-opacity:1;stop-color:#000000"
       d="m 40.276748,89.169727 8.32,-1.5"
       id="path1740" />
    <path
       style="fill:none;stroke:#000000;stroke-width:0.132292;stroke-miterlimit:4;stroke-dasharray:none;stroke-opacity:1;stop-color:#000000"
       d="m 40.276748,87.669727 8.32,-1.499999"
       id="path1742" />
    <path
       style="fill:none;stroke:#000000;stroke-width:0.132292;stroke-miterlimit:4;stroke-dasharray:none;stroke-opacity:1;stop-color:#000000"
       d="m 40.276748,86.169728 8.32,-1.5"
       id="path1744" />
    <path
       id="rect1212-9"
       style="fill:#c8c8c8;fill-opacity:1;stroke:#000000;stroke-width:0.153;stroke-miterlimit:4;stroke-dasharray:none;stroke-opacity:1;stop-color:#000000"
       d="m 75.808882,85.205072 h -9.600446 v 6.209958 h 9.600446 V 89.060133 H 74.40845 v -1.500166 h 1.400432 z" />
    <path
       style="fill:none;stroke:#000000;stroke-width:0.132292;stroke-miterlimit:4;stroke-dasharray:none;stroke-opacity:1;stop-color:#000000"
       d="m 68.008677,84.149964 1.500002,8.319996"
       id="path1738-5" />
    <path
       style="fill:none;stroke:#000000;stroke-width:0.132292;stroke-miterlimit:4;stroke-dasharray:none;stroke-opacity:1;stop-color:#000000"
       d="m 69.508679,84.149964 1.5,8.319996"
       id="path1740-3" />
    <path
       style="fill:none;stroke:#000000;stroke-width:0.132292;stroke-miterlimit:4;stroke-dasharray:none;stroke-opacity:1;stop-color:#000000"
       d="m 71.008679,84.149964 1.499999,8.319995"
       id="path1742-6" />
    <path
       style="fill:none;stroke:#000000;stroke-width:0.132292;stroke-miterlimit:4;stroke-dasharray:none;stroke-opacity:1;stop-color:#000000"
       d="m 72.508678,84.149964 1.5,8.319996"
       id="path1744-6" />
    <path
       id="path846-0-4-3"
       style="fill:#969696;fill-opacity:1;stroke:none;stroke-width:0.0935445;stroke-miterlimit:4;stroke-dasharray:none;stroke-opacity:1;stop-color:#000000"
       d="m 60.23964,77.6135 -0.190169,0.268716 -1.794206,1.041797 -2.411737,0.01757 0.0026,2.040702 c 1.219933,0.366742 2.782375,0.271751 3.790985,-0.230478 0.579522,-0.290973 0.90488,-0.684895 0.904854,-1.095539 l -0.0021,-2.042769 z m -2.766755,-0.03876 c -0.833549,-0.0048 -1.63598,0.158105 -2.226739,0.45217 -1.008414,0.504212 -1.200235,1.287055 -0.465087,1.898074 l 0.694531,-0.347266 c -0.379526,-0.411665 -0.205878,-0.897969 0.435115,-1.218531 0.641271,-0.320204 1.613564,-0.406812 2.436545,-0.21704 l 0.690396,-0.345199 c -0.472826,-0.14228 -1.012949,-0.21898 -1.564761,-0.222208 z"
       sodipodi:nodetypes="ccccccccccccccccc" />
    <path
       id="path4644"
       style="fill:#3c3c3c;fill-opacity:1;stroke:none;stroke-width:0.132292;stroke-miterlimit:4;stroke-dasharray:none;stroke-opacity:1;stop-color:#000000"
       d="m 57.990682,76.286448 -2.000911,0.264583 -1.132748,1.062469 0.473874,1.789554 c 0.09299,-0.194471 0.291889,-0.372266 0.574641,-0.513664 0.641641,-0.320662 1.61508,-0.4073 2.438612,-0.217041 l 0.0031,-0.0011 -0.0021,-2.040702 z"
       sodipodi:nodetypes="ccccccccc" />
    <ellipse
       style="fill:#282828;fill-opacity:1;stroke:none;stroke-width:0.0935446;stroke-miterlimit:4;stroke-dasharray:none;stroke-opacity:1;stop-color:#000000"
       id="path950-9-6"
       cx="57.640511"
       cy="79.372673"
       rx="2.165"
       ry="1.0825" />
    <path
       id="path20693"
       style="fill:#646464;fill-opacity:1;stroke:none;stroke-width:0.0935445;stroke-miterlimit:4;stroke-dasharray:none;stroke-opacity:1;stop-color:#000000"
       d="m 54.331989,79.127102 a 3.1049999,1.5525 0 0 0 0.90899,1.096057 3.1049999,1.5525 0 0 0 1.980758,0.447517 v -0.471289 a 2.1649999,1.0824999 0 0 1 -1.949752,-1.072285 z" />
    <path
       style="fill:#969696;fill-opacity:1;stroke:none;stroke-width:0.132292;stroke-miterlimit:4;stroke-dasharray:none;stroke-opacity:1;stop-color:#000000"
       d="m 54.334246,77.613564 -0.0027,1.513488 0.211291,1.318315 0.238149,-0.520382 -0.0024,-1.511112 0.149278,-0.866815 z"
       id="path4833" />
    <path
       style="fill:#969696;fill-opacity:1;stroke:none;stroke-width:0.132292;stroke-miterlimit:4;stroke-dasharray:none;stroke-opacity:1;stop-color:#000000"
       d="m 55.843742,78.941706 v 2.404898 h 3.701367 l 0.594728,-2.219552 -0.447945,-0.775862 -1.559227,0.417796 z"
       id="path21031" />
    <path
       style="fill:#3c3c3c;fill-opacity:1;stroke:none;stroke-width:0.153;stroke-miterlimit:4;stroke-dasharray:none;stroke-opacity:1;stop-color:#000000"
       d="m 59.405007,77.161075 v 1.653802 l 0.834631,-1.201378 z"
       id="path25137" />
    <path
       id="path846-0-4"
       style="fill:#c8c8c8;fill-opacity:1;stroke:none;stroke-width:0.0935446;stroke-miterlimit:4;stroke-dasharray:none;stroke-opacity:1;stop-color:#000000"
       d="m 59.634848,78.711316 a 3.1049999,1.5524999 0 0 0 0.460779,-1.895551 l -0.69062,0.34531 a 2.1649999,1.0824999 0 0 1 -0.434835,1.217904 2.1649999,1.0824999 0 0 1 -2.436173,0.217599 l -0.690256,0.345129 a 3.1049999,1.5524999 0 0 0 3.791105,-0.230391 z m -0.599634,-2.425758 a 3.1049999,1.5524999 0 0 0 -3.791468,0.230207 3.1049999,1.5524999 0 0 0 -0.465166,1.89811 l 0.69464,-0.34732 a 2.1649999,1.0824999 0 0 1 0.435201,-1.218452 2.1649999,1.0824999 0 0 1 2.436537,-0.217417 z" />
    <path
       style="fill:#646464;fill-opacity:1;stroke:none;stroke-width:0.132292;stroke-miterlimit:4;stroke-dasharray:none;stroke-opacity:1;stop-color:#000000"
       d="m 54.778579,78.413875 0.0024,1.51111 0.694531,-0.347266 -0.0024,-1.511165 z"
       id="path4392" />
    <path
       style="fill:#646464;fill-opacity:1;stroke:none;stroke-width:0.132292;stroke-miterlimit:4;stroke-dasharray:none;stroke-opacity:1;stop-color:#000000"
       d="m 58.344956,76.630684 0.0024,1.511464 0.690395,-0.345199 -0.0024,-1.511393 z"
       id="path4394" />
    <path
       id="path24420-0-4"
       style="fill:#646464;fill-opacity:1;stroke:none;stroke-width:0.0957688;stroke-miterlimit:4;stroke-dasharray:none;stroke-opacity:1;stop-color:#000000"
       inkscape:transform-center-x="-4.16005"
       inkscape:transform-center-y="-0.78605057"
       d="m 60.540349,78.086113 v 1.396863 l -0.0062,0.0017 a 1.5892113,3.1792252 75.638727 0 1 0.0078,0.05092 1.5892113,3.1792252 75.638727 0 1 -3.104722,2.214179 1.5892113,3.1792252 75.638727 0 1 -3.105237,-1.040468 v -1.443985 a 2.1291848,4.2594451 75.638729 0 0 -1.055232,1.643304 2.1291848,4.2594451 75.638729 0 0 4.159954,1.394153 2.1291848,4.2594451 75.638729 0 0 4.159953,-2.966503 2.1291848,4.2594451 75.638729 0 0 -1.056267,-1.25008 z" />
    <path
       id="path2533-1-5-7"
       style="fill:#c8c8c8;fill-opacity:1;stroke:none;stroke-width:0.0935448;stroke-miterlimit:4;stroke-dasharray:none;stroke-opacity:1;stop-color:#000000"
       inkscape:transform-center-x="-4.160001"
       inkscape:transform-center-y="-0.75000408"
       d="m 60.54035,78.086113 v 1.332735 l -0.0062,0.0016 c 0.0031,0.01607 0.0057,0.03227 0.0078,0.04858 3.15e-4,0.857422 -1.389763,1.803267 -3.104721,2.112532 -1.714973,0.309257 -3.105288,-0.13521 -3.105238,-0.992705 v -1.377692 c -0.67655,0.501296 -1.051921,1.059021 -1.055232,1.567862 -1.6e-4,1.148829 1.862354,1.74437 4.159954,1.330151 2.297739,-0.41427 4.16031,-1.681512 4.159953,-2.830317 -9e-4,-0.510049 -0.376822,-0.934524 -1.056267,-1.192691 z"
       sodipodi:nodetypes="ccccsccccccc" />
    <path
       id="rect1212-2-9"
       style="fill:#969696;fill-opacity:1;stroke:none;stroke-width:0.152553;stroke-miterlimit:4;stroke-dasharray:none;stroke-opacity:1;stop-color:#000000"
       d="m 32.981826,82.706305 a 3.1049999,1.5525 0 0 0 -3.104722,1.552876 3.1049999,1.5525 0 0 0 0,0.0016 v 8.086328 c 1.54e-4,0.857313 1.390095,1.552284 3.104722,1.552361 1.714828,6.6e-5 3.105084,-0.694947 3.105237,-1.552361 v -8.086328 a 3.1049999,1.5525 0 0 0 0,-0.0016 3.1049999,1.5525 0 0 0 -3.105237,-1.552876 z" />
    <path
       id="path24420-0-5-3"
       style="fill:#646464;fill-opacity:1;stroke:none;stroke-width:0.0957688;stroke-miterlimit:4;stroke-dasharray:none;stroke-opacity:1;stop-color:#000000"
       inkscape:transform-center-x="-4.16005"
       inkscape:transform-center-y="-0.78605057"
       d="m 36.085464,87.719744 v 1.396863 l -0.0062,0.0017 a 1.5892113,3.1792252 75.638727 0 1 0.0078,0.05092 1.5892113,3.1792252 75.638727 0 1 -3.104722,2.214179 1.5892113,3.1792252 75.638727 0 1 -3.105237,-1.040468 v -1.443985 a 2.1291848,4.2594451 75.638729 0 0 -1.055232,1.643304 2.1291848,4.2594451 75.638729 0 0 4.159954,1.394153 2.1291848,4.2594451 75.638729 0 0 4.159953,-2.966503 2.1291848,4.2594451 75.638729 0 0 -1.056267,-1.25008 z" />
    <circle
       style="fill:#3c3c3c;fill-opacity:1;stroke:none;stroke-width:0.158893;stroke-miterlimit:4;stroke-dasharray:none;stroke-opacity:1;stop-color:#000000"
       id="path1054-9-4-1-9"
       cx="75.85363"
       cy="-112.72612"
       r="1.9817818"
       transform="matrix(-0.89442719,0.4472136,-0.89442719,-0.4472136,0,0)" />
    <path
       id="path2533-1-5-3-4"
       style="fill:#c8c8c8;fill-opacity:1;stroke:none;stroke-width:0.0935448;stroke-miterlimit:4;stroke-dasharray:none;stroke-opacity:1;stop-color:#000000"
       inkscape:transform-center-x="-4.160001"
       inkscape:transform-center-y="-0.75000408"
       d="m 36.085465,87.719744 v 1.332735 l -0.0062,0.0016 a 1.5203394,3.1706817 76.659074 0 1 0.0078,0.04858 1.5203394,3.1706817 76.659074 0 1 -3.104721,2.112532 1.5203394,3.1706817 76.659074 0 1 -3.105238,-0.992704 v -1.377693 a 2.036912,4.2479986 76.659075 0 0 -1.055232,1.567862 2.036912,4.2479986 76.659075 0 0 4.159954,1.330151 2.036912,4.2479986 76.659075 0 0 4.159953,-2.830317 2.036912,4.2479986 76.659075 0 0 -1.056267,-1.192691 z" />
    <path
       id="path24420-0-3"
       style="fill:#646464;fill-opacity:1;stroke:none;stroke-width:0.0957688;stroke-miterlimit:4;stroke-dasharray:none;stroke-opacity:1;stop-color:#000000"
       inkscape:transform-center-x="-4.16005"
       inkscape:transform-center-y="-0.78605057"
       d="m 36.085463,86.117865 v 1.396863 l -0.0062,0.0017 a 1.5892113,3.1792252 75.638727 0 1 0.0078,0.05092 1.5892113,3.1792252 75.638727 0 1 -3.104722,2.214179 1.5892113,3.1792252 75.638727 0 1 -3.105237,-1.040468 v -1.443985 a 2.1291848,4.2594451 75.638729 0 0 -1.055232,1.643304 2.1291848,4.2594451 75.638729 0 0 4.159954,1.394153 2.1291848,4.2594451 75.638729 0 0 4.159953,-2.966503 2.1291848,4.2594451 75.638729 0 0 -1.056267,-1.25008 z" />
    <path
       id="path2533-1-5-1"
       style="fill:#c8c8c8;fill-opacity:1;stroke:none;stroke-width:0.0935448;stroke-miterlimit:4;stroke-dasharray:none;stroke-opacity:1;stop-color:#000000"
       inkscape:transform-center-x="-4.160001"
       inkscape:transform-center-y="-0.75000408"
       d="M 36.085464,86.117865 V 87.4506 l -0.0062,0.0016 a 1.5203394,3.1706817 76.659074 0 1 0.0078,0.04858 1.5203394,3.1706817 76.659074 0 1 -3.104721,2.112532 1.5203394,3.1706817 76.659074 0 1 -3.105238,-0.992704 v -1.377693 a 2.036912,4.2479986 76.659075 0 0 -1.055232,1.567862 2.036912,4.2479986 76.659075 0 0 4.159954,1.330151 2.036912,4.2479986 76.659075 0 0 4.159953,-2.830317 2.036912,4.2479986 76.659075 0 0 -1.056267,-1.192691 z" />
    <path
       id="path24420-1"
       style="fill:#646464;fill-opacity:1;stroke:none;stroke-width:0.0957688;stroke-miterlimit:4;stroke-dasharray:none;stroke-opacity:1;stop-color:#000000"
       inkscape:transform-center-x="-4.16005"
       inkscape:transform-center-y="-0.78605057"
       d="m 36.085512,84.853978 v 1.396863 l -0.0062,0.0017 a 1.5892113,3.1792252 75.638727 0 1 0.0078,0.05092 1.5892113,3.1792252 75.638727 0 1 -3.104722,2.214179 1.5892113,3.1792252 75.638727 0 1 -3.105237,-1.040468 v -1.443985 a 2.1291848,4.2594451 75.638729 0 0 -1.055232,1.643304 2.1291848,4.2594451 75.638729 0 0 4.159954,1.394153 2.1291848,4.2594451 75.638729 0 0 4.159953,-2.966503 2.1291848,4.2594451 75.638729 0 0 -1.056267,-1.25008 z" />
    <path
       id="path846-1-3-3-9"
       style="fill:#646464;fill-opacity:1;stroke:none;stroke-width:0.0935445;stroke-miterlimit:4;stroke-dasharray:none;stroke-opacity:1;stop-color:#000000"
       d="m 32.875889,82.707337 a 3.1049999,1.5525001 0 0 0 -2.089795,0.454236 3.1049999,1.5525001 0 0 0 0,2.195216 3.1049999,1.5525001 0 0 0 4.390948,0 3.1049999,1.5525001 0 0 0 0,-2.195216 3.1049999,1.5525001 0 0 0 -2.301153,-0.454236 z m 0.105937,0.469222 a 2.1649999,1.0825 0 0 1 2.165241,1.082622 2.1649999,1.0825 0 0 1 -2.165241,1.082622 2.1649999,1.0825 0 0 1 -2.164726,-1.082622 2.1649999,1.0825 0 0 1 2.164726,-1.082622 z" />
    <path
       id="path2533-1-59"
       style="fill:#c8c8c8;fill-opacity:1;stroke:none;stroke-width:0.0935448;stroke-miterlimit:4;stroke-dasharray:none;stroke-opacity:1;stop-color:#000000"
       inkscape:transform-center-x="-4.160001"
       inkscape:transform-center-y="-0.75000408"
       d="m 36.085513,84.853978 v 1.332735 l -0.0062,0.0015 a 1.5203394,3.1706817 76.659074 0 1 0.0078,0.04858 1.5203394,3.1706817 76.659074 0 1 -3.104721,2.112531 1.5203394,3.1706817 76.659074 0 1 -3.105238,-0.992704 v -1.377693 a 2.036912,4.2479986 76.659075 0 0 -1.055232,1.567863 2.036912,4.2479986 76.659075 0 0 4.159954,1.33015 2.036912,4.2479986 76.659075 0 0 4.159954,-2.830317 2.036912,4.2479986 76.659075 0 0 -1.056267,-1.192691 z" />
    <path
       id="path846-0-4-3-0"
       style="fill:#969696;fill-opacity:1;stroke:none;stroke-width:0.0935445;stroke-miterlimit:4;stroke-dasharray:none;stroke-opacity:1;stop-color:#000000"
       d="m 35.784755,82.74713 -0.190169,0.268716 -1.794206,1.041797 -2.411737,0.01757 0.0026,2.040702 c 1.219933,0.366742 2.782375,0.271751 3.790985,-0.230478 0.579522,-0.290973 0.90488,-0.684895 0.904854,-1.095539 l -0.0021,-2.042769 z M 33.018,82.70837 c -0.833549,-0.0048 -1.63598,0.158105 -2.226739,0.45217 -1.008414,0.504212 -1.200235,1.287055 -0.465087,1.898074 l 0.694531,-0.347266 c -0.379526,-0.411665 -0.205878,-0.897969 0.435115,-1.218531 0.641271,-0.320204 1.613564,-0.406812 2.436545,-0.21704 l 0.690396,-0.345199 C 34.109935,82.788298 33.569812,82.711598 33.018,82.70837 Z"
       sodipodi:nodetypes="ccccccccccccccccc" />
    <path
       id="path4644-4"
       style="fill:#3c3c3c;fill-opacity:1;stroke:none;stroke-width:0.132292;stroke-miterlimit:4;stroke-dasharray:none;stroke-opacity:1;stop-color:#000000"
       d="m 33.535797,81.420078 -2.000911,0.264583 -1.132748,1.062469 0.473874,1.789554 c 0.09299,-0.194471 0.291889,-0.372266 0.574641,-0.513664 0.641641,-0.320662 1.61508,-0.4073 2.438612,-0.217041 l 0.0031,-0.0011 -0.0021,-2.040702 z"
       sodipodi:nodetypes="ccccccccc" />
    <ellipse
       style="fill:#282828;fill-opacity:1;stroke:none;stroke-width:0.0935446;stroke-miterlimit:4;stroke-dasharray:none;stroke-opacity:1;stop-color:#000000"
       id="path950-9-6-0"
       cx="33.185627"
       cy="84.506302"
       rx="2.165"
       ry="1.0825" />
    <path
       id="path20693-5"
       style="fill:#646464;fill-opacity:1;stroke:none;stroke-width:0.0935445;stroke-miterlimit:4;stroke-dasharray:none;stroke-opacity:1;stop-color:#000000"
       d="m 29.877104,84.260732 a 3.1049999,1.5525 0 0 0 0.90899,1.096057 3.1049999,1.5525 0 0 0 1.980758,0.447517 V 85.333017 A 2.1649999,1.0824999 0 0 1 30.8171,84.260732 Z" />
    <path
       style="fill:#969696;fill-opacity:1;stroke:none;stroke-width:0.132292;stroke-miterlimit:4;stroke-dasharray:none;stroke-opacity:1;stop-color:#000000"
       d="m 29.879361,82.747194 -0.0027,1.513488 0.211291,1.318315 0.238149,-0.520382 -0.0024,-1.511112 0.149278,-0.866815 z"
       id="path4833-4" />
    <path
       style="fill:#969696;fill-opacity:1;stroke:none;stroke-width:0.132292;stroke-miterlimit:4;stroke-dasharray:none;stroke-opacity:1;stop-color:#000000"
       d="m 31.388857,84.075336 v 2.404898 h 3.701367 l 0.594728,-2.219552 -0.447945,-0.775862 -1.559227,0.417796 z"
       id="path21031-2" />
    <path
       style="fill:#3c3c3c;fill-opacity:1;stroke:none;stroke-width:0.153;stroke-miterlimit:4;stroke-dasharray:none;stroke-opacity:1;stop-color:#000000"
       d="m 34.950122,82.294705 v 1.653802 l 0.834631,-1.201378 z"
       id="path25137-1" />
    <path
       id="path846-0-4-7"
       style="fill:#c8c8c8;fill-opacity:1;stroke:none;stroke-width:0.0935446;stroke-miterlimit:4;stroke-dasharray:none;stroke-opacity:1;stop-color:#000000"
       d="m 35.179963,83.844946 a 3.1049999,1.5524999 0 0 0 0.460779,-1.895551 l -0.69062,0.34531 a 2.1649999,1.0824999 0 0 1 -0.434835,1.217904 2.1649999,1.0824999 0 0 1 -2.436173,0.217599 l -0.690256,0.345129 a 3.1049999,1.5524999 0 0 0 3.791105,-0.230391 z m -0.599634,-2.425758 a 3.1049999,1.5524999 0 0 0 -3.791468,0.230207 3.1049999,1.5524999 0 0 0 -0.465166,1.89811 l 0.69464,-0.34732 a 2.1649999,1.0824999 0 0 1 0.435201,-1.218452 2.1649999,1.0824999 0 0 1 2.436537,-0.217417 z" />
    <path
       style="fill:#646464;fill-opacity:1;stroke:none;stroke-width:0.132292;stroke-miterlimit:4;stroke-dasharray:none;stroke-opacity:1;stop-color:#000000"
       d="m 30.323694,83.547505 0.0024,1.51111 0.694531,-0.347266 -0.0024,-1.511165 z"
       id="path4392-7" />
    <path
       style="fill:#646464;fill-opacity:1;stroke:none;stroke-width:0.132292;stroke-miterlimit:4;stroke-dasharray:none;stroke-opacity:1;stop-color:#000000"
       d="m 33.890071,81.764314 0.0024,1.511464 0.690395,-0.345199 -0.0024,-1.511393 z"
       id="path4394-1" />
    <path
       id="path24420-0-4-2"
       style="fill:#646464;fill-opacity:1;stroke:none;stroke-width:0.0957688;stroke-miterlimit:4;stroke-dasharray:none;stroke-opacity:1;stop-color:#000000"
       inkscape:transform-center-x="-4.16005"
       inkscape:transform-center-y="-0.78605057"
       d="m 36.085464,83.219743 v 1.396863 l -0.0062,0.0017 a 1.5892113,3.1792252 75.638727 0 1 0.0078,0.05092 1.5892113,3.1792252 75.638727 0 1 -3.104722,2.214179 1.5892113,3.1792252 75.638727 0 1 -3.105237,-1.040468 v -1.443985 a 2.1291848,4.2594451 75.638729 0 0 -1.055232,1.643304 2.1291848,4.2594451 75.638729 0 0 4.159954,1.394153 2.1291848,4.2594451 75.638729 0 0 4.159953,-2.966503 2.1291848,4.2594451 75.638729 0 0 -1.056267,-1.25008 z" />
    <path
       id="path2533-1-5-7-6"
       style="fill:#c8c8c8;fill-opacity:1;stroke:none;stroke-width:0.0935448;stroke-miterlimit:4;stroke-dasharray:none;stroke-opacity:1;stop-color:#000000"
       inkscape:transform-center-x="-4.160001"
       inkscape:transform-center-y="-0.75000408"
       d="m 36.085465,83.219743 v 1.332735 l -0.0062,0.0016 c 0.0031,0.01607 0.0057,0.03227 0.0078,0.04858 3.15e-4,0.857422 -1.389763,1.803267 -3.104721,2.112532 -1.714973,0.309257 -3.105288,-0.13521 -3.105238,-0.992705 v -1.377692 c -0.67655,0.501296 -1.051921,1.059021 -1.055232,1.567862 -1.6e-4,1.148829 1.862354,1.74437 4.159954,1.330151 2.297739,-0.41427 4.16031,-1.681512 4.159953,-2.830317 -9e-4,-0.510049 -0.376822,-0.934524 -1.056267,-1.192691 z"
       sodipodi:nodetypes="ccccsccccccc" />
    <text
       xml:space="preserve"
       style="font-size:3.50942px;line-height:1.25;font-family:Ste;-inkscape-font-specification:Ste;stroke-width:0.0658016"
       x="53.286621"
       y="73.302933"
       id="text29255"><tspan
         sodipodi:role="line"
         style="font-style:normal;font-variant:normal;font-weight:bold;font-stretch:normal;font-family:sans-serif;-inkscape-font-specification:sans-serif;stroke-width:0.0658016"
         x="53.286621"
         y="73.302933"
         id="tspan30709">Threaded Inserts</tspan></text>
    <text
       xml:space="preserve"
       style="font-size:3.50942px;line-height:1.25;font-family:Ste;-inkscape-font-specification:Ste;stroke-width:0.0658016"
       x="65.672928"
       y="77.725876"
       id="text29255-4"><tspan
         sodipodi:role="line"
         style="font-style:normal;font-variant:normal;font-weight:normal;font-stretch:normal;font-family:sans-serif;-inkscape-font-specification:sans-serif;stroke-width:0.0658016"
         x="65.672928"
         y="77.725876"
         id="tspan30709-7">Thread: 8-32</tspan><tspan
         sodipodi:role="line"
         style="font-style:normal;font-variant:normal;font-weight:normal;font-stretch:normal;font-family:sans-serif;-inkscape-font-specification:sans-serif;stroke-width:0.0658016"
         x="65.672928"
         y="82.159859"
         id="tspan40136">Drill: 17/64</tspan></text>
    <rect
       style="fill:none;fill-opacity:1;stroke:#000000;stroke-width:0.152585;stroke-miterlimit:4;stroke-dasharray:none;stroke-opacity:1;stop-color:#000000"
       id="rect43588"
       width="40"
       height="24"
       x="51.851456"
       y="69.578262" />
    <path
       style="fill:#c8c8c8;fill-opacity:1;stroke:#000000;stroke-width:0.129004;stroke-miterlimit:4;stroke-dasharray:none;stroke-opacity:1;stop-color:#000000"
       d="M 63.533674,75.792884 V 91.588721"
       id="path66760-1"
       sodipodi:nodetypes="cc" />
    <path
       style="fill:#ffc832;fill-opacity:1;stroke:#000000;stroke-width:0.132292;stroke-miterlimit:4;stroke-dasharray:none;stroke-opacity:1;stop-color:#000000"
       d="m 87.112789,70.107429 h 4.2095 v 4.2095 z"
       id="path13761-3-061-7-1-9-6-7" />
    <path
       id="path1000"
       style="fill:none;fill-opacity:1;stroke:#000000;stroke-width:0.37795276;stroke-miterlimit:4;stroke-dasharray:none;stroke-opacity:1;stop-color:#000000"
       d="M 217.21289 287.48438 A 11.735433 5.8677162 0 0 0 208.79492 289.19336 A 11.735433 5.8677162 0 0 0 205.36133 293.3418 L 205.35742 293.3418 L 205.34766 299.0625 L 205.34961 299.08008 L 205.34961 299.38086 C 202.79257 301.27552 201.37384 303.38346 201.36133 305.30664 C 201.36131 305.41105 201.36499 305.51327 201.37305 305.61523 A 8.0473126 16.09869 75.638729 0 0 201.36133 305.79688 A 8.0473126 16.09869 75.638729 0 0 202.39453 308.53125 A 7.698565 16.055428 76.659075 0 0 201.36133 311.48242 A 7.698565 16.055428 76.659075 0 0 201.37695 311.73242 A 8.0473126 16.09869 75.638729 0 0 201.36133 311.97266 A 8.0473126 16.09869 75.638729 0 0 201.9375 314.07617 A 7.698565 16.055428 76.659075 0 0 201.36133 316.25977 A 7.698565 16.055428 76.659075 0 0 201.37695 316.50977 A 8.0473126 16.09869 75.638729 0 0 201.36133 316.75 A 8.0473126 16.09869 75.638729 0 0 202.34961 319.42969 A 7.698565 16.055428 76.659075 0 0 201.36133 322.31445 A 7.698565 16.055428 76.659075 0 0 201.37695 322.5625 A 8.0473126 16.09869 75.638729 0 0 201.36133 322.80469 A 8.0473126 16.09869 75.638729 0 0 205.34961 327.5293 L 205.34961 329.625 C 205.35019 332.86524 210.6035 335.4919 217.08398 335.49219 C 223.56522 335.49244 228.81973 332.86562 228.82031 329.625 L 228.82031 323.09766 A 8.0473126 16.09869 75.638729 0 0 232.80664 316.86133 A 8.0473126 16.09869 75.638729 0 0 232.80273 316.80664 A 7.698565 16.055428 76.659075 0 0 232.80664 316.64453 A 7.698565 16.055428 76.659075 0 0 231.73242 314.00195 A 8.0473126 16.09869 75.638729 0 0 232.80664 310.80664 A 8.0473126 16.09869 75.638729 0 0 232.80273 310.75195 A 7.698565 16.055428 76.659075 0 0 232.80664 310.58984 A 7.698565 16.055428 76.659075 0 0 232.1582 308.49219 A 8.0473126 16.09869 75.638729 0 0 232.80664 306.03125 A 8.0473126 16.09869 75.638729 0 0 232.80273 305.97656 A 7.698565 16.055428 76.659075 0 0 232.80664 305.8125 A 7.698565 16.055428 76.659075 0 0 231.6875 303.11914 A 8.0473126 16.09869 75.638729 0 0 232.80664 299.85352 A 8.0473126 16.09869 75.638729 0 0 232.80273 299.78711 C 232.80459 299.73677 232.80666 299.68694 232.80664 299.63672 C 232.80324 297.70897 231.38243 296.10466 228.81445 295.12891 L 228.8125 293.3418 L 228.81055 293.3418 A 11.735433 5.8677162 0 0 0 227.13281 290.32812 L 224.52344 291.63281 L 224.52344 294.51758 A 11.735433 5.8677165 0 0 0 223.13477 294.02734 L 223.125 288.32422 A 11.735433 5.8677162 0 0 0 217.21289 287.48438 z "
       transform="scale(0.26458333)" />
    <rect
       style="fill:#ffffff;stroke:#000000;stroke-width:0.132292;stroke-miterlimit:4;stroke-dasharray:none"
       id="rect846-3-2-8-2-1-3-2"
       width="40"
       height="20"
       x="97.208"
       y="79.061317"
       ry="5" />
    <path
       inkscape:connector-curvature="0"
       id="path1242-78-5-9-8-8-9-7"
       style="fill:#ffffff;stroke:#000000;stroke-width:0.132292;stroke-miterlimit:4;stroke-dasharray:none"
       d="m 97.207991,68.973559 c 0,8.499999 5.000209,8.500249 5.000209,8.500249 h 19.35902 3.28146 19.3595 c 0,0 4.9997,-2.5e-4 4.9997,-8.500249 h -24.3592 -3.28146 z" />
    <text
       xml:space="preserve"
       style="font-size:4.34793997px;line-height:1.25;font-family:Ste;-inkscape-font-specification:Ste;stroke-width:0.08152401"
       x="128.94423"
       y="74.78846"
       id="text3821-6-2-8-2-7-5-4"><tspan
         sodipodi:role="line"
         id="tspan3819-2-9-3-3-9-6-3"
         style="font-style:normal;font-variant:normal;font-weight:bold;font-stretch:normal;font-family:sans-serif;-inkscape-font-specification:sans-serif;text-align:center;text-anchor:middle;stroke-width:0.08152401"
         x="128.94423"
         y="74.78846">Threaded Inserts</tspan></text>
    <text
       xml:space="preserve"
       style="font-size:4.34793997px;line-height:1.25;font-family:Ste;-inkscape-font-specification:Ste;stroke-width:0.08152401"
       x="118.62771"
       y="83.703827"
       id="text8073-7-2-8-5-8-5-2"><tspan
         sodipodi:role="line"
         id="tspan8071-6-0-6-9-4-6-71"
         style="font-style:normal;font-variant:normal;font-weight:bold;font-stretch:normal;font-family:sans-serif;-inkscape-font-specification:sans-serif;text-align:center;text-anchor:middle;stroke-width:0.08152401"
         x="118.62771"
         y="83.703827">Threaded Ins</tspan></text>
    <text
       xml:space="preserve"
       style="font-size:3.24150991px;line-height:1.25;font-family:Ste;-inkscape-font-specification:Ste;stroke-width:0.0607786"
       x="118.63042"
       y="87.534966"
       id="text8160-0-0-7-4-4-6-2"><tspan
         sodipodi:role="line"
         id="tspan8158-8-5-1-9-8-3-5"
         style="font-style:normal;font-variant:normal;font-weight:normal;font-stretch:normal;font-family:sans-serif;-inkscape-font-specification:sans-serif;text-align:center;text-anchor:middle;stroke-width:0.0607786"
         x="118.63042"
         y="87.534966">8-32</tspan></text>
    <path
       inkscape:connector-curvature="0"
       id="path37237-5-7-1-9-3-4"
       style="color:#000000;fill:#ffc832;fill-opacity:1;stroke:#000000;stroke-width:0.132292;stroke-miterlimit:4;stroke-dasharray:none;stroke-opacity:1"
       d="m 101.17308,80.192418 c -1.720789,0.44811 -2.966219,1.99379 -2.966219,3.8685 v 9.99991 c 0,1.874709 1.24542,3.420389 2.966219,3.86849 z" />
    <path
       inkscape:connector-curvature="0"
       id="path20467-70-6-4-8"
       style="color:#000000;fill:#ffc832;fill-opacity:1;stroke:#000000;stroke-width:0.132292;stroke-miterlimit:4;stroke-dasharray:none;stroke-opacity:1"
       d="m 98.362031,69.973188 c 0.21106,3.17504 1.10484,4.91967 1.994199,5.67563 0.9994,0.84952 1.85156,0.82424 1.85156,0.82424 h 1.54513 v -6.49987 z"
       sodipodi:nodetypes="cscccc" />
    <path
       inkscape:connector-curvature="0"
       id="rect1212-2-9-7"
       style="fill:#969696;fill-opacity:1;stroke:none;stroke-width:0.15255301;stroke-miterlimit:4;stroke-dasharray:none;stroke-opacity:1"
       d="m 118.8387,89.816519 a 2.0796238,1.0398119 0 0 1 2.07944,1.040075 2.0796238,1.0398119 0 0 1 0,0.0011 v 5.415944 c -10e-5,0.574205 -0.93104,1.039672 -2.07944,1.039719 -1.14853,4.8e-5 -2.07968,-0.465455 -2.07979,-1.039719 v -5.415956 a 2.0796238,1.0398119 0 0 1 0,-0.0011 2.0796238,1.0398119 0 0 1 2.07979,-1.040063 z" />
    <path
       inkscape:connector-curvature="0"
       id="path24420-0-5-3-7"
       style="fill:#646464;fill-opacity:1;stroke:none;stroke-width:0.09576882;stroke-miterlimit:4;stroke-dasharray:none;stroke-opacity:1"
       inkscape:transform-center-x="2.7869218"
       inkscape:transform-center-y="-0.52656825"
       d="m 116.75999,93.174358 v 0.935562 l 0.004,0.0011 a 2.1293372,1.0643998 14.361273 0 0 -0.006,0.03408 2.1293372,1.0643998 14.361273 0 0 2.07943,1.482987 2.1293372,1.0643998 14.361273 0 0 2.07978,-0.696869 v -0.967074 a 2.8528319,1.4260558 14.361271 0 1 0.70676,1.100626 2.8528319,1.4260558 14.361271 0 1 -2.78619,0.933751 2.8528319,1.4260558 14.361271 0 1 -2.7862,-1.986854 2.8528319,1.4260558 14.361271 0 1 0.70745,-0.837262 z" />
    <circle
       style="fill:#3c3c3c;fill-opacity:1;stroke:none;stroke-width:0.158893;stroke-miterlimit:4;stroke-dasharray:none;stroke-opacity:1"
       id="path1054-9-4-1-9-8"
       cx="168.07147"
       cy="-35.204216"
       r="1.3273304"
       transform="matrix(0.89442719,0.44721359,0.89442719,-0.44721359,0,0)" />
    <path
       inkscape:connector-curvature="0"
       id="path2533-1-5-3-4-9"
       style="fill:#c8c8c8;fill-opacity:1;stroke:none;stroke-width:0.0935448;stroke-miterlimit:4;stroke-dasharray:none;stroke-opacity:1"
       inkscape:transform-center-x="2.786889"
       inkscape:transform-center-y="-0.50244003"
       d="m 116.75999,93.174358 v 0.892619 l 0.004,0.0011 a 2.1236151,1.0182718 13.340926 0 0 -0.006,0.03255 2.1236151,1.0182718 13.340926 0 0 2.07943,1.414922 2.1236151,1.0182718 13.340926 0 0 2.07978,-0.664884 V 93.92793 a 2.8451654,1.3642546 13.340925 0 1 0.70676,1.050098 2.8451654,1.3642546 13.340925 0 1 -2.78619,0.890891 2.8451654,1.3642546 13.340925 0 1 -2.7862,-1.895655 2.8451654,1.3642546 13.340925 0 1 0.70745,-0.798815 z" />
    <path
       inkscape:connector-curvature="0"
       id="path24420-0-3-0"
       style="fill:#646464;fill-opacity:1;stroke:none;stroke-width:0.09576882;stroke-miterlimit:4;stroke-dasharray:none;stroke-opacity:1"
       inkscape:transform-center-x="2.7869218"
       inkscape:transform-center-y="-0.52660086"
       d="m 116.75999,92.101469 v 0.935575 l 0.004,0.0011 a 2.1293372,1.0643998 14.361273 0 0 -0.006,0.03408 2.1293372,1.0643998 14.361273 0 0 2.07943,1.482976 2.1293372,1.0643998 14.361273 0 0 2.07978,-0.69687 v -0.967121 a 2.8528319,1.4260558 14.361271 0 1 0.70676,1.100626 2.8528319,1.4260558 14.361271 0 1 -2.78619,0.933751 2.8528319,1.4260558 14.361271 0 1 -2.7862,-1.986866 2.8528319,1.4260558 14.361271 0 1 0.70745,-0.837262 z" />
    <path
       inkscape:connector-curvature="0"
       id="path2533-1-5-1-7"
       style="fill:#c8c8c8;fill-opacity:1;stroke:none;stroke-width:0.0935448;stroke-miterlimit:4;stroke-dasharray:none;stroke-opacity:1"
       inkscape:transform-center-x="2.786889"
       inkscape:transform-center-y="-0.50244963"
       d="m 116.75999,92.101469 v 0.892619 l 0.004,0.0011 a 2.1236151,1.0182718 13.340926 0 0 -0.006,0.03254 2.1236151,1.0182718 13.340926 0 0 2.07943,1.41491 2.1236151,1.0182718 13.340926 0 0 2.07978,-0.664884 v -0.922723 a 2.8451654,1.3642546 13.340925 0 1 0.70676,1.050097 2.8451654,1.3642546 13.340925 0 1 -2.78619,0.890891 2.8451654,1.3642546 13.340925 0 1 -2.7862,-1.895654 2.8451654,1.3642546 13.340925 0 1 0.70745,-0.798827 z" />
    <path
       inkscape:connector-curvature="0"
       id="path24420-1-8"
       style="fill:#646464;fill-opacity:1;stroke:none;stroke-width:0.09576882;stroke-miterlimit:4;stroke-dasharray:none;stroke-opacity:1"
       inkscape:transform-center-x="2.7869168"
       inkscape:transform-center-y="-0.52659805"
       d="m 116.75996,91.254954 v 0.935585 l 0.004,0.0011 a 2.1293372,1.0643998 14.361273 0 0 -0.006,0.03408 2.1293372,1.0643998 14.361273 0 0 2.07942,1.482976 2.1293372,1.0643998 14.361273 0 0 2.0798,-0.696858 v -0.967133 a 2.8528319,1.4260558 14.361271 0 1 0.70675,1.100625 2.8528319,1.4260558 14.361271 0 1 -2.78619,0.933752 2.8528319,1.4260558 14.361271 0 1 -2.78619,-1.986855 2.8528319,1.4260558 14.361271 0 1 0.70743,-0.837261 z" />
    <path
       inkscape:connector-curvature="0"
       id="path846-1-3-3-9-5"
       style="fill:#646464;fill-opacity:1;stroke:none;stroke-width:0.09354451;stroke-miterlimit:4;stroke-dasharray:none;stroke-opacity:1"
       d="m 118.90965,89.817217 a 2.0796238,1.0398119 0 0 1 1.39968,0.304225 2.0796238,1.0398119 0 0 1 0,1.470279 2.0796238,1.0398119 0 0 1 -2.94092,0 2.0796238,1.0398119 0 0 1 0,-1.470279 2.0796238,1.0398119 0 0 1 1.54124,-0.304225 z m -0.071,0.31426 a 1.4500435,0.72502179 0 0 0 -1.45019,0.725117 1.4500435,0.72502179 0 0 0 1.45019,0.725092 1.4500435,0.72502179 0 0 0 1.44987,-0.725092 1.4500435,0.72502179 0 0 0 -1.44987,-0.725117 z" />
    <path
       inkscape:connector-curvature="0"
       id="path2533-1-59-7"
       style="fill:#c8c8c8;fill-opacity:1;stroke:none;stroke-width:0.0935448;stroke-miterlimit:4;stroke-dasharray:none;stroke-opacity:1"
       inkscape:transform-center-x="2.7868905"
       inkscape:transform-center-y="-0.50240328"
       d="m 116.75996,91.254954 v 0.89263 l 0.004,0.0012 a 2.1236151,1.0182718 13.340926 0 0 -0.006,0.03254 2.1236151,1.0182718 13.340926 0 0 2.07942,1.414887 2.1236151,1.0182718 13.340926 0 0 2.0798,-0.664885 v -0.922723 a 2.8451654,1.3642546 13.340925 0 1 0.70675,1.050098 2.8451654,1.3642546 13.340925 0 1 -2.78619,0.890891 2.8451654,1.3642546 13.340925 0 1 -2.78621,-1.895643 2.8451654,1.3642546 13.340925 0 1 0.70745,-0.798827 z" />
    <path
       inkscape:connector-curvature="0"
       id="path846-0-4-3-0-1"
       style="fill:#969696;fill-opacity:1;stroke:none;stroke-width:0.09354451;stroke-miterlimit:4;stroke-dasharray:none;stroke-opacity:1"
       d="m 116.96139,89.843866 0.12736,0.179975 1.2017,0.697757 1.61531,0.01183 -0.002,1.366784 c -0.81707,0.245638 -1.86354,0.18201 -2.53907,-0.154367 -0.38815,-0.194885 -0.60606,-0.45871 -0.60605,-0.733754 l 0.002,-1.36818 z m 1.85308,-0.02603 c 0.55828,-0.0035 1.09572,0.105909 1.49139,0.302841 0.67541,0.337714 0.80388,0.862029 0.3115,1.271276 l -0.46517,-0.232598 c 0.2542,-0.275706 0.13789,-0.601421 -0.29143,-0.816127 -0.4295,-0.214457 -1.0807,-0.272464 -1.63192,-0.145362 l -0.46239,-0.231201 c 0.31668,-0.09526 0.67843,-0.146676 1.04802,-0.148829 z"
       sodipodi:nodetypes="ccccccccccccccccc" />
    <path
       inkscape:connector-curvature="0"
       id="path4644-4-5"
       style="fill:#3c3c3c;fill-opacity:1;stroke:none;stroke-width:0.132292;stroke-miterlimit:4;stroke-dasharray:none;stroke-opacity:1"
       d="m 118.46767,88.955046 1.34015,0.177217 0.75867,0.711603 -0.3174,1.198583 c -0.0622,-0.13025 -0.19549,-0.24933 -0.38487,-0.344044 -0.42975,-0.214765 -1.08172,-0.272796 -1.63329,-0.145363 l -0.002,-6.74e-4 0.002,-1.366784 z"
       sodipodi:nodetypes="ccccccccc" />
    <ellipse
       style="fill:#282828;fill-opacity:1;stroke:none;stroke-width:0.0935446;stroke-miterlimit:4;stroke-dasharray:none;stroke-opacity:1"
       id="path950-9-6-0-5"
       cx="-118.70222"
       cy="91.022087"
       rx="1.4500436"
       ry="0.72502178"
       transform="scale(-1,1)" />
    <path
       inkscape:connector-curvature="0"
       id="path20693-5-1"
       style="fill:#646464;fill-opacity:1;stroke:none;stroke-width:0.09354451;stroke-miterlimit:4;stroke-dasharray:none;stroke-opacity:1"
       d="m 120.91814,90.857623 a 2.0796238,1.0398119 0 0 1 -0.60881,0.734098 2.0796238,1.0398119 0 0 1 -1.32665,0.299741 v -0.315657 a 1.4500435,0.72502172 0 0 0 1.30588,-0.718182 z" />
    <path
       inkscape:connector-curvature="0"
       style="fill:#969696;fill-opacity:1;stroke:none;stroke-width:0.132292;stroke-miterlimit:4;stroke-dasharray:none;stroke-opacity:1"
       d="m 120.91662,89.843913 0.002,1.013675 -0.14152,0.882962 -0.1595,-0.348529 0.002,-1.012089 -0.1,-0.580572 z"
       id="path4833-4-4" />
    <path
       inkscape:connector-curvature="0"
       style="fill:#969696;fill-opacity:1;stroke:none;stroke-width:0.132292;stroke-miterlimit:4;stroke-dasharray:none;stroke-opacity:1"
       d="m 119.90562,90.733455 v 1.610718 h -2.47906 l -0.39833,-1.486585 0.30002,-0.519641 1.04432,0.279824 z"
       id="path21031-2-8" />
    <path
       inkscape:connector-curvature="0"
       style="fill:#3c3c3c;fill-opacity:1;stroke:none;stroke-width:0.15300003;stroke-miterlimit:4;stroke-dasharray:none;stroke-opacity:1"
       d="m 117.52041,89.540848 v 1.107655 l -0.55902,-0.804637 z"
       id="path25137-1-8" />
    <path
       inkscape:connector-curvature="0"
       id="path846-0-4-7-5"
       style="fill:#c8c8c8;fill-opacity:1;stroke:none;stroke-width:0.0935446;stroke-miterlimit:4;stroke-dasharray:none;stroke-opacity:1"
       d="m 117.36646,90.579147 a 2.0796238,1.0398118 0 0 1 -0.30861,-1.269584 l 0.46256,0.231285 a 1.4500435,0.72502172 0 0 0 0.29123,0.815701 1.4500435,0.72502172 0 0 0 1.63166,0.14574 l 0.46232,0.231166 a 2.0796238,1.0398118 0 0 1 -2.53916,-0.154308 z m 0.4016,-1.624693 a 2.0796238,1.0398118 0 0 1 2.53941,0.15419 2.0796238,1.0398118 0 0 1 0.31155,1.271288 l -0.46524,-0.232622 a 1.4500435,0.72502172 0 0 0 -0.29148,-0.81608 1.4500435,0.72502172 0 0 0 -1.63191,-0.145622 z" />
    <path
       inkscape:connector-curvature="0"
       style="fill:#646464;fill-opacity:1;stroke:none;stroke-width:0.132292;stroke-miterlimit:4;stroke-dasharray:none;stroke-opacity:1"
       d="m 120.61902,90.379932 -0.002,1.012089 -0.46518,-0.232587 0.002,-1.012124 z"
       id="path4392-7-8" />
    <path
       inkscape:connector-curvature="0"
       style="fill:#646464;fill-opacity:1;stroke:none;stroke-width:0.132292;stroke-miterlimit:4;stroke-dasharray:none;stroke-opacity:1"
       d="m 118.23039,89.185608 -0.002,1.012326 -0.4624,-0.231202 0.002,-1.012278 z"
       id="path4394-1-1" />
    <path
       inkscape:connector-curvature="0"
       id="path24420-0-4-2-4"
       style="fill:#646464;fill-opacity:1;stroke:none;stroke-width:0.09576882;stroke-miterlimit:4;stroke-dasharray:none;stroke-opacity:1"
       inkscape:transform-center-x="2.7869218"
       inkscape:transform-center-y="-0.52659237"
       d="m 116.75999,90.16041 v 0.935562 l 0.004,0.0011 a 2.1293372,1.0643998 14.361273 0 0 -0.006,0.03408 2.1293372,1.0643998 14.361273 0 0 2.07943,1.483 2.1293372,1.0643998 14.361273 0 0 2.07978,-0.696882 v -0.967122 a 2.8528319,1.4260558 14.361271 0 1 0.70676,1.100626 2.8528319,1.4260558 14.361271 0 1 -2.78619,0.933752 2.8528319,1.4260558 14.361271 0 1 -2.7862,-1.986855 2.8528319,1.4260558 14.361271 0 1 0.70745,-0.837261 z" />
    <path
       inkscape:connector-curvature="0"
       id="path2533-1-5-7-6-4"
       style="fill:#c8c8c8;fill-opacity:1;stroke:none;stroke-width:0.0935448;stroke-miterlimit:4;stroke-dasharray:none;stroke-opacity:1"
       inkscape:transform-center-x="2.786889"
       inkscape:transform-center-y="-0.50239579"
       d="m 116.75999,90.16041 v 0.892618 l 0.004,0.0012 c -0.002,0.01065 -0.004,0.02166 -0.006,0.03255 -2.2e-4,0.574264 0.93081,1.207766 2.07943,1.414898 1.14863,0.207133 2.07982,-0.09053 2.07978,-0.664872 v -0.922735 c 0.45313,0.33575 0.70455,0.709295 0.70676,1.050098 1.1e-4,0.769456 -1.24733,1.168325 -2.78619,0.890891 -1.53894,-0.277459 -2.78644,-1.12621 -2.7862,-1.895644 6.1e-4,-0.341619 0.25238,-0.625916 0.70745,-0.798826 z"
       sodipodi:nodetypes="ccccsccccccc" />
    <path
       inkscape:connector-curvature="0"
       id="rect1212-2-9-7-5"
       style="fill:#969696;fill-opacity:1;stroke:none;stroke-width:0.15255302;stroke-miterlimit:4;stroke-dasharray:none;stroke-opacity:1"
       d="m 107.09868,70.662158 a 1.5807165,0.79035822 0 0 1 1.58058,0.790559 1.5807165,0.79035822 0 0 1 0,8.35e-4 v 4.116644 c -8e-5,0.436452 -0.70769,0.790253 -1.58058,0.790288 -0.873,3.6e-5 -1.58076,-0.353791 -1.58084,-0.790288 v -4.116652 a 1.5807165,0.79035822 0 0 1 0,-8.37e-4 1.5807165,0.79035822 0 0 1 1.58084,-0.790549 z" />
    <path
       inkscape:connector-curvature="0"
       id="path24420-0-5-3-7-0"
       style="fill:#646464;fill-opacity:1;stroke:none;stroke-width:0.09576882;stroke-miterlimit:4;stroke-dasharray:none;stroke-opacity:1"
       inkscape:transform-center-x="2.1178089"
       inkscape:transform-center-y="-0.40023997"
       d="m 105.51866,73.214441 v 0.711119 l 0.004,8.36e-4 a 1.6185035,0.80904742 14.361273 0 0 -0.005,0.02591 1.6185035,0.80904742 14.361273 0 0 1.58057,1.127214 1.6185035,0.80904742 14.361273 0 0 1.58084,-0.529687 v -0.735071 a 2.1684299,1.0839412 14.361271 0 1 0.5372,0.836582 2.1684299,1.0839412 14.361271 0 1 -2.11777,0.709742 2.1684299,1.0839412 14.361271 0 1 -2.11779,-1.510203 2.1684299,1.0839412 14.361271 0 1 0.53774,-0.6364 z" />
    <circle
       style="fill:#3c3c3c;fill-opacity:1;stroke:none;stroke-width:0.15889299;stroke-miterlimit:4;stroke-dasharray:none;stroke-opacity:1"
       id="path1054-9-4-1-9-8-7"
       cx="139.80052"
       cy="-20.059378"
       r="1.0089002"
       transform="matrix(0.89442718,0.44721362,0.89442718,-0.44721362,0,0)" />
    <path
       inkscape:connector-curvature="0"
       id="path2533-1-5-3-4-9-3"
       style="fill:#c8c8c8;fill-opacity:1;stroke:none;stroke-width:0.0935448;stroke-miterlimit:4;stroke-dasharray:none;stroke-opacity:1"
       inkscape:transform-center-x="2.117784"
       inkscape:transform-center-y="-0.38190328"
       d="m 105.51866,73.214441 v 0.678478 l 0.004,8.36e-4 a 1.6141542,0.77398564 13.340926 0 0 -0.005,0.02474 1.6141542,0.77398564 13.340926 0 0 1.58057,1.075479 1.6141542,0.77398564 13.340926 0 0 1.58084,-0.505377 v -0.701376 a 2.1626026,1.0369662 13.340925 0 1 0.5372,0.798176 2.1626026,1.0369662 13.340925 0 1 -2.11777,0.677165 2.1626026,1.0369662 13.340925 0 1 -2.11779,-1.440883 2.1626026,1.0369662 13.340925 0 1 0.53774,-0.607177 z" />
    <path
       inkscape:connector-curvature="0"
       id="path24420-0-3-0-1"
       style="fill:#646464;fill-opacity:1;stroke:none;stroke-width:0.09576882;stroke-miterlimit:4;stroke-dasharray:none;stroke-opacity:1"
       inkscape:transform-center-x="2.1178089"
       inkscape:transform-center-y="-0.40026585"
       d="m 105.51866,72.398942 v 0.711129 l 0.004,8.35e-4 a 1.6185035,0.80904742 14.361273 0 0 -0.005,0.0259 1.6185035,0.80904742 14.361273 0 0 1.58057,1.127208 1.6185035,0.80904742 14.361273 0 0 1.58084,-0.52969 v -0.735101 a 2.1684299,1.0839412 14.361271 0 1 0.5372,0.836574 2.1684299,1.0839412 14.361271 0 1 -2.11777,0.709742 2.1684299,1.0839412 14.361271 0 1 -2.11779,-1.510211 2.1684299,1.0839412 14.361271 0 1 0.53774,-0.6364 z" />
    <path
       inkscape:connector-curvature="0"
       id="path2533-1-5-1-7-9"
       style="fill:#c8c8c8;fill-opacity:1;stroke:none;stroke-width:0.0935448;stroke-miterlimit:4;stroke-dasharray:none;stroke-opacity:1"
       inkscape:transform-center-x="2.117784"
       inkscape:transform-center-y="-0.38190727"
       d="m 105.51866,72.398942 v 0.678478 l 0.004,8.35e-4 a 1.6141542,0.77398564 13.340926 0 0 -0.005,0.02474 1.6141542,0.77398564 13.340926 0 0 1.58057,1.07547 1.6141542,0.77398564 13.340926 0 0 1.58084,-0.505377 v -0.701367 a 2.1626026,1.0369662 13.340925 0 1 0.5372,0.798175 2.1626026,1.0369662 13.340925 0 1 -2.11777,0.677164 2.1626026,1.0369662 13.340925 0 1 -2.11779,-1.440881 2.1626026,1.0369662 13.340925 0 1 0.53774,-0.607186 z" />
    <path
       inkscape:connector-curvature="0"
       id="path24420-1-8-6"
       style="fill:#646464;fill-opacity:1;stroke:none;stroke-width:0.09576882;stroke-miterlimit:4;stroke-dasharray:none;stroke-opacity:1"
       inkscape:transform-center-x="2.1178011"
       inkscape:transform-center-y="-0.4002666"
       d="m 105.51864,71.755508 v 0.711135 l 0.004,8.36e-4 a 1.6185035,0.80904742 14.361273 0 0 -0.005,0.0259 1.6185035,0.80904742 14.361273 0 0 1.58056,1.127206 1.6185035,0.80904742 14.361273 0 0 1.58086,-0.529679 V 72.35579 a 2.1684299,1.0839412 14.361271 0 1 0.53719,0.836581 2.1684299,1.0839412 14.361271 0 1 -2.11778,0.709744 2.1684299,1.0839412 14.361271 0 1 -2.11777,-1.510203 2.1684299,1.0839412 14.361271 0 1 0.53771,-0.6364 z" />
    <path
       inkscape:connector-curvature="0"
       id="path846-1-3-3-9-5-3"
       style="fill:#646464;fill-opacity:1;stroke:none;stroke-width:0.09354451;stroke-miterlimit:4;stroke-dasharray:none;stroke-opacity:1"
       d="m 107.15261,70.662688 a 1.5807165,0.79035822 0 0 1 1.0639,0.231241 1.5807165,0.79035822 0 0 1 0,1.117555 1.5807165,0.79035822 0 0 1 -2.23539,0 1.5807165,0.79035822 0 0 1 0,-1.117555 1.5807165,0.79035822 0 0 1 1.17149,-0.231241 z m -0.054,0.238868 a 1.1021741,0.55108711 0 0 0 -1.10228,0.551161 1.1021741,0.55108711 0 0 0 1.10228,0.551139 1.1021741,0.55108711 0 0 0 1.10204,-0.551139 1.1021741,0.55108711 0 0 0 -1.10204,-0.551161 z" />
    <path
       inkscape:connector-curvature="0"
       id="path2533-1-59-7-8"
       style="fill:#c8c8c8;fill-opacity:1;stroke:none;stroke-width:0.0935448;stroke-miterlimit:4;stroke-dasharray:none;stroke-opacity:1"
       inkscape:transform-center-x="2.1177835"
       inkscape:transform-center-y="-0.38186993"
       d="m 105.51864,71.755508 v 0.678486 l 0.004,9.13e-4 a 1.6141542,0.77398564 13.340926 0 0 -0.005,0.02474 1.6141542,0.77398564 13.340926 0 0 1.58056,1.075452 1.6141542,0.77398564 13.340926 0 0 1.58086,-0.505377 V 72.32837 a 2.1626026,1.0369662 13.340925 0 1 0.53719,0.798176 2.1626026,1.0369662 13.340925 0 1 -2.11778,0.677165 2.1626026,1.0369662 13.340925 0 1 -2.11779,-1.440873 2.1626026,1.0369662 13.340925 0 1 0.53773,-0.607187 z" />
    <path
       inkscape:connector-curvature="0"
       id="path846-0-4-3-0-1-7"
       style="fill:#969696;fill-opacity:1;stroke:none;stroke-width:0.09354451;stroke-miterlimit:4;stroke-dasharray:none;stroke-opacity:1"
       d="m 105.67175,70.682944 0.0968,0.136799 0.9134,0.530363 1.22781,0.0089 -0.001,1.038889 c -0.62105,0.186707 -1.41647,0.138346 -1.92994,-0.117336 -0.29502,-0.148133 -0.46067,-0.348665 -0.46066,-0.557725 l 0.001,-1.03995 z m 1.40852,-0.01978 c 0.42434,-0.0026 0.83284,0.0805 1.13359,0.230188 0.51338,0.256696 0.61103,0.655226 0.23678,0.966293 l -0.35358,-0.176797 c 0.19322,-0.209563 0.10486,-0.457138 -0.22152,-0.620335 -0.32646,-0.163008 -0.82143,-0.2071 -1.24042,-0.110484 l -0.35146,-0.175736 c 0.24072,-0.0724 0.51568,-0.111485 0.79661,-0.113129 z"
       sodipodi:nodetypes="ccccccccccccccccc" />
    <path
       inkscape:connector-curvature="0"
       id="path4644-4-5-6"
       style="fill:#3c3c3c;fill-opacity:1;stroke:none;stroke-width:0.132292;stroke-miterlimit:4;stroke-dasharray:none;stroke-opacity:1"
       d="m 106.81666,70.007354 1.01864,0.134702 0.57667,0.540888 -0.24126,0.91104 c -0.0473,-0.099 -0.14859,-0.189515 -0.29253,-0.261507 -0.32665,-0.163242 -0.82222,-0.207351 -1.24146,-0.110496 l -10e-4,-5.13e-4 10e-4,-1.038889 z"
       sodipodi:nodetypes="ccccccccc" />
    <ellipse
       style="fill:#282828;fill-opacity:1;stroke:none;stroke-width:0.09354461;stroke-miterlimit:4;stroke-dasharray:none;stroke-opacity:1"
       id="path950-9-6-0-5-6"
       cx="-106.99495"
       cy="71.578514"
       rx="1.1021742"
       ry="0.55108708"
       transform="scale(-1,1)" />
    <path
       inkscape:connector-curvature="0"
       id="path20693-5-1-3"
       style="fill:#646464;fill-opacity:1;stroke:none;stroke-width:0.09354451;stroke-miterlimit:4;stroke-dasharray:none;stroke-opacity:1"
       d="m 108.67926,71.453498 a 1.5807165,0.79035822 0 0 1 -0.46275,0.557986 1.5807165,0.79035822 0 0 1 -1.00839,0.227832 v -0.239929 a 1.1021741,0.55108705 0 0 0 0.9926,-0.545889 z" />
    <path
       inkscape:connector-curvature="0"
       style="fill:#969696;fill-opacity:1;stroke:none;stroke-width:0.132292;stroke-miterlimit:4;stroke-dasharray:none;stroke-opacity:1"
       d="m 108.6781,70.68298 0.001,0.770492 -0.1076,0.671135 -0.12123,-0.264914 10e-4,-0.769286 -0.076,-0.441292 z"
       id="path4833-4-4-2" />
    <path
       inkscape:connector-curvature="0"
       style="fill:#969696;fill-opacity:1;stroke:none;stroke-width:0.132292;stroke-miterlimit:4;stroke-dasharray:none;stroke-opacity:1"
       d="m 107.90965,71.359118 v 1.224302 h -1.88433 l -0.30278,-1.129948 0.22805,-0.394978 0.79379,0.212693 z"
       id="path21031-2-8-4" />
    <path
       inkscape:connector-curvature="0"
       style="fill:#3c3c3c;fill-opacity:1;stroke:none;stroke-width:0.15300003;stroke-miterlimit:4;stroke-dasharray:none;stroke-opacity:1"
       d="m 106.09666,70.45262 v 0.841926 l -0.42491,-0.611602 z"
       id="path25137-1-8-5" />
    <path
       inkscape:connector-curvature="0"
       id="path846-0-4-7-5-5"
       style="fill:#c8c8c8;fill-opacity:1;stroke:none;stroke-width:0.09354461;stroke-miterlimit:4;stroke-dasharray:none;stroke-opacity:1"
       d="m 105.97963,71.241829 a 1.5807165,0.79035814 0 0 1 -0.23456,-0.965007 l 0.35159,0.175798 a 1.1021741,0.55108705 0 0 0 0.22136,0.620013 1.1021741,0.55108705 0 0 0 1.24022,0.110782 l 0.35141,0.175708 a 1.5807165,0.79035814 0 0 1 -1.93002,-0.117288 z m 0.30526,-1.234925 a 1.5807165,0.79035814 0 0 1 1.9302,0.117205 1.5807165,0.79035814 0 0 1 0.2368,0.966302 l -0.35363,-0.176815 a 1.1021741,0.55108705 0 0 0 -0.22155,-0.620301 1.1021741,0.55108705 0 0 0 -1.24041,-0.110686 z" />
    <path
       inkscape:connector-curvature="0"
       style="fill:#646464;fill-opacity:1;stroke:none;stroke-width:0.132292;stroke-miterlimit:4;stroke-dasharray:none;stroke-opacity:1"
       d="m 108.45189,71.090407 -0.001,0.769286 -0.35358,-0.176789 0.001,-0.769312 z"
       id="path4392-7-8-0" />
    <path
       inkscape:connector-curvature="0"
       style="fill:#646464;fill-opacity:1;stroke:none;stroke-width:0.132292;stroke-miterlimit:4;stroke-dasharray:none;stroke-opacity:1"
       d="m 106.6363,70.182604 -0.001,0.769466 -0.35147,-0.175735 0.001,-0.769431 z"
       id="path4394-1-1-3" />
    <path
       inkscape:connector-curvature="0"
       id="path24420-0-4-2-4-7"
       style="fill:#646464;fill-opacity:1;stroke:none;stroke-width:0.09576882;stroke-miterlimit:4;stroke-dasharray:none;stroke-opacity:1"
       inkscape:transform-center-x="2.1178089"
       inkscape:transform-center-y="-0.40026463"
       d="m 105.51866,70.923548 v 0.711118 l 0.004,8.37e-4 a 1.6185035,0.80904742 14.361273 0 0 -0.005,0.0259 1.6185035,0.80904742 14.361273 0 0 1.58057,1.127224 1.6185035,0.80904742 14.361273 0 0 1.58084,-0.529698 v -0.735107 a 2.1684299,1.0839412 14.361271 0 1 0.5372,0.836583 2.1684299,1.0839412 14.361271 0 1 -2.11777,0.709742 2.1684299,1.0839412 14.361271 0 1 -2.11779,-1.510203 2.1684299,1.0839412 14.361271 0 1 0.53774,-0.636399 z" />
    <path
       inkscape:connector-curvature="0"
       id="path2533-1-5-7-6-4-0"
       style="fill:#c8c8c8;fill-opacity:1;stroke:none;stroke-width:0.0935448;stroke-miterlimit:4;stroke-dasharray:none;stroke-opacity:1"
       inkscape:transform-center-x="2.117784"
       inkscape:transform-center-y="-0.38186916"
       d="m 105.51866,70.923548 v 0.678477 l 0.004,9.12e-4 c -0.001,0.0081 -0.004,0.01647 -0.005,0.02474 -1.6e-4,0.436497 0.70751,0.918021 1.58057,1.075461 0.87307,0.157441 1.58086,-0.06882 1.58084,-0.505368 v -0.701368 c 0.34441,0.255203 0.53552,0.539133 0.5372,0.798177 9e-5,0.584861 -0.94809,0.88804 -2.11777,0.677163 -1.16975,-0.210896 -2.11797,-0.856029 -2.11779,-1.440873 4.6e-4,-0.259664 0.19183,-0.475758 0.53774,-0.607185 z"
       sodipodi:nodetypes="ccccsccccccc" />
  </g>
</svg>
