<?xml version="1.0" encoding="UTF-8" standalone="no"?>
<!-- Created with Inkscape (http://www.inkscape.org/) -->

<svg
   xmlns:dc="http://purl.org/dc/elements/1.1/"
   xmlns:cc="http://creativecommons.org/ns#"
   xmlns:rdf="http://www.w3.org/1999/02/22-rdf-syntax-ns#"
   xmlns:svg="http://www.w3.org/2000/svg"
   xmlns="http://www.w3.org/2000/svg"
   xmlns:sodipodi="http://sodipodi.sourceforge.net/DTD/sodipodi-0.dtd"
   xmlns:inkscape="http://www.inkscape.org/namespaces/inkscape"
   width="210mm"
   height="297mm"
   viewBox="0 0 210 297"
   version="1.1"
   id="svg2498"
   inkscape:version="0.92.4 (5da689c313, 2019-01-14)"
   sodipodi:docname="Nut.svg">
  <metadata
     id="metadata114">
    <rdf:RDF>
      <cc:Work
         rdf:about="">
        <dc:format>image/svg+xml</dc:format>
        <dc:type
           rdf:resource="http://purl.org/dc/dcmitype/StillImage" />
      </cc:Work>
    </rdf:RDF>
  </metadata>
  <sodipodi:namedview
     id="namedview2500"
     pagecolor="#ffffff"
     bordercolor="#666666"
     borderopacity="1.0"
     inkscape:pageshadow="2"
     inkscape:pageopacity="0.0"
     inkscape:pagecheckerboard="0"
     inkscape:document-units="mm"
     showgrid="false"
     inkscape:snap-bbox="true"
     inkscape:bbox-paths="true"
     inkscape:bbox-nodes="true"
     inkscape:snap-bbox-edge-midpoints="true"
     inkscape:snap-bbox-midpoints="true"
     inkscape:object-paths="true"
     inkscape:snap-intersection-paths="true"
     inkscape:snap-smooth-nodes="true"
     inkscape:snap-midpoints="true"
     inkscape:snap-object-midpoints="true"
     inkscape:snap-center="true"
     showguides="true"
     inkscape:guide-bbox="true"
     inkscape:snap-global="true"
     inkscape:zoom="2"
     inkscape:cx="241.04395"
     inkscape:cy="952.69101"
     inkscape:window-width="2560"
     inkscape:window-height="1017"
     inkscape:window-x="-8"
     inkscape:window-y="-8"
     inkscape:window-maximized="1"
     inkscape:current-layer="layer1">
    <sodipodi:guide
       position="46.205125,246.15867"
       orientation="0,-1"
       id="guide22420"
       inkscape:locked="false" />
    <sodipodi:guide
       position="61.954874,251.82887"
       orientation="1,0"
       id="guide43291"
       inkscape:locked="false" />
  </sodipodi:namedview>
  <defs
     id="defs2495" />
  <g
     inkscape:label="Layer 1"
     inkscape:groupmode="layer"
     id="layer1">
    <path
       id="path21611"
       style="fill:#969696;fill-opacity:1;stroke:none;stroke-width:0.1;stroke-opacity:1;stop-color:#000000"
       d="m 38.990384,50.49304 c -0.611799,0.353174 -0.613397,1.150319 -0.613397,1.150319 v 1.250053 c -3e-6,0.400002 1.08417,0.399976 1.08417,0.399976 h 3.358967 3.35897 c 0,0 1.08417,2.6e-5 1.08417,-0.399976 v -1.250053 c 0,0 -0.0017,-0.797145 -0.613399,-1.150319 -0.306729,-2e-6 -1.99154,0 -3.829741,0 -1.8382,0 -3.523009,-2e-6 -3.82974,0 z" />
    <path
       id="path5548"
       style="fill:none;stroke:#000000;stroke-width:0.1;stop-color:#000000"
       d="m 22.251431,18.81359 -1.428773,2.47455 c -0.423074,0.732738 -0.423074,0.732738 -2.5e-5,1.465433 l 1.428904,2.474776 c 0.422844,0.73234 0.422844,0.73234 1.26872,0.73234 l 2.856613,2.36e-4 c 0.846588,-2.36e-4 0.846588,-2.36e-4 1.26949,-0.732679 l 1.428752,-2.474514 c 0.42314,-0.732854 0.42314,-0.732854 -2.4e-5,-1.465751 l -1.428623,-2.474289 c -0.423007,-0.732625 -0.423007,-0.732625 -1.269211,-0.732625 h -2.856735 c -0.846138,0 -0.846138,0 -1.269088,0.732523 z"
       sodipodi:nodetypes="ccccccccccccc" />
    <circle
       style="fill:none;stroke:#000000;stroke-width:0.1;stop-color:#000000"
       id="path7659"
       cx="24.948908"
       cy="22.020996"
       r="2.615" />
    <circle
       style="fill:none;stroke:#000000;stroke-width:0.1;stop-color:#000000"
       id="circle7741"
       cx="24.948908"
       cy="22.020996"
       r="3.8299999" />
    <circle
       style="fill:none;stroke:#000000;stroke-width:0.1;stop-color:#000000"
       id="circle7743"
       cx="24.948908"
       cy="22.020996"
       r="1.4" />
    <rect
       style="fill:none;stroke:#000000;stroke-width:0.1;stop-color:#000000"
       id="rect7767"
       width="7.6599998"
       height="1.6"
       x="21.118563"
       y="27.019142" />
    <rect
       style="fill:none;stroke:#000000;stroke-width:0.1;stop-color:#000000"
       id="rect7767-7"
       width="8.8870001"
       height="2.8"
       x="20.50506"
       y="28.619143" />
    <path
       sodipodi:type="star"
       style="fill:none;stroke:#000000;stroke-width:0.327317;stop-color:#000000"
       id="path7893"
       inkscape:flatsided="true"
       sodipodi:sides="6"
       sodipodi:cx="107.88374"
       sodipodi:cy="83.228943"
       sodipodi:r1="14.891054"
       sodipodi:r2="12.896031"
       sodipodi:arg1="-1.5708016"
       sodipodi:arg2="-1.0472028"
       inkscape:rounded="0"
       inkscape:randomized="0"
       d="m 107.88366,68.337889 12.89608,7.445459 7e-5,14.891054 -12.89599,7.445595 -12.896069,-7.445459 -7.8e-5,-14.891054 z"
       transform="matrix(0.2645832,0.15275717,-0.15275717,0.2645832,9.1185003,-16.480005)" />
    <path
       id="path5548-5"
       style="fill:#969696;stroke:#000000;stroke-width:0.1;stop-color:#000000;fill-opacity:1"
       d="m 29.647816,39.245412 -1.428773,2.47455 c -0.423074,0.732738 -0.423074,0.732738 -2.5e-5,1.465433 l 1.428904,2.474776 c 0.422844,0.73234 0.422844,0.73234 1.26872,0.73234 l 2.856613,2.36e-4 c 0.846588,-2.36e-4 0.846588,-2.36e-4 1.26949,-0.732679 l 1.428752,-2.474514 c 0.42314,-0.732854 0.42314,-0.732854 -2.4e-5,-1.465751 L 35.04285,39.245514 c -0.423007,-0.732625 -0.423007,-0.732625 -1.269211,-0.732625 h -2.856735 c -0.846138,0 -0.846138,0 -1.269088,0.732523 z"
       sodipodi:nodetypes="ccccccccccccc" />
    <circle
       style="fill:#b4b4b4;stroke:#000000;stroke-width:0.1;stop-color:#000000;fill-opacity:1"
       id="circle7741-9"
       cx="32.345291"
       cy="42.452816"
       r="3.8299999" />
    <circle
       style="fill:#ffffff;stroke:#000000;stroke-width:0.1;stop-color:#000000;fill-opacity:1"
       id="path7659-4"
       cx="32.345291"
       cy="42.452816"
       r="2.615" />
    <circle
       style="fill:none;stroke:#000000;stroke-width:0.1;stop-color:#000000"
       id="circle7743-2"
       cx="32.345291"
       cy="42.452816"
       r="1.4" />
    <rect
       style="fill:none;stroke:#000000;stroke-width:0.1;stop-color:#000000"
       id="rect7997"
       width="1"
       height="1"
       x="27.778563"
       y="27.019142" />
    <rect
       style="fill:none;stroke:#000000;stroke-width:0.1;stop-color:#000000"
       id="rect7997-8"
       width="1"
       height="1"
       x="21.118563"
       y="27.019142" />
    <rect
       style="fill:none;stroke:#000000;stroke-width:0.1;stop-color:#000000"
       id="rect8123"
       width="5.23"
       height="0.5"
       x="22.333563"
       y="27.019142" />
    <rect
       style="fill:none;stroke:#000000;stroke-width:0.1;stop-color:#000000"
       id="rect8227"
       width="8.8870001"
       height="1.15"
       x="20.50506"
       y="28.619143" />
    <rect
       style="fill:none;stroke:#000000;stroke-width:0.1;stop-color:#000000"
       id="rect8227-8"
       width="8.8870001"
       height="0.40000001"
       x="20.50506"
       y="31.019144" />
    <path
       id="path8331"
       style="fill:none;stroke:#000000;stroke-width:0.1;stop-color:#000000"
       d="m 36.430098,18.81359 -1.428773,2.47455 c -0.423074,0.732738 -0.423074,0.732738 -2.5e-5,1.465433 l 1.428904,2.474776 c 0.422844,0.73234 0.422844,0.73234 1.268719,0.73234 l 2.856614,2.36e-4 c 0.846587,-2.36e-4 0.846587,-2.36e-4 1.269489,-0.732679 l 1.428753,-2.474514 c 0.42314,-0.732854 0.42314,-0.732854 -2.4e-5,-1.465751 l -1.428623,-2.474289 c -0.423008,-0.732625 -0.423008,-0.732625 -1.269211,-0.732625 h -2.856736 c -0.846137,0 -0.846137,0 -1.269087,0.732523 z"
       sodipodi:nodetypes="ccccccccccccc" />
    <circle
       style="fill:none;stroke:#000000;stroke-width:0.1;stop-color:#000000"
       id="circle8333"
       cx="39.127575"
       cy="22.020996"
       r="2.615" />
    <circle
       style="fill:none;stroke:#000000;stroke-width:0.1;stop-color:#000000"
       id="circle8335"
       cx="39.127575"
       cy="22.020996"
       r="3.8299999" />
    <circle
       style="fill:none;stroke:#000000;stroke-width:0.1;stop-color:#000000"
       id="circle8337"
       cx="39.127575"
       cy="22.020996"
       r="1.4" />
    <rect
       style="fill:none;stroke:#000000;stroke-width:0.1;stop-color:#000000"
       id="rect8339"
       width="7.6599998"
       height="1.6"
       x="35.29723"
       y="27.019142" />
    <rect
       style="fill:none;stroke:#000000;stroke-width:0.1;stop-color:#000000"
       id="rect8341"
       width="8.8870001"
       height="2.8"
       x="34.683727"
       y="28.619143" />
    <path
       sodipodi:type="star"
       style="fill:none;stroke:#000000;stroke-width:0.327317;stop-color:#000000"
       id="path8343"
       inkscape:flatsided="true"
       sodipodi:sides="6"
       sodipodi:cx="107.88374"
       sodipodi:cy="83.228943"
       sodipodi:r1="14.891054"
       sodipodi:r2="12.896031"
       sodipodi:arg1="-1.5708016"
       sodipodi:arg2="-1.0472028"
       inkscape:rounded="0"
       inkscape:randomized="0"
       d="m 107.88366,68.337889 12.89608,7.445459 7e-5,14.891054 -12.89599,7.445595 -12.896069,-7.445459 -7.8e-5,-14.891054 z"
       transform="matrix(0.2645832,0.15275717,-0.15275717,0.2645832,23.297167,-16.480005)" />
    <rect
       style="fill:none;stroke:#000000;stroke-width:0.1;stop-color:#000000"
       id="rect8345"
       width="1"
       height="1"
       x="41.95723"
       y="27.019142" />
    <rect
       style="fill:none;stroke:#000000;stroke-width:0.1;stop-color:#000000"
       id="rect8347"
       width="1"
       height="1"
       x="35.29723"
       y="27.019142" />
    <rect
       style="fill:none;stroke:#000000;stroke-width:0.1;stop-color:#000000"
       id="rect8349"
       width="5.23"
       height="0.5"
       x="36.51223"
       y="27.019142" />
    <rect
       style="fill:none;stroke:#000000;stroke-width:0.1;stop-color:#000000"
       id="rect8351"
       width="8.8870001"
       height="1.15"
       x="34.683727"
       y="28.619143" />
    <rect
       style="fill:none;stroke:#000000;stroke-width:0.1;stop-color:#000000"
       id="rect8353"
       width="8.8870001"
       height="0.40000001"
       x="34.683727"
       y="31.019144" />
    <path
       style="fill:none;stroke:#000000;stroke-width:0.1;stop-color:#000000"
       d="m 36.852881,25.960925 v 5.458216"
       id="path8388" />
    <path
       style="fill:none;stroke:#000000;stroke-width:0.1;stop-color:#000000"
       d="m 41.402312,25.960901 v 5.45824"
       id="path8390" />
    <path
       id="path8331-0"
       style="fill:#969696;stroke:none;stroke-width:0.377952;stop-color:#000000;fill-opacity:1"
       d="M 196.07227 110.7207 C 192.87427 110.7207 192.87394 110.72117 191.27539 112.10547 L 190.11328 113.11133 L 190.77539 113.29102 L 186.99609 115.89844 C 186.99609 115.89844 186.17806 116.71538 185.51367 118.16602 L 185.50977 118.16602 C 185.49686 118.19424 185.48543 118.2252 185.47266 118.25391 C 185.4703 118.2592 185.4672 118.26422 185.46484 118.26953 C 185.37039 118.48278 185.27951 118.70812 185.19531 118.94727 C 184.90935 119.75946 184.69871 120.7167 184.67773 121.80078 C 184.67661 121.85911 184.67775 121.9175 184.67773 121.97656 L 184.67773 125.36328 L 184.67773 126.625 C 184.67773 126.625 184.81249 128.3125 185.25 128.96875 C 185.6875 129.625 188.57617 132.47266 188.57617 132.47266 L 191.21875 134.75977 C 193.12124 136.07118 194.88348 136.18564 199.95117 136.19531 L 201.4707 136.19531 L 201.47266 136.19531 L 201.47461 136.19531 L 202.99414 136.19531 C 208.06183 136.18564 209.82407 136.07117 211.72656 134.75977 L 214.36914 132.47266 C 214.36914 132.47266 217.25781 129.625 217.69531 128.96875 C 218.13284 128.3125 218.26758 126.625 218.26758 126.625 L 218.26758 125.36328 L 218.26758 121.97656 C 218.26756 121.91749 218.26858 121.8591 218.26758 121.80078 C 218.2466 120.7167 218.03596 119.75946 217.75 118.94727 C 217.66579 118.70812 217.57496 118.48277 217.48047 118.26953 C 217.47745 118.26424 217.47466 118.25882 217.47266 118.25391 C 217.45981 118.22518 217.4484 118.19436 217.43555 118.16602 L 217.43164 118.16602 C 216.76725 116.71538 215.94922 115.89844 215.94922 115.89844 L 212.16992 113.29102 L 212.83203 113.11133 L 211.66992 112.10547 C 210.07137 110.72117 210.07105 110.7207 206.87305 110.7207 L 201.47266 110.7207 L 196.07227 110.7207 z "
       transform="scale(0.26458333)" />
    <circle
       style="fill:none;stroke:#000000;stroke-width:0.1;stop-color:#000000"
       id="circle8333-7"
       cx="53.306244"
       cy="22.020994"
       r="2.615" />
    <rect
       style="fill:#c8c8c8;fill-opacity:1;stroke:none;stroke-width:0.1;stop-color:#000000"
       id="rect17684"
       width="3.6465454"
       height="2.1532133"
       x="51.340435"
       y="29.302757" />
    <path
       id="path15201"
       style="fill:#ffffff;fill-opacity:1;stroke:none;stroke-width:0.377953;stop-color:#000000"
       d="M 202 106.03711 L 193.36328 108.3418 L 189.83984 112.00977 L 191.28125 118.53125 L 203.03125 120.6875 L 211.79102 117.40039 L 212.85938 110.82812 L 202 106.03711 z M 201.4707 111.36328 A 5.2913385 2.6456692 0 0 1 206.76172 114.00977 A 5.2913385 2.6456692 0 0 1 201.4707 116.6543 A 5.2913385 2.6456692 0 0 1 196.17969 114.00977 A 5.2913385 2.6456692 0 0 1 201.4707 111.36328 z "
       transform="scale(0.26458333)" />
    <path
       id="path14985"
       style="fill:#787878;fill-opacity:1;stroke:none;stroke-width:0.377953;stop-color:#000000"
       d="M 200.4375 105.8125 L 190.5625 109.34375 L 189.40625 116.71875 L 193.15625 120.34375 L 211.35547 118.8125 L 213.54492 111.72461 L 208.22461 106.93359 L 200.4375 105.8125 z M 201.4707 109.06836 A 9.8834646 4.9417323 0 0 1 211.35547 114.00977 A 9.8834646 4.9417323 0 0 1 201.4707 118.95117 A 9.8834646 4.9417323 0 0 1 191.58789 114.00977 A 9.8834646 4.9417323 0 0 1 201.4707 109.06836 z "
       transform="scale(0.26458333)" />
    <path
       id="path14770"
       style="fill:#969696;fill-opacity:1;stroke:none;stroke-width:0.377953;stop-color:#000000"
       d="m 200.4375,105.8125 -9.85785,2.24446 c 0,0 -1.69391,6.53777 -1.1734,8.66179 L 193.875,119 l 10.6875,2.96875 c 0,0 9.49998,-8.99999 9.75,-9.0625 0.25,-0.0625 -4.24219,-5.56256 -4.24219,-5.65625 0,-0.0937 -9.63281,-1.4375 -9.63281,-1.4375 z m 1.0332,1.36523 c 1.04711,0.003 2.08677,0.0882 3.08008,0.25391 0.18393,-0.10208 0.44591,-0.1603 0.7207,-0.16016 0.53503,0 0.96876,0.21687 0.96875,0.48438 -3e-4,0.0163 -0.002,0.0326 -0.006,0.0488 2.56783,0.71061 4.37121,1.95509 4.92187,3.39648 0.0382,-0.002 0.0767,-0.004 0.11523,-0.004 0.53502,0 0.96874,0.21686 0.96875,0.48437 0.002,0.25297 -0.38632,0.46398 -0.89062,0.48438 -0.0267,1.40639 -1.25067,2.74046 -3.36523,3.66796 0.28355,0.0882 0.45625,0.24319 0.45703,0.41016 1e-5,0.26751 -0.43372,0.48438 -0.96875,0.48438 -0.441,-0.004 -0.82076,-0.15667 -0.92383,-0.3711 -1.53426,0.45983 -3.28935,0.70284 -5.07813,0.70313 -0.96126,-2.9e-4 -1.91729,-0.0707 -2.83789,-0.20899 0.002,0.009 0.003,0.0182 0.004,0.0273 -1e-5,0.26751 -0.43373,0.48437 -0.96875,0.48437 -0.53502,0 -0.96874,-0.21686 -0.96875,-0.48437 0.004,-0.13403 0.11818,-0.26132 0.3164,-0.35157 -2.49347,-0.63203 -4.33498,-1.76249 -5.06835,-3.11132 -0.0905,0.0139 -0.1846,0.0212 -0.2793,0.0215 -0.53503,0 -0.96876,-0.21687 -0.96875,-0.48438 -2.3e-4,-0.26189 0.4159,-0.47645 0.93945,-0.48437 -0.0252,-0.1162 -0.0421,-0.23281 -0.0508,-0.34961 0.009,-1.33024 1.08939,-2.60258 2.99805,-3.5293 -0.0566,-0.0626 -0.0859,-0.13052 -0.0859,-0.19922 1e-5,-0.26751 0.43373,-0.48437 0.96875,-0.48437 0.2034,1.1e-4 0.40156,0.0322 0.56641,0.0918 1.61239,-0.53337 3.50223,-0.81858 5.43554,-0.82032 z"
       transform="scale(0.26458333)"
       sodipodi:nodetypes="cccccsscccccccccccccccccscccccccccccc" />
    <circle
       style="fill:none;stroke:#000000;stroke-width:0.1;stop-color:#000000"
       id="circle8335-5"
       cx="53.306244"
       cy="22.020994"
       r="3.8299999" />
    <circle
       style="fill:none;stroke:#000000;stroke-width:0.1;stop-color:#000000"
       id="circle8337-4"
       cx="53.306244"
       cy="22.020994"
       r="1.4" />
    <path
       id="rect8339-3"
       style="fill:#b4b4b4;stroke:none;stroke-width:0.377953;stop-color:#000000;fill-opacity:1"
       d="M 201.4707 104.88086 C 201.4707 104.88086 199.60603 104.94364 196.42773 105.33789 A 14.475583 7.2377927 0 0 0 194.9082 105.67188 C 191.59053 106.68743 186.99609 109.83293 186.99609 115.89844 L 186.99609 118.16602 A 14.475583 7.2377923 0 0 0 201.4707 125.4043 A 14.475583 7.2377922 0 0 0 215.94531 118.16602 L 215.94531 115.89844 C 215.94531 109.83293 211.35087 106.68744 208.0332 105.67188 A 14.475583 7.2377926 0 0 0 206.51367 105.33789 C 203.33537 104.94367 201.4707 104.88086 201.4707 104.88086 z M 201.4707 106.75195 A 10.696059 5.3669427 0 0 1 204.50586 106.97461 A 0.96875001 0.484375 0 0 1 205.27148 106.78711 A 0.96875001 0.484375 0 0 1 206.24023 107.27148 A 0.96875001 0.484375 0 0 1 206.23828 107.29688 A 0.96875001 0.484375 0 0 1 206.23633 107.31641 A 10.696059 5.3669427 0 0 1 211.79883 110.79102 A 0.96875002 0.48437501 0 0 1 212.24023 111.19727 A 0.96875002 0.48437501 0 0 1 212.06445 111.47656 A 10.696059 5.3669427 0 0 1 212.16602 112.11914 A 10.696059 5.3669427 0 0 1 201.4707 117.48633 A 10.696059 5.3669428 0 0 1 190.87305 112.74414 A 0.96875003 0.48437502 0 0 1 190.69922 112.46875 A 0.96875003 0.48437502 0 0 1 190.79688 112.25781 A 10.696059 5.3669428 0 0 1 190.77539 112.11914 A 10.696059 5.3669428 0 0 1 194.54492 108.05078 A 0.96875 0.48437499 0 0 1 194.5 107.90625 A 0.96875 0.48437499 0 0 1 195.46875 107.42188 A 0.96875 0.48437499 0 0 1 196.03906 107.51562 A 10.696059 5.3669428 0 0 1 201.4707 106.75195 z "
       transform="scale(0.26458333)" />
    <path
       style="fill:#c8c8c8;stroke:none;stroke-width:0.1;stop-color:#000000;fill-opacity:1"
       d="m 51.171863,35.635006 v -1.25001 c 0,0 -4.96e-4,-1.021376 2.134109,-1.021376 2.134689,0 2.134686,1.021376 2.134686,1.021376 v 1.25001 c 0,0 -2.47e-4,0.400005 -2.13457,0.400003 -2.134225,-3e-6 -2.134225,-0.400003 -2.134225,-0.400003 z"
       id="path10457"
       sodipodi:nodetypes="ccsccsc" />
    <path
       style="fill:#c8c8c8;fill-opacity:1;stroke:none;stroke-width:0.1;stop-color:#000000"
       d="m 36.99283,30.954834 v -1.25001 c 0,0 -4.96e-4,-1.021376 2.134109,-1.021376 2.134689,0 2.134686,1.021376 2.134686,1.021376 v 1.25001 c 0,0 -2.47e-4,0.400005 -2.13457,0.400003 -2.134225,-3e-6 -2.134225,-0.400003 -2.134225,-0.400003 z"
       id="path10457-9"
       sodipodi:nodetypes="ccsccsc" />
    <path
       style="fill:#b4b4b4;stroke:none;stroke-width:0.1;stop-color:#000000;fill-opacity:1"
       d="m 55.647861,35.574244 v -1.25001 c 0,0 -2.36e-4,-1.021162 1.017214,-1.945525 1.01749,-0.924398 1.017489,0.09698 1.017489,0.09698 v 1.25001 c 0,0 -1.18e-4,0.400112 -1.017434,1.324351 -1.017269,0.924195 -1.017269,0.524195 -1.017269,0.524195 z"
       id="path10457-2"
       sodipodi:nodetypes="ccsccsc"
       inkscape:transform-center-x="-1.0842341"
       inkscape:transform-center-y="-2.2090381" />
    <path
       style="fill:#b4b4b4;stroke:none;stroke-width:0.1;stop-color:#000000;fill-opacity:1"
       d="m 50.964232,35.574243 v -1.25001 c 0,0 2.36e-4,-1.021162 -1.017214,-1.945525 -1.01749,-0.924398 -1.017489,0.09698 -1.017489,0.09698 v 1.25001 c 0,0 1.18e-4,0.400112 1.017434,1.324351 1.017269,0.924195 1.017269,0.524195 1.017269,0.524194 z"
       id="path10457-2-1"
       sodipodi:nodetypes="ccsccsc"
       inkscape:transform-center-x="1.0842343"
       inkscape:transform-center-y="-2.2090381" />
    <path
       id="path17832"
       style="fill:none;fill-opacity:1;stroke:#000000;stroke-width:0.377953;stroke-opacity:1;stop-color:#000000"
       d="m 206.76172,114.00977 c -0.001,1.46066 -2.36971,2.64444 -5.29102,2.64453 -2.92131,-9e-5 -5.28975,-1.18388 -5.29101,-2.64453"
       transform="scale(0.26458333)"
       sodipodi:nodetypes="ccc" />
    <path
       style="fill:none;fill-opacity:1;stroke:#000000;stroke-width:0.1;stroke-opacity:1;stop-color:#000000"
       d="m 49.476048,30.664795 v 0.599964"
       id="path18145" />
    <path
       style="fill:none;fill-opacity:1;stroke:#000000;stroke-width:0.1;stroke-opacity:1;stop-color:#000000"
       d="m 57.135897,30.664335 -2.65e-4,0.600424"
       id="path18147" />
    <path
       sodipodi:type="star"
       style="fill:none;fill-opacity:1;stroke:#000000;stroke-width:0.377953;stroke-opacity:1;stop-color:#000000"
       id="path18893"
       inkscape:flatsided="true"
       sodipodi:sides="6"
       sodipodi:cx="201.47243"
       sodipodi:cy="83.228951"
       sodipodi:r1="9.8834648"
       sodipodi:r2="8.5593309"
       sodipodi:arg1="-1.1760147"
       sodipodi:arg2="-0.65241593"
       inkscape:rounded="0"
       inkscape:randomized="0"
       d="m 205.27367,74.105716 6.00033,7.853593 -3.80124,9.123234 -9.80158,1.269642 -6.00033,-7.853593 3.80125,-9.123234 z"
       transform="scale(0.26458333)" />
    <circle
       style="fill:#787878;fill-opacity:1;stroke:none;stroke-width:0.1;stroke-opacity:1;stop-color:#000000"
       id="path18917"
       cx="54.311893"
       cy="19.607098"
       r="0.25631511" />
    <circle
       style="fill:#787878;fill-opacity:1;stroke:none;stroke-width:0.1;stroke-opacity:1;stop-color:#000000"
       id="path18917-2"
       cx="55.899544"
       cy="21.684807"
       r="0.25631511" />
    <circle
       style="fill:#787878;fill-opacity:1;stroke:none;stroke-width:0.1;stroke-opacity:1;stop-color:#000000"
       id="path18917-2-3"
       cx="54.894096"
       cy="24.098722"
       r="0.25631511" />
    <circle
       style="fill:#787878;fill-opacity:1;stroke:none;stroke-width:0.1;stroke-opacity:1;stop-color:#000000"
       id="path18917-2-2"
       cx="52.300404"
       cy="24.434811"
       r="0.25631511" />
    <circle
       style="fill:#787878;fill-opacity:1;stroke:none;stroke-width:0.1;stroke-opacity:1;stop-color:#000000"
       id="path18917-2-8"
       cx="50.712944"
       cy="22.357172"
       r="0.25631511" />
    <circle
       style="fill:#787878;fill-opacity:1;stroke:none;stroke-width:0.1;stroke-opacity:1;stop-color:#000000"
       id="path18917-2-6"
       cx="51.718395"
       cy="19.943264"
       r="0.25631511" />
    <path
       id="path19721"
       style="fill:none;fill-opacity:1;stroke:#000000;stroke-width:0.377953;stroke-opacity:1;stop-color:#000000"
       d="m 191.58789,112.11914 c 0.009,0.1168 0.0256,0.23341 0.0508,0.34961 -0.3432,0.005 -0.63692,0.10037 -0.80078,0.23828 0.0107,0.0126 0.0224,0.025 0.0352,0.0371 0.0575,0.20399 0.13836,0.40615 0.24218,0.60547 0.15709,0.0549 0.34652,0.0879 0.55274,0.0879 0.0947,-3e-4 0.1888,-0.008 0.2793,-0.0215 0.73337,1.34883 2.57489,2.47929 5.06835,3.11132 -0.19821,0.0903 -0.3124,0.21754 -0.3164,0.35157 0,0.01 0.005,0.0194 0.006,0.0293 0.51985,0.13057 1.06005,0.23966 1.61523,0.32618 0.19331,-0.0886 0.3164,-0.21406 0.31641,-0.35547 -0.001,-0.009 -0.002,-0.0183 -0.004,-0.0273 0.9206,0.13829 1.87663,0.2087 2.83789,0.20899 1.78878,-2.9e-4 3.54387,-0.2433 5.07813,-0.70313 0.0715,0.14868 0.27727,0.26585 0.54297,0.32617 0.4727,-0.14631 0.92198,-0.31086 1.34375,-0.49218 -0.0325,-0.14659 -0.19748,-0.27851 -0.45117,-0.35743 2.11455,-0.9275 3.33853,-2.26157 3.36523,-3.66796"
       transform="scale(0.26458333)"
       sodipodi:nodetypes="ccccccccccccccccccc" />
    <path
       id="path20565"
       style="fill:none;stroke:#000000;stroke-width:0.377952;stop-color:#000000;fill-opacity:1;stroke-opacity:1"
       d="M 201.4707 104.88086 C 201.4707 104.88086 199.60603 104.94364 196.42773 105.33789 A 14.475583 7.2377926 0 0 0 194.9082 105.67188 C 193.54937 106.08782 191.97951 106.8679 190.5957 108.05273 L 190.58008 108.05664 C 190.58008 108.05664 190.57621 108.07017 190.57617 108.07031 C 188.59062 109.7783 186.99609 112.32915 186.99609 115.89844 C 186.99609 115.89844 186.17806 116.71538 185.51367 118.16602 L 185.50977 118.16602 C 185.49686 118.19424 185.48543 118.2252 185.47266 118.25391 C 185.4703 118.2592 185.4672 118.26422 185.46484 118.26953 C 185.37039 118.48278 185.27951 118.70812 185.19531 118.94727 C 184.90935 119.75946 184.69871 120.7167 184.67773 121.80078 C 184.67661 121.85911 184.67775 121.9175 184.67773 121.97656 L 184.67773 125.36328 L 184.67773 126.625 C 184.67773 126.625 184.81249 128.3125 185.25 128.96875 C 185.6875 129.625 188.57617 132.47266 188.57617 132.47266 L 191.21875 134.75977 C 193.12124 136.07118 194.88348 136.18564 199.95117 136.19531 L 201.4707 136.19531 C 201.47137 136.19531 201.47199 136.19531 201.47266 136.19531 C 201.47333 136.19531 201.47394 136.19531 201.47461 136.19531 L 202.99414 136.19531 C 208.06183 136.18564 209.82407 136.07117 211.72656 134.75977 L 214.36914 132.47266 C 214.36914 132.47266 217.25781 129.625 217.69531 128.96875 C 218.13284 128.3125 218.26758 126.625 218.26758 126.625 L 218.26758 125.36328 L 218.26758 121.97656 C 218.26756 121.91749 218.26858 121.8591 218.26758 121.80078 C 218.2466 120.7167 218.03596 119.75946 217.75 118.94727 C 217.66579 118.70812 217.57496 118.48277 217.48047 118.26953 C 217.47745 118.26424 217.47466 118.25882 217.47266 118.25391 C 217.45981 118.22518 217.4484 118.19436 217.43555 118.16602 L 217.43164 118.16602 C 216.76725 116.71538 215.94922 115.89844 215.94922 115.89844 L 215.94531 115.89648 C 215.94431 109.83227 211.35051 106.68732 208.0332 105.67188 A 14.475583 7.2377925 0 0 0 206.51367 105.33789 C 203.33537 104.94367 201.4707 104.88086 201.4707 104.88086 z "
       transform="scale(0.26458333)" />
    <path
       id="path8331-0-6"
       style="fill:#969696;fill-opacity:1;stroke:none;stroke-width:0.0999998;stop-color:#000000"
       d="m 30.916538,48.467039 c -0.846137,0 -0.846225,1.24e-4 -1.269174,0.366387 l -0.307475,0.266133 0.175183,0.04754 -0.99994,0.68988 c 0,0 -0.216437,0.216149 -0.392223,0.599964 h -0.0011 c -0.0034,0.0075 -0.0064,0.01566 -0.0098,0.02326 -5.29e-4,0.0013 -0.0013,0.0027 -0.0021,0.0041 -0.025,0.05642 -0.04904,0.116044 -0.07131,0.179319 -0.07566,0.214892 -0.131392,0.468162 -0.136943,0.754991 -2.64e-4,0.01543 6e-6,0.03088 0,0.04651 v 0.896069 0.333831 c 0,0 0.03566,0.446484 0.151413,0.620117 0.115756,0.173633 0.88005,0.927076 0.88005,0.927076 l 0.699182,0.605131 c 0.503367,0.346977 0.969627,0.377261 2.310453,0.37982 h 0.402042 5.29e-4 5.3e-4 0.402042 c 1.340826,-0.0026 1.807086,-0.03284 2.310453,-0.37982 l 0.699182,-0.605131 c 0,0 0.764294,-0.753443 0.880049,-0.927076 C 36.75335,53.121533 36.789,52.675049 36.789,52.675049 v -0.333831 -0.896069 c -6e-6,-0.01564 2.64e-4,-0.03108 0,-0.04651 -0.0056,-0.286829 -0.06128,-0.540099 -0.136944,-0.754991 -0.02228,-0.06328 -0.04631,-0.122899 -0.07131,-0.179319 -7.93e-4,-0.0013 -0.0016,-0.0028 -0.0021,-0.0041 -0.0034,-0.0076 -0.0064,-0.01577 -0.0098,-0.02326 h -0.0011 C 36.39196,50.053154 36.175523,49.837005 36.175523,49.837005 l -0.99994,-0.68988 0.175183,-0.04754 -0.307475,-0.266133 c -0.422949,-0.366263 -0.423034,-0.366387 -1.269172,-0.366387 h -1.428853 z" />
    <rect
       style="fill:#c8c8c8;fill-opacity:1;stroke:none;stroke-width:0.1;stop-color:#000000"
       id="rect17684-1"
       width="3.6465454"
       height="2.1532133"
       x="30.379519"
       y="48.474945" />
    <path
       id="path15201-8"
       style="fill:#ffffff;fill-opacity:1;stroke:none;stroke-width:0.1;stop-color:#000000"
       d="m 32.484917,47.227839 -2.285132,0.609782 -0.932244,0.970484 0.381373,1.725475 3.108854,0.570508 2.317689,-0.869715 0.282671,-1.738913 z m -0.140044,1.409215 a 1.4,0.69999997 0 0 1 1.399915,0.700218 1.4,0.69999997 0 0 1 -1.399915,0.699698 1.4,0.69999997 0 0 1 -1.399913,-0.699698 1.4,0.69999997 0 0 1 1.399913,-0.700218 z" />
    <path
       id="path14985-5"
       style="fill:#787878;fill-opacity:1;stroke:none;stroke-width:0.1;stop-color:#000000"
       d="m 32.071505,47.168411 -2.61276,0.934309 -0.305925,1.951303 0.992188,0.959114 4.81521,-0.405143 0.579292,-1.875338 -1.407665,-1.267624 z m 0.273368,0.861446 a 2.615,1.3075 0 0 1 2.615345,1.307415 2.615,1.3075 0 0 1 -2.615345,1.307412 2.615,1.3075 0 0 1 -2.614827,-1.307412 2.615,1.3075 0 0 1 2.614827,-1.307415 z" />
    <path
       id="path14770-3"
       style="fill:#969696;fill-opacity:1;stroke:none;stroke-width:0.1;stop-color:#000000"
       d="m 32.071505,47.168411 -2.608223,0.593846 c 0,0 -0.44818,1.729785 -0.310462,2.291766 l 1.182357,0.60358 2.827734,0.785482 c 0,0 2.513537,-2.381247 2.579688,-2.397786 0.06615,-0.01654 -1.122413,-1.471761 -1.122413,-1.49655 0,-0.02479 -2.548681,-0.380338 -2.548681,-0.380338 z m 0.273368,0.361217 c 0.277048,7.93e-4 0.552124,0.02334 0.814938,0.06718 0.04866,-0.02701 0.11798,-0.04241 0.190685,-0.04238 0.14156,0 0.256317,0.05738 0.256315,0.128159 -8e-5,0.0043 -5.29e-4,0.0086 -0.0016,0.01291 0.679405,0.188015 1.15655,0.517284 1.302245,0.898652 0.01011,-5.29e-4 0.02029,-0.0011 0.03049,-0.0011 0.141557,0 0.256312,0.05738 0.256315,0.128156 5.29e-4,0.06693 -0.102214,0.122761 -0.235643,0.128159 -0.0071,0.372107 -0.330907,0.72508 -0.890384,0.970481 0.07502,0.02334 0.120716,0.06434 0.120923,0.108521 2e-6,0.07078 -0.114755,0.128159 -0.256315,0.128159 -0.116682,-0.0011 -0.21716,-0.04145 -0.24443,-0.09819 -0.40594,0.121664 -0.870308,0.18596 -1.343589,0.186037 -0.254333,-7.7e-5 -0.507283,-0.01871 -0.750858,-0.0553 5.29e-4,0.0024 7.93e-4,0.0048 0.0011,0.0072 -3e-6,0.07078 -0.114758,0.128156 -0.256315,0.128156 -0.141558,0 -0.256313,-0.05738 -0.256315,-0.128156 0.0011,-0.03546 0.03127,-0.06914 0.08371,-0.09302 -0.659731,-0.167225 -1.146964,-0.466325 -1.341001,-0.823203 -0.02395,0.0037 -0.04884,0.0056 -0.0739,0.0057 -0.14156,0 -0.256318,-0.05738 -0.256315,-0.128159 -6.1e-5,-0.06929 0.11004,-0.12606 0.248563,-0.128156 -0.0067,-0.03075 -0.01114,-0.0616 -0.01344,-0.0925 0.0024,-0.351959 0.288234,-0.688599 0.793234,-0.933794 -0.01498,-0.01656 -0.02273,-0.03453 -0.02273,-0.05271 3e-6,-0.07078 0.114758,-0.128156 0.256315,-0.128156 0.05382,2.9e-5 0.106246,0.0085 0.149863,0.02429 0.426611,-0.14112 0.926632,-0.216582 1.438153,-0.217043 z"
       sodipodi:nodetypes="cccccsscccccccccccccccccscccccccccccc" />
    <path
       id="rect8339-3-0"
       style="fill:#b4b4b4;fill-opacity:1;stroke:none;stroke-width:0.1;stop-color:#000000"
       d="m 32.344873,46.921914 c 0,0 -0.493361,0.01662 -1.334286,0.120923 a 3.829998,1.9149993 0 0 0 -0.402042,0.08837 c -0.877801,0.268697 -2.093413,1.100944 -2.093413,2.705777 v 0.599964 a 3.829998,1.9149992 0 0 0 3.829741,1.915128 3.829998,1.9149992 0 0 0 3.82974,-1.915128 v -0.599964 c 0,-1.604833 -1.215612,-2.437077 -2.093412,-2.705777 a 3.829998,1.9149993 0 0 0 -0.402043,-0.08837 c -0.840925,-0.104304 -1.334285,-0.120923 -1.334285,-0.120923 z m 0,0.495059 a 2.8299989,1.4200036 0 0 1 0.803052,0.05891 0.2563151,0.12815755 0 0 1 0.202571,-0.04961 0.2563151,0.12815755 0 0 1 0.256315,0.128156 0.2563151,0.12815755 0 0 1 -5.29e-4,0.0067 0.2563151,0.12815755 0 0 1 -5.29e-4,0.0052 2.8299989,1.4200036 0 0 1 1.471744,0.919324 0.25631511,0.12815755 0 0 1 0.116787,0.107487 0.25631511,0.12815755 0 0 1 -0.04651,0.0739 2.8299989,1.4200036 0 0 1 0.02687,0.170015 2.8299989,1.4200036 0 0 1 -2.829804,1.420069 2.8299989,1.4200036 0 0 1 -2.803961,-1.254704 0.25631511,0.12815756 0 0 1 -0.04599,-0.07286 0.25631511,0.12815756 0 0 1 0.02585,-0.05581 2.8299989,1.4200036 0 0 1 -0.0057,-0.03669 2.8299989,1.4200036 0 0 1 0.997355,-1.07642 0.2563151,0.12815755 0 0 1 -0.01188,-0.03824 0.2563151,0.12815755 0 0 1 0.256316,-0.128156 0.2563151,0.12815755 0 0 1 0.150894,0.02479 2.8299989,1.4200036 0 0 1 1.437121,-0.202054 z" />
    <path
       style="fill:#c8c8c8;fill-opacity:1;stroke:none;stroke-width:0.1;stop-color:#000000"
       d="m 30.210947,54.807193 v -1.25001 c 0,0 -4.96e-4,-1.021376 2.134109,-1.021376 2.134689,0 2.134686,1.021376 2.134686,1.021376 v 1.25001 c 0,0 -2.47e-4,0.400005 -2.13457,0.400003 -2.134225,-3e-6 -2.134225,-0.400003 -2.134225,-0.400003 z"
       id="path10457-4"
       sodipodi:nodetypes="ccsccsc" />
    <path
       style="fill:#b4b4b4;fill-opacity:1;stroke:none;stroke-width:0.1;stop-color:#000000"
       d="m 34.686945,54.746431 v -1.25001 c 0,0 -2.36e-4,-1.021162 1.017214,-1.945525 1.01749,-0.924398 1.017489,0.09698 1.017489,0.09698 v 1.25001 c 0,0 -1.18e-4,0.400112 -1.017434,1.324351 -1.017269,0.924195 -1.017269,0.524195 -1.017269,0.524195 z"
       id="path10457-2-0"
       sodipodi:nodetypes="ccsccsc"
       inkscape:transform-center-x="-1.0842341"
       inkscape:transform-center-y="-2.2090381" />
    <path
       style="fill:#b4b4b4;fill-opacity:1;stroke:none;stroke-width:0.1;stop-color:#000000"
       d="m 30.003316,54.74643 v -1.25001 c 0,0 2.36e-4,-1.021162 -1.017214,-1.945525 -1.01749,-0.924398 -1.017489,0.09698 -1.017489,0.09698 v 1.25001 c 0,0 1.18e-4,0.400112 1.017434,1.324351 1.017269,0.924195 1.017269,0.524195 1.017269,0.524194 z"
       id="path10457-2-1-8"
       sodipodi:nodetypes="ccsccsc"
       inkscape:transform-center-x="1.0842343"
       inkscape:transform-center-y="-2.2090381" />
    <path
       id="path17832-9"
       style="fill:none;fill-opacity:1;stroke:#000000;stroke-width:0.1;stroke-opacity:1;stop-color:#000000"
       d="m 33.744788,49.337272 c -2.64e-4,0.386466 -0.626985,0.699674 -1.399915,0.699698 -0.77293,-2.4e-5 -1.39958,-0.313235 -1.399913,-0.699698"
       sodipodi:nodetypes="ccc" />
    <path
       style="fill:none;fill-opacity:1;stroke:#000000;stroke-width:0.1;stroke-opacity:1;stop-color:#000000"
       d="m 28.515132,49.836982 v 0.599964"
       id="path18145-8" />
    <path
       style="fill:none;fill-opacity:1;stroke:#000000;stroke-width:0.1;stroke-opacity:1;stop-color:#000000"
       d="m 36.174981,49.836522 -2.65e-4,0.600424"
       id="path18147-3" />
    <path
       id="path19721-5"
       style="fill:none;fill-opacity:1;stroke:#000000;stroke-width:0.1;stroke-opacity:1;stop-color:#000000"
       d="m 29.730046,48.837042 c 0.0024,0.0309 0.0068,0.06176 0.01344,0.0925 -0.0908,0.0013 -0.168519,0.02656 -0.211873,0.06304 0.0028,0.0033 0.0059,0.0066 0.0093,0.0098 0.01521,0.05397 0.03661,0.107461 0.06408,0.160198 0.04156,0.01452 0.09168,0.02326 0.146246,0.02326 0.02506,-7.9e-5 0.04995,-0.0021 0.0739,-0.0057 0.194037,0.356878 0.681273,0.655979 1.341001,0.823203 -0.05244,0.02389 -0.08266,0.05756 -0.08371,0.09302 0,0.0026 0.0013,0.0051 0.0016,0.0078 0.137544,0.03455 0.280472,0.06341 0.427363,0.0863 0.05115,-0.02344 0.08371,-0.05664 0.08372,-0.09405 -2.65e-4,-0.0024 -5.29e-4,-0.0048 -0.0011,-0.0072 0.243576,0.03659 0.496525,0.05522 0.750859,0.0553 0.473281,-7.7e-5 0.937649,-0.06437 1.343588,-0.186037 0.01892,0.03934 0.07336,0.07034 0.143661,0.0863 0.125069,-0.03871 0.243941,-0.08225 0.355534,-0.130222 -0.0086,-0.03879 -0.05225,-0.07369 -0.119372,-0.09457 0.559475,-0.245401 0.883319,-0.598374 0.890384,-0.970481"
       sodipodi:nodetypes="ccccccccccccccccccc" />
    <path
       id="path20565-1"
       style="fill:none;fill-opacity:1;stroke:#000000;stroke-width:0.0999998;stroke-opacity:1;stop-color:#000000"
       d="m 32.344873,46.921914 c 0,0 -0.493361,0.01662 -1.334286,0.120923 a 3.829998,1.9149993 0 0 0 -0.402042,0.08837 c -0.359524,0.110051 -0.774883,0.316447 -1.141016,0.629933 l -0.0041,0.0011 c 0,0 -0.0011,0.0036 -0.0011,0.0036 -0.525343,0.451906 -0.947229,1.126818 -0.947229,2.071193 0,0 -0.216437,0.216149 -0.392224,0.599964 h -0.0011 c -0.0034,0.0075 -0.0064,0.01566 -0.0098,0.02326 -5.29e-4,0.0013 -0.0013,0.0027 -0.0021,0.0041 -0.025,0.05642 -0.04903,0.116044 -0.07131,0.179319 -0.07566,0.214892 -0.131392,0.468162 -0.136943,0.754991 -2.65e-4,0.01543 5e-6,0.03088 0,0.04651 v 0.896069 0.33383 c 0,0 0.03565,0.446485 0.151413,0.620117 0.115755,0.173633 0.880049,0.927077 0.880049,0.927077 l 0.699183,0.605131 c 0.503367,0.346977 0.969626,0.377261 2.310452,0.37982 h 0.402043 c 1.77e-4,0 2.64e-4,0 5.29e-4,0 1.77e-4,0 2.64e-4,0 5.29e-4,0 h 0.402042 c 1.340827,-0.0026 1.807086,-0.03285 2.310453,-0.37982 l 0.699183,-0.605131 c 0,0 0.764294,-0.753444 0.880049,-0.927077 0.115763,-0.173632 0.151413,-0.620117 0.151413,-0.620117 v -0.33383 -0.896069 c -5e-6,-0.01564 2.65e-4,-0.03108 0,-0.04651 -0.0056,-0.286829 -0.06128,-0.540099 -0.136943,-0.754991 -0.02228,-0.06327 -0.04631,-0.122899 -0.07131,-0.179319 -7.94e-4,-0.0013 -0.0016,-0.0028 -0.0021,-0.0041 -0.0034,-0.0076 -0.0064,-0.01577 -0.0098,-0.02326 h -0.0011 C 36.391947,50.053163 36.17551,49.837014 36.17551,49.837014 l -0.0011,-5.29e-4 c -2.65e-4,-1.604489 -1.215708,-2.43659 -2.093413,-2.705259 a 3.829998,1.9149992 0 0 0 -0.402042,-0.08837 C 32.83803,46.938552 32.344669,46.921933 32.344669,46.921933 Z" />
    <path
       style="fill:#c8c8c8;fill-opacity:1;stroke:none;stroke-width:0.1;stop-color:#000000"
       d="m 40.685563,52.828905 v -1.25001 c 0,0 -4.96e-4,-1.021376 2.134109,-1.021376 2.134689,0 2.134686,1.021376 2.134686,1.021376 v 1.25001 c 0,0 -2.47e-4,0.400005 -2.13457,0.400003 -2.134225,-3e-6 -2.134225,-0.400003 -2.134225,-0.400003 z"
       id="path10457-9-4"
       sodipodi:nodetypes="ccsccsc" />
    <path
       style="fill:#b4b4b4;fill-opacity:1;stroke:none;stroke-width:0.0999998;stop-color:#000000"
       d="m 45.16175,52.828904 v -1.25001 c 0,0 -2.36e-4,-1.021376 1.017189,-1.021376 1.017466,0 1.017465,1.021377 1.017465,1.021377 v 1.25001 c 0,0 -1.18e-4,0.400005 -1.017409,0.400003 -1.017245,-3e-6 -1.017245,-0.400003 -1.017245,-0.400004 z"
       id="path10457-9-4-1"
       sodipodi:nodetypes="ccsccsc" />
    <path
       style="fill:#b4b4b4;fill-opacity:1;stroke:none;stroke-width:0.0999998;stop-color:#000000"
       d="m 38.443903,52.828904 v -1.25001 c 0,0 -2.36e-4,-1.021376 1.017189,-1.021376 1.017466,0 1.017465,1.021377 1.017465,1.021377 v 1.25001 c 0,0 -1.18e-4,0.400005 -1.017409,0.400003 -1.017245,-3e-6 -1.017245,-0.400003 -1.017245,-0.400004 z"
       id="path10457-9-4-1-7"
       sodipodi:nodetypes="ccsccsc" />
    <path
       id="path31524"
       style="fill:#b4b4b4;fill-opacity:1;stroke:none;stroke-width:0.1;stroke-opacity:1;stop-color:#000000"
       d="m 39.989807,48.893139 c -0.215,0 -0.999939,-6e-5 -0.999939,0.99994 0,0.999998 5.16e-4,0.599961 5.16e-4,0.599961 h 3.829224 3.829741 c 1.16e-4,-0.04933 5.16e-4,-0.155477 5.16e-4,-0.599961 0,-0.902097 -0.634865,-0.989753 -0.917774,-0.998389 a 0.2970925,0.25631508 0 0 1 -0.297137,0.254764 0.2970925,0.25631508 0 0 1 -0.297141,-0.256315 h -2.318205 -1.617472 a 0.2970925,0.25631508 0 0 1 -0.29714,0.256315 0.2970925,0.25631508 0 0 1 -0.297138,-0.256315 z" />
    <path
       id="path34126"
       style="fill:none;fill-opacity:1;stroke:#000000;stroke-width:0.377953;stroke-opacity:1;stop-color:#000000"
       d="M 150.9668 184.79297 C 149.97131 184.80678 147.36328 185.02896 147.36328 188.57227 C 147.36328 190.25366 147.36285 190.65586 147.36328 190.8418 C 145.05331 192.17731 145.04688 195.1875 145.04688 195.1875 L 145.04688 199.91211 C 145.04686 201.42393 149.14453 201.42383 149.14453 201.42383 L 161.83984 201.42383 L 174.53516 201.42383 C 174.53516 201.42383 178.63281 201.42393 178.63281 199.91211 L 178.63281 195.1875 C 178.63281 195.1875 178.62639 192.17467 176.31445 190.83984 C 176.3143 190.83984 176.31266 190.83984 176.3125 190.83984 C 176.31294 190.6534 176.31445 190.25221 176.31445 188.57227 C 176.31445 185.16277 173.91497 184.83147 172.8457 184.79883 A 1.1228693 0.96874991 0 0 1 171.72266 185.76172 A 1.1228693 0.96874991 0 0 1 170.59961 184.79297 L 161.83789 184.79297 L 155.72461 184.79297 A 1.1228693 0.96874991 0 0 1 154.60156 185.76172 A 1.1228693 0.96874991 0 0 1 153.47852 184.79297 L 151.14258 184.79297 C 151.09179 184.79297 151.03316 184.79205 150.9668 184.79297 z M 136.72461 188.35938 L 136.72266 190.62695 L 136.72461 188.35938 z "
       transform="scale(0.26458333)" />
    <rect
       style="fill:none;stroke:#000000;stroke-width:0.132292;stroke-miterlimit:4;stroke-dasharray:none;stroke-opacity:1;stop-color:#000000"
       id="rect33507-5"
       width="31.112881"
       height="18.214397"
       x="60.577213"
       y="39.807812" />
    <text
       xml:space="preserve"
       style="font-size:2.8222301px;line-height:0;font-family:Ste;-inkscape-font-specification:Ste;stroke-width:0.26458299"
       x="61.45089"
       y="40.119404"
       id="text17449-6"><tspan
         sodipodi:role="line"
         id="tspan17447-87"
         style="font-style:normal;font-variant:normal;font-weight:normal;font-stretch:normal;font-size:2.8222301px;line-height:1.25;font-family:sans-serif;-inkscape-font-specification:sans-serif;stroke-width:0.26458299"
         x="61.45089"
         y="40.923386" /><tspan
         sodipodi:role="line"
         style="font-style:normal;font-variant:normal;font-weight:normal;font-stretch:normal;font-size:2.11666989px;line-height:1.25;font-family:sans-serif;-inkscape-font-specification:sans-serif;stroke-width:0.26458299"
         x="61.45089"
         y="42.045311"
         id="tspan19731-53">Locknut</tspan><tspan
         sodipodi:role="line"
         style="font-style:normal;font-variant:normal;font-weight:normal;font-stretch:normal;font-size:2.11666989px;line-height:1.25;font-family:sans-serif;-inkscape-font-specification:sans-serif;stroke-width:0.26458299"
         x="61.45089"
         y="44.691147"
         id="tspan39631">Nylon 18-8SS</tspan><tspan
         sodipodi:role="line"
         style="font-style:normal;font-variant:normal;font-weight:bold;font-stretch:normal;font-size:2.8222301px;line-height:0.75;font-family:sans-serif;-inkscape-font-specification:sans-serif;stroke-width:0.26458299"
         x="61.45089"
         y="47.273399"
         id="tspan19733-0">6-32</tspan></text>
    <path
       style="fill:#000000;fill-opacity:1;stroke:#000000;stroke-width:0.132292;stroke-miterlimit:4;stroke-dasharray:none;stroke-opacity:1;stop-color:#000000"
       d="m 86.951471,40.336962 h 4.2095 v 4.2095 z"
       id="path13761-3-4-5" />
    <path
       id="path21611-9"
       style="fill:#969696;fill-opacity:1;stroke:none;stroke-width:0.1;stroke-opacity:1;stop-color:#000000"
       d="m 82.063938,52.069727 c -0.6118,0.353174 -0.6134,1.150319 -0.6134,1.150319 v 1.250053 c 0,0.400002 1.08417,0.399976 1.08417,0.399976 h 3.35897 3.35897 c 0,0 1.08417,2.6e-5 1.08417,-0.399976 v -1.250053 c 0,0 -0.002,-0.797145 -0.6134,-1.150319 -0.30673,-2e-6 -1.99154,0 -3.82974,0 -1.8382,0 -3.52301,-2e-6 -3.82974,0 z" />
    <path
       id="path5548-5-5"
       style="fill:#969696;fill-opacity:1;stroke:#000000;stroke-width:0.1;stop-color:#000000"
       d="m 63.44233,49.041716 -1.428773,2.47455 c -0.423074,0.732738 -0.423074,0.732738 -2.5e-5,1.465433 l 1.428904,2.474776 c 0.422841,0.73234 0.422841,0.73234 1.268721,0.73234 l 2.85661,2.36e-4 c 0.84659,-2.36e-4 0.84659,-2.36e-4 1.26949,-0.732679 l 1.42875,-2.474514 c 0.42314,-0.732854 0.42314,-0.732854 -2e-5,-1.465751 l -1.42862,-2.474289 c -0.42301,-0.732625 -0.42301,-0.732625 -1.26921,-0.732625 h -2.85674 c -0.84614,0 -0.84614,0 -1.269087,0.732523 z"
       sodipodi:nodetypes="ccccccccccccc" />
    <circle
       style="fill:#b4b4b4;fill-opacity:1;stroke:#000000;stroke-width:0.1;stop-color:#000000"
       id="circle7741-9-1"
       cx="66.139801"
       cy="52.249115"
       r="3.8299999" />
    <circle
       style="fill:#ffffff;fill-opacity:1;stroke:#000000;stroke-width:0.1;stop-color:#000000"
       id="path7659-4-2"
       cx="66.139801"
       cy="52.249115"
       r="2.615" />
    <circle
       style="fill:none;stroke:#000000;stroke-width:0.1;stop-color:#000000"
       id="circle7743-2-5"
       cx="66.139801"
       cy="52.249115"
       r="1.4" />
    <path
       id="path8331-0-6-1"
       style="fill:#969696;fill-opacity:1;stroke:none;stroke-width:0.0999998;stop-color:#000000"
       d="m 74.519661,50.072368 c -0.84613,0 -0.84622,1.24e-4 -1.269169,0.366387 l -0.307475,0.266133 0.175183,0.04754 -0.99994,0.68988 c 0,0 -0.216437,0.216149 -0.392223,0.599964 h -0.0011 c -0.0034,0.0075 -0.0064,0.01566 -0.0098,0.02326 -5.29e-4,0.0013 -0.0013,0.0027 -0.0021,0.0041 -0.025,0.05642 -0.04904,0.116044 -0.07131,0.179319 -0.07566,0.214892 -0.131392,0.468162 -0.136943,0.754991 -2.64e-4,0.01543 6e-6,0.03088 0,0.04651 v 0.896069 0.333831 c 0,0 0.03566,0.446484 0.151413,0.620117 0.115756,0.173633 0.88005,0.927076 0.88005,0.927076 l 0.699182,0.605131 c 0.503372,0.346977 0.969622,0.377261 2.310452,0.37982 h 0.40204 5.3e-4 5.3e-4 0.40204 c 1.34083,-0.0026 1.80709,-0.03284 2.31046,-0.37982 l 0.69918,-0.605131 c 0,0 0.76429,-0.753443 0.88005,-0.927076 0.11577,-0.173607 0.15142,-0.620091 0.15142,-0.620091 v -0.333831 -0.896069 c -1e-5,-0.01564 2.6e-4,-0.03108 0,-0.04651 -0.006,-0.286829 -0.0613,-0.540099 -0.13695,-0.754991 -0.0223,-0.06328 -0.0463,-0.122899 -0.0713,-0.179319 -7.9e-4,-0.0013 -0.002,-0.0028 -0.002,-0.0041 -0.003,-0.0076 -0.006,-0.01577 -0.01,-0.02326 h -0.001 c -0.17579,-0.383815 -0.39223,-0.599964 -0.39223,-0.599964 l -0.99994,-0.68988 0.17518,-0.04754 -0.30747,-0.266133 c -0.42295,-0.366263 -0.42304,-0.366387 -1.26917,-0.366387 h -1.42886 z" />
    <rect
       style="fill:#c8c8c8;fill-opacity:1;stroke:none;stroke-width:0.1;stop-color:#000000"
       id="rect17684-1-3"
       width="3.6465454"
       height="2.1532133"
       x="73.982635"
       y="50.080273" />
    <path
       id="path15201-8-7"
       style="fill:#ffffff;fill-opacity:1;stroke:none;stroke-width:0.1;stop-color:#000000"
       d="m 76.088041,48.833168 -2.28513,0.609782 -0.932242,0.970484 0.381373,1.725475 3.108849,0.570508 2.31769,-0.869715 0.28268,-1.738913 z m -0.14004,1.409215 a 1.4,0.69999997 0 0 1 1.39991,0.700218 1.4,0.69999997 0 0 1 -1.39991,0.699698 1.4,0.69999997 0 0 1 -1.39991,-0.699698 1.4,0.69999997 0 0 1 1.39991,-0.700218 z" />
    <path
       id="path14985-5-0"
       style="fill:#787878;fill-opacity:1;stroke:none;stroke-width:0.1;stop-color:#000000"
       d="m 75.674631,48.77374 -2.612758,0.934309 -0.305925,1.951303 0.992183,0.959114 4.81521,-0.405143 0.5793,-1.875338 -1.40767,-1.267624 z m 0.27337,0.861446 a 2.615,1.3075 0 0 1 2.61534,1.307415 2.615,1.3075 0 0 1 -2.61534,1.307412 2.615,1.3075 0 0 1 -2.614827,-1.307412 2.615,1.3075 0 0 1 2.614827,-1.307415 z" />
    <path
       id="path14770-3-7"
       style="fill:#969696;fill-opacity:1;stroke:none;stroke-width:0.1;stop-color:#000000"
       d="m 75.674631,48.77374 -2.608221,0.593846 c 0,0 -0.44818,1.729785 -0.310462,2.291766 l 1.182353,0.60358 2.82774,0.785482 c 0,0 2.51354,-2.381247 2.57969,-2.397786 0.0662,-0.01654 -1.12242,-1.471761 -1.12242,-1.49655 0,-0.02479 -2.54868,-0.380338 -2.54868,-0.380338 z m 0.27337,0.361217 c 0.27705,7.93e-4 0.55212,0.02334 0.81494,0.06718 0.0487,-0.02701 0.11798,-0.04241 0.19068,-0.04238 0.14156,0 0.25632,0.05738 0.25632,0.128159 -8e-5,0.0043 -5.3e-4,0.0086 -0.002,0.01291 0.6794,0.188015 1.15655,0.517284 1.30224,0.898652 0.0101,-5.29e-4 0.0203,-0.0011 0.0305,-0.0011 0.14156,0 0.25631,0.05738 0.25632,0.128156 5.3e-4,0.06693 -0.10222,0.122761 -0.23565,0.128159 -0.007,0.372107 -0.3309,0.72508 -0.89038,0.970481 0.075,0.02334 0.12072,0.06434 0.12092,0.108521 10e-6,0.07078 -0.11475,0.128159 -0.25631,0.128159 -0.11668,-0.0011 -0.21716,-0.04145 -0.24443,-0.09819 -0.40594,0.121664 -0.87031,0.18596 -1.34359,0.186037 -0.25433,-7.7e-5 -0.50728,-0.01871 -0.75086,-0.0553 5.3e-4,0.0024 7.9e-4,0.0048 10e-4,0.0072 0,0.07078 -0.11476,0.128156 -0.25631,0.128156 -0.14156,0 -0.25632,-0.05738 -0.25632,-0.128156 0.001,-0.03546 0.0313,-0.06914 0.0837,-0.09302 -0.65973,-0.167225 -1.14696,-0.466325 -1.340999,-0.823203 -0.02395,0.0037 -0.04884,0.0056 -0.0739,0.0057 -0.14156,0 -0.256318,-0.05738 -0.256315,-0.128159 -6.1e-5,-0.06929 0.11004,-0.12606 0.248563,-0.128156 -0.0067,-0.03075 -0.01114,-0.0616 -0.01344,-0.0925 0.0024,-0.351959 0.288231,-0.688599 0.793231,-0.933794 -0.015,-0.01656 -0.0227,-0.03453 -0.0227,-0.05271 1e-5,-0.07078 0.11476,-0.128156 0.25632,-0.128156 0.0538,2.9e-5 0.10624,0.0085 0.14986,0.02429 0.42661,-0.14112 0.92663,-0.216582 1.43815,-0.217043 z"
       sodipodi:nodetypes="cccccsscccccccccccccccccscccccccccccc" />
    <path
       id="rect8339-3-0-8"
       style="fill:#b4b4b4;fill-opacity:1;stroke:none;stroke-width:0.1;stop-color:#000000"
       d="m 75.948001,48.527243 c 0,0 -0.49336,0.01662 -1.33429,0.120923 a 3.829998,1.9149993 0 0 0 -0.40204,0.08837 c -0.877799,0.268697 -2.093411,1.100944 -2.093411,2.705777 v 0.599964 a 3.829998,1.9149992 0 0 0 3.829741,1.915128 3.829998,1.9149992 0 0 0 3.82974,-1.915128 v -0.599964 c 0,-1.604833 -1.21561,-2.437077 -2.09341,-2.705777 a 3.829998,1.9149993 0 0 0 -0.40205,-0.08837 c -0.84092,-0.104304 -1.33428,-0.120923 -1.33428,-0.120923 z m 0,0.495059 a 2.8299989,1.4200036 0 0 1 0.80305,0.05891 0.2563151,0.12815755 0 0 1 0.20257,-0.04961 0.2563151,0.12815755 0 0 1 0.25632,0.128156 0.2563151,0.12815755 0 0 1 -5.3e-4,0.0067 0.2563151,0.12815755 0 0 1 -5.3e-4,0.0052 2.8299989,1.4200036 0 0 1 1.47174,0.919324 0.25631511,0.12815755 0 0 1 0.11679,0.107487 0.25631511,0.12815755 0 0 1 -0.0465,0.0739 2.8299989,1.4200036 0 0 1 0.0269,0.170015 2.8299989,1.4200036 0 0 1 -2.8298,1.420069 2.8299989,1.4200036 0 0 1 -2.803964,-1.254704 0.25631511,0.12815756 0 0 1 -0.04599,-0.07286 0.25631511,0.12815756 0 0 1 0.02585,-0.05581 2.8299989,1.4200036 0 0 1 -0.0057,-0.03669 2.8299989,1.4200036 0 0 1 0.997354,-1.07642 0.2563151,0.12815755 0 0 1 -0.0119,-0.03824 0.2563151,0.12815755 0 0 1 0.25632,-0.128156 0.2563151,0.12815755 0 0 1 0.15089,0.02479 2.8299989,1.4200036 0 0 1 1.43712,-0.202054 z" />
    <path
       style="fill:#c8c8c8;fill-opacity:1;stroke:none;stroke-width:0.1;stop-color:#000000"
       d="m 73.814071,56.412522 v -1.25001 c 0,0 -4.9e-4,-1.021376 2.13411,-1.021376 2.13469,0 2.13469,1.021376 2.13469,1.021376 v 1.25001 c 0,0 -2.5e-4,0.400005 -2.13457,0.400003 -2.13423,-3e-6 -2.13423,-0.400003 -2.13423,-0.400003 z"
       id="path10457-4-7"
       sodipodi:nodetypes="ccsccsc" />
    <path
       style="fill:#b4b4b4;fill-opacity:1;stroke:none;stroke-width:0.1;stop-color:#000000"
       d="m 78.290071,56.35176 v -1.25001 c 0,0 -2.3e-4,-1.021162 1.01722,-1.945525 1.01749,-0.924398 1.01748,0.09698 1.01748,0.09698 v 1.25001 c 0,0 -1.1e-4,0.400112 -1.01743,1.324351 -1.01727,0.924195 -1.01727,0.524195 -1.01727,0.524194 z"
       id="path10457-2-0-5"
       sodipodi:nodetypes="ccsccsc"
       inkscape:transform-center-x="-1.0842341"
       inkscape:transform-center-y="-2.2090381" />
    <path
       style="fill:#b4b4b4;fill-opacity:1;stroke:none;stroke-width:0.1;stop-color:#000000"
       d="m 73.606441,56.351759 v -1.25001 c 0,0 2.4e-4,-1.021162 -1.017211,-1.945525 -1.01749,-0.924398 -1.017489,0.09698 -1.017489,0.09698 v 1.25001 c 0,0 1.18e-4,0.400112 1.017434,1.324351 1.017266,0.924195 1.017266,0.524195 1.017266,0.524194 z"
       id="path10457-2-1-8-0"
       sodipodi:nodetypes="ccsccsc"
       inkscape:transform-center-x="1.0842343"
       inkscape:transform-center-y="-2.2090381" />
    <path
       id="path17832-9-0"
       style="fill:none;fill-opacity:1;stroke:#000000;stroke-width:0.1;stroke-opacity:1;stop-color:#000000"
       d="m 77.347911,50.942601 c -2.6e-4,0.386466 -0.62698,0.699674 -1.39991,0.699698 -0.77293,-2.4e-5 -1.39958,-0.313235 -1.39991,-0.699698"
       sodipodi:nodetypes="ccc" />
    <path
       style="fill:none;fill-opacity:1;stroke:#000000;stroke-width:0.1;stroke-opacity:1;stop-color:#000000"
       d="m 72.11826,51.442311 v 0.599964"
       id="path18145-8-2" />
    <path
       style="fill:none;fill-opacity:1;stroke:#000000;stroke-width:0.1;stroke-opacity:1;stop-color:#000000"
       d="m 79.778111,51.441851 -2.7e-4,0.600424"
       id="path18147-3-0" />
    <path
       id="path19721-5-6"
       style="fill:none;fill-opacity:1;stroke:#000000;stroke-width:0.1;stroke-opacity:1;stop-color:#000000"
       d="m 73.333174,50.442371 c 0.0024,0.0309 0.0068,0.06176 0.01344,0.0925 -0.0908,0.0013 -0.168519,0.02656 -0.211873,0.06304 0.0028,0.0033 0.0059,0.0066 0.0093,0.0098 0.01521,0.05397 0.03661,0.107461 0.06408,0.160198 0.04156,0.01452 0.09168,0.02326 0.146246,0.02326 0.02506,-7.9e-5 0.04995,-0.0021 0.0739,-0.0057 0.194034,0.356878 0.681274,0.655979 1.341004,0.823203 -0.0524,0.02389 -0.0827,0.05756 -0.0837,0.09302 0,0.0026 0.001,0.0051 0.002,0.0078 0.13754,0.03455 0.28047,0.06341 0.42736,0.0863 0.0511,-0.02344 0.0837,-0.05664 0.0837,-0.09405 -2.7e-4,-0.0024 -5.3e-4,-0.0048 -0.001,-0.0072 0.24358,0.03659 0.49652,0.05522 0.75086,0.0553 0.47328,-7.7e-5 0.93765,-0.06437 1.34359,-0.186037 0.0189,0.03934 0.0734,0.07034 0.14366,0.0863 0.12507,-0.03871 0.24394,-0.08225 0.35553,-0.130222 -0.009,-0.03879 -0.0523,-0.07369 -0.11937,-0.09457 0.55947,-0.245401 0.88332,-0.598374 0.89038,-0.970481"
       sodipodi:nodetypes="ccccccccccccccccccc" />
    <path
       id="path20565-1-9"
       style="fill:none;fill-opacity:1;stroke:#000000;stroke-width:0.0999998;stroke-opacity:1;stop-color:#000000"
       d="m 75.948001,48.527243 c 0,0 -0.49336,0.01662 -1.33429,0.120923 a 3.829998,1.9149993 0 0 0 -0.40204,0.08837 c -0.35952,0.110051 -0.774881,0.316447 -1.141014,0.629933 l -0.0041,0.0011 c 0,0 -0.0011,0.0036 -0.0011,0.0036 -0.525343,0.451906 -0.947229,1.126818 -0.947229,2.071193 0,0 -0.216437,0.216149 -0.392224,0.599964 h -0.0011 c -0.0034,0.0075 -0.0064,0.01566 -0.0098,0.02326 -5.29e-4,0.0013 -0.0013,0.0027 -0.0021,0.0041 -0.025,0.05642 -0.04903,0.116044 -0.07131,0.179319 -0.07566,0.214892 -0.131392,0.468162 -0.136943,0.754991 -2.65e-4,0.01543 5e-6,0.03088 0,0.04651 v 0.896069 0.33383 c 0,0 0.03565,0.446485 0.151413,0.620117 0.115755,0.173633 0.880049,0.927077 0.880049,0.927077 l 0.699183,0.605131 c 0.503365,0.346977 0.969625,0.377261 2.310455,0.37982 h 0.40204 c 1.8e-4,0 2.6e-4,0 5.3e-4,0 1.8e-4,0 2.6e-4,0 5.3e-4,0 h 0.40204 c 1.34083,-0.0026 1.80709,-0.03285 2.31045,-0.37982 l 0.69919,-0.605131 c 0,0 0.76429,-0.753444 0.88005,-0.927077 0.11576,-0.173632 0.15141,-0.620117 0.15141,-0.620117 v -0.33383 -0.896069 c -10e-6,-0.01564 2.6e-4,-0.03108 0,-0.04651 -0.006,-0.286829 -0.0613,-0.540099 -0.13694,-0.754991 -0.0223,-0.06327 -0.0463,-0.122899 -0.0713,-0.179319 -7.9e-4,-0.0013 -0.002,-0.0028 -0.002,-0.0041 -0.003,-0.0076 -0.006,-0.01577 -0.01,-0.02326 h -0.001 c -0.17577,-0.383834 -0.3922,-0.599983 -0.3922,-0.599983 l -10e-4,-5.29e-4 c -2.7e-4,-1.604489 -1.21571,-2.43659 -2.09342,-2.705259 a 3.829998,1.9149992 0 0 0 -0.40204,-0.08837 c -0.84092,-0.104304 -1.33428,-0.120923 -1.33428,-0.120923 z" />
    <path
       style="fill:#c8c8c8;fill-opacity:1;stroke:none;stroke-width:0.1;stop-color:#000000"
       d="m 83.759118,54.405592 v -1.25001 c 0,0 -5e-4,-1.021376 2.13411,-1.021376 2.13469,0 2.13468,1.021376 2.13468,1.021376 v 1.25001 c 0,0 -2.4e-4,0.400005 -2.13457,0.400003 -2.13422,-3e-6 -2.13422,-0.400003 -2.13422,-0.400003 z"
       id="path10457-9-4-17"
       sodipodi:nodetypes="ccsccsc" />
    <path
       style="fill:#b4b4b4;fill-opacity:1;stroke:none;stroke-width:0.0999998;stop-color:#000000"
       d="m 88.235308,54.405591 v -1.25001 c 0,0 -2.4e-4,-1.021376 1.01719,-1.021376 1.01746,0 1.01746,1.021377 1.01746,1.021377 v 1.25001 c 0,0 -1.2e-4,0.400005 -1.01741,0.400003 -1.01724,-3e-6 -1.01724,-0.400003 -1.01724,-0.400004 z"
       id="path10457-9-4-1-4"
       sodipodi:nodetypes="ccsccsc" />
    <path
       style="fill:#b4b4b4;fill-opacity:1;stroke:none;stroke-width:0.0999998;stop-color:#000000"
       d="m 81.517458,54.405591 v -1.25001 c 0,0 -2.4e-4,-1.021376 1.01719,-1.021376 1.01747,0 1.01746,1.021377 1.01746,1.021377 v 1.25001 c 0,0 -1.1e-4,0.400005 -1.01741,0.400003 -1.01724,-3e-6 -1.01724,-0.400003 -1.01724,-0.400004 z"
       id="path10457-9-4-1-7-2"
       sodipodi:nodetypes="ccsccsc" />
    <path
       id="path31524-6"
       style="fill:#b4b4b4;fill-opacity:1;stroke:none;stroke-width:0.1;stroke-opacity:1;stop-color:#000000"
       d="m 83.063358,50.469826 c -0.215,0 -0.99994,-6e-5 -0.99994,0.99994 0,0.999998 5.2e-4,0.599961 5.2e-4,0.599961 h 3.82922 3.82975 c 1.1e-4,-0.04933 5.1e-4,-0.155477 5.1e-4,-0.599961 0,-0.902097 -0.63486,-0.989753 -0.91777,-0.998389 a 0.2970925,0.25631508 0 0 1 -0.29714,0.254764 0.2970925,0.25631508 0 0 1 -0.29714,-0.256315 h -2.31821 -1.61747 a 0.2970925,0.25631508 0 0 1 -0.29714,0.256315 0.2970925,0.25631508 0 0 1 -0.29713,-0.256315 z" />
    <path
       id="path34126-2"
       style="fill:none;fill-opacity:1;stroke:#000000;stroke-width:0.1;stroke-opacity:1;stop-color:#000000"
       d="m 83.016858,50.469826 c -0.26339,0.0037 -0.95344,0.06244 -0.95344,0.99994 0,0.444868 -1.1e-4,0.551283 0,0.60048 -0.61118,0.353354 -0.61288,1.1498 -0.61288,1.1498 v 1.250053 c 0,0.400002 1.08417,0.399976 1.08417,0.399976 h 3.35897 3.35897 c 0,0 1.08417,2.6e-5 1.08417,-0.399976 v -1.250053 c 0,0 -0.002,-0.797145 -0.6134,-1.150319 h -5.3e-4 c 1.2e-4,-0.04933 5.3e-4,-0.155477 5.3e-4,-0.599961 0,-0.902097 -0.63486,-0.989753 -0.91777,-0.998389 -9.88e-4,0.140969 -0.133741,0.25479 -0.29714,0.254765 -0.164099,2.3e-5 -0.297141,-0.114741 -0.29714,-0.256316 h -2.31821 -1.61747 c 10e-7,0.141575 -0.133041,0.256339 -0.29714,0.256316 -0.164099,2.3e-5 -0.297141,-0.114741 -0.29714,-0.256316 h -0.61805 c -0.0134,0 -0.029,-2.43e-4 -0.0465,0 z"
       sodipodi:nodetypes="csccscccscccscccccccsc" />
  </g>
</svg>
