<?xml version="1.0" encoding="UTF-8" standalone="no"?>
<!-- Created with Inkscape (http://www.inkscape.org/) -->

<svg
   xmlns:dc="http://purl.org/dc/elements/1.1/"
   xmlns:cc="http://creativecommons.org/ns#"
   xmlns:rdf="http://www.w3.org/1999/02/22-rdf-syntax-ns#"
   xmlns:svg="http://www.w3.org/2000/svg"
   xmlns="http://www.w3.org/2000/svg"
   xmlns:sodipodi="http://sodipodi.sourceforge.net/DTD/sodipodi-0.dtd"
   xmlns:inkscape="http://www.inkscape.org/namespaces/inkscape"
   width="210mm"
   height="297mm"
   viewBox="0 0 210 297"
   version="1.1"
   id="svg5"
   inkscape:version="0.92.4 (5da689c313, 2019-01-14)"
   sodipodi:docname="SpiderLockWasher.svg">
  <metadata
     id="metadata17">
    <rdf:RDF>
      <cc:Work
         rdf:about="">
        <dc:format>image/svg+xml</dc:format>
        <dc:type
           rdf:resource="http://purl.org/dc/dcmitype/StillImage" />
      </cc:Work>
    </rdf:RDF>
  </metadata>
  <sodipodi:namedview
     id="namedview7"
     pagecolor="#ffffff"
     bordercolor="#666666"
     borderopacity="1.0"
     inkscape:pageshadow="2"
     inkscape:pageopacity="0.0"
     inkscape:pagecheckerboard="0"
     inkscape:document-units="mm"
     showgrid="false"
     inkscape:snap-bbox="true"
     inkscape:bbox-paths="true"
     inkscape:bbox-nodes="true"
     inkscape:snap-bbox-edge-midpoints="true"
     inkscape:snap-bbox-midpoints="true"
     inkscape:object-paths="true"
     inkscape:snap-intersection-paths="true"
     inkscape:snap-smooth-nodes="true"
     showguides="true"
     inkscape:guide-bbox="true"
     inkscape:snap-center="true"
     inkscape:snap-object-midpoints="true"
     inkscape:snap-midpoints="true"
     inkscape:zoom="3.0217733"
     inkscape:cx="283.64445"
     inkscape:cy="963.42433"
     inkscape:window-width="2560"
     inkscape:window-height="1017"
     inkscape:window-x="-8"
     inkscape:window-y="-8"
     inkscape:window-maximized="1"
     inkscape:current-layer="layer1"
     inkscape:snap-global="false">
    <sodipodi:guide
       position="23.199118,279.05442"
       orientation="1,0"
       id="guide1421"
       inkscape:locked="false" />
    <sodipodi:guide
       position="23.199115,282.37443"
       orientation="0,-1"
       id="guide2099"
       inkscape:locked="false" />
  </sodipodi:namedview>
  <defs
     id="defs2" />
  <g
     inkscape:label="Layer 1"
     inkscape:groupmode="layer"
     id="layer1">
    <rect
       style="fill:#ffffff;stroke:#000000;stroke-width:0.132292;stroke-miterlimit:4;stroke-dasharray:none;stop-color:#000000"
       id="rect34533-0-8-7-8"
       width="30"
       height="25"
       x="31.645807"
       y="23.694941" />
    <text
       xml:space="preserve"
       style="font-size:4.23333px;line-height:1.25;font-family:Ste;-inkscape-font-specification:Ste;stroke-width:0.264583"
       x="32.311413"
       y="27.89518"
       id="text34591-3-6-7-9"><tspan
         sodipodi:role="line"
         id="tspan34589-2-0-0-3"
         style="font-style:normal;font-variant:normal;font-weight:bold;font-stretch:normal;font-size:4.23333px;font-family:sans-serif;-inkscape-font-specification:sans-serif;stroke-width:0.264583"
         x="32.311413"
         y="27.89518">4x12mm</tspan></text>
    <text
       xml:space="preserve"
       style="font-size:2.82222px;line-height:1.25;font-family:Ste;-inkscape-font-specification:Ste;text-align:start;text-anchor:start;stroke-width:0.264583"
       x="31.990316"
       y="30.999292"
       id="text34595-6-0-4-6"><tspan
         sodipodi:role="line"
         style="font-style:normal;font-variant:normal;font-weight:normal;font-stretch:normal;font-size:2.82222px;font-family:sans-serif;-inkscape-font-specification:sans-serif;text-align:start;text-anchor:start;stroke-width:0.264583"
         x="31.990316"
         y="30.999292"
         id="tspan34593-0-1-5-6">Spider</tspan><tspan
         sodipodi:role="line"
         style="font-style:normal;font-variant:normal;font-weight:normal;font-stretch:normal;font-size:2.82222px;font-family:sans-serif;-inkscape-font-specification:sans-serif;text-align:start;text-anchor:start;stroke-width:0.264583"
         x="31.990316"
         y="34.565029"
         id="tspan5405">Lock Washers</tspan></text>
    <path
       style="fill:#000000;fill-opacity:1;stroke:#000000;stroke-width:0.132292;stroke-miterlimit:4;stroke-dasharray:none;stroke-opacity:1;stop-color:#000000"
       d="m 56.90714,24.224106 h 4.2095 v 4.209499 z"
       id="path13761-4-5" />
    <circle
       style="fill:#000000;fill-opacity:1;stroke:none;stroke-width:0.1;stroke-opacity:1;stop-color:#000000"
       id="path846"
       cx="46.345585"
       cy="41.053844"
       r="5.9500003" />
    <path
       id="path994"
       style="fill:#ffffff;fill-opacity:1;stroke:none;stroke-width:0.0999998;stroke-opacity:1;stop-color:#000000"
       d="m 46.345568,37.733727 a 0.29999969,0.30000019 0 0 0 -0.300241,0.30024 v 0.660425 c -7e-6,0.473351 -0.273387,0.703809 -0.428914,0.79685 a 1.725,1.725 0 0 0 -0.09663,0.04961 c -0.0021,7.87e-4 -0.0083,0.0031 -0.0083,0.0031 0,0 -0.004,0.0031 -0.0046,0.0036 a 1.725,1.725 0 0 0 -0.140042,0.08632 c -0.185817,0.09486 -0.530863,0.202493 -0.914673,-0.01964 -0.564896,-0.326922 -0.565249,-0.326044 -0.56534,-0.326078 a 0.30000019,0.29999969 30 0 0 -0.0067,-0.0041 0.30000019,0.29999969 30 0 0 -0.409794,0.110071 0.30000019,0.29999969 30 0 0 0.110071,0.409794 0.30000019,0.29999969 30 0 0 0.01033,0.0052 l 0.551388,0.318326 c 0.0036,0.0021 0.0067,0.0046 0.01033,0.0067 0.393002,0.226907 0.467059,0.576133 0.474906,0.772563 7e-6,1.6e-4 -6e-6,3.57e-4 0,5.17e-4 a 1.725,1.725 0 0 0 -0.0067,0.146761 1.725,1.725 0 0 0 0.0067,0.146761 c -0.0076,0.195279 -0.0808,0.542055 -0.468188,0.768945 -0.0023,0.0014 -0.0044,0.0028 -0.0067,0.0041 l -0.572058,0.330213 a 0.29999969,0.30000019 60 0 0 -0.110071,0.409794 0.29999969,0.30000019 60 0 0 0.409794,0.11007 0.29999969,0.30000019 60 0 0 0.0067,-0.0041 l 0.56534,-0.326595 c 0.0028,-0.0016 0.0055,-0.0031 0.0083,-0.0047 0.406883,-0.230627 0.740336,-0.109225 0.897103,-0.0217 a 1.725,1.725 0 0 0 0.09043,0.05891 c 0.0016,0.0013 0.0067,0.0052 0.0067,0.0052 0,0 0.0036,0.0019 0.0041,0.0021 a 1.725,1.725 0 0 0 0.144694,0.07752 c 0.173016,0.111934 0.435836,0.353154 0.441834,0.788065 v 0.675411 a 0.29999969,0.30000019 0 0 1 5.17e-4,0 0.29999969,0.30000019 0 0 0 0.299723,0.299724 0.29999969,0.30000019 0 0 0 0.30024,-0.299724 v -0.660424 c 7e-6,-0.443136 0.266064,-0.688929 0.441833,-0.803052 a 1.725,1.725 0 0 0 0.146762,-0.07906 c 5.97e-4,-2.32e-4 0.0047,-0.0021 0.0047,-0.0021 0,0 0.0049,-0.0036 0.0062,-0.0047 a 1.725,1.725 0 0 0 0.09043,-0.05943 c 0.156226,-0.08727 0.48869,-0.207753 0.895552,0.02377 0.0026,0.0015 0.0052,0.0026 0.0078,0.0041 l 0.572058,0.330729 a 0.30000019,0.29999969 30 0 0 0.409799,-0.110025 0.30000019,0.29999969 30 0 0 -0.109554,-0.409794 h -5.17e-4 l -0.572058,-0.330213 c -0.0038,-0.0022 -0.0071,-0.0045 -0.01085,-0.0067 -0.383509,-0.227234 -0.456382,-0.57192 -0.464054,-0.766379 a 1.725,1.725 0 0 0 0.0067,-0.146761 1.725,1.725 0 0 0 -0.0067,-0.148312 c 0.008,-0.196712 0.08238,-0.5453 0.474906,-0.771529 l 0.567924,-0.328145 c 0,0 0.0016,-5.17e-4 0.0016,-5.17e-4 l 0.0026,-0.0016 5.17e-4,-5.17e-4 A 0.29999969,0.30000019 60 0 0 49.22084,39.394041 0.29999969,0.30000019 60 0 0 48.811046,39.28397 l -0.572058,0.330212 c -0.380084,0.219487 -0.725194,0.114463 -0.914669,0.01917 a 1.725,1.725 0 0 0 -0.152445,-0.09354 1.725,1.725 0 0 0 -0.102836,-0.05168 c -0.153122,-0.09149 -0.423439,-0.319749 -0.42323,-0.79375 v -0.660425 a 0.29999969,0.30000019 0 0 0 -0.30024,-0.30024 z" />
    <rect
       style="fill:#ffffff;stroke:#000000;stroke-width:0.132292;stroke-miterlimit:4;stroke-dasharray:none"
       id="rect846-3-2-8-2-1-3"
       width="40"
       height="20"
       x="66.937485"
       y="33.782696"
       ry="5" />
    <path
       inkscape:connector-curvature="0"
       id="path1242-78-5-9-8-8-9"
       style="fill:#ffffff;stroke:#000000;stroke-width:0.132292;stroke-miterlimit:4;stroke-dasharray:none"
       d="m 66.937474,23.694941 c 0,8.499999 5.00021,8.500249 5.00021,8.500249 h 19.359021 3.28146 19.359505 c 0,0 4.99969,-2.5e-4 4.99969,-8.500249 h -24.359195 -3.28146 z" />
    <text
       xml:space="preserve"
       style="font-size:4.34793997px;line-height:1.25;font-family:Ste;-inkscape-font-specification:Ste;stroke-width:0.08152401"
       x="100.26118"
       y="29.509838"
       id="text3821-6-2-8-2-7-5"><tspan
         sodipodi:role="line"
         id="tspan3819-2-9-3-3-9-6"
         style="font-style:normal;font-variant:normal;font-weight:bold;font-stretch:normal;font-family:sans-serif;-inkscape-font-specification:sans-serif;text-align:center;text-anchor:middle;stroke-width:0.08152401"
         x="100.26118"
         y="29.509838">Spider Washers</tspan></text>
    <text
       xml:space="preserve"
       style="font-size:4.34793997px;line-height:1.25;font-family:Ste;-inkscape-font-specification:Ste;stroke-width:0.08152401"
       x="88.357193"
       y="38.425205"
       id="text8073-7-2-8-5-8-5"><tspan
         sodipodi:role="line"
         id="tspan8071-6-0-6-9-4-6"
         style="font-style:normal;font-variant:normal;font-weight:bold;font-stretch:normal;font-family:sans-serif;-inkscape-font-specification:sans-serif;text-align:center;text-anchor:middle;stroke-width:0.08152401"
         x="88.357193"
         y="38.425205">Spider Washers</tspan></text>
    <text
       xml:space="preserve"
       style="font-size:3.24150991px;line-height:1.25;font-family:Ste;-inkscape-font-specification:Ste;stroke-width:0.0607786"
       x="88.359909"
       y="42.256351"
       id="text8160-0-0-7-4-4-6"><tspan
         sodipodi:role="line"
         id="tspan8158-8-5-1-9-8-3"
         style="font-style:normal;font-variant:normal;font-weight:normal;font-stretch:normal;font-family:sans-serif;-inkscape-font-specification:sans-serif;text-align:center;text-anchor:middle;stroke-width:0.0607786"
         x="88.359909"
         y="42.256351">4x15mm</tspan></text>
    <path
       inkscape:connector-curvature="0"
       id="path37237-5-7-1-9-3"
       style="color:#000000;fill:#000000;fill-opacity:1;stroke:#000000;stroke-width:0.132292;stroke-miterlimit:4;stroke-dasharray:none;stroke-opacity:1"
       d="m 70.902564,34.9138 c -1.72079,0.44811 -2.96622,1.99379 -2.96622,3.8685 v 9.99991 c 0,1.874709 1.24542,3.420389 2.96622,3.86849 z" />
    <path
       inkscape:connector-curvature="0"
       id="path20467-70-6-4"
       style="color:#000000;fill:#000000;fill-opacity:1;stroke:#000000;stroke-width:0.132292;stroke-miterlimit:4;stroke-dasharray:none;stroke-opacity:1"
       d="m 68.091514,24.69457 c 0.21106,3.17504 1.10484,4.91967 1.9942,5.67563 0.9994,0.84952 1.85156,0.82424 1.85156,0.82424 h 1.54513 v -6.49987 z"
       sodipodi:nodetypes="cscccc" />
    <circle
       style="fill:#000000;fill-opacity:1;stroke:none;stroke-width:0.1;stroke-opacity:1"
       id="path846-0"
       cx="86.937485"
       cy="47.8064"
       r="4.0237031" />
    <path
       inkscape:connector-curvature="0"
       id="path994-8"
       style="fill:#ffffff;fill-opacity:1;stroke:none;stroke-width:0.0999998;stroke-opacity:1"
       d="m 86.937472,45.56116 a 0.20287557,0.20287591 0 0 0 -0.20303,0.203038 v 0.446614 c -1e-5,0.320105 -0.18489,0.475953 -0.29006,0.538872 a 1.1665357,1.1665357 0 0 0 -0.0653,0.03355 c -10e-4,5.37e-4 -0.005,0.0021 -0.005,0.0021 0,0 -0.003,0.0021 -0.003,0.0024 a 1.1665357,1.1665357 0 0 0 -0.0947,0.05837 c -0.12566,0.06415 -0.359,0.136938 -0.61855,-0.01328 -0.38202,-0.221081 -0.38225,-0.220488 -0.38231,-0.220511 a 0.20287591,0.20287557 30 0 0 -0.005,-0.0028 0.20287591,0.20287557 30 0 0 -0.27712,0.07444 0.20287591,0.20287557 30 0 0 0.0744,0.277125 0.20287591,0.20287557 30 0 0 0.007,0.0035 l 0.37287,0.215269 c 0.003,0.0014 0.005,0.0031 0.007,0.0045 0.26577,0.153446 0.31585,0.389611 0.32116,0.522448 0,1.08e-4 -10e-6,2.32e-4 0,3.58e-4 a 1.1665357,1.1665357 0 0 0 -0.005,0.09925 1.1665357,1.1665357 0 0 0 0.005,0.09925 c -0.005,0.132058 -0.0546,0.366566 -0.31662,0.52 -10e-4,9.47e-4 -0.003,0.0019 -0.005,0.0028 l -0.38686,0.223307 a 0.20287557,0.20287591 60 0 0 -0.0744,0.277124 0.20287557,0.20287591 60 0 0 0.27713,0.07444 0.20287557,0.20287591 60 0 0 0.005,-0.0028 l 0.38231,-0.220861 c 0.002,-0.0011 0.003,-0.0021 0.005,-0.0032 0.27516,-0.155962 0.50065,-0.07386 0.60667,-0.01467 a 1.1665357,1.1665357 0 0 0 0.0611,0.03984 c 0.001,8.79e-4 0.005,0.0035 0.005,0.0035 0,0 0.003,0.0013 0.003,0.0014 a 1.1665357,1.1665357 0 0 0 0.0979,0.05242 c 0.117,0.07569 0.29474,0.238821 0.29879,0.532931 v 0.456748 a 0.20287557,0.20287591 0 0 1 3.6e-4,0 0.20287557,0.20287591 0 0 0 0.20269,0.202689 0.20287557,0.20287591 0 0 0 0.20304,-0.202689 v -0.446613 c 0,-0.299672 0.17992,-0.46589 0.29879,-0.543066 a 1.1665357,1.1665357 0 0 0 0.0992,-0.05347 c 4.1e-4,-1.57e-4 0.003,-0.0014 0.003,-0.0014 0,0 0.003,-0.0024 0.004,-0.0032 a 1.1665357,1.1665357 0 0 0 0.0611,-0.0402 c 0.10565,-0.05902 0.33048,-0.140493 0.60562,0.01608 0.002,10e-4 0.003,0.0018 0.005,0.0028 l 0.38686,0.223657 a 0.20287591,0.20287557 30 0 0 0.27712,-0.0744 0.20287591,0.20287557 30 0 0 -0.0741,-0.277125 h -3.6e-4 l -0.38686,-0.223307 c -0.003,-0.0015 -0.005,-0.003 -0.007,-0.0045 -0.25935,-0.153667 -0.30863,-0.386762 -0.31381,-0.518265 a 1.1665357,1.1665357 0 0 0 0.005,-0.09925 1.1665357,1.1665357 0 0 0 -0.005,-0.100296 c 0.005,-0.133027 0.0557,-0.368761 0.32115,-0.521748 l 0.38406,-0.221909 c 0,0 0.001,-3.58e-4 0.001,-3.58e-4 l 0.002,-0.0011 3.6e-4,-3.58e-4 a 0.20287557,0.20287591 60 0 0 0.074,-0.276775 0.20287557,0.20287591 60 0 0 -0.27712,-0.07444 l -0.38685,0.223307 c -0.25704,0.148428 -0.49042,0.07741 -0.61855,0.01296 a 1.1665357,1.1665357 0 0 0 -0.1031,-0.06326 1.1665357,1.1665357 0 0 0 -0.0695,-0.03495 c -0.10354,-0.06187 -0.28635,-0.216231 -0.28621,-0.536775 v -0.446607 a 0.20287557,0.20287591 0 0 0 -0.20302,-0.203038 z" />
    <circle
       style="fill:#000000;fill-opacity:1;stroke:none;stroke-width:0.10000001;stroke-opacity:1"
       id="path846-0-3"
       cx="78.715508"
       cy="28.018869"
       r="3.1481137" />
    <path
       inkscape:connector-curvature="0"
       id="path994-8-3"
       style="fill:#ffffff;fill-opacity:1;stroke:none;stroke-width:0.09999979;stroke-opacity:1"
       d="m 78.715493,26.262212 a 0.15872824,0.15872851 0 0 0 -0.158839,0.158855 v 0.349427 c -1.2e-5,0.250447 -0.144657,0.372382 -0.22694,0.421609 a 0.9126883,0.9126883 0 0 0 -0.05111,0.02625 c -7.78e-4,4.13e-4 -0.0035,0.0016 -0.0035,0.0016 0,0 -0.0023,0.0016 -0.0023,0.0019 a 0.9126883,0.9126883 0 0 0 -0.07411,0.04567 c -0.09826,0.05019 -0.280881,0.107139 -0.483951,-0.01034 -0.298885,-0.172971 -0.299059,-0.172508 -0.299117,-0.172525 a 0.15872851,0.15872824 30 0 0 -0.0035,-0.0022 0.15872851,0.15872824 30 0 0 -0.216822,0.05824 0.15872851,0.15872824 30 0 0 0.05819,0.21682 0.15872851,0.15872824 30 0 0 0.0058,0.0028 l 0.29173,0.168425 c 0.0023,0.0011 0.0035,0.0024 0.0058,0.0035 0.207937,0.120056 0.247116,0.304829 0.251274,0.40876 0,8.5e-5 -1.2e-5,1.81e-4 0,2.89e-4 a 0.9126883,0.9126883 0 0 0 -0.0035,0.07765 0.9126883,0.9126883 0 0 0 0.0035,0.07765 c -0.0035,0.103318 -0.04274,0.2868 -0.247731,0.406845 -7.78e-4,7.44e-4 -0.0023,0.0015 -0.0035,0.0022 l -0.302682,0.174713 a 0.15872824,0.15872851 60 0 0 -0.05819,0.21682 0.15872824,0.15872851 60 0 0 0.216823,0.05824 0.15872824,0.15872851 60 0 0 0.0035,-0.0022 l 0.299117,-0.1728 c 0.0012,-8.59e-4 0.0023,-0.0016 0.0035,-0.0026 0.215277,-0.122023 0.391702,-0.05779 0.474647,-0.0115 a 0.9126883,0.9126883 0 0 0 0.04785,0.03117 c 7.78e-4,6.83e-4 0.0035,0.0028 0.0035,0.0028 0,0 0.0023,10e-4 0.0023,0.0011 a 0.9126883,0.9126883 0 0 0 0.07654,0.04101 c 0.09153,0.05921 0.230598,0.186851 0.233769,0.416961 v 0.357356 a 0.15872824,0.15872851 0 0 1 2.91e-4,0 0.15872824,0.15872851 0 0 0 0.158583,0.158582 0.15872824,0.15872851 0 0 0 0.158863,-0.158582 v -0.349425 c 0,-0.234461 0.140765,-0.364509 0.233769,-0.42489 a 0.9126883,0.9126883 0 0 0 0.07759,-0.04184 c 3.25e-4,-1.23e-4 0.0023,-0.0011 0.0023,-0.0011 0,0 0.0023,-0.0019 0.0035,-0.0026 a 0.9126883,0.9126883 0 0 0 0.04785,-0.03145 c 0.0827,-0.04618 0.258568,-0.109916 0.473834,0.01258 0.0012,7.83e-4 0.0023,0.0014 0.0035,0.0022 l 0.302672,0.174988 a 0.15872851,0.15872824 30 0 0 0.216811,-0.0582 0.15872851,0.15872824 30 0 0 -0.05796,-0.216821 h -2.9e-4 l -0.302671,-0.174714 c -0.0023,-0.0012 -0.0035,-0.0023 -0.0058,-0.0035 -0.202907,-0.120229 -0.24147,-0.3026 -0.245524,-0.405487 a 0.9126883,0.9126883 0 0 0 0.0035,-0.07765 0.9126883,0.9126883 0 0 0 -0.0035,-0.07847 c 0.0035,-0.104084 0.04356,-0.288515 0.251274,-0.408212 l 0.300487,-0.173619 c 0,0 7.78e-4,-2.91e-4 7.78e-4,-2.91e-4 l 0.0012,-8.6e-4 2.9e-4,-2.9e-4 a 0.15872824,0.15872851 60 0 0 0.05784,-0.216546 0.15872824,0.15872851 60 0 0 -0.21681,-0.05824 l -0.302672,0.174714 c -0.201107,0.116129 -0.383699,0.06056 -0.483951,0.0101 a 0.9126883,0.9126883 0 0 0 -0.08073,-0.04948 0.9126883,0.9126883 0 0 0 -0.05436,-0.02734 c -0.08096,-0.0484 -0.224035,-0.169178 -0.223931,-0.41997 v -0.349421 a 0.15872824,0.15872851 0 0 0 -0.158839,-0.158856 z" />
  </g>
</svg>
