<?xml version="1.0" encoding="UTF-8" standalone="no"?>
<!-- Created with Inkscape (http://www.inkscape.org/) -->

<svg
   width="8.5in"
   height="11in"
   viewBox="0 0 215.9 279.4"
   version="1.1"
   id="svg5"
   inkscape:version="1.2.1 (9c6d41e410, 2022-07-14)"
   sodipodi:docname="SuperGlueTube.svg"
   xmlns:inkscape="http://www.inkscape.org/namespaces/inkscape"
   xmlns:sodipodi="http://sodipodi.sourceforge.net/DTD/sodipodi-0.dtd"
   xmlns="http://www.w3.org/2000/svg"
   xmlns:svg="http://www.w3.org/2000/svg">
  <sodipodi:namedview
     id="namedview7"
     pagecolor="#ffffff"
     bordercolor="#666666"
     borderopacity="1.0"
     inkscape:pageshadow="2"
     inkscape:pageopacity="0.0"
     inkscape:pagecheckerboard="0"
     inkscape:deskcolor="#d1d1d1"
     inkscape:document-units="mm"
     showgrid="false"
     inkscape:showpageshadow="2"
     inkscape:zoom="1.1557446"
     inkscape:cx="-27.687778"
     inkscape:cy="372.91976"
     inkscape:window-width="2560"
     inkscape:window-height="1017"
     inkscape:window-x="-8"
     inkscape:window-y="-8"
     inkscape:window-maximized="1"
     inkscape:current-layer="layer1" />
  <defs
     id="defs2" />
  <g
     inkscape:label="Layer 1"
     inkscape:groupmode="layer"
     id="layer1">
    <path
       id="path61893"
       style="fill:#1017db;fill-opacity:1;stroke:none;stroke-width:0.132;stroke-dasharray:none;stroke-opacity:1;stop-color:#000000"
       d="M 30.396594 98.556775 L 20.396688 100.58197 L 20.396688 104.48199 L 20.396688 108.38201 L 30.396594 110.40721 L 50.396407 110.33177 L 50.396407 104.48199 L 50.396407 98.631706 L 30.396594 98.556775 z " />
    <rect
       style="fill:none;stroke:#000000;stroke-width:0.1;stroke-dasharray:none;stroke-opacity:1;stop-color:#000000"
       id="rect60145"
       width="30"
       height="12.3"
       x="20.396524"
       y="71.873459" />
    <rect
       style="fill:none;stroke:#000000;stroke-width:0.1;stroke-dasharray:none;stroke-opacity:1;stop-color:#000000"
       id="rect60145-4"
       width="30"
       height="3.9000001"
       x="20.396526"
       y="74.123459" />
    <rect
       style="fill:none;stroke:#000000;stroke-width:0.0999999;stroke-dasharray:none;stroke-opacity:1;stop-color:#000000"
       id="rect60145-1"
       width="8.8000002"
       height="12.3"
       x="50.396526"
       y="71.873459" />
    <rect
       style="fill:none;stroke:#000000;stroke-width:0.1;stroke-dasharray:none;stroke-opacity:1;stop-color:#000000"
       id="rect60145-1-9"
       width="2"
       height="12.3"
       x="59.196526"
       y="71.873459" />
    <rect
       style="fill:none;stroke:#000000;stroke-width:0.1;stroke-dasharray:none;stroke-opacity:1;stop-color:#000000"
       id="rect60145-1-9-4"
       width="5"
       height="21.200001"
       x="98.496521"
       y="67.423462" />
    <rect
       style="fill:none;stroke:#000000;stroke-width:0.0999998;stroke-dasharray:none;stroke-opacity:1;stop-color:#000000"
       id="rect60145-1-9-8"
       width="37.299999"
       height="13.38"
       x="61.196522"
       y="71.333466" />
    <path
       style="fill:none;stroke:#000000;stroke-width:0.132;stroke-dasharray:none;stroke-opacity:1;stop-color:#000000"
       d="m 61.196521,71.333465 c 18.65,0 37.3,-3.910005 37.3,-3.910005 v 10.600002 l -39.299995,-2e-6 1e-6,-4.150001 z"
       id="path60661"
       sodipodi:nodetypes="cccccc" />
    <rect
       style="fill:none;stroke:#000000;stroke-width:0.1;stroke-dasharray:none;stroke-opacity:1;stop-color:#000000"
       id="rect60663"
       width="2"
       height="4.1500001"
       x="59.196526"
       y="73.873459" />
    <rect
       style="fill:none;stroke:#000000;stroke-width:0.1;stroke-dasharray:none;stroke-opacity:1;stop-color:#000000"
       id="rect60663-0"
       width="2"
       height="4.1500001"
       x="59.196526"
       y="78.02346" />
    <rect
       style="fill:none;stroke:#000000;stroke-width:0.0999999;stroke-dasharray:none;stroke-opacity:1;stop-color:#000000"
       id="rect61511"
       width="8.8000002"
       height="5.8499999"
       x="50.396526"
       y="72.173462" />
    <rect
       style="fill:none;stroke:#000000;stroke-width:0.132;stroke-dasharray:none;stroke-opacity:1;stop-color:#000000"
       id="rect61535"
       width="10"
       height="5.9250002"
       x="20.396526"
       y="72.098457" />
    <path
       style="fill:none;stroke:#000000;stroke-width:0.132;stroke-dasharray:none;stroke-opacity:1;stop-color:#000000"
       d="m 20.396526,74.123459 10,-2.025002 20,0.075"
       id="path61537" />
    <path
       style="fill:none;stroke:#000000;stroke-width:0.132;stroke-dasharray:none;stroke-opacity:1;stop-color:#000000"
       d="M 50.396526,72.173461 20.396527,74.123459"
       id="path61539" />
    <path
       style="fill:#bcbcbc;stroke:none;stroke-width:0.132;stroke-dasharray:none;stroke-opacity:1;stop-color:#000000;fill-opacity:1"
       d="m 61.196264,97.791962 v 13.379548 l -1.999739,-2.53973 v -8.3001 z"
       id="path61590" />
    <path
       id="path61655"
       style="fill:#2342f4;stroke:none;stroke-width:0.132;stroke-dasharray:none;stroke-opacity:1;stop-color:#000000;fill-opacity:1"
       d="M 98.496313 93.881608 C 98.496313 93.881608 79.846227 97.791964 61.196265 97.791964 L 61.196265 111.17151 C 79.846227 111.17151 98.496313 115.08186 98.496313 115.08186 L 98.496313 104.48199 L 98.496313 93.881608 z " />
    <rect
       style="fill:none;stroke:#000000;stroke-width:0.1;stroke-dasharray:none;stroke-opacity:1;stop-color:#000000"
       id="rect61549"
       width="5"
       height="21.200001"
       x="98.496521"
       y="93.881783" />
    <rect
       style="fill:none;stroke:#000000;stroke-width:0.0999999;stroke-dasharray:none;stroke-opacity:1;stop-color:#000000"
       id="rect61559"
       width="8.8000002"
       height="5.8499999"
       x="50.396526"
       y="98.631783" />
    <path
       id="rect61712"
       style="fill:#df3333;fill-opacity:1;stroke:none;stroke-width:0.132;stroke-dasharray:none;stroke-opacity:1;stop-color:#000000"
       d="M 98.496313 93.881608 C 98.496313 93.881608 95.533064 94.50221 90.796525 95.24845 L 90.796525 113.71502 C 95.533064 114.46126 98.496313 115.08186 98.496313 115.08186 L 98.496313 104.48199 L 98.496313 93.881608 z " />
    <path
       id="rect61712-9"
       style="fill:#000000;fill-opacity:1;stroke:none;stroke-width:0.132;stroke-dasharray:none;stroke-opacity:1;stop-color:#000000"
       d="M 90.796525 95.24845 C 89.078413 95.519137 87.126575 95.805779 84.996362 96.086125 L 84.996362 112.87735 C 87.126575 113.15769 89.078413 113.44434 90.796525 113.71502 L 90.796525 95.24845 z " />
    <path
       id="path61805"
       style="fill:#ffffff;fill-opacity:1;stroke:#000000;stroke-width:0.132;stroke-dasharray:none;stroke-opacity:1;stop-color:#000000"
       d="M 59.196387 98.331982 L 50.396407 98.631706 L 50.396407 104.48199 L 50.396407 110.33177 L 59.196387 110.63201 L 59.196387 104.48199 L 59.196387 98.331982 z " />
    <path
       id="path61553"
       style="fill:none;stroke:#000000;stroke-width:0.132;stroke-dasharray:none;stroke-opacity:1;stop-color:#000000"
       d="M 98.496313 93.881608 C 98.496313 93.881608 79.846246 97.791964 61.196265 97.791964 L 59.196387 100.33186 L 59.196387 104.48199 L 59.196387 108.63161 L 61.196265 111.17151 C 79.846246 111.17151 98.496313 115.08186 98.496313 115.08186 L 98.496313 104.48199 L 98.496313 93.881608 z " />
    <path
       style="fill:#090d7d;fill-opacity:1;stroke:none;stroke-width:0.132;stroke-dasharray:none;stroke-opacity:1;stop-color:#000000"
       d="m 21.741483,100.52456 c 0,0 28.268959,-1.506592 28.268957,-1.506682 -3e-6,-9e-5 -19.534429,-0.0302 -19.534429,-0.0302 z"
       id="path62845"
       sodipodi:nodetypes="cscc" />
    <path
       style="fill:#090d7d;fill-opacity:1;stroke:none;stroke-width:0.132;stroke-dasharray:none;stroke-opacity:1;stop-color:#000000"
       d="m 21.741645,108.43924 c 0,0 28.268959,1.5066 28.268957,1.50669 -3e-6,9e-5 -19.534429,0.0302 -19.534429,0.0302 z"
       id="path62845-7"
       sodipodi:nodetypes="cscc" />
    <rect
       style="fill:#3a40f1;fill-opacity:1;stroke:none;stroke-width:0.132;stroke-dasharray:none;stroke-opacity:1;stop-color:#000000"
       id="rect63375"
       width="29.999722"
       height="1.5"
       x="20.396688"
       y="103.73199" />
    <path
       id="path63637"
       style="fill:none;fill-opacity:1;stroke:#000000;stroke-width:0.132;stroke-dasharray:none;stroke-opacity:1;stop-color:#000000"
       d="M 30.396594 98.556775 L 20.396688 100.58197 L 20.396688 104.48199 L 20.396688 108.38201 L 30.396594 110.40721 L 50.396407 110.33177 L 50.396407 104.48199 L 50.396407 98.631706 L 30.396594 98.556775 z " />
    <rect
       style="fill:#ffffff;stroke:#000000;stroke-width:0.132292;stroke-miterlimit:4;stroke-dasharray:none"
       id="rect846-7-1-3"
       width="40"
       height="20"
       x="13.265763"
       y="122.33459"
       ry="5" />
    <text
       xml:space="preserve"
       style="font-size:4.34794px;line-height:1.25;font-family:Ste;-inkscape-font-specification:Ste;stroke-width:0.081524"
       x="33.098022"
       y="128.56459"
       id="text8073-1-0-9"><tspan
         sodipodi:role="line"
         id="tspan8071-2-2-9"
         style="font-style:normal;font-variant:normal;font-weight:bold;font-stretch:normal;font-family:sans-serif;-inkscape-font-specification:sans-serif;text-align:center;text-anchor:middle;stroke-width:0.081524"
         x="33.098022"
         y="128.56459">SuperGlue</tspan></text>
    <path
       id="path61893-6"
       style="fill:#1017db;fill-opacity:1;stroke:none;stroke-width:0.132;stroke-dasharray:none;stroke-opacity:1;stop-color:#000000"
       d="m 19.303507,132.53227 -4.35029,0.88102 v 1.69663 1.69665 l 4.35029,0.88102 8.700577,-0.0327 v -2.54485 -2.54508 z" />
    <path
       style="fill:#bcbcbc;fill-opacity:1;stroke:none;stroke-width:0.132;stroke-dasharray:none;stroke-opacity:1;stop-color:#000000"
       d="m 32.70238,132.19955 v 5.82054 l -0.869953,-1.10487 v -3.61082 z"
       id="path61590-6" />
    <path
       id="path61655-8"
       style="fill:#2342f4;fill-opacity:1;stroke:none;stroke-width:0.132;stroke-dasharray:none;stroke-opacity:1;stop-color:#000000"
       d="m 48.929131,130.49842 c 0,0 -8.113403,1.70113 -16.226751,1.70113 v 5.82054 c 8.113348,0 16.226751,1.70114 16.226751,1.70114 v -4.61131 z" />
    <rect
       style="fill:none;stroke:#000000;stroke-width:0.0999998;stroke-dasharray:none;stroke-opacity:1;stop-color:#000000"
       id="rect61549-4"
       width="2.1751649"
       height="9.2227001"
       x="48.929237"
       y="130.4985" />
    <rect
       style="fill:none;stroke:#000000;stroke-width:0.0999998;stroke-dasharray:none;stroke-opacity:1;stop-color:#000000"
       id="rect61559-8"
       width="3.8282907"
       height="2.5449431"
       x="28.004133"
       y="132.56493" />
    <path
       id="rect61712-0"
       style="fill:#df3333;fill-opacity:1;stroke:none;stroke-width:0.132;stroke-dasharray:none;stroke-opacity:1;stop-color:#000000"
       d="m 48.929131,130.49842 c 0,0 -1.289109,0.26998 -3.349662,0.59461 v 8.03358 c 2.060553,0.32463 3.349662,0.59462 3.349662,0.59462 v -4.61131 z" />
    <path
       id="rect61712-9-3"
       style="fill:#000000;fill-opacity:1;stroke:none;stroke-width:0.132;stroke-dasharray:none;stroke-opacity:1;stop-color:#000000"
       d="m 45.579469,131.09303 c -0.747436,0.11779 -1.596548,0.24247 -2.523264,0.36442 v 7.30473 c 0.926716,0.12201 1.775828,0.24668 2.523264,0.36443 z" />
    <path
       id="path61805-3"
       style="fill:#ffffff;fill-opacity:1;stroke:#000000;stroke-width:0.132;stroke-dasharray:none;stroke-opacity:1;stop-color:#000000"
       d="m 31.832369,132.43448 -3.828281,0.13041 v 2.54506 2.54486 l 3.828281,0.13057 v -2.67546 z" />
    <path
       id="path61553-3"
       style="fill:none;stroke:#000000;stroke-width:0.132;stroke-dasharray:none;stroke-opacity:1;stop-color:#000000"
       d="m 48.929131,130.49842 c 0,0 -8.113395,1.70113 -16.226751,1.70113 l -0.870011,1.10495 v 1.80542 1.80524 l 0.870011,1.10493 c 8.113356,0 16.226751,1.70114 16.226751,1.70114 v -4.61131 z" />
    <path
       style="fill:#090d7d;fill-opacity:1;stroke:none;stroke-width:0.132;stroke-dasharray:none;stroke-opacity:1;stop-color:#000000"
       d="m 15.538247,133.38833 c 0,0 12.29793,-0.65543 12.29793,-0.65546 -4e-6,-4e-5 -8.49812,-0.0124 -8.49812,-0.0124 z"
       id="path62845-2"
       sodipodi:nodetypes="cscc" />
    <path
       style="fill:#090d7d;fill-opacity:1;stroke:none;stroke-width:0.132;stroke-dasharray:none;stroke-opacity:1;stop-color:#000000"
       d="m 15.538318,136.83147 c 0,0 12.29793,0.65542 12.29793,0.65545 0,4e-5 -8.498122,0.0124 -8.498122,0.0124 z"
       id="path62845-7-8"
       sodipodi:nodetypes="cscc" />
    <rect
       style="fill:#3a40f1;fill-opacity:1;stroke:none;stroke-width:0.132;stroke-dasharray:none;stroke-opacity:1;stop-color:#000000"
       id="rect63375-1"
       width="13.05087"
       height="0.65254951"
       x="14.953219"
       y="134.78366" />
    <path
       id="path63637-2"
       style="fill:none;fill-opacity:1;stroke:#000000;stroke-width:0.132;stroke-dasharray:none;stroke-opacity:1;stop-color:#000000"
       d="m 19.303507,132.53227 -4.35029,0.88102 v 1.69663 1.69665 l 4.35029,0.88102 8.700577,-0.0327 v -2.54485 -2.54508 z" />
    <path
       inkscape:connector-curvature="0"
       id="path1242-0-8"
       style="fill:#ffffff;stroke:#000000;stroke-width:0.132292;stroke-miterlimit:4;stroke-dasharray:none"
       d="m 54.432431,122.33459 c 0,8.5 5.00021,8.50025 5.00021,8.50025 h 19.359022 3.28146 19.359507 c 0,0 4.99969,-2.5e-4 4.99969,-8.50025 h -24.359197 -3.28146 z" />
    <text
       xml:space="preserve"
       style="font-size:4.34794px;line-height:1.25;font-family:Ste;-inkscape-font-specification:Ste;stroke-width:0.081524"
       x="89.343742"
       y="128.14951"
       id="text3821-63-1"><tspan
         sodipodi:role="line"
         id="tspan3819-4-8"
         style="font-style:normal;font-variant:normal;font-weight:bold;font-stretch:normal;font-family:sans-serif;-inkscape-font-specification:sans-serif;text-align:center;text-anchor:middle;stroke-width:0.081524"
         x="89.343742"
         y="128.14951">SuperGlue</tspan></text>
    <path
       id="path61893-6-6"
       style="fill:#1017db;fill-opacity:1;stroke:none;stroke-width:0.132;stroke-dasharray:none;stroke-opacity:1;stop-color:#000000"
       d="m 59.001796,125.28339 -2.196311,0.4448 v 0.85657 0.85658 l 2.196311,0.4448 4.392622,-0.0165 v -1.2848 -1.28492 z" />
    <path
       style="fill:#bcbcbc;fill-opacity:1;stroke:none;stroke-width:0.132;stroke-dasharray:none;stroke-opacity:1;stop-color:#000000"
       d="m 65.766424,125.11542 v 2.93859 l -0.439208,-0.55781 v -1.82298 z"
       id="path61590-6-7" />
    <path
       id="path61655-8-6"
       style="fill:#2342f4;fill-opacity:1;stroke:none;stroke-width:0.132;stroke-dasharray:none;stroke-opacity:1;stop-color:#000000"
       d="m 73.958752,124.25658 c 0,0 -4.096177,0.85884 -8.192328,0.85884 v 2.93859 c 4.096151,0 8.192328,0.85884 8.192328,0.85884 v -2.32809 z" />
    <rect
       style="fill:none;stroke:#000000;stroke-width:0.0999996;stroke-dasharray:none;stroke-opacity:1;stop-color:#000000"
       id="rect61549-4-0"
       width="1.0981656"
       height="4.6562233"
       x="73.958801"
       y="124.25662" />
    <rect
       style="fill:none;stroke:#000000;stroke-width:0.0999996;stroke-dasharray:none;stroke-opacity:1;stop-color:#000000"
       id="rect61559-8-9"
       width="1.9327719"
       height="1.2848541"
       x="63.39444"
       y="125.29988" />
    <path
       id="rect61712-0-2"
       style="fill:#df3333;fill-opacity:1;stroke:none;stroke-width:0.132;stroke-dasharray:none;stroke-opacity:1;stop-color:#000000"
       d="m 73.958752,124.25658 c 0,0 -0.650827,0.1363 -1.691129,0.30019 v 4.05588 c 1.040302,0.1639 1.691129,0.3002 1.691129,0.3002 v -2.32809 z" />
    <path
       id="rect61712-9-3-9"
       style="fill:#000000;fill-opacity:1;stroke:none;stroke-width:0.132;stroke-dasharray:none;stroke-opacity:1;stop-color:#000000"
       d="m 72.267623,124.55677 c -0.377355,0.0595 -0.806043,0.12242 -1.273909,0.18398 v 3.68791 c 0.467866,0.0616 0.896554,0.12454 1.273909,0.18399 z" />
    <path
       id="path61805-3-3"
       style="fill:#ffffff;fill-opacity:1;stroke:#000000;stroke-width:0.132;stroke-dasharray:none;stroke-opacity:1;stop-color:#000000"
       d="m 65.327187,125.23403 -1.932767,0.0659 v 1.28492 1.28482 l 1.932767,0.066 v -1.35084 z" />
    <path
       id="path61553-3-2"
       style="fill:none;stroke:#000000;stroke-width:0.132;stroke-dasharray:none;stroke-opacity:1;stop-color:#000000"
       d="m 73.958752,124.25658 c 0,0 -4.096174,0.85884 -8.192328,0.85884 l -0.439237,0.55784 v 0.9115 0.91141 l 0.439237,0.55784 c 4.096154,0 8.192328,0.85884 8.192328,0.85884 v -2.32809 z" />
    <path
       style="fill:#090d7d;fill-opacity:1;stroke:none;stroke-width:0.132;stroke-dasharray:none;stroke-opacity:1;stop-color:#000000"
       d="m 57.100847,125.7156 c 0,0 6.2088,-0.33091 6.2088,-0.33093 -2e-6,-1e-5 -4.290407,-0.007 -4.290407,-0.007 z"
       id="path62845-2-5"
       sodipodi:nodetypes="cscc" />
    <path
       style="fill:#090d7d;fill-opacity:1;stroke:none;stroke-width:0.132;stroke-dasharray:none;stroke-opacity:1;stop-color:#000000"
       d="m 57.100882,127.45391 c 0,0 6.208801,0.33091 6.208801,0.33092 0,2e-5 -4.290409,0.007 -4.290409,0.007 z"
       id="path62845-7-8-8"
       sodipodi:nodetypes="cscc" />
    <rect
       style="fill:#3a40f1;fill-opacity:1;stroke:none;stroke-width:0.132;stroke-dasharray:none;stroke-opacity:1;stop-color:#000000"
       id="rect63375-1-8"
       width="6.5889339"
       height="0.32944971"
       x="56.805485"
       y="126.42005" />
    <path
       id="path63637-2-5"
       style="fill:none;fill-opacity:1;stroke:#000000;stroke-width:0.132;stroke-dasharray:none;stroke-opacity:1;stop-color:#000000"
       d="m 59.001796,125.28339 -2.196311,0.4448 v 0.85657 0.85658 l 2.196311,0.4448 4.392622,-0.0165 v -1.2848 -1.28492 z" />
  </g>
</svg>
