<?xml version="1.0" encoding="UTF-8" standalone="no"?>
<!-- Created with Inkscape (http://www.inkscape.org/) -->

<svg
   width="210mm"
   height="297mm"
   viewBox="0 0 210 297"
   version="1.1"
   id="svg5"
   inkscape:version="1.1 (c68e22c387, 2021-05-23)"
   sodipodi:docname="WireNails.svg"
   xmlns:inkscape="http://www.inkscape.org/namespaces/inkscape"
   xmlns:sodipodi="http://sodipodi.sourceforge.net/DTD/sodipodi-0.dtd"
   xmlns="http://www.w3.org/2000/svg"
   xmlns:svg="http://www.w3.org/2000/svg">
  <sodipodi:namedview
     id="namedview7"
     pagecolor="#ffffff"
     bordercolor="#666666"
     borderopacity="1.0"
     inkscape:pageshadow="2"
     inkscape:pageopacity="0.0"
     inkscape:pagecheckerboard="0"
     inkscape:document-units="mm"
     showgrid="false"
     inkscape:snap-bbox="true"
     inkscape:bbox-paths="true"
     inkscape:bbox-nodes="true"
     inkscape:snap-bbox-edge-midpoints="true"
     inkscape:snap-bbox-midpoints="true"
     inkscape:object-paths="true"
     inkscape:snap-intersection-paths="true"
     inkscape:snap-smooth-nodes="true"
     inkscape:snap-midpoints="true"
     inkscape:snap-object-midpoints="true"
     inkscape:snap-center="true"
     inkscape:zoom="3.0217733"
     inkscape:cx="346.15436"
     inkscape:cy="453.2107"
     inkscape:window-width="2560"
     inkscape:window-height="1017"
     inkscape:window-x="2552"
     inkscape:window-y="-8"
     inkscape:window-maximized="1"
     inkscape:current-layer="layer1"
     inkscape:snap-global="true"
     showguides="true"
     inkscape:guide-bbox="true" />
  <defs
     id="defs2">
    <rect
       x="385.87246"
       y="387.51048"
       width="31.590529"
       height="14.976251"
       id="rect25445" />
  </defs>
  <g
     inkscape:label="Layer 1"
     inkscape:groupmode="layer"
     id="layer1">
    <rect
       style="fill:none;stroke:#000000;stroke-width:0.1;stop-color:#000000"
       id="rect846"
       width="8.5"
       height="1"
       x="26.617924"
       y="66.544807" />
    <rect
       style="fill:none;stroke:#000000;stroke-width:0.1;stop-color:#000000"
       id="rect846-7"
       width="12.5"
       height="1"
       x="26.617922"
       y="65.544807" />
    <rect
       style="fill:none;stroke:#000000;stroke-width:0.1;stop-color:#000000"
       id="rect846-7-1"
       width="19.049999"
       height="1"
       x="26.617924"
       y="71.798965" />
    <rect
       style="fill:none;stroke:#000000;stroke-width:0.0999999;stop-color:#000000"
       id="rect846-7-5"
       width="1"
       height="1"
       x="39.11792"
       y="66.544807" />
    <rect
       style="fill:none;stroke:#000000;stroke-width:0.1;stop-color:#000000"
       id="rect994"
       width="0.40000001"
       height="2.3499999"
       x="26.217924"
       y="65.869804" />
    <rect
       style="fill:none;stroke:#000000;stroke-width:0.0999999;stop-color:#000000"
       id="rect1204"
       width="1"
       height="1"
       x="39.11792"
       y="69.719803" />
    <rect
       style="fill:none;stroke:#000000;stroke-width:0.0999999;stop-color:#000000"
       id="rect1204-6"
       width="1"
       height="1"
       x="45.667923"
       y="72.923965" />
    <rect
       style="fill:none;stroke:#000000;stroke-width:0.1;stop-color:#000000"
       id="rect1206"
       width="0.40000001"
       height="2.3499999"
       x="26.217924"
       y="69.0448" />
    <rect
       style="fill:none;stroke:#000000;stroke-width:0.1;stop-color:#000000"
       id="rect1206-0"
       width="0.40000001"
       height="3"
       x="26.217924"
       y="71.923965" />
    <path
       style="fill:none;stroke:#000000;stroke-width:0.1;stop-color:#000000"
       d="m 26.617924,69.719803 v 0.999998 h 8.499999 l 3.999997,-0.499999 -3.999997,-0.499999 z"
       id="path1321" />
    <rect
       style="fill:#000000;stroke:none;stroke-width:0.1;stop-color:#000000;fill-opacity:1"
       id="rect1206-3"
       width="0.40000001"
       height="2.3499999"
       x="34.973194"
       y="89.053368" />
    <path
       style="fill:#000000;stroke:none;stroke-width:0.1;stop-color:#000000;fill-opacity:1"
       d="m 35.373194,89.728371 v 0.999998 h 8.499999 L 47.87319,90.22837 43.873193,89.728371 Z"
       id="path1321-4" />
    <path
       style="fill:none;stroke:#000000;stroke-width:0.1;stop-color:#000000"
       d="m 26.617924,72.798966 v 1.249999 l 15.050002,10e-7 3.999997,-0.624999 -3.999997,-0.624999 z"
       id="path1321-6"
       sodipodi:nodetypes="cccccc" />
    <rect
       style="fill:#000000;stroke:none;stroke-width:0.1;stop-color:#000000;fill-opacity:1"
       id="rect1206-0-5"
       width="0.40000001"
       height="3"
       x="61.031528"
       y="88.403366" />
    <path
       style="fill:#000000;stroke:none;stroke-width:0.1;stop-color:#000000;fill-opacity:1"
       d="m 61.431532,89.278367 v 1.249999 l 15.050002,10e-7 3.999997,-0.624999 -3.999997,-0.624999 z"
       id="path1321-6-1"
       sodipodi:nodetypes="cccccc" />
    <rect
       style="fill:none;stroke:#000000;stroke-width:0.1;stop-color:#000000"
       id="rect1761"
       width="25"
       height="15"
       x="34.444027"
       y="76.932533" />
    <rect
       style="fill:none;stroke:#000000;stroke-width:0.1;stop-color:#000000"
       id="rect1761-6"
       width="25"
       height="15"
       x="60.502361"
       y="76.932533" />
    <text
       xml:space="preserve"
       style="font-size:4.23333px;line-height:1.25;font-family:Ste;-inkscape-font-specification:Ste;stroke-width:0.264583"
       x="60.841358"
       y="80.67804"
       id="text3971"><tspan
         sodipodi:role="line"
         id="tspan3969"
         style="font-style:normal;font-variant:normal;font-weight:bold;font-stretch:normal;font-family:sans-serif;-inkscape-font-specification:sans-serif;stroke-width:0.264583"
         x="60.841358"
         y="80.67804">Wire Nails</tspan></text>
    <text
       xml:space="preserve"
       style="font-size:4.23333px;line-height:1.25;font-family:Ste;-inkscape-font-specification:Ste;stroke-width:0.264583"
       x="58.405727"
       y="112.46568"
       id="text3971-3"><tspan
         sodipodi:role="line"
         id="tspan3969-8"
         style="font-style:normal;font-variant:normal;font-weight:bold;font-stretch:normal;font-family:sans-serif;-inkscape-font-specification:sans-serif;stroke-width:0.264583"
         x="58.405727"
         y="112.46568">Washer</tspan></text>
    <text
       xml:space="preserve"
       style="font-size:4.23333px;line-height:1.25;font-family:Ste;-inkscape-font-specification:Ste;stroke-width:0.264583"
       x="113.6813"
       y="122.29555"
       id="text3971-3-8"><tspan
         sodipodi:role="line"
         id="tspan3969-8-7"
         style="font-style:normal;font-variant:normal;font-weight:bold;font-stretch:normal;font-family:sans-serif;-inkscape-font-specification:sans-serif;stroke-width:0.264583"
         x="113.6813"
         y="122.29555">Nut</tspan></text>
    <text
       xml:space="preserve"
       style="font-size:4.23333px;line-height:1.25;font-family:Ste;-inkscape-font-specification:Ste;stroke-width:0.264583"
       x="34.783024"
       y="80.67804"
       id="text3971-6"><tspan
         sodipodi:role="line"
         id="tspan3969-6"
         style="font-style:normal;font-variant:normal;font-weight:bold;font-stretch:normal;font-family:sans-serif;-inkscape-font-specification:sans-serif;stroke-width:0.264583"
         x="34.783024"
         y="80.67804">Wire Nails</tspan></text>
    <text
       xml:space="preserve"
       style="font-size:2.82223px;line-height:1.25;font-family:Ste;-inkscape-font-specification:Ste;stroke-width:0.264583"
       x="61.805984"
       y="83.944687"
       id="text8724"><tspan
         sodipodi:role="line"
         id="tspan8722"
         style="font-style:normal;font-variant:normal;font-weight:normal;font-stretch:normal;font-family:sans-serif;-inkscape-font-specification:sans-serif;stroke-width:0.264583"
         x="61.805984"
         y="83.944687">3/4&quot; Length</tspan><tspan
         sodipodi:role="line"
         style="font-style:normal;font-variant:normal;font-weight:normal;font-stretch:normal;font-family:sans-serif;-inkscape-font-specification:sans-serif;stroke-width:0.264583"
         x="61.805984"
         y="87.510437"
         id="tspan8726">18 Gauge</tspan></text>
    <text
       xml:space="preserve"
       style="font-size:2.82223px;line-height:1.25;font-family:Ste;-inkscape-font-specification:Ste;stroke-width:0.264583"
       x="59.411697"
       y="115.73234"
       id="text8724-8"><tspan
         sodipodi:role="line"
         style="font-style:normal;font-variant:normal;font-weight:normal;font-stretch:normal;font-family:sans-serif;-inkscape-font-specification:sans-serif;stroke-width:0.264583"
         x="59.411697"
         y="115.73234"
         id="tspan8726-3">6-32&quot;</tspan></text>
    <text
       xml:space="preserve"
       style="font-size:2.82223px;line-height:1.25;font-family:Ste;-inkscape-font-specification:Ste;stroke-width:0.264583"
       x="114.68726"
       y="125.56219"
       id="text8724-8-8"><tspan
         sodipodi:role="line"
         style="font-style:normal;font-variant:normal;font-weight:normal;font-stretch:normal;font-family:sans-serif;-inkscape-font-specification:sans-serif;stroke-width:0.264583"
         x="114.68726"
         y="125.56219"
         id="tspan8726-3-6">6-32&quot;</tspan></text>
    <text
       xml:space="preserve"
       style="font-size:2.82223px;line-height:1.25;font-family:Ste;-inkscape-font-specification:Ste;stroke-width:0.264583"
       x="35.74765"
       y="83.944687"
       id="text8724-9"><tspan
         sodipodi:role="line"
         id="tspan8722-7"
         style="font-style:normal;font-variant:normal;font-weight:normal;font-stretch:normal;font-family:sans-serif;-inkscape-font-specification:sans-serif;stroke-width:0.264583"
         x="35.74765"
         y="83.944687">1/2&quot; Length</tspan><tspan
         sodipodi:role="line"
         style="font-style:normal;font-variant:normal;font-weight:normal;font-stretch:normal;font-family:sans-serif;-inkscape-font-specification:sans-serif;stroke-width:0.264583"
         x="35.74765"
         y="87.510437"
         id="tspan8726-8">19 Gauge</tspan></text>
    <circle
       style="fill:none;fill-opacity:1;stroke:#000000;stroke-width:0.1;stroke-opacity:1;stop-color:#000000"
       id="path22846"
       cx="36.120991"
       cy="115.79964"
       r="4.9499998" />
    <circle
       style="fill:none;fill-opacity:1;stroke:#000000;stroke-width:0.0999998;stroke-opacity:1;stop-color:#000000"
       id="path22848"
       cx="36.120991"
       cy="115.79964"
       r="2.02" />
    <path
       id="path22846-4"
       style="fill:#000000;fill-opacity:1;stroke:none;stroke-width:0.1;stroke-miterlimit:4;stroke-dasharray:none;stroke-opacity:1;stop-color:#000000"
       d="m 70.512985,117.37763 a 4.9499998,4.9499998 0 0 0 -4.950084,4.95009 4.9499998,4.9499998 0 0 0 4.950084,4.95008 4.9499998,4.9499998 0 0 0 4.950084,-4.95008 4.9499998,4.9499998 0 0 0 -4.950084,-4.95009 z m 0,2.93005 a 2.02,2.02 0 0 1 2.020033,2.02004 2.02,2.02 0 0 1 -2.020033,2.02003 2.02,2.02 0 0 1 -2.020033,-2.02003 2.02,2.02 0 0 1 2.020033,-2.02004 z" />
    <rect
       style="fill:none;fill-opacity:1;stroke:#000000;stroke-width:0.0999995;stroke-miterlimit:4;stroke-dasharray:none;stroke-opacity:1;stop-color:#000000"
       id="rect23124"
       width="25"
       height="20"
       x="58.012985"
       y="108.72017" />
    <rect
       style="fill:none;fill-opacity:1;stroke:#000000;stroke-width:0.0999995;stroke-miterlimit:4;stroke-dasharray:none;stroke-opacity:1;stop-color:#000000"
       id="rect23124-8"
       width="25"
       height="20"
       x="113.28857"
       y="118.55004" />
    <text
       xml:space="preserve"
       transform="scale(0.26458333)"
       id="text25443"
       style="line-height:1.25;font-family:Ste;font-size:10.66666667px;-inkscape-font-specification:Ste;white-space:pre;shape-inside:url(#rect25445)" />
    <rect
       style="fill:none;fill-opacity:1;stroke:#000000;stroke-width:0.1;stroke-miterlimit:4;stroke-dasharray:none;stroke-opacity:1;stop-color:#000000"
       id="rect28449"
       width="7.8499999"
       height="7.8499999"
       x="110.39183"
       y="105.06727" />
    <rect
       style="fill:none;fill-opacity:1;stroke:#000000;stroke-width:0.1;stroke-miterlimit:4;stroke-dasharray:none;stroke-opacity:1;stop-color:#000000"
       id="rect28449-6"
       width="7.8499999"
       height="2.8"
       x="122.42743"
       y="112.91687" />
    <rect
       style="fill:none;fill-opacity:1;stroke:#000000;stroke-width:0.1;stroke-miterlimit:4;stroke-dasharray:none;stroke-opacity:1;stop-color:#000000"
       id="rect28449-6-7"
       width="7.8499999"
       height="2.8"
       x="110.39183"
       y="112.91727" />
    <path
       sodipodi:type="star"
       style="fill:none;fill-opacity:1;stroke:#000000;stroke-width:0.327316;stroke-miterlimit:4;stroke-dasharray:none;stroke-opacity:1;stop-color:#000000"
       id="path28680"
       inkscape:flatsided="true"
       sodipodi:sides="6"
       sodipodi:cx="432.0636"
       sodipodi:cy="411.93927"
       sodipodi:r1="14.834643"
       sodipodi:r2="12.847178"
       sodipodi:arg1="-1.5707963"
       sodipodi:arg2="-1.0471976"
       inkscape:rounded="0"
       inkscape:randomized="0"
       d="m 432.0636,397.10463 12.84718,7.41732 0,14.83464 -12.84718,7.41732 -12.84718,-7.41732 0,-14.83464 z"
       transform="matrix(0.30551494,0,0,0.30551494,-17.685059,-16.861338)"
       inkscape:transform-center-x="1.7257772e-06"
       inkscape:transform-center-y="-1.8290068e-06" />
    <circle
       style="fill:none;fill-opacity:1;stroke:#000000;stroke-width:0.1;stroke-miterlimit:4;stroke-dasharray:none;stroke-opacity:1;stop-color:#000000"
       id="path28886"
       cx="114.31683"
       cy="108.99226"
       r="4.3429141" />
    <path
       id="path28680-7"
       style="fill:none;fill-opacity:1;stroke:#000000;stroke-width:0.0999998;stroke-miterlimit:4;stroke-dasharray:none;stroke-opacity:1;stop-color:#000000"
       inkscape:transform-center-x="-0.00030419345"
       inkscape:transform-center-y="-3.4591292e-05"
       d="m 126.45483,105.23113 a 4.3429142,4.3429142 0 0 0 -0.31405,-0.16401 l -3.71406,2.5e-4 a 4.3429142,4.3429142 0 0 0 -0.61397,0.35442 l -1.85673,3.21596 a 4.3429142,4.3429142 0 0 0 5e-5,0.70891 l 1.85643,3.21519 a 4.3429142,4.3429142 0 0 0 0.29944,0.19138 4.3429142,4.3429142 0 0 0 0.31546,0.16364 l 3.71239,5.7e-4 a 4.3429142,4.3429142 0 0 0 0.61519,-0.3555 l 1.85699,-3.21641 a 4.3429142,4.3429142 0 0 0 -1.9e-4,-0.70661 l -1.85897,-3.21904 a 4.3429142,4.3429142 0 0 0 -0.29798,-0.18875 z" />
    <circle
       style="fill:none;fill-opacity:1;stroke:#000000;stroke-width:0.1;stroke-miterlimit:4;stroke-dasharray:none;stroke-opacity:1;stop-color:#000000"
       id="path29263"
       cx="124.28394"
       cy="108.99228"
       r="3.5999999" />
    <circle
       style="fill:none;fill-opacity:1;stroke:#000000;stroke-width:0.0999998;stroke-miterlimit:4;stroke-dasharray:none;stroke-opacity:1;stop-color:#000000"
       id="circle29345"
       cx="124.28394"
       cy="108.99228"
       r="2.165" />
    <circle
       style="fill:none;fill-opacity:1;stroke:#000000;stroke-width:0.0999998;stroke-miterlimit:4;stroke-dasharray:none;stroke-opacity:1;stop-color:#000000"
       id="circle29347"
       cx="124.28394"
       cy="108.99228"
       r="2.165" />
    <circle
       style="fill:none;fill-opacity:1;stroke:#000000;stroke-width:0.0999995;stroke-miterlimit:4;stroke-dasharray:none;stroke-opacity:1;stop-color:#000000"
       id="circle29349"
       cx="124.28362"
       cy="108.99232"
       r="1.45" />
    <path
       id="path28680-7-6"
       style="fill:#dcdcdc;fill-opacity:1;stroke:#000000;stroke-width:0.0999998;stroke-miterlimit:4;stroke-dasharray:none;stroke-opacity:1;stop-color:#000000"
       inkscape:transform-center-x="-0.00030419345"
       inkscape:transform-center-y="-3.4591292e-05"
       d="m 123.08805,126.97219 a 4.3429142,4.3429142 0 0 0 -0.31405,-0.16401 l -3.71406,2.5e-4 a 4.3429142,4.3429142 0 0 0 -0.61397,0.35442 l -1.85673,3.21596 a 4.3429142,4.3429142 0 0 0 5e-5,0.70891 l 1.85643,3.21519 a 4.3429142,4.3429142 0 0 0 0.29944,0.19138 4.3429142,4.3429142 0 0 0 0.31546,0.16364 l 3.71239,5.7e-4 a 4.3429142,4.3429142 0 0 0 0.61519,-0.3555 l 1.85699,-3.21641 a 4.3429142,4.3429142 0 0 0 -1.9e-4,-0.70661 l -1.85897,-3.21904 a 4.3429142,4.3429142 0 0 0 -0.29798,-0.18875 z" />
    <circle
       style="fill:#f0f0f0;fill-opacity:1;stroke:none;stroke-width:0.1;stroke-miterlimit:4;stroke-dasharray:none;stroke-opacity:1;stop-color:#000000"
       id="path29263-1"
       cx="120.91717"
       cy="130.73332"
       r="3.5999999" />
    <circle
       style="fill:#dcdcdc;fill-opacity:1;stroke:none;stroke-width:0.0999998;stroke-miterlimit:4;stroke-dasharray:none;stroke-opacity:1;stop-color:#000000"
       id="circle29345-0"
       cx="120.91717"
       cy="130.73332"
       r="2.165" />
    <circle
       style="fill:#ffffff;fill-opacity:1;stroke:#000000;stroke-width:0.0999995;stroke-miterlimit:4;stroke-dasharray:none;stroke-opacity:1;stop-color:#000000"
       id="circle29349-0"
       cx="120.91685"
       cy="130.73337"
       r="1.45" />
    <path
       id="rect29579-9"
       style="fill:none;fill-opacity:1;stroke:#000000;stroke-width:0.377952;stroke-miterlimit:4;stroke-dasharray:none;stroke-opacity:1;stop-color:#000000"
       d="M 506.71484 407.6875 A 16.414164 16.414164 0 0 0 504.39453 409.02734 L 502.50977 412.29297 L 497.37695 412.29297 L 497.37695 421.18164 A 16.414164 16.414164 0 0 0 497.37695 423.86133 L 504.39453 436.01367 A 16.414164 16.414164 0 0 0 505.52539 436.73633 A 16.414164 16.414164 0 0 0 506.71875 437.35547 L 520.74805 437.35742 A 16.414164 16.414164 0 0 0 523.07422 436.01367 L 530.0918 423.85742 A 16.414164 16.414164 0 0 0 530.0918 421.18555 L 530.0918 412.28906 L 524.95508 412.28906 L 523.06641 409.01953 A 16.414164 16.414164 0 0 0 521.93945 408.30664 A 16.414164 16.414164 0 0 0 520.75195 407.6875 L 506.71484 407.6875 z "
       transform="scale(0.26458333)" />
    <path
       id="path29581"
       style="fill:none;fill-opacity:1;stroke:#000000;stroke-width:0.0999998;stroke-miterlimit:4;stroke-dasharray:none;stroke-opacity:1;stop-color:#000000"
       inkscape:transform-center-x="-0.00030419345"
       inkscape:transform-center-y="-3.4591292e-05"
       d="m 138.09651,105.23113 a 4.3429142,4.3429142 0 0 0 -0.31405,-0.16401 l -3.71406,2.5e-4 a 4.3429142,4.3429142 0 0 0 -0.61397,0.35442 l -1.85673,3.21596 a 4.3429142,4.3429142 0 0 0 5e-5,0.70891 l 1.85643,3.21519 a 4.3429142,4.3429142 0 0 0 0.29944,0.19138 4.3429142,4.3429142 0 0 0 0.31546,0.16364 l 3.71239,5.7e-4 a 4.3429142,4.3429142 0 0 0 0.61519,-0.3555 l 1.85699,-3.21641 a 4.3429142,4.3429142 0 0 0 -1.9e-4,-0.70661 l -1.85897,-3.21904 a 4.3429142,4.3429142 0 0 0 -0.29798,-0.18875 z" />
    <circle
       style="fill:none;fill-opacity:1;stroke:#000000;stroke-width:0.1;stroke-miterlimit:4;stroke-dasharray:none;stroke-opacity:1;stop-color:#000000"
       id="circle29583"
       cx="135.92563"
       cy="108.99228"
       r="3.5999999" />
    <circle
       style="fill:none;fill-opacity:1;stroke:#000000;stroke-width:0.0999998;stroke-miterlimit:4;stroke-dasharray:none;stroke-opacity:1;stop-color:#000000"
       id="circle29585"
       cx="135.92563"
       cy="108.99228"
       r="2.165" />
    <circle
       style="fill:none;fill-opacity:1;stroke:#000000;stroke-width:0.0999998;stroke-miterlimit:4;stroke-dasharray:none;stroke-opacity:1;stop-color:#000000"
       id="circle29587"
       cx="135.92563"
       cy="108.99228"
       r="2.165" />
    <circle
       style="fill:none;fill-opacity:1;stroke:#000000;stroke-width:0.0999995;stroke-miterlimit:4;stroke-dasharray:none;stroke-opacity:1;stop-color:#000000"
       id="circle29589"
       cx="135.92534"
       cy="108.99232"
       r="1.45" />
    <rect
       style="fill:none;fill-opacity:1;stroke:#000000;stroke-width:0.1;stroke-miterlimit:4;stroke-dasharray:none;stroke-opacity:1;stop-color:#000000"
       id="rect30249"
       width="4.3436799"
       height="2.8002999"
       x="133.75359"
       y="112.91718"
       rx="0.80000001"
       ry="0.60000002" />
    <rect
       style="fill:none;fill-opacity:1;stroke:#000000;stroke-width:0.138051;stroke-miterlimit:4;stroke-dasharray:none;stroke-opacity:1;stop-color:#000000"
       id="rect30249-2"
       width="4.1092381"
       height="2.8002999"
       x="263.18579"
       y="336.96161"
       rx="0.75682157"
       ry="0.60000002"
       inkscape:transform-center-x="-1.0780922"
       inkscape:transform-center-y="-3.1491986"
       transform="matrix(0.52471402,-0.85127857,0,1,0,0)" />
    <rect
       style="fill:none;fill-opacity:1;stroke:#000000;stroke-width:0.138051;stroke-miterlimit:4;stroke-dasharray:none;stroke-opacity:1;stop-color:#000000"
       id="rect30249-2-2"
       width="4.1092381"
       height="2.8002999"
       x="-254.90759"
       y="-104.08018"
       rx="0.75682157"
       ry="0.60000002"
       inkscape:transform-center-x="1.0780883"
       inkscape:transform-center-y="-3.1491979"
       transform="matrix(-0.52471402,-0.85127857,0,1,0,0)" />
    <path
       id="path30690"
       style="fill:#646464;fill-opacity:1;stroke:none;stroke-width:0.1;stroke-miterlimit:4;stroke-dasharray:none;stroke-opacity:1;stop-color:#000000"
       d="m 128.80289,129.60838 a 4.3429142,4.3429142 0 0 0 -0.61392,0.3545 l -0.49868,0.86403 h -1.35805 v 2.35179 a 4.3429142,4.3429142 0 0 0 0,0.709 l 1.85673,3.21531 a 4.3429142,4.3429142 0 0 0 0.29921,0.1912 4.3429142,4.3429142 0 0 0 0.31574,0.16382 l 3.71192,5.1e-4 a 4.3429142,4.3429142 0 0 0 0.61547,-0.35553 l 1.85673,-3.21634 a 4.3429142,4.3429142 0 0 0 0,-0.70693 v -2.35387 h -1.35909 l -0.49971,-0.86506 a 4.3429142,4.3429142 0 0 0 -0.29818,-0.18862 4.3429142,4.3429142 0 0 0 -0.31419,-0.16381 z" />
    <path
       id="path30692"
       style="fill:#dcdcdc;fill-opacity:1;stroke:none;stroke-width:0.0999998;stroke-miterlimit:4;stroke-dasharray:none;stroke-opacity:1;stop-color:#000000"
       inkscape:transform-center-x="-0.00030419345"
       inkscape:transform-center-y="-3.4591292e-05"
       d="m 132.8311,126.97219 a 4.3429142,4.3429142 0 0 0 -0.31405,-0.16401 l -3.71406,2.5e-4 a 4.3429142,4.3429142 0 0 0 -0.61397,0.35442 l -1.85673,3.21596 a 4.3429142,4.3429142 0 0 0 5e-5,0.70891 l 1.85643,3.21519 a 4.3429142,4.3429142 0 0 0 0.29944,0.19138 4.3429142,4.3429142 0 0 0 0.31546,0.16364 l 3.71239,5.7e-4 a 4.3429142,4.3429142 0 0 0 0.61519,-0.3555 l 1.85699,-3.21641 a 4.3429142,4.3429142 0 0 0 -1.9e-4,-0.70661 l -1.85897,-3.21904 a 4.3429142,4.3429142 0 0 0 -0.29798,-0.18875 z" />
    <circle
       style="fill:#f0f0f0;fill-opacity:1;stroke:none;stroke-width:0.1;stroke-miterlimit:4;stroke-dasharray:none;stroke-opacity:1;stop-color:#000000"
       id="circle30694"
       cx="130.6602"
       cy="130.73332"
       r="3.5999999" />
    <circle
       style="fill:#dcdcdc;fill-opacity:1;stroke:none;stroke-width:0.0999998;stroke-miterlimit:4;stroke-dasharray:none;stroke-opacity:1;stop-color:#000000"
       id="circle30698"
       cx="130.6602"
       cy="130.73332"
       r="2.165" />
    <circle
       style="fill:#646464;fill-opacity:1;stroke:none;stroke-width:0.0999995;stroke-miterlimit:4;stroke-dasharray:none;stroke-opacity:1;stop-color:#000000"
       id="circle30700"
       cx="130.65991"
       cy="131.26253"
       r="1.45" />
    <rect
       style="fill:#dcdcdc;fill-opacity:1;stroke:none;stroke-width:0.1;stroke-miterlimit:4;stroke-dasharray:none;stroke-opacity:1;stop-color:#000000"
       id="rect30702"
       width="4.3436799"
       height="2.8002999"
       x="128.48817"
       y="134.65823"
       rx="0.80000001"
       ry="0.60000002" />
    <rect
       style="fill:#aaaaaa;fill-opacity:1;stroke:none;stroke-width:0.138051;stroke-miterlimit:4;stroke-dasharray:none;stroke-opacity:1;stop-color:#000000"
       id="rect30704"
       width="4.1092381"
       height="2.8002999"
       x="253.15097"
       y="350.16022"
       rx="0.75682157"
       ry="0.60000002"
       inkscape:transform-center-x="-1.0780922"
       inkscape:transform-center-y="-3.1491986"
       transform="matrix(0.52471402,-0.85127857,0,1,0,0)" />
    <rect
       style="fill:#aaaaaa;fill-opacity:1;stroke:none;stroke-width:0.138051;stroke-miterlimit:4;stroke-dasharray:none;stroke-opacity:1;stop-color:#000000"
       id="rect30706"
       width="4.1092381"
       height="2.8002999"
       x="-244.87277"
       y="-73.796684"
       rx="0.75682157"
       ry="0.60000002"
       inkscape:transform-center-x="1.0780883"
       inkscape:transform-center-y="-3.1491979"
       transform="matrix(-0.52471402,-0.85127857,0,1,0,0)" />
    <path
       id="circle36042"
       style="fill:none;fill-opacity:1;stroke:#000000;stroke-width:0.0999995;stroke-miterlimit:4;stroke-dasharray:none;stroke-opacity:1;stop-color:#000000"
       d="m 129.2101,131.26254 c -2e-5,0.80084 0.64919,1.45006 1.45004,1.45004 0.80084,2e-5 1.45006,-0.6492 1.45004,-1.45004"
       sodipodi:nodetypes="ccc" />
    <path
       id="path36219"
       style="fill:none;fill-opacity:1;stroke:#000000;stroke-width:0.1;stroke-miterlimit:4;stroke-dasharray:none;stroke-opacity:1;stop-color:#000000"
       d="m 132.51687,126.80803 -3.71398,5.2e-4 a 4.3429142,4.3429142 0 0 0 -0.61392,0.3545 l -1.85673,3.21582 a 4.3429142,4.3429142 0 0 0 0,0.709 v 0.67231 1.41852 a 4.3429142,4.3429142 0 0 0 0,0.709 l 0.24184,0.41858 c 1.6e-4,3.6e-4 3.6e-4,6.8e-4 5.2e-4,0.001 0.0474,0.10701 0.0997,0.20871 0.15451,0.29765 l 0.27285,0.44235 1.18701,2.05569 a 4.3429142,4.3429142 0 0 0 0.29921,0.1912 4.3429142,4.3429142 0 0 0 0.31574,0.16382 h 0.46612 c 0.006,9e-5 0.012,5.1e-4 0.0181,5.1e-4 h 2.7435 0.003 0.48163 a 4.3429142,4.3429142 0 0 0 0.61547,-0.35553 l 1.18494,-2.05207 0.27492,-0.44649 c 0.0548,-0.0889 0.10658,-0.19012 0.15399,-0.29713 1.6e-4,-3.6e-4 3.6e-4,-6.8e-4 5.2e-4,-0.001 l 0.24236,-0.41961 a 4.3429142,4.3429142 0 0 0 0,-0.70693 v -1.41956 -0.67334 a 4.3429142,4.3429142 0 0 0 0,-0.70693 l -1.8588,-3.21893 a 4.3429142,4.3429142 0 0 0 -0.29818,-0.18862 4.3429142,4.3429142 0 0 0 -0.31419,-0.16433 z" />
  </g>
</svg>
