<?xml version="1.0" encoding="UTF-8" standalone="no"?>
<!-- Created with Inkscape (http://www.inkscape.org/) -->

<svg
   width="210mm"
   height="297mm"
   viewBox="0 0 210 297"
   version="1.1"
   id="svg5"
   inkscape:version="1.1 (c68e22c387, 2021-05-23)"
   sodipodi:docname="Jumpers.svg"
   xmlns:inkscape="http://www.inkscape.org/namespaces/inkscape"
   xmlns:sodipodi="http://sodipodi.sourceforge.net/DTD/sodipodi-0.dtd"
   xmlns="http://www.w3.org/2000/svg"
   xmlns:svg="http://www.w3.org/2000/svg">
  <sodipodi:namedview
     id="namedview7"
     pagecolor="#ffffff"
     bordercolor="#666666"
     borderopacity="1.0"
     inkscape:pageshadow="2"
     inkscape:pageopacity="0.0"
     inkscape:pagecheckerboard="0"
     inkscape:document-units="mm"
     showgrid="false"
     inkscape:snap-bbox="true"
     inkscape:bbox-paths="true"
     inkscape:bbox-nodes="true"
     inkscape:snap-bbox-edge-midpoints="true"
     inkscape:snap-bbox-midpoints="true"
     inkscape:object-paths="true"
     inkscape:snap-intersection-paths="true"
     inkscape:snap-smooth-nodes="true"
     inkscape:snap-object-midpoints="true"
     inkscape:snap-midpoints="true"
     inkscape:snap-center="true"
     showguides="true"
     inkscape:guide-bbox="true"
     inkscape:zoom="4.2734328"
     inkscape:cx="259.74435"
     inkscape:cy="98.866654"
     inkscape:window-width="2560"
     inkscape:window-height="1017"
     inkscape:window-x="2552"
     inkscape:window-y="-8"
     inkscape:window-maximized="1"
     inkscape:current-layer="layer1">
    <sodipodi:guide
       position="37.770747,262.95925"
       orientation="0,-1"
       id="guide1609" />
    <sodipodi:guide
       position="46.284522,261.76005"
       orientation="0,-1"
       id="guide1984" />
  </sodipodi:namedview>
  <defs
     id="defs2" />
  <g
     inkscape:label="Layer 1"
     inkscape:groupmode="layer"
     id="layer1">
    <rect
       style="fill:#c8c8c8;stroke:#000000;stroke-width:0.0999999;stop-color:#000000;fill-opacity:1"
       id="rect1420-7"
       width="3.2498221"
       height="1"
       x="45.409428"
       y="28.540573" />
    <rect
       style="fill:#000000;fill-opacity:1;stroke:#000000;stroke-width:0.1;stroke-miterlimit:4;stroke-dasharray:none;stroke-opacity:1;stop-color:#000000"
       id="rect10758"
       width="3.6915944"
       height="1.331141"
       x="45.21236"
       y="25.585768" />
    <rect
       style="fill:#000000;fill-opacity:1;stroke:none;stroke-width:0.05;stop-color:#000000;stroke-miterlimit:4;stroke-dasharray:none"
       id="rect2278"
       width="4.0629754"
       height="1.5444226"
       x="45.034458"
       y="35.069695" />
    <rect
       style="fill:none;stroke:#000000;stroke-width:0.1;stop-color:#000000"
       id="rect846"
       width="5"
       height="6"
       x="33.950989"
       y="28.040758" />
    <rect
       style="fill:none;stroke:#000000;stroke-width:0.1;stop-color:#000000"
       id="rect846-3"
       width="5"
       height="1"
       x="33.950989"
       y="28.040758" />
    <rect
       style="fill:none;stroke:#000000;stroke-width:0.1;stop-color:#000000"
       id="rect846-3-4"
       width="5"
       height="2.5"
       x="33.950989"
       y="25.011591" />
    <rect
       style="fill:none;stroke:#000000;stroke-width:0.1;stop-color:#000000"
       id="rect846-3-6"
       width="5"
       height="1"
       x="33.950989"
       y="29.040758" />
    <rect
       style="fill:none;stroke:#000000;stroke-width:0.0999997;stop-color:#000000"
       id="rect846-3-6-8"
       width="2.5"
       height="1"
       x="39.480156"
       y="29.040758" />
    <rect
       style="fill:none;stroke:#000000;stroke-width:0.1;stop-color:#000000"
       id="rect950"
       width="1.5"
       height="2.5"
       x="35.700989"
       y="28.040758" />
    <rect
       style="fill:none;stroke:#000000;stroke-width:0.1;stop-color:#000000"
       id="rect950-9"
       width="1.5"
       height="2.5"
       x="35.700989"
       y="25.011591" />
    <rect
       style="fill:none;stroke:#000000;stroke-width:0.1;stop-color:#000000"
       id="rect846-3-4-6"
       width="5"
       height="2.5"
       x="33.950989"
       y="34.569923" />
    <rect
       style="fill:none;stroke:#000000;stroke-width:0.1;stop-color:#000000"
       id="rect950-9-3"
       width="5"
       height="0.5"
       x="33.950989"
       y="34.569923" />
    <rect
       style="fill:none;stroke:#000000;stroke-width:0.1;stop-color:#000000"
       id="rect950-9-3-4"
       width="5"
       height="0.5"
       x="33.950989"
       y="36.569923" />
    <rect
       style="fill:none;stroke:#000000;stroke-width:0.1;stop-color:#000000"
       id="rect950-9-3-43"
       width="5"
       height="0.5"
       x="34.569923"
       y="-34.450989"
       transform="rotate(90)" />
    <rect
       style="fill:none;stroke:#000000;stroke-width:0.1;stop-color:#000000"
       id="rect950-9-3-7"
       width="5"
       height="0.5"
       x="34.569923"
       y="-38.950989"
       transform="rotate(90)" />
    <rect
       style="fill:#969696;stroke:#000000;stroke-width:0.05;stop-color:#000000;fill-opacity:1;stroke-miterlimit:4;stroke-dasharray:none"
       id="rect950-9-3-7-1"
       width="0.82967448"
       height="0.5"
       x="35.239956"
       y="-46.534523"
       transform="rotate(90)" />
    <rect
       style="fill:#969696;stroke:#000000;stroke-width:0.05;stop-color:#000000;fill-opacity:1;stroke-miterlimit:4;stroke-dasharray:none"
       id="rect950-9-3-7-1-4"
       width="0.82968438"
       height="0.5"
       x="35.239952"
       y="-48.034321"
       transform="rotate(90)" />
    <path
       id="rect950-9-3-7-5"
       style="fill:#c8c8c8;stroke:#000000;stroke-width:0.18897638;stop-color:#000000;fill-opacity:1;stroke-miterlimit:4;stroke-dasharray:none"
       d="M 170.20898 132.54688 L 170.20898 138.2168 L 172.09961 138.2168 L 183.43555 138.2168 L 185.32617 138.2168 L 185.32617 136.32617 L 185.32617 132.54688 L 183.43555 132.54688 L 183.43555 136.32617 L 172.09961 136.32617 L 172.09961 132.54688 L 170.20898 132.54688 z "
       transform="scale(0.26458333)" />
    <rect
       style="fill:none;stroke:#000000;stroke-width:0.1;stop-color:#000000"
       id="rect846-3-4-2"
       width="5.9999924"
       height="2.5"
       x="28.040758"
       y="-41.980156"
       transform="rotate(90)" />
    <rect
       style="fill:none;stroke:#000000;stroke-width:0.0999996;stop-color:#000000"
       id="rect1076"
       width="4"
       height="1"
       x="34.450989"
       y="29.040758" />
    <circle
       style="fill:none;stroke:#000000;stroke-width:0.1;stop-color:#000000"
       id="path1124"
       cx="36.450989"
       cy="29.790758"
       r="0.75" />
    <rect
       style="fill:none;stroke:#000000;stroke-width:0.0999996;stop-color:#000000"
       id="rect1250"
       width="1"
       height="6"
       x="33.950989"
       y="21.511591" />
    <rect
       style="fill:none;stroke:#000000;stroke-width:0.0999996;stop-color:#000000"
       id="rect1250-3"
       width="1"
       height="6"
       x="37.950989"
       y="21.511591" />
    <rect
       style="fill:none;stroke:#000000;stroke-width:0.0999996;stop-color:#000000"
       id="rect1250-3-6"
       width="1"
       height="6"
       x="25.011591"
       y="-39.950989"
       transform="rotate(90)" />
    <rect
       style="fill:none;stroke:#000000;stroke-width:0.0999996;stop-color:#000000"
       id="rect1250-3-66"
       width="1"
       height="6"
       x="26.511591"
       y="-39.950989"
       transform="rotate(90)" />
    <rect
       style="fill:none;stroke:#000000;stroke-width:0.1;stop-color:#000000"
       id="rect1420"
       width="5"
       height="1"
       x="33.950989"
       y="28.040758" />
    <rect
       style="fill:none;stroke:#000000;stroke-width:0.0999997;stop-color:#000000"
       id="rect1633"
       width="1.5"
       height="1"
       x="39.980156"
       y="29.040758" />
    <path
       id="rect1710"
       style="fill:#323232;stroke:#000000;stroke-width:0.377953;stop-color:#000000;fill-opacity:1"
       d="M 168.31836 105.98047 L 168.31836 109.75977 L 174.93359 109.75977 L 174.93359 105.98047 L 168.31836 105.98047 z M 180.60156 105.98047 L 180.60156 109.75977 L 187.2168 109.75977 L 187.2168 105.98047 L 180.60156 105.98047 z M 168.31836 113.53906 L 168.31836 128.6582 L 187.2168 128.6582 L 187.2168 113.53906 L 180.4375 113.53906 A 2.8346457 2.8346457 0 0 1 177.76758 115.42969 A 2.8346457 2.8346457 0 0 1 175.09766 113.53906 L 168.31836 113.53906 z "
       transform="scale(0.26458333)" />
    <path
       id="rect1712"
       style="fill:#323232;stroke:#000000;stroke-width:0.377953;stop-color:#000000;fill-opacity:1"
       d="M 168.31836 105.98047 L 168.31836 109.75977 L 174.93359 109.75977 L 174.93359 105.98047 L 168.31836 105.98047 z M 180.60156 105.98047 L 180.60156 109.75977 L 187.2168 109.75977 L 187.2168 105.98047 L 180.60156 105.98047 z "
       transform="scale(0.26458333)" />
    <path
       id="rect1724"
       style="fill:#323232;stroke:#000000;stroke-width:0.377953;stop-color:#000000;fill-opacity:1"
       d="M 168.31836 130.6582 L 168.31836 132.54688 L 168.31836 138.2168 L 168.31836 140.10742 L 170.20898 140.10742 L 185.32617 140.10742 L 187.2168 140.10742 L 187.2168 130.6582 L 168.31836 130.6582 z M 170.20898 132.54688 L 185.32617 132.54688 L 185.32617 138.2168 L 170.20898 138.2168 L 170.20898 132.54688 z "
       transform="scale(0.26458333)" />
    <path
       id="rect1734"
       style="fill:#323232;stroke:#000000;stroke-width:0.377953;stop-color:#000000;fill-opacity:1"
       d="M 189.2168 105.98047 L 189.2168 109.75977 L 198.66602 109.75977 L 198.66602 105.98047 L 189.2168 105.98047 z M 189.2168 113.53906 L 189.2168 128.6582 L 198.66602 128.6582 L 198.66602 113.53906 L 189.2168 113.53906 z "
       transform="scale(0.26458333)" />
    <path
       id="rect1736"
       style="fill:#323232;stroke:#000000;stroke-width:0.377951;stop-color:#000000;fill-opacity:1"
       d="M 170.20898 109.75977 L 170.20898 113.53906 L 175.09766 113.53906 A 2.8346457 2.8346457 0 0 1 174.93359 112.5957 L 174.93359 109.75977 L 170.20898 109.75977 z M 180.60156 109.75977 L 180.60156 112.52148 A 2.8346457 2.8346457 0 0 0 180.60156 112.52344 A 2.8346457 2.8346457 0 0 0 180.60156 112.52539 A 2.8346457 2.8346457 0 0 0 180.60156 112.52734 A 2.8346457 2.8346457 0 0 0 180.60156 112.5293 A 2.8346457 2.8346457 0 0 0 180.60156 112.53125 A 2.8346457 2.8346457 0 0 0 180.60156 112.5332 A 2.8346457 2.8346457 0 0 0 180.60156 112.53516 A 2.8346457 2.8346457 0 0 0 180.60156 112.53711 A 2.8346457 2.8346457 0 0 0 180.60156 112.53906 A 2.8346457 2.8346457 0 0 0 180.60156 112.54102 A 2.8346457 2.8346457 0 0 0 180.60156 112.54297 A 2.8346457 2.8346457 0 0 0 180.60156 112.54492 A 2.8346457 2.8346457 0 0 0 180.60156 112.54688 A 2.8346457 2.8346457 0 0 0 180.60156 112.54883 A 2.8346457 2.8346457 0 0 0 180.60156 112.55078 A 2.8346457 2.8346457 0 0 0 180.60156 112.55273 A 2.8346457 2.8346457 0 0 0 180.60156 112.55469 A 2.8346457 2.8346457 0 0 0 180.60156 112.55664 A 2.8346457 2.8346457 0 0 0 180.60156 112.55859 A 2.8346457 2.8346457 0 0 0 180.60156 112.56055 A 2.8346457 2.8346457 0 0 0 180.60156 112.5625 A 2.8346457 2.8346457 0 0 0 180.60156 112.56445 A 2.8346457 2.8346457 0 0 0 180.60156 112.56641 A 2.8346457 2.8346457 0 0 0 180.60156 112.56836 A 2.8346457 2.8346457 0 0 0 180.60156 112.57031 A 2.8346457 2.8346457 0 0 0 180.60156 112.57227 A 2.8346457 2.8346457 0 0 0 180.60156 112.57422 A 2.8346457 2.8346457 0 0 0 180.60156 112.57617 A 2.8346457 2.8346457 0 0 0 180.60156 112.57812 A 2.8346457 2.8346457 0 0 0 180.60156 112.58008 A 2.8346457 2.8346457 0 0 0 180.60156 112.58203 A 2.8346457 2.8346457 0 0 0 180.60156 112.58398 A 2.8346457 2.8346457 0 0 0 180.60156 112.58594 A 2.8346457 2.8346457 0 0 0 180.60156 112.58789 A 2.8346457 2.8346457 0 0 0 180.60156 112.58984 A 2.8346457 2.8346457 0 0 0 180.60156 112.5918 A 2.8346457 2.8346457 0 0 0 180.60156 112.59375 A 2.8346457 2.8346457 0 0 0 180.60156 112.5957 A 2.8346457 2.8346457 0 0 1 180.4375 113.53906 L 185.32617 113.53906 L 185.32617 109.75977 L 180.60156 109.75977 z "
       transform="scale(0.26458333)" />
    <rect
       style="fill:#323232;stroke:#000000;stroke-width:0.0999997;stop-color:#000000;fill-opacity:1"
       id="rect1750"
       width="1.5"
       height="1"
       x="50.563488"
       y="29.040758" />
    <path
       style="fill:none;stroke:#000000;stroke-width:0.05;stop-color:#000000;stroke-miterlimit:4;stroke-dasharray:none"
       d="m 45.534688,36.069632 h 0.999667"
       id="path1858" />
    <path
       style="fill:none;stroke:#000000;stroke-width:0.05;stop-color:#000000;stroke-miterlimit:4;stroke-dasharray:none"
       d="m 47.534322,36.069632 h 0.999667"
       id="path1858-3" />
    <path
       style="fill:#323232;fill-opacity:1;stroke:#000000;stroke-width:0.1;stroke-miterlimit:4;stroke-dasharray:none;stop-color:#000000;stroke-opacity:1"
       d="m 44.534325,25.011591 h 1.749999 v 1.000258 h -0.750152 v 0.49971 h 0.750152 v 1.000033 h -1.749999 z"
       id="path3092" />
    <path
       style="fill:#323232;fill-opacity:1;stroke:#000000;stroke-width:0.1;stroke-miterlimit:4;stroke-dasharray:none;stop-color:#000000;stroke-opacity:1"
       d="m 49.534352,27.511817 h -1.749999 v -1.000258 h 0.750152 v -0.49971 h -0.750152 v -1.000033 h 1.749999 z"
       id="path3092-5" />
    <rect
       style="fill:#c8c8c8;fill-opacity:1;stroke:#000000;stroke-width:0.0999999;stroke-miterlimit:4;stroke-dasharray:none;stroke-opacity:1;stop-color:#000000"
       id="rect10650"
       width="2.7002995"
       height="0.44973898"
       x="45.684189"
       y="26.036835" />
    <rect
       style="fill:#000000;fill-opacity:1;stroke:#000000;stroke-width:0.1;stroke-miterlimit:4;stroke-dasharray:none;stroke-opacity:1;stop-color:#000000"
       id="rect10652"
       width="1.5000291"
       height="1.000258"
       x="46.284325"
       y="25.011591" />
    <rect
       style="fill:#000000;fill-opacity:1;stroke:#000000;stroke-width:0.1;stroke-miterlimit:4;stroke-dasharray:none;stroke-opacity:1;stop-color:#000000"
       id="rect10654"
       width="1.5000291"
       height="1.000258"
       x="46.284325"
       y="26.511557" />
    <rect
       style="fill:#c8c8c8;fill-opacity:1;stroke:#000000;stroke-width:0.0999999;stop-color:#000000"
       id="rect17130"
       width="3.2498221"
       height="1"
       x="69.221924"
       y="26.953072" />
    <rect
       style="fill:#000000;fill-opacity:1;stroke:#000000;stroke-width:0.1;stroke-miterlimit:4;stroke-dasharray:none;stroke-opacity:1;stop-color:#000000"
       id="rect17132"
       width="3.6915944"
       height="1.331141"
       x="69.024857"
       y="23.469099" />
    <rect
       style="fill:#000000;fill-opacity:1;stroke:none;stroke-width:0.05;stroke-miterlimit:4;stroke-dasharray:none;stop-color:#000000"
       id="rect17134"
       width="4.0629754"
       height="1.5444226"
       x="68.846954"
       y="34.01136" />
    <rect
       style="fill:#969696;fill-opacity:1;stroke:#000000;stroke-width:0.05;stroke-miterlimit:4;stroke-dasharray:none;stop-color:#000000"
       id="rect17136"
       width="0.82967448"
       height="0.5"
       x="34.181622"
       y="-70.347023"
       transform="rotate(90)" />
    <rect
       style="fill:#969696;fill-opacity:1;stroke:#000000;stroke-width:0.05;stroke-miterlimit:4;stroke-dasharray:none;stop-color:#000000"
       id="rect17138"
       width="0.82968438"
       height="0.5"
       x="34.181618"
       y="-71.846817"
       transform="rotate(90)" />
    <path
       id="path17140"
       style="fill:#c8c8c8;fill-opacity:1;stroke:#000000;stroke-width:0.05;stroke-miterlimit:4;stroke-dasharray:none;stop-color:#000000"
       d="m 68.846958,34.011361 v 1.500166 h 0.50023 2.9993 0.500227 v -0.500229 -0.999937 h -0.500227 v 0.999937 h -2.9993 v -0.999937 z" />
    <path
       id="path17142"
       style="fill:#323232;fill-opacity:1;stroke:#000000;stroke-width:0.1;stop-color:#000000"
       d="m 68.346732,26.453165 v 0.999939 h 1.750279 v -0.999939 z m 3.24993,0 v 0.999939 h 1.750282 v -0.999939 z m -3.24993,1.999877 v 4.000272 h 5.000212 v -4.000272 h -1.79369 a 0.75,0.75 0 0 1 -0.706416,0.500229 0.75,0.75 0 0 1 -0.706416,-0.500229 z" />
    <path
       id="path17144"
       style="fill:#323232;fill-opacity:1;stroke:#000000;stroke-width:0.1;stop-color:#000000"
       d="m 68.346732,26.453165 v 0.999939 h 1.750279 v -0.999939 z m 3.24993,0 v 0.999939 h 1.750282 v -0.999939 z" />
    <path
       id="path17146"
       style="fill:#323232;fill-opacity:1;stroke:#000000;stroke-width:0.1;stop-color:#000000"
       d="m 68.346732,33.511648 v 0.499713 1.500166 0.500227 h 0.500226 3.999757 0.500229 v -2.500106 z m 0.500226,0.499713 h 3.999757 v 1.500166 h -3.999757 z" />
    <path
       id="path17148"
       style="fill:#323232;fill-opacity:1;stroke:#000000;stroke-width:0.1;stop-color:#000000"
       d="m 76.521946,26.453165 v 0.999939 h 2.500106 v -0.999939 z m 0,1.999877 v 4.000272 h 2.500106 v -4.000272 z" />
    <path
       id="path17150"
       style="fill:#323232;fill-opacity:1;stroke:#000000;stroke-width:0.0999995;stop-color:#000000"
       d="m 68.846958,27.453104 v 0.999938 h 1.293464 a 0.75,0.75 0 0 1 -0.04341,-0.249598 v -0.75034 z m 2.749704,0 v 0.730703 a 0.75,0.75 0 0 0 0,5.18e-4 0.75,0.75 0 0 0 0,5.16e-4 0.75,0.75 0 0 0 0,5.16e-4 0.75,0.75 0 0 0 0,5.19e-4 0.75,0.75 0 0 0 0,5.16e-4 0.75,0.75 0 0 0 0,5.16e-4 0.75,0.75 0 0 0 0,5.18e-4 0.75,0.75 0 0 0 0,5.16e-4 0.75,0.75 0 0 0 0,5.16e-4 0.75,0.75 0 0 0 0,5.19e-4 0.75,0.75 0 0 0 0,5.16e-4 0.75,0.75 0 0 0 0,5.16e-4 0.75,0.75 0 0 0 0,5.18e-4 0.75,0.75 0 0 0 0,5.16e-4 0.75,0.75 0 0 0 0,5.16e-4 0.75,0.75 0 0 0 0,5.16e-4 0.75,0.75 0 0 0 0,5.19e-4 0.75,0.75 0 0 0 0,5.16e-4 0.75,0.75 0 0 0 0,5.16e-4 0.75,0.75 0 0 0 0,5.18e-4 0.75,0.75 0 0 0 0,5.16e-4 0.75,0.75 0 0 0 0,5.16e-4 0.75,0.75 0 0 0 0,5.19e-4 0.75,0.75 0 0 0 0,5.16e-4 0.75,0.75 0 0 0 0,5.15e-4 0.75,0.75 0 0 0 0,5.19e-4 0.75,0.75 0 0 0 0,5.16e-4 0.75,0.75 0 0 0 0,5.16e-4 0.75,0.75 0 0 0 0,5.16e-4 0.75,0.75 0 0 0 0,5.18e-4 0.75,0.75 0 0 0 0,5.16e-4 0.75,0.75 0 0 0 0,5.16e-4 0.75,0.75 0 0 0 0,5.19e-4 0.75,0.75 0 0 0 0,5.16e-4 0.75,0.75 0 0 0 0,5.16e-4 0.75,0.75 0 0 0 0,5.18e-4 0.75,0.75 0 0 0 0,5.16e-4 0.75,0.75 0 0 0 0,5.16e-4 0.75,0.75 0 0 1 -0.04341,0.249598 h 1.293461 v -0.999938 z" />
    <rect
       style="fill:#323232;fill-opacity:1;stroke:#000000;stroke-width:0.0999997;stop-color:#000000"
       id="rect17152"
       width="1.5"
       height="1"
       x="77.02182"
       y="27.453257" />
    <path
       style="fill:none;stroke:#000000;stroke-width:0.05;stroke-miterlimit:4;stroke-dasharray:none;stop-color:#000000"
       d="m 69.347188,35.011298 h 0.999667"
       id="path17154" />
    <path
       style="fill:none;stroke:#000000;stroke-width:0.05;stroke-miterlimit:4;stroke-dasharray:none;stop-color:#000000"
       d="m 71.346822,35.011298 h 0.999667"
       id="path17156" />
    <path
       style="fill:#323232;fill-opacity:1;stroke:#000000;stroke-width:0.1;stroke-miterlimit:4;stroke-dasharray:none;stroke-opacity:1;stop-color:#000000"
       d="m 68.346825,22.894923 h 1.749999 v 1.000258 h -0.750152 v 0.49971 h 0.750152 v 1.000033 h -1.749999 z"
       id="path17158" />
    <path
       style="fill:#323232;fill-opacity:1;stroke:#000000;stroke-width:0.1;stroke-miterlimit:4;stroke-dasharray:none;stroke-opacity:1;stop-color:#000000"
       d="m 73.346852,25.395149 h -1.749999 v -1.000258 h 0.750152 v -0.49971 h -0.750152 v -1.000033 h 1.749999 z"
       id="path17160" />
    <rect
       style="fill:#c8c8c8;fill-opacity:1;stroke:#000000;stroke-width:0.0999999;stroke-miterlimit:4;stroke-dasharray:none;stroke-opacity:1;stop-color:#000000"
       id="rect17162"
       width="2.7002995"
       height="0.44973898"
       x="69.496689"
       y="23.920166" />
    <rect
       style="fill:#000000;fill-opacity:1;stroke:#000000;stroke-width:0.1;stroke-miterlimit:4;stroke-dasharray:none;stroke-opacity:1;stop-color:#000000"
       id="rect17164"
       width="1.5000291"
       height="1.000258"
       x="70.096825"
       y="22.894922" />
    <rect
       style="fill:#000000;fill-opacity:1;stroke:#000000;stroke-width:0.1;stroke-miterlimit:4;stroke-dasharray:none;stroke-opacity:1;stop-color:#000000"
       id="rect17166"
       width="1.5000291"
       height="1.000258"
       x="70.096825"
       y="24.394888" />
    <rect
       style="fill:none;fill-opacity:1;stroke:#000000;stroke-width:0.0999998;stroke-miterlimit:4;stroke-dasharray:none;stroke-opacity:1;stop-color:#000000"
       id="rect17190"
       width="20"
       height="19"
       x="64.733505"
       y="17.904619" />
    <text
       xml:space="preserve"
       style="font-size:4.23333px;line-height:1.25;font-family:Ste;-inkscape-font-specification:Ste;stroke-width:0.264583"
       x="65.171722"
       y="21.511633"
       id="text18704"><tspan
         sodipodi:role="line"
         id="tspan18702"
         style="font-style:normal;font-variant:normal;font-weight:normal;font-stretch:normal;font-size:4.23333px;font-family:sans-serif;-inkscape-font-specification:sans-serif;stroke-width:0.264583"
         x="65.171722"
         y="21.511633">Jumpers</tspan></text>
  </g>
</svg>
