<?xml version="1.0" encoding="UTF-8" standalone="no"?>
<!-- Created with Inkscape (http://www.inkscape.org/) -->

<svg
   width="210mm"
   height="297mm"
   viewBox="0 0 210 297"
   version="1.1"
   id="svg5"
   inkscape:version="1.1 (c68e22c387, 2021-05-23)"
   sodipodi:docname="E-Clips(M).svg"
   xmlns:inkscape="http://www.inkscape.org/namespaces/inkscape"
   xmlns:sodipodi="http://sodipodi.sourceforge.net/DTD/sodipodi-0.dtd"
   xmlns="http://www.w3.org/2000/svg"
   xmlns:svg="http://www.w3.org/2000/svg">
  <sodipodi:namedview
     id="namedview7"
     pagecolor="#ffffff"
     bordercolor="#666666"
     borderopacity="1.0"
     inkscape:pageshadow="2"
     inkscape:pageopacity="0.0"
     inkscape:pagecheckerboard="0"
     inkscape:document-units="mm"
     showgrid="false"
     showguides="true"
     inkscape:guide-bbox="true"
     inkscape:snap-intersection-paths="true"
     inkscape:object-paths="true"
     inkscape:snap-smooth-nodes="true"
     inkscape:snap-midpoints="true"
     inkscape:snap-center="true"
     inkscape:snap-object-midpoints="true"
     inkscape:snap-bbox="true"
     inkscape:bbox-nodes="true"
     inkscape:snap-bbox-edge-midpoints="true"
     inkscape:snap-bbox-midpoints="true"
     inkscape:bbox-paths="true"
     inkscape:snap-global="true"
     inkscape:zoom="1.0683582"
     inkscape:cx="241.49205"
     inkscape:cy="230.72787"
     inkscape:window-width="2560"
     inkscape:window-height="1017"
     inkscape:window-x="2552"
     inkscape:window-y="-8"
     inkscape:window-maximized="1"
     inkscape:current-layer="layer1" />
  <defs
     id="defs2" />
  <g
     inkscape:label="Layer 1"
     inkscape:groupmode="layer"
     id="layer1">
    <path
       id="path880"
       style="fill:#000000;fill-opacity:1;stroke:none;stroke-width:0.0999998;stop-color:#000000"
       d="m 107.64861,63.545844 a 6.9749997,6.9749997 0 0 0 -6.97529,-6.97528 6.9749997,6.9749997 0 0 0 -6.975284,6.97528 6.9749997,6.9749997 0 0 0 1.845882,4.72633 c 0.46922,0.46465 1.320728,-0.0241 1.648478,-0.76895 0.341231,-0.77392 0.377232,-1.64571 0.346234,-3.1626 -0.0091,-1.16664 -0.311222,-1.61715 -0.713653,-1.74097 -0.402439,-0.12383 -0.650208,-0.27834 -0.743106,-0.80461 -0.09287,-0.52626 0.01617,-0.80518 0.759127,-1.82676 0.742968,-1.02157 1.238443,-1.02159 1.733743,-0.99064 0.49531,0.031 0.588005,0.43313 0.866613,0.80461 0.06964,0.0929 0.12781,0.15118 0.175702,0.18603 h 0.195853 0.860411 0.86041 0.19586 c 0.0479,-0.0348 0.10605,-0.0932 0.1757,-0.18603 0.27861,-0.37148 0.3713,-0.77365 0.86661,-0.80461 0.4953,-0.0309 0.99077,-0.0309 1.73375,0.99064 0.74296,1.02158 0.85199,1.3005 0.75912,1.82676 -0.0929,0.52627 -0.34066,0.68078 -0.74311,0.80461 -0.40243,0.12382 -0.70459,0.57433 -0.71365,1.74097 -0.031,1.51689 0.005,2.38868 0.34623,3.1626 0.32775,0.74487 1.17926,1.2336 1.64849,0.76895 a 6.9749997,6.9749997 0 0 0 1.84588,-4.72633 z" />
    <path
       id="path984"
       style="fill:#000000;fill-opacity:1;stroke:none;stroke-width:0.1;stop-color:#000000"
       d="m 65.381651,58.158065 a 4.625,4.625 0 0 0 -4.625041,4.62504 4.625,4.625 0 0 0 0.937411,2.78691 c 0.008,0.01 0.01576,0.0201 0.02325,0.031 a 4.625,4.625 0 0 0 0.20774,0.25063 c 0.49448,0.42115 1.08086,-0.18363 1.161169,-0.39016 0.0912,-0.23453 0.373637,-0.86641 0.494027,-1.6216 0.120399,-0.7552 0.0437,-1.59819 -0.415996,-1.86087 -0.45969,-0.26267 -0.514104,-0.77709 -0.459401,-0.9741 0.0547,-0.19701 0.809651,-0.84235 1.127061,-1.08314 0.317389,-0.24078 0.678818,-0.0657 0.886767,0.30644 0.207952,0.37212 0.404627,0.39378 0.404627,0.39378 h 0.258382 0.258381 c 0,0 0.196678,-0.0217 0.404628,-0.39378 0.207949,-0.37215 0.569378,-0.54722 0.886767,-0.30644 0.31741,0.24079 1.072364,0.88613 1.127066,1.08314 0.0547,0.19701 2.9e-4,0.71143 -0.459406,0.9741 -0.459701,0.26268 -0.536395,1.10567 -0.415994,1.86087 0.120388,0.75519 0.402825,1.38707 0.494025,1.6216 0.08031,0.20653 0.666695,0.81131 1.161173,0.39016 a 4.625,4.625 0 0 0 0.20774,-0.25063 c 0.008,-0.0109 0.0153,-0.021 0.0233,-0.031 a 4.625,4.625 0 0 0 0.93741,-2.78691 4.625,4.625 0 0 0 -4.62504,-4.62504 z" />
    <rect
       style="fill:none;stroke:#000000;stroke-width:0.156919;stroke-miterlimit:4;stroke-dasharray:none;stop-color:#000000"
       id="rect34533-0-8-7-7-1-4-8-0-5-1-6"
       width="30"
       height="30"
       x="85.673317"
       y="43.158066" />
    <text
       xml:space="preserve"
       style="font-size:2.82222px;line-height:1.25;font-family:Ste;-inkscape-font-specification:Ste;stroke-width:0.264583"
       x="114.69765"
       y="50.462082"
       id="text34587-2-7-2-2-1-2-0-7-5-5-3"><tspan
         sodipodi:role="line"
         style="font-style:normal;font-variant:normal;font-weight:normal;font-stretch:normal;font-size:2.82222px;font-family:sans-serif;-inkscape-font-specification:sans-serif;text-align:end;text-anchor:end;stroke-width:0.264583"
         x="114.69765"
         y="50.462082"
         id="tspan34585-8-4-9-8-7-4-0-0-5-5-9">E-Clip</tspan></text>
    <text
       xml:space="preserve"
       style="font-size:4.23333px;line-height:1.25;font-family:Ste;-inkscape-font-specification:Ste;stroke-width:0.264583"
       x="86.338905"
       y="47.357986"
       id="text34591-3-6-7-4-95-2-1-58-2-1-9"><tspan
         sodipodi:role="line"
         id="tspan34589-2-0-0-4-1-7-7-2-4-8-1"
         style="font-style:normal;font-variant:normal;font-weight:bold;font-stretch:normal;font-size:4.23333px;font-family:sans-serif;-inkscape-font-specification:sans-serif;stroke-width:0.264583"
         x="86.338905"
         y="47.357986">M10</tspan></text>
    <text
       xml:space="preserve"
       style="font-size:2.82222px;line-height:1.25;font-family:Ste;-inkscape-font-specification:Ste;text-align:start;text-anchor:start;stroke-width:0.264583"
       x="86.456047"
       y="50.462082"
       id="text34595-6-0-4-5-15-8-3-06-5-2-6"><tspan
         sodipodi:role="line"
         style="font-style:normal;font-variant:normal;font-weight:normal;font-stretch:normal;font-size:2.82222px;font-family:sans-serif;-inkscape-font-specification:sans-serif;text-align:start;text-anchor:start;stroke-width:0.264583"
         x="86.456047"
         y="50.462082"
         id="tspan34593-0-1-5-7-1-9-5-9-2-6-5">Retaining </tspan><tspan
         sodipodi:role="line"
         style="font-style:normal;font-variant:normal;font-weight:normal;font-stretch:normal;font-size:2.82222px;font-family:sans-serif;-inkscape-font-specification:sans-serif;text-align:start;text-anchor:start;stroke-width:0.264583"
         x="86.456047"
         y="54.027817"
         id="tspan10844">Ring</tspan></text>
    <path
       style="fill:#c8c8c8;fill-opacity:1;stroke:#000000;stroke-width:0.132292;stroke-miterlimit:4;stroke-dasharray:none;stroke-opacity:1;stop-color:#000000"
       d="m 110.93466,43.686928 h 4.2095 v 4.2095 z"
       id="path13761-3-061-7-1-9-6-7" />
    <rect
       style="fill:none;stroke:#000000;stroke-width:0.156919;stroke-miterlimit:4;stroke-dasharray:none;stop-color:#000000"
       id="rect34533-0-8-7-7-1-4-8-0-5-1-6-6"
       width="30"
       height="30"
       x="50.381649"
       y="43.158066" />
    <text
       xml:space="preserve"
       style="font-size:2.82222px;line-height:1.25;font-family:Ste;-inkscape-font-specification:Ste;stroke-width:0.264583"
       x="79.405983"
       y="50.462082"
       id="text34587-2-7-2-2-1-2-0-7-5-5-3-6"><tspan
         sodipodi:role="line"
         style="font-style:normal;font-variant:normal;font-weight:normal;font-stretch:normal;font-size:2.82222px;font-family:sans-serif;-inkscape-font-specification:sans-serif;text-align:end;text-anchor:end;stroke-width:0.264583"
         x="79.405983"
         y="50.462082"
         id="tspan34585-8-4-9-8-7-4-0-0-5-5-9-8">E-Clip</tspan></text>
    <text
       xml:space="preserve"
       style="font-size:4.23333px;line-height:1.25;font-family:Ste;-inkscape-font-specification:Ste;stroke-width:0.264583"
       x="51.047237"
       y="47.357986"
       id="text34591-3-6-7-4-95-2-1-58-2-1-9-2"><tspan
         sodipodi:role="line"
         id="tspan34589-2-0-0-4-1-7-7-2-4-8-1-6"
         style="font-style:normal;font-variant:normal;font-weight:bold;font-stretch:normal;font-size:4.23333px;font-family:sans-serif;-inkscape-font-specification:sans-serif;stroke-width:0.264583"
         x="51.047237"
         y="47.357986">M7</tspan></text>
    <text
       xml:space="preserve"
       style="font-size:2.82222px;line-height:1.25;font-family:Ste;-inkscape-font-specification:Ste;text-align:start;text-anchor:start;stroke-width:0.264583"
       x="51.164375"
       y="50.462082"
       id="text34595-6-0-4-5-15-8-3-06-5-2-6-1"><tspan
         sodipodi:role="line"
         style="font-style:normal;font-variant:normal;font-weight:normal;font-stretch:normal;font-size:2.82222px;font-family:sans-serif;-inkscape-font-specification:sans-serif;text-align:start;text-anchor:start;stroke-width:0.264583"
         x="51.164375"
         y="50.462082"
         id="tspan34593-0-1-5-7-1-9-5-9-2-6-5-3">Retaining </tspan><tspan
         sodipodi:role="line"
         style="font-style:normal;font-variant:normal;font-weight:normal;font-stretch:normal;font-size:2.82222px;font-family:sans-serif;-inkscape-font-specification:sans-serif;text-align:start;text-anchor:start;stroke-width:0.264583"
         x="51.164375"
         y="54.027817"
         id="tspan10844-0">Ring</tspan></text>
    <path
       style="fill:#c8c8c8;fill-opacity:1;stroke:#000000;stroke-width:0.132292;stroke-miterlimit:4;stroke-dasharray:none;stroke-opacity:1;stop-color:#000000"
       d="m 75.642982,43.686928 h 4.2095 v 4.2095 z"
       id="path13761-3-061-7-1-9-6-7-1" />
    <rect
       style="fill:#ffffff;stroke:#000000;stroke-width:0.132292;stroke-miterlimit:4;stroke-dasharray:none;stop-color:#000000"
       id="rect846-3-2-8-2-1"
       width="40"
       height="20"
       x="50.381649"
       y="109.70415"
       ry="5" />
    <path
       id="path1242-78-5-9-8-8"
       style="fill:#ffffff;stroke:#000000;stroke-width:0.132292;stroke-miterlimit:4;stroke-dasharray:none;stop-color:#000000"
       d="m 50.381649,99.616401 c 0,8.499999 5.00021,8.500249 5.00021,8.500249 h 19.35902 3.28146 19.35949 c 0,0 4.999701,-2.5e-4 4.999701,-8.500249 h -24.359191 -3.28146 z" />
    <text
       xml:space="preserve"
       style="font-size:4.34794px;line-height:1.25;font-family:Ste;-inkscape-font-specification:Ste;stroke-width:0.081524"
       x="75.76796"
       y="105.4313"
       id="text3821-6-2-8-2-7"><tspan
         sodipodi:role="line"
         id="tspan3819-2-9-3-3-9"
         style="font-style:normal;font-variant:normal;font-weight:bold;font-stretch:normal;font-family:sans-serif;-inkscape-font-specification:sans-serif;text-align:center;text-anchor:middle;stroke-width:0.081524"
         x="75.76796"
         y="105.4313">E-Clips</tspan></text>
    <text
       xml:space="preserve"
       style="font-size:4.34794px;line-height:1.25;font-family:Ste;-inkscape-font-specification:Ste;stroke-width:0.081524"
       x="71.801353"
       y="114.34666"
       id="text8073-7-2-8-5-8"><tspan
         sodipodi:role="line"
         id="tspan8071-6-0-6-9-4"
         style="font-style:normal;font-variant:normal;font-weight:bold;font-stretch:normal;font-family:sans-serif;-inkscape-font-specification:sans-serif;text-align:center;text-anchor:middle;stroke-width:0.081524"
         x="71.801353"
         y="114.34666">E-Clips</tspan></text>
    <text
       xml:space="preserve"
       style="font-size:3.24151px;line-height:1.25;font-family:Ste;-inkscape-font-specification:Ste;stroke-width:0.0607786"
       x="71.80407"
       y="118.17781"
       id="text8160-0-0-7-4-4"><tspan
         sodipodi:role="line"
         id="tspan8158-8-5-1-9-8"
         style="font-style:normal;font-variant:normal;font-weight:normal;font-stretch:normal;font-family:sans-serif;-inkscape-font-specification:sans-serif;text-align:center;text-anchor:middle;stroke-width:0.0607786"
         x="71.80407"
         y="118.17781">All Sizes</tspan></text>
    <path
       id="path37237-5-7-1-9"
       style="color:#000000;fill:#c8c8c8;fill-opacity:1;stroke:#000000;stroke-width:0.132292;stroke-miterlimit:4;stroke-dasharray:none;stroke-opacity:1"
       d="m 54.346736,110.83526 c -1.72079,0.44811 -2.96622,1.99379 -2.96622,3.8685 v 9.99991 c 0,1.87471 1.24542,3.42039 2.96622,3.86849 z" />
    <path
       id="path20467-70-6"
       style="color:#000000;fill:#c8c8c8;fill-opacity:1;stroke:#000000;stroke-width:0.132292;stroke-miterlimit:4;stroke-dasharray:none;stroke-opacity:1"
       d="m 51.535689,100.61603 c 0.21106,3.17504 1.10484,4.91967 1.9942,5.67563 0.9994,0.84952 1.85156,0.82424 1.85156,0.82424 h 1.54513 v -6.49987 z"
       sodipodi:nodetypes="cscccc" />
    <path
       id="path984-3"
       style="fill:#000000;fill-opacity:1;stroke:none;stroke-width:0.1;stop-color:#000000"
       d="m 62.221868,101.17216 a 3.1785922,3.1785922 0 0 0 -3.178621,3.17862 3.1785922,3.1785922 0 0 0 0.644248,1.91534 c 0.0055,0.007 0.01083,0.0138 0.01598,0.0213 a 3.1785922,3.1785922 0 0 0 0.142772,0.17225 c 0.339838,0.28944 0.742836,-0.1262 0.798029,-0.26814 0.06268,-0.16119 0.256787,-0.59545 0.339527,-1.11447 0.08275,-0.51902 0.03003,-1.09838 -0.285899,-1.27891 -0.315928,-0.18052 -0.353325,-0.53406 -0.315729,-0.66946 0.03759,-0.1354 0.556443,-0.57892 0.774587,-0.7444 0.21813,-0.16548 0.466527,-0.0452 0.609442,0.2106 0.142918,0.25575 0.278086,0.27063 0.278086,0.27063 h 0.177576 0.177576 c 0,0 0.135169,-0.0149 0.278086,-0.27063 0.142915,-0.25576 0.391312,-0.37608 0.609442,-0.2106 0.218144,0.16548 0.736996,0.609 0.774591,0.7444 0.03759,0.1354 1.99e-4,0.48894 -0.315733,0.66946 -0.315935,0.18053 -0.368644,0.75989 -0.285897,1.27891 0.08274,0.51902 0.276847,0.95328 0.339525,1.11447 0.05519,0.14194 0.458195,0.55758 0.798031,0.26814 a 3.1785922,3.1785922 0 0 0 0.142772,-0.17225 c 0.0055,-0.008 0.01052,-0.0144 0.01601,-0.0213 a 3.1785922,3.1785922 0 0 0 0.644247,-1.91534 3.1785922,3.1785922 0 0 0 -3.17862,-3.17862 z" />
    <path
       id="path984-3-0"
       style="fill:#000000;fill-opacity:1;stroke:none;stroke-width:0.1;stop-color:#000000"
       d="m 72.498319,119.70415 a 4.9217079,4.9217079 0 0 0 -4.921753,4.92175 4.9217079,4.9217079 0 0 0 0.997549,2.9657 c 0.0085,0.0108 0.01677,0.0213 0.02474,0.033 a 4.9217079,4.9217079 0 0 0 0.221067,0.26671 c 0.526203,0.44817 1.150202,-0.1954 1.235662,-0.41518 0.09705,-0.24959 0.397607,-0.922 0.525722,-1.72564 0.128129,-0.80365 0.04649,-1.70072 -0.442684,-1.98026 -0.489181,-0.27951 -0.547086,-0.82693 -0.488873,-1.03658 0.05821,-0.20965 0.861592,-0.8964 1.199365,-1.15262 0.33775,-0.25623 0.722366,-0.07 0.943655,0.32609 0.221293,0.396 0.430586,0.41904 0.430586,0.41904 h 0.274958 0.274957 c 0,0 0.209295,-0.023 0.430586,-0.41904 0.221289,-0.39602 0.605905,-0.58232 0.943656,-0.32609 0.337772,0.25622 1.141159,0.94297 1.19937,1.15262 0.05821,0.20965 3.09e-4,0.75707 -0.488878,1.03658 -0.489191,0.27954 -0.570806,1.17661 -0.442681,1.98026 0.128114,0.80364 0.428668,1.47605 0.525718,1.72564 0.08546,0.21978 0.709466,0.86335 1.235665,0.41518 a 4.9217079,4.9217079 0 0 0 0.221067,-0.26671 c 0.0085,-0.0124 0.01629,-0.0223 0.02479,-0.033 a 4.9217079,4.9217079 0 0 0 0.997548,-2.9657 4.9217079,4.9217079 0 0 0 -4.921752,-4.92175 z" />
  </g>
</svg>
