<?xml version="1.0" encoding="UTF-8" standalone="no"?>
<!-- Created with Inkscape (http://www.inkscape.org/) -->

<svg
   width="8.5in"
   height="11in"
   viewBox="0 0 215.9 279.4"
   version="1.1"
   id="svg5"
   inkscape:version="1.2.1 (9c6d41e410, 2022-07-14)"
   sodipodi:docname="SDCard.svg"
   xmlns:inkscape="http://www.inkscape.org/namespaces/inkscape"
   xmlns:sodipodi="http://sodipodi.sourceforge.net/DTD/sodipodi-0.dtd"
   xmlns="http://www.w3.org/2000/svg"
   xmlns:svg="http://www.w3.org/2000/svg">
  <sodipodi:namedview
     id="namedview7"
     pagecolor="#ffffff"
     bordercolor="#666666"
     borderopacity="1.0"
     inkscape:pageshadow="2"
     inkscape:pageopacity="0.0"
     inkscape:pagecheckerboard="0"
     inkscape:deskcolor="#d1d1d1"
     inkscape:document-units="mm"
     showgrid="false"
     inkscape:showpageshadow="2"
     inkscape:zoom="4.6229784"
     inkscape:cx="145.03637"
     inkscape:cy="140.81831"
     inkscape:window-width="2560"
     inkscape:window-height="1017"
     inkscape:window-x="2552"
     inkscape:window-y="-8"
     inkscape:window-maximized="1"
     inkscape:current-layer="layer1" />
  <defs
     id="defs2" />
  <g
     inkscape:label="Layer 1"
     inkscape:groupmode="layer"
     id="layer1">
    <path
       id="rect1576"
       style="fill:#808080;stroke:#000000;stroke-width:0.265;stroke-dasharray:none;stroke-opacity:1;stop-color:#000000;fill-opacity:1"
       d="M 15.392859 20.072677 C 15.115859 20.072677 14.892631 20.295907 14.892631 20.572904 L 14.892631 28.392582 L 15.792834 28.392582 L 15.792834 34.992696 L 14.892631 34.992696 L 14.892631 51.572563 C 14.892631 51.84956 15.115859 52.072791 15.392859 52.072791 L 38.392489 52.072791 C 38.669486 52.072791 38.892716 51.84956 38.892716 51.572563 L 38.892716 31.372762 L 37.992513 31.372762 L 37.992513 29.572872 L 38.892716 29.572872 L 38.892716 24.372673 L 34.592721 20.072677 L 15.392859 20.072677 z " />
    <path
       id="path2468"
       style="fill:#333333;fill-opacity:1;stroke:none;stroke-width:0.264999;stroke-dasharray:none;stroke-opacity:1;stop-color:#000000"
       d="m 26.892415,49.072973 c -5.649992,0 -5.649784,1.399915 -5.649784,1.399915 v 0.699699 c 0,0 -2.08e-4,-1.399915 5.649784,-1.399915 5.649995,0 5.650301,1.399915 5.650301,1.399915 v -0.699699 c 0,0 -3.06e-4,-1.399915 -5.650301,-1.399915 z" />
    <path
       style="fill:#333333;fill-opacity:1;stroke:#d0d0d0;stroke-width:0.264999;stroke-dasharray:none;stroke-opacity:1;stop-color:#000000"
       d="m 15.79263,50.973 5.450001,2e-4"
       id="path2536" />
    <path
       style="fill:#333333;fill-opacity:1;stroke:#d0d0d0;stroke-width:0.264999;stroke-dasharray:none;stroke-opacity:1;stop-color:#000000"
       d="m 32.542715,50.973 5.450001,2e-4"
       id="path2538" />
    <path
       style="fill:none;stroke:#d1d1d1;stroke-width:0.264999;stroke-dasharray:none;stroke-opacity:1;stop-color:#000000"
       d="m 21.242674,50.273 c 0,0 10e-7,-1.4 5.649999,-1.4 5.65,0 5.650002,1.4 5.650002,1.4"
       id="path2540"
       sodipodi:nodetypes="csc" />
    <path
       style="fill:none;stroke:#000000;stroke-width:0.264999;stroke-dasharray:none;stroke-opacity:1;stop-color:#000000"
       d="m 21.242674,52.072788 v -1.599999 c 0,0 10e-7,-1.4 5.649999,-1.4 5.65,0 5.650002,1.4 5.650002,1.4 v 1.599999"
       id="path2386" />
    <rect
       style="fill:#d9d9d9;stroke:#000000;stroke-width:0.264999;stroke-dasharray:none;stroke-opacity:1;stop-color:#000000;fill-opacity:1"
       id="rect2397"
       width="0.89999998"
       height="3"
       x="14.892631"
       y="28.392679" />
    <path
       style="fill:none;stroke:#000000;stroke-width:0.264999;stroke-dasharray:none;stroke-opacity:1;stop-color:#000000"
       d="m 14.942858,23.572677 h 0.9 v -2.6 h 18.377069 l 3.772787,3.772788 v 1.627208 h 0.900001"
       id="path2412" />
    <path
       style="fill:none;stroke:#000000;stroke-width:0.264999;stroke-dasharray:none;stroke-opacity:1;stop-color:#000000"
       d="m 14.892631,49.072789 h 0.899999 v 2.099998 h 22.200086 v -2.099998 h 0.899999"
       id="path2444" />
    <path
       style="fill:#ffffff;fill-opacity:1;stroke:none;stroke-width:0.264999;stroke-dasharray:none;stroke-opacity:1;stop-color:#000000"
       d="m 34.762717,26.612675 0.8,-2.399998 0.799999,2.400001 z"
       id="path3444" />
    <path
       style="fill:#ffffff;fill-opacity:1;stroke:none;stroke-width:0.264999;stroke-dasharray:none;stroke-opacity:1;stop-color:#000000"
       d="m 17.562631,28.392678 h 1.5 l -0.75,1.000001 z"
       id="path3830" />
    <circle
       style="fill:none;fill-opacity:1;stroke:#ffffff;stroke-width:0.264999;stroke-dasharray:none;stroke-opacity:1;stop-color:#000000"
       id="path3884"
       cx="18.312624"
       cy="30.695103"
       r="0.80242294" />
    <rect
       style="fill:#ffffff;fill-opacity:1;stroke:none;stroke-width:0.264999;stroke-dasharray:none;stroke-opacity:1;stop-color:#000000"
       id="rect3963"
       width="2.2051098"
       height="1.5479907"
       x="17.210022"
       y="30.694939"
       rx="0.2178895"
       ry="0.2178895" />
    <circle
       style="fill:#808080;fill-opacity:1;stroke:none;stroke-width:0.264999;stroke-dasharray:none;stroke-opacity:1;stop-color:#000000"
       id="path3965"
       cx="18.312578"
       cy="31.354456"
       r="0.36407477" />
    <path
       id="rect4175"
       style="fill:#808080;fill-opacity:1;stroke:none;stroke-width:0.264999;stroke-dasharray:none;stroke-opacity:1;stop-color:#000000"
       d="m 18.146383,31.476738 v 0.466154 h 0.173851 0.17385 v -0.466154 h -0.17385 z" />
  </g>
</svg>
