<?xml version="1.0" encoding="UTF-8" standalone="no"?>
<!-- Created with Inkscape (http://www.inkscape.org/) -->

<svg
   width="210mm"
   height="297mm"
   viewBox="0 0 210 297"
   version="1.1"
   id="svg5"
   inkscape:version="1.1 (c68e22c387, 2021-05-23)"
   sodipodi:docname="Nuts.svg"
   xmlns:inkscape="http://www.inkscape.org/namespaces/inkscape"
   xmlns:sodipodi="http://sodipodi.sourceforge.net/DTD/sodipodi-0.dtd"
   xmlns="http://www.w3.org/2000/svg"
   xmlns:svg="http://www.w3.org/2000/svg">
  <sodipodi:namedview
     id="namedview7"
     pagecolor="#ffffff"
     bordercolor="#666666"
     borderopacity="1.0"
     inkscape:pageshadow="2"
     inkscape:pageopacity="0.0"
     inkscape:pagecheckerboard="0"
     inkscape:document-units="mm"
     showgrid="false"
     inkscape:snap-bbox="true"
     inkscape:snap-bbox-midpoints="false"
     inkscape:snap-bbox-edge-midpoints="false"
     inkscape:bbox-nodes="false"
     inkscape:bbox-paths="false"
     inkscape:object-paths="true"
     inkscape:snap-intersection-paths="true"
     inkscape:snap-smooth-nodes="true"
     inkscape:snap-midpoints="true"
     inkscape:zoom="2"
     inkscape:cx="384.5"
     inkscape:cy="420.25"
     inkscape:window-width="2560"
     inkscape:window-height="1017"
     inkscape:window-x="-8"
     inkscape:window-y="-8"
     inkscape:window-maximized="1"
     inkscape:current-layer="layer1"
     inkscape:snap-global="true"
     inkscape:snap-object-midpoints="true"
     inkscape:snap-center="true"
     showguides="true"
     inkscape:guide-bbox="true">
    <sodipodi:guide
       position="-36.950493,86.20772"
       orientation="0,-1"
       id="guide105884" />
  </sodipodi:namedview>
  <defs
     id="defs2" />
  <g
     inkscape:label="Layer 1"
     inkscape:groupmode="layer"
     id="layer1">
    <path
       id="path1113-0"
       style="fill:#dcdcdc;fill-opacity:1;stroke:#000000;stroke-width:0.1;stroke-opacity:1;stop-color:#000000"
       d="m 36.060671,32.850174 -6.322095,3.649906 v 7.300331 l 6.322095,3.649906 6.322095,-3.649906 V 36.50008 Z m 0,3.440102 a 3.8599999,3.8599999 0 0 1 3.859713,3.860229 3.8599999,3.8599999 0 0 1 -3.859713,3.859712 3.8599999,3.8599999 0 0 1 -3.86023,-3.859712 3.8599999,3.8599999 0 0 1 3.86023,-3.860229 z" />
    <path
       id="rect6294"
       style="fill:#323232;fill-opacity:1;stroke:none;stroke-width:0.1;stroke-opacity:1;stop-color:#000000"
       d="m -48.096261,38.259446 v 2.725414 c 0,0.221599 0.178376,0.399976 0.399976,0.399976 h 13.800191 c 0.2216,0 0.399976,-0.178377 0.399976,-0.399976 v -2.725414 z" />
    <path
       id="rect6456"
       style="fill:#dcdcdc;fill-opacity:1;stroke:none;stroke-width:0.1;stroke-opacity:1;stop-color:#000000"
       d="m -47.696285,35.134571 c -0.2216,0 -0.399976,0.178377 -0.399976,0.399976 v 2.725415 h 14.600143 v -2.725415 c -10e-7,-0.221599 -0.178376,-0.399976 -0.399976,-0.399976 z" />
    <path
       style="fill:#646464;fill-opacity:1;stroke:none;stroke-width:0.1;stop-color:#000000"
       d="m -69.660466,27.908485 c 0,0 3.374474,-2.4272 3.530436,-2.460654 0.155961,-0.03345 6.686142,0.618561 6.686142,0.618561 0,0 1.116707,2.918064 1.097125,2.859318 -0.01958,-0.05875 -3.634713,2.138182 -3.634713,2.138182 l -6.038737,-1.256997 z"
       id="path3127" />
    <path
       id="path1045"
       style="fill:#353737;fill-opacity:1;stroke:#000000;stroke-width:0.0999998;stroke-opacity:1;stop-color:#000000"
       inkscape:transform-center-x="-3.860122"
       inkscape:transform-center-y="0.25355563"
       d="m -64.008849,30.52233 a 3.8711872,1.9244829 4.9957009 0 0 -2.334815,0.401526 3.8711872,1.9244829 4.9957009 0 0 -1.120898,1.41025 3.8711872,1.9244829 4.9957009 0 1 1.120898,-1.172538 3.8711872,1.9244829 4.9957009 0 1 5.459269,0.358635 3.8711872,1.9244829 4.9957009 0 1 1.122964,1.319816 3.8711872,1.9244829 4.9957009 0 0 -1.122964,-1.557528 3.8711872,1.9244829 4.9957009 0 0 -3.124454,-0.760161 z" />
    <path
       id="path1043"
       style="fill:#969696;fill-opacity:1;stroke:none;stroke-width:0.0999998;stroke-opacity:1;stop-color:#000000"
       inkscape:transform-center-x="-3.860122"
       inkscape:transform-center-y="0.25355563"
       d="m -64.008849,29.12233 a 3.8711872,1.9244829 4.9957009 0 0 -2.334815,0.401526 3.8711872,1.9244829 4.9957009 0 0 -1.120898,1.41025 3.8711872,1.9244829 4.9957009 0 1 1.120898,-1.172538 3.8711872,1.9244829 4.9957009 0 1 5.459269,0.358635 3.8711872,1.9244829 4.9957009 0 1 1.122964,1.319816 3.8711872,1.9244829 4.9957009 0 0 -1.122964,-1.557528 3.8711872,1.9244829 4.9957009 0 0 -3.124454,-0.760161 z" />
    <path
       id="path1041"
       style="fill:#969696;fill-opacity:1;stroke:none;stroke-width:0.0999998;stroke-opacity:1;stop-color:#000000"
       inkscape:transform-center-x="-3.860122"
       inkscape:transform-center-y="0.25355563"
       d="m -64.008849,27.72233 a 3.8711872,1.9244829 4.9957009 0 0 -2.334815,0.401526 3.8711872,1.9244829 4.9957009 0 0 -1.120898,1.41025 3.8711872,1.9244829 4.9957009 0 1 1.120898,-1.172538 3.8711872,1.9244829 4.9957009 0 1 5.459269,0.358635 3.8711872,1.9244829 4.9957009 0 1 1.122964,1.319816 3.8711872,1.9244829 4.9957009 0 0 -1.122964,-1.557528 3.8711872,1.9244829 4.9957009 0 0 -3.124454,-0.760161 z" />
    <path
       id="circle6843"
       style="fill:#dcdcdc;fill-opacity:1;stroke:none;stroke-width:0.0999995;stroke-opacity:1;stop-color:#000000"
       d="m -64.85131,24.845794 c -1.08759,-0.0019 -1.692137,0.300365 -3.305225,1.106909 -2.025916,1.012958 -2.46016,1.614192 -2.553849,1.826762 -0.02708,0.03076 -0.02739,0.08888 -0.02739,0.08888 v 5.000211 c 0,0 -4.4e-5,0.625153 0.944645,2.387968 0.944691,1.762816 0.9449,1.762659 4.470528,2.235007 2.5515,0.341836 3.058922,0.389435 4.265889,-0.06563 0.382225,-0.09546 0.96149,-0.312796 1.840715,-0.752409 0.165269,-0.0671 0.293884,-0.134247 0.38964,-0.200504 2.189731,-1.154596 2.191081,-1.715143 2.191081,-1.715143 v -5.00021 c 0,0 -2.49e-4,-0.04058 -0.04237,-0.07958 0,0 0.04242,-0.545571 -0.90227,-2.308386 -0.94469,-1.762815 -0.944384,-1.762661 -4.470012,-2.235006 -1.322112,-0.17713 -2.148826,-0.287732 -2.801379,-0.288871 z m 1.033012,1.615405 a 3.8599999,1.9299999 0 0 1 2.861324,0.564307 3.8599999,1.9299999 0 0 1 0,2.729549 3.8599999,1.9299999 0 0 1 -5.458582,0 3.8599999,1.9299999 0 0 1 0,-2.729549 3.8599999,1.9299999 0 0 1 2.597258,-0.564307 z" />
    <path
       style="fill:#323232;fill-opacity:1;stroke:none;stroke-width:0.1;stroke-opacity:1;stop-color:#000000"
       d="m -69.792895,35.256301 c 0.944691,1.762815 0.944691,1.762815 4.470319,2.23516 3.525629,0.472345 3.147119,0.383408 6.106569,-0.818126 2.95945,-1.201534 -5.797495,-2.296152 -5.797495,-2.296152 z"
       id="path5992" />
    <circle
       style="fill:none;stroke:#000000;stroke-width:0.1;stroke-opacity:1;stop-color:#000000"
       id="path846"
       cx="-36.774132"
       cy="18.824642"
       r="6" />
    <circle
       style="fill:none;stroke:#000000;stroke-width:0.0999997;stroke-opacity:1;stop-color:#000000"
       id="circle972"
       cx="-36.774132"
       cy="18.824642"
       r="4.4200001" />
    <circle
       style="fill:none;stroke:#000000;stroke-width:0.0999997;stroke-opacity:1;stop-color:#000000"
       id="circle974"
       cx="-36.774132"
       cy="18.824642"
       r="3.8599999" />
    <path
       style="fill:none;stroke:#000000;stroke-width:0.1;stroke-opacity:1;stop-color:#000000"
       d="m -36.77413,18.824643 v -7.3"
       id="path1009" />
    <path
       sodipodi:type="star"
       style="fill:none;stroke:#000000;stroke-width:0.377953;stroke-opacity:1;stop-color:#000000"
       id="path1113"
       inkscape:flatsided="true"
       sodipodi:sides="6"
       sodipodi:cx="105.81535"
       sodipodi:cy="59.029041"
       sodipodi:r1="27.590549"
       sodipodi:r2="13.795275"
       sodipodi:arg1="-1.5707963"
       sodipodi:arg2="-1.0471976"
       inkscape:rounded="0"
       inkscape:randomized="0"
       d="m 105.81535,31.438492 23.89412,13.795275 0,27.59055 -23.89412,13.795274 -23.894114,-13.795276 1e-6,-27.590549 z"
       transform="matrix(0.26458333,0,0,0.26458333,-64.771109,3.2065422)" />
    <path
       id="path846-9"
       style="fill:#f0f0f0;fill-opacity:1;stroke:none;stroke-width:0.1;stroke-opacity:1;stop-color:#000000"
       d="m 36.060671,34.150353 a 5.9999998,5.9999998 0 0 0 -6.00015,6.000152 5.9999998,5.9999998 0 0 0 6.00015,5.999633 5.9999998,5.9999998 0 0 0 6.000151,-5.999633 5.9999998,5.9999998 0 0 0 -6.000151,-6.000152 z m 0,1.57975 a 4.42,4.42 0 0 1 4.419885,4.420402 4.42,4.42 0 0 1 -4.419885,4.419885 4.42,4.42 0 0 1 -4.419885,-4.419885 4.42,4.42 0 0 1 4.419885,-4.420402 z" />
    <circle
       style="fill:none;stroke:#000000;stroke-width:0.1;stroke-opacity:1;stop-color:#000000"
       id="path846-5"
       cx="-36.326569"
       cy="53.739502"
       r="6"
       transform="rotate(45)" />
    <circle
       style="fill:none;stroke:#000000;stroke-width:0.0999997;stroke-opacity:1;stop-color:#000000"
       id="circle972-4"
       cx="-36.326569"
       cy="53.739502"
       r="4.4200001"
       transform="rotate(45)" />
    <circle
       style="fill:none;stroke:#000000;stroke-width:0.0999997;stroke-opacity:1;stop-color:#000000"
       id="circle974-9"
       cx="-36.326569"
       cy="53.739502"
       r="3.8599999"
       transform="rotate(45)" />
    <path
       sodipodi:type="star"
       style="fill:none;stroke:#000000;stroke-width:0.377953;stroke-opacity:1;stop-color:#000000"
       id="path1113-2"
       inkscape:flatsided="true"
       sodipodi:sides="6"
       sodipodi:cx="105.81535"
       sodipodi:cy="59.029041"
       sodipodi:r1="27.590549"
       sodipodi:r2="13.795275"
       sodipodi:arg1="-1.5707963"
       sodipodi:arg2="-1.0471976"
       inkscape:rounded="0"
       inkscape:randomized="0"
       transform="matrix(0.18708867,0.18708866,-0.18708866,0.18708867,-72.439516,-18.527716)"
       d="m 105.81535,31.438492 23.89412,13.795275 0,27.59055 -23.89412,13.795274 -23.894114,-13.795276 1e-6,-27.590549 z" />
    <circle
       style="fill:none;stroke:#000000;stroke-width:0.1;stroke-opacity:1;stop-color:#000000"
       id="path846-5-9"
       cx="-6.0553069"
       cy="25.232861"
       r="6"
       transform="rotate(30)" />
    <circle
       style="fill:none;stroke:#000000;stroke-width:0.0999997;stroke-opacity:1;stop-color:#000000"
       id="circle972-4-7"
       cx="-6.0553069"
       cy="25.232861"
       r="4.4200001"
       transform="rotate(30)" />
    <circle
       style="fill:none;stroke:#000000;stroke-width:0.0999997;stroke-opacity:1;stop-color:#000000"
       id="circle974-9-6"
       cx="-6.0553069"
       cy="25.232861"
       r="3.8599999"
       transform="rotate(30)" />
    <path
       sodipodi:type="star"
       style="fill:none;stroke:#000000;stroke-width:0.377953;stroke-opacity:1;stop-color:#000000"
       id="path1113-2-6"
       inkscape:flatsided="true"
       sodipodi:sides="6"
       sodipodi:cx="105.81535"
       sodipodi:cy="59.029041"
       sodipodi:r1="27.590549"
       sodipodi:r2="13.795275"
       sodipodi:arg1="-1.5707963"
       sodipodi:arg2="-1.0471976"
       inkscape:rounded="0"
       inkscape:randomized="0"
       transform="matrix(0.22913589,0.13229166,-0.13229166,0.22913589,-34.297524,-8.6995184)"
       d="m 105.81535,31.438492 23.89412,13.795275 0,27.59055 -23.89412,13.795274 -23.894114,-13.795276 1e-6,-27.590549 z" />
    <path
       id="circle1286"
       style="fill:#f0f0f0;fill-opacity:1;stroke:none;stroke-width:0.0999995;stroke-opacity:1;stop-color:#000000"
       d="m -63.848787,25.188926 a 5.9999996,2.9999998 0 0 0 -4.080371,0.877465 5.9999996,2.9999998 0 0 0 0,4.242635 5.9999996,2.9999998 0 0 0 8.48527,0 5.9999996,2.9999998 0 0 0 0,-4.242635 5.9999996,2.9999998 0 0 0 -4.404899,-0.877465 z m 0.0031,1.27279 a 3.8599999,1.9299999 0 0 1 2.888713,0.56379 3.8599999,1.9299999 0 0 1 0,2.729549 3.8599999,1.9299999 0 0 1 -5.458582,0 3.8599999,1.9299999 0 0 1 0,-2.729549 3.8599999,1.9299999 0 0 1 2.569869,-0.56379 z" />
    <path
       id="circle1288"
       style="fill:#dcdcdc;fill-opacity:1;stroke:none;stroke-width:0.0999995;stroke-opacity:1;stop-color:#000000"
       d="m -63.837419,25.979058 a 4.42,2.21 0 0 0 -2.974495,0.645956 4.42,2.21 0 0 0 0,3.12539 4.42,2.21 0 0 0 6.250781,0 4.42,2.21 0 0 0 0,-3.12539 4.42,2.21 0 0 0 -3.276286,-0.645956 z m 0.01912,0.482141 a 3.8599999,1.9299999 0 0 1 2.861324,0.564307 3.8599999,1.9299999 0 0 1 0,2.729549 3.8599999,1.9299999 0 0 1 -5.458582,0 3.8599999,1.9299999 0 0 1 0,-2.729549 3.8599999,1.9299999 0 0 1 2.597258,-0.564307 z" />
    <circle
       style="fill:none;stroke:#000000;stroke-width:0.112097;stroke-opacity:1;stop-color:#000000"
       id="circle1290-0"
       cx="6.5094719"
       cy="33.236412"
       transform="matrix(0.85581491,0.51728216,-0.9298911,0.36783493,0,0)"
       inkscape:transform-center-x="-3.8600015"
       rx="3.1892784"
       ry="2.9352169"
       inkscape:transform-center-y="0.40310876" />
    <path
       style="fill:#646464;fill-opacity:1;stroke:none;stroke-width:0.1;stroke-opacity:1;stop-color:#000000"
       d="m -68.848205,36.394115 c 0,0 0,0.625001 -0.94469,-1.137814 -0.944689,-1.762815 -0.944689,-2.387815 -0.944689,-2.387815 v -5 c 0,0 0,-0.625373 0.944689,1.137442 0.94469,1.762814 0.94469,2.388187 0.94469,2.388187 z"
       id="path3079"
       sodipodi:nodetypes="csccscc" />
    <path
       style="fill:#c8c8c8;fill-opacity:1;stroke:none;stroke-width:0.1;stroke-opacity:1;stop-color:#000000"
       d="m -56.635069,29.757865 c 0,0 0,-0.625373 -2.580939,0.665097 -2.58094,1.29047 -2.58094,1.915843 -2.58094,1.915843 v 5 c 0,0 0,0.625001 2.58094,-0.66547 2.580939,-1.290471 2.580939,-1.915469 2.580939,-1.915469 z"
       id="path3089"
       sodipodi:nodetypes="csccscc" />
    <path
       style="fill:#969696;fill-opacity:1;stroke:none;stroke-width:0.1;stroke-opacity:1;stop-color:#000000"
       d="m -61.796948,32.338805 c 0,0 0,-0.625373 -3.525628,-1.097718 -3.525629,-0.472345 -3.525629,0.153028 -3.525629,0.153028 v 5 c 0,0 0,0.625001 3.525629,1.097346 3.525628,0.472345 3.525628,-0.152656 3.525628,-0.152656 z"
       id="path3097"
       sodipodi:nodetypes="csccscc" />
    <path
       sodipodi:type="star"
       style="fill:none;stroke:#000000;stroke-width:0.377953;stroke-opacity:1;stop-color:#000000"
       id="path5586"
       inkscape:flatsided="true"
       sodipodi:sides="6"
       sodipodi:cx="105.81535"
       sodipodi:cy="59.029041"
       sodipodi:r1="27.590549"
       sodipodi:r2="13.795275"
       sodipodi:arg1="-1.5707963"
       sodipodi:arg2="-1.0471976"
       inkscape:rounded="0"
       inkscape:randomized="0"
       transform="matrix(0.18708867,0.18708866,-0.18708866,0.18708867,-72.439516,-18.527716)"
       d="m 105.81535,31.438492 23.89412,13.795275 0,27.59055 -23.89412,13.795274 -23.894114,-13.795276 1e-6,-27.590549 z" />
    <circle
       style="fill:none;stroke:#000000;stroke-width:0.112097;stroke-opacity:1;stop-color:#000000"
       id="circle7888"
       cx="10.717413"
       cy="38.25724"
       transform="matrix(0.85581491,0.51728216,-0.9298911,0.36783493,0,0)"
       inkscape:transform-center-x="-3.8600015"
       rx="3.1892784"
       ry="2.9352169"
       inkscape:transform-center-y="0.40310876" />
    <circle
       style="fill:none;stroke:#000000;stroke-width:0.112097;stroke-opacity:1;stop-color:#000000"
       id="circle7890"
       cx="10.717413"
       cy="38.25724"
       transform="matrix(0.85581491,0.51728216,-0.9298911,0.36783493,0,0)"
       inkscape:transform-center-x="-3.8600015"
       rx="3.1892784"
       ry="2.9352169"
       inkscape:transform-center-y="0.40310876" />
    <circle
       style="fill:none;stroke:#000000;stroke-width:0.112097;stroke-opacity:1;stop-color:#000000"
       id="circle7892"
       cx="10.717413"
       cy="38.25724"
       transform="matrix(0.85581491,0.51728216,-0.9298911,0.36783493,0,0)"
       inkscape:transform-center-x="-3.8600015"
       rx="3.1892784"
       ry="2.9352169"
       inkscape:transform-center-y="0.40310876" />
    <circle
       style="fill:none;stroke:#000000;stroke-width:0.112097;stroke-opacity:1;stop-color:#000000"
       id="circle7894"
       cx="7.5664649"
       cy="33.836075"
       transform="matrix(0.85581491,0.51728216,-0.9298911,0.36783493,0,0)"
       inkscape:transform-center-x="-3.8600015"
       rx="3.1892784"
       ry="2.9352169"
       inkscape:transform-center-y="0.40310876" />
    <circle
       style="fill:none;stroke:#000000;stroke-width:0.112097;stroke-opacity:1;stop-color:#000000"
       id="circle7896"
       cx="5.9282756"
       cy="33.763504"
       transform="matrix(0.85581491,0.51728216,-0.9298911,0.36783493,0,0)"
       inkscape:transform-center-x="-3.8600015"
       rx="3.1892784"
       ry="2.9352169"
       inkscape:transform-center-y="0.40310876" />
    <circle
       style="fill:none;stroke:#000000;stroke-width:0.112097;stroke-opacity:1;stop-color:#000000"
       id="circle7907"
       cx="6.9697742"
       cy="34.693333"
       transform="matrix(0.85581491,0.51728216,-0.9298911,0.36783493,0,0)"
       inkscape:transform-center-x="-3.8600015"
       rx="3.1892784"
       ry="2.9352169"
       inkscape:transform-center-y="0.40310876" />
    <path
       id="path3346"
       style="fill:none;fill-opacity:1;stroke:#000000;stroke-width:0.1;stroke-opacity:1;stop-color:#000000"
       d="m -64.85131,24.845794 c -1.08759,-0.0019 -1.692137,0.300365 -3.305225,1.106909 -2.02489,1.012445 -2.459862,1.613907 -2.553849,1.826762 -0.01313,0.01492 -0.01977,0.0356 -0.02325,0.05374 -4.81e-4,0.0024 -6.64e-4,0.0029 -0.001,0.0052 -0.0028,0.01683 -0.0031,0.02997 -0.0031,0.02997 v 5.000211 c 0,0 0.001,0.08065 0.04341,0.261483 0.0044,0.01902 0.009,0.03809 0.01447,0.05943 0.0136,0.05327 0.03081,0.113722 0.05168,0.181901 0.0061,0.0199 0.01234,0.03976 0.01912,0.06098 0.02388,0.07459 0.05262,0.157615 0.0863,0.24908 0.0089,0.02428 0.01718,0.04683 0.02687,0.07235 0.04081,0.107304 0.08837,0.225671 0.144177,0.355534 0.0085,0.01987 0.01693,0.03953 0.02584,0.05995 0.131373,0.300675 0.304073,0.66049 0.532784,1.087271 0.118086,0.220353 0.221547,0.412763 0.318843,0.582393 0.004,0.0069 0.0074,0.01279 0.01137,0.01964 0.04456,0.07721 0.08826,0.15018 0.131258,0.218075 0.0027,0.0043 0.005,0.0081 0.0078,0.0124 0.08543,0.133911 0.170183,0.250129 0.259932,0.352436 0.01037,0.01181 0.021,0.0237 0.03152,0.03514 0.04203,0.04569 0.08539,0.0885 0.130741,0.128675 0.006,0.0053 0.01202,0.0108 0.01809,0.01602 0.04826,0.04152 0.09882,0.08001 0.152445,0.116274 0.0073,0.005 0.01477,0.01011 0.02222,0.01499 0.418371,0.273378 1.027179,0.406402 2.164726,0.571023 0.07818,0.01132 0.172475,0.0245 0.255798,0.03617 0.291241,0.04076 0.605832,0.08355 0.965833,0.131776 0.24561,0.0329 0.468347,0.06213 0.678511,0.0894 0.09775,0.01267 0.197512,0.02531 0.288355,0.03669 0.20584,0.0258 0.401147,0.04933 0.575675,0.06821 0.01556,0.0017 0.03221,0.0035 0.04754,0.0052 0.198937,0.0211 0.378594,0.03742 0.544669,0.04858 0.0089,5.95e-4 0.01857,0.0015 0.02739,0.0021 0.165822,0.01067 0.317867,0.01566 0.45992,0.0155 0.01143,-1.3e-5 0.02331,8.7e-5 0.03462,0 0.132704,-0.001 0.257653,-0.0073 0.377755,-0.0186 0.01868,-0.0018 0.03733,-0.0037 0.05581,-0.0057 0.05582,-0.0061 0.110809,-0.0127 0.165365,-0.02119 0.0033,-5.11e-4 0.0065,-0.001 0.0098,-0.0015 0.05689,-0.009 0.113569,-0.01984 0.170015,-0.03152 0.01151,-0.0024 0.0231,-0.0053 0.03462,-0.0078 0.05721,-0.0124 0.114716,-0.02559 0.172599,-0.04082 0.0012,-3.13e-4 0.0024,-7.2e-4 0.0036,-0.001 0.19391,-0.05121 0.394854,-0.118354 0.6196,-0.203089 0.09009,-0.0225 0.19204,-0.05308 0.305408,-0.09043 0.0109,-0.0036 0.02092,-0.0066 0.03204,-0.01033 0.112601,-0.03786 0.237796,-0.08388 0.375171,-0.138494 0.01326,-0.0053 0.02628,-0.01006 0.03979,-0.0155 0.141624,-0.05705 0.296317,-0.123542 0.466122,-0.200504 0.01328,-0.006 0.02684,-0.01245 0.04031,-0.01861 0.178165,-0.08139 0.37051,-0.172852 0.581877,-0.278535 0.08297,-0.03368 0.155658,-0.06728 0.220658,-0.100769 0.0014,-7.12e-4 0.0022,-0.0014 0.0036,-0.0021 0.06298,-0.03261 0.118557,-0.06528 0.165365,-0.09767 0.136796,-0.07213 0.265268,-0.141793 0.385506,-0.209291 0.0059,-0.0033 0.01065,-0.0065 0.01654,-0.0098 0.114127,-0.06426 0.220889,-0.125984 0.32091,-0.186034 0.0024,-0.0014 0.0043,-0.0027 0.0067,-0.0041 1.460129,-0.877933 1.46141,-1.305865 1.46141,-1.305865 v -5.00021 c 0,0 -3.46e-4,-0.02289 -0.01809,-0.05064 0,0 -5.17e-4,-5.17e-4 -5.17e-4,-5.17e-4 -0.0059,-0.0091 -0.01346,-0.01891 -0.02377,-0.02842 0,0 0.04242,-0.545571 -0.90227,-2.308386 -0.94469,-1.762815 -0.944384,-1.762661 -4.470012,-2.235006 -1.322112,-0.17713 -2.148826,-0.287732 -2.801379,-0.288871 z" />
    <path
       id="circle1290-03"
       style="fill:#969696;fill-opacity:1;stroke:none;stroke-width:0.0999998;stroke-opacity:1;stop-color:#000000"
       inkscape:transform-center-x="-3.8600008"
       inkscape:transform-center-y="0.25355531"
       d="m -64.008958,26.322717 a 3.8710666,1.9244824 4.9959594 0 0 -2.334742,0.401526 3.8710666,1.9244824 4.9959594 0 0 -1.120862,1.41025 3.8710666,1.9244824 4.9959594 0 1 1.120862,-1.172538 3.8710666,1.9244824 4.9959594 0 1 5.459098,0.358635 3.8710666,1.9244824 4.9959594 0 1 1.122929,1.319816 3.8710666,1.9244824 4.9959594 0 0 -1.122929,-1.557528 3.8710666,1.9244824 4.9959594 0 0 -3.124356,-0.760161 z" />
    <path
       id="circle3409"
       style="fill:none;stroke:#000000;stroke-width:0.0999995;stroke-opacity:1;stop-color:#000000"
       d="m -67.540035,28.484848 c 0.0464,0.478474 0.44702,0.93122 1.123962,1.270207 1.507451,0.75379 3.951648,0.75379 5.459099,0 0.677511,-0.338866 1.078697,-0.791627 1.125512,-1.270207"
       sodipodi:nodetypes="cccc" />
    <path
       style="fill:#646464;fill-opacity:1;stroke:none;stroke-width:0.1;stop-color:#000000"
       d="m 30.275861,51.919956 c 0,0 3.374474,-2.4272 3.530436,-2.460654 0.155961,-0.03345 6.686142,0.618561 6.686142,0.618561 0,0 1.116707,2.918064 1.097125,2.859318 -0.01958,-0.05875 -3.634713,2.138182 -3.634713,2.138182 l -6.038737,-1.256997 z"
       id="path3127-3" />
    <path
       id="path1045-7"
       style="fill:#353737;fill-opacity:1;stroke:#000000;stroke-width:0.0999998;stroke-opacity:1;stop-color:#000000"
       inkscape:transform-center-x="-3.860122"
       inkscape:transform-center-y="0.25355563"
       d="m 35.927478,54.533801 a 3.8711872,1.9244829 4.9957009 0 0 -2.334815,0.401526 3.8711872,1.9244829 4.9957009 0 0 -1.120898,1.41025 3.8711872,1.9244829 4.9957009 0 1 1.120898,-1.172538 3.8711872,1.9244829 4.9957009 0 1 5.459269,0.358635 3.8711872,1.9244829 4.9957009 0 1 1.122964,1.319816 3.8711872,1.9244829 4.9957009 0 0 -1.122964,-1.557528 3.8711872,1.9244829 4.9957009 0 0 -3.124454,-0.760161 z" />
    <path
       id="path1043-8"
       style="fill:#969696;fill-opacity:1;stroke:none;stroke-width:0.0999998;stroke-opacity:1;stop-color:#000000"
       inkscape:transform-center-x="-3.860122"
       inkscape:transform-center-y="0.25355563"
       d="m 35.927478,53.133801 a 3.8711872,1.9244829 4.9957009 0 0 -2.334815,0.401526 3.8711872,1.9244829 4.9957009 0 0 -1.120898,1.41025 3.8711872,1.9244829 4.9957009 0 1 1.120898,-1.172538 3.8711872,1.9244829 4.9957009 0 1 5.459269,0.358635 3.8711872,1.9244829 4.9957009 0 1 1.122964,1.319816 3.8711872,1.9244829 4.9957009 0 0 -1.122964,-1.557528 3.8711872,1.9244829 4.9957009 0 0 -3.124454,-0.760161 z" />
    <path
       id="path1041-0"
       style="fill:#969696;fill-opacity:1;stroke:none;stroke-width:0.0999998;stroke-opacity:1;stop-color:#000000"
       inkscape:transform-center-x="-3.860122"
       inkscape:transform-center-y="0.25355563"
       d="m 35.927478,51.733801 a 3.8711872,1.9244829 4.9957009 0 0 -2.334815,0.401526 3.8711872,1.9244829 4.9957009 0 0 -1.120898,1.41025 3.8711872,1.9244829 4.9957009 0 1 1.120898,-1.172538 3.8711872,1.9244829 4.9957009 0 1 5.459269,0.358635 3.8711872,1.9244829 4.9957009 0 1 1.122964,1.319816 3.8711872,1.9244829 4.9957009 0 0 -1.122964,-1.557528 3.8711872,1.9244829 4.9957009 0 0 -3.124454,-0.760161 z" />
    <path
       id="circle6843-4"
       style="fill:#dcdcdc;fill-opacity:1;stroke:none;stroke-width:0.0999995;stroke-opacity:1;stop-color:#000000"
       d="m 35.085017,48.857266 c -1.08759,-0.0019 -1.692137,0.300365 -3.305224,1.106909 -2.025917,1.012958 -2.460161,1.614191 -2.55385,1.826761 -0.02708,0.03076 -0.02739,0.08888 -0.02739,0.08888 v 5.000211 c 0,0 -4.4e-5,0.625153 0.944645,2.387968 0.944691,1.762816 0.9449,1.76266 4.470528,2.235007 2.5515,0.341837 3.058922,0.389435 4.265889,-0.06563 0.382225,-0.09546 0.96149,-0.312795 1.840715,-0.752408 0.165269,-0.0671 0.293884,-0.134247 0.38964,-0.200504 2.189731,-1.154597 2.191081,-1.715143 2.191081,-1.715143 v -5.000211 c 0,0 -2.49e-4,-0.04058 -0.04237,-0.07958 0,0 0.04242,-0.545572 -0.90227,-2.308387 -0.94469,-1.762815 -0.944384,-1.76266 -4.470012,-2.235005 -1.322112,-0.17713 -2.148826,-0.287732 -2.801379,-0.288871 z m 1.033012,1.615405 a 3.8599999,1.9299999 0 0 1 2.861324,0.564306 3.8599999,1.9299999 0 0 1 0,2.729549 3.8599999,1.9299999 0 0 1 -5.458582,0 3.8599999,1.9299999 0 0 1 0,-2.729549 3.8599999,1.9299999 0 0 1 2.597258,-0.564306 z" />
    <path
       style="fill:#323232;fill-opacity:1;stroke:none;stroke-width:0.1;stroke-opacity:1;stop-color:#000000"
       d="m 30.143432,59.267772 c 0.944691,1.762815 0.944691,1.762815 4.470319,2.23516 3.525629,0.472345 3.147119,0.383408 6.106569,-0.818126 2.959451,-1.201534 -5.797495,-2.296152 -5.797495,-2.296152 z"
       id="path5992-0" />
    <path
       id="circle1286-9"
       style="fill:#f0f0f0;fill-opacity:1;stroke:none;stroke-width:0.0999995;stroke-opacity:1;stop-color:#000000"
       d="m 36.08754,49.200397 a 5.9999996,2.9999998 0 0 0 -4.080371,0.877466 5.9999996,2.9999998 0 0 0 0,4.242635 5.9999996,2.9999998 0 0 0 8.48527,0 5.9999996,2.9999998 0 0 0 0,-4.242635 5.9999996,2.9999998 0 0 0 -4.404899,-0.877466 z m 0.0031,1.272791 a 3.8599999,1.9299999 0 0 1 2.888712,0.563789 3.8599999,1.9299999 0 0 1 0,2.729549 3.8599999,1.9299999 0 0 1 -5.458581,0 3.8599999,1.9299999 0 0 1 0,-2.729549 3.8599999,1.9299999 0 0 1 2.569869,-0.563789 z" />
    <path
       id="circle1288-2"
       style="fill:#dcdcdc;fill-opacity:1;stroke:none;stroke-width:0.0999995;stroke-opacity:1;stop-color:#000000"
       d="m 36.098908,49.99053 a 4.42,2.21 0 0 0 -2.974495,0.645955 4.42,2.21 0 0 0 0,3.125391 4.42,2.21 0 0 0 6.250781,0 4.42,2.21 0 0 0 0,-3.125391 4.42,2.21 0 0 0 -3.276286,-0.645955 z m 0.01912,0.482141 a 3.8599999,1.9299999 0 0 1 2.861324,0.564306 3.8599999,1.9299999 0 0 1 0,2.729549 3.8599999,1.9299999 0 0 1 -5.458581,0 3.8599999,1.9299999 0 0 1 0,-2.729549 3.8599999,1.9299999 0 0 1 2.597257,-0.564306 z" />
    <path
       style="fill:#646464;fill-opacity:1;stroke:none;stroke-width:0.1;stroke-opacity:1;stop-color:#000000"
       d="m 31.088122,60.405586 c 0,0 0,0.625001 -0.94469,-1.137814 -0.944689,-1.762815 -0.944689,-2.387815 -0.944689,-2.387815 v -5 c 0,0 0,-0.625373 0.944689,1.137442 0.94469,1.762814 0.94469,2.388187 0.94469,2.388187 z"
       id="path3079-1"
       sodipodi:nodetypes="csccscc" />
    <path
       style="fill:#c8c8c8;fill-opacity:1;stroke:none;stroke-width:0.1;stroke-opacity:1;stop-color:#000000"
       d="m 43.301259,53.769336 c 0,0 0,-0.625373 -2.58094,0.665097 -2.58094,1.29047 -2.58094,1.915843 -2.58094,1.915843 v 5 c 0,0 0,0.625001 2.58094,-0.66547 2.58094,-1.290471 2.58094,-1.915469 2.58094,-1.915469 z"
       id="path3089-0"
       sodipodi:nodetypes="csccscc" />
    <path
       style="fill:#969696;fill-opacity:1;stroke:none;stroke-width:0.1;stroke-opacity:1;stop-color:#000000"
       d="m 38.139379,56.350276 c 0,0 0,-0.625373 -3.525628,-1.097718 -3.525629,-0.472345 -3.525629,0.153028 -3.525629,0.153028 v 5 c 0,0 0,0.625001 3.525629,1.097346 3.525628,0.472345 3.525628,-0.152656 3.525628,-0.152656 z"
       id="path3097-6"
       sodipodi:nodetypes="csccscc" />
    <path
       id="path3346-1"
       style="fill:none;fill-opacity:1;stroke:#000000;stroke-width:0.1;stroke-opacity:1;stop-color:#000000"
       d="m 35.085017,48.857266 c -1.08759,-0.0019 -1.692137,0.300365 -3.305224,1.106909 -2.024891,1.012445 -2.459863,1.613906 -2.55385,1.826761 -0.01313,0.01492 -0.01977,0.0356 -0.02325,0.05374 -4.76e-4,0.0024 -6.61e-4,0.0029 -0.001,0.0052 -0.0028,0.01683 -0.0031,0.02997 -0.0031,0.02997 v 5.000212 c 0,0 0.001,0.08065 0.04341,0.261483 0.0044,0.01902 0.009,0.03809 0.01447,0.05943 0.0136,0.05327 0.03081,0.113722 0.05168,0.181901 0.0061,0.0199 0.01234,0.03976 0.01912,0.06098 0.02388,0.07459 0.05262,0.157615 0.0863,0.24908 0.0089,0.02429 0.01718,0.04683 0.02687,0.07235 0.04081,0.107303 0.08837,0.225671 0.144177,0.355534 0.0085,0.01987 0.01693,0.03953 0.02584,0.05995 0.131374,0.300675 0.304074,0.66049 0.532784,1.08727 0.118087,0.220353 0.221548,0.412764 0.318844,0.582393 0.004,0.0069 0.0074,0.01278 0.01137,0.01963 0.04456,0.07721 0.08826,0.150181 0.131258,0.218075 0.0027,0.0043 0.005,0.0081 0.0078,0.01241 0.08543,0.133911 0.170184,0.250129 0.259933,0.352436 0.01037,0.0118 0.021,0.02371 0.03152,0.03514 0.04203,0.04569 0.08538,0.0885 0.130741,0.128675 0.006,0.0053 0.01202,0.0108 0.01809,0.01601 0.04826,0.04152 0.09882,0.08001 0.152445,0.116274 0.0073,0.0049 0.01477,0.01011 0.02222,0.01497 0.41837,0.273379 1.027178,0.406403 2.164725,0.571024 0.07818,0.01132 0.172476,0.0245 0.255799,0.03617 0.29124,0.04076 0.605831,0.08355 0.965832,0.131776 0.24561,0.0329 0.468347,0.06213 0.678512,0.0894 0.09775,0.01267 0.197511,0.02529 0.288354,0.03669 0.20584,0.0258 0.401148,0.04933 0.575676,0.06821 0.01556,0.0016 0.03221,0.0035 0.04754,0.0052 0.198937,0.02109 0.378595,0.03742 0.544669,0.04858 0.0089,5.29e-4 0.01857,0.0016 0.02739,0.0021 0.165822,0.01066 0.317868,0.01566 0.45992,0.0155 0.01143,-1.3e-5 0.02332,8.7e-5 0.03462,0 0.132704,-0.0011 0.257653,-0.0073 0.377754,-0.0186 0.01868,-0.0019 0.03733,-0.0037 0.05581,-0.0057 0.05582,-0.0061 0.110808,-0.0127 0.165364,-0.02119 0.0033,-5.29e-4 0.0065,-0.0011 0.0098,-0.0016 0.05688,-0.009 0.11357,-0.01984 0.170015,-0.03152 0.01151,-0.0024 0.0231,-0.0053 0.03462,-0.0078 0.05721,-0.01241 0.114716,-0.02558 0.1726,-0.04082 0.0012,-2.65e-4 0.0024,-7.94e-4 0.0036,-0.0011 0.19391,-0.05121 0.394854,-0.118353 0.6196,-0.203089 0.09009,-0.02249 0.19204,-0.05308 0.305408,-0.09043 0.01089,-0.0036 0.02092,-0.0066 0.03204,-0.01035 0.112601,-0.03786 0.237796,-0.08388 0.375171,-0.138494 0.01326,-0.0053 0.02628,-0.01005 0.03979,-0.0155 0.141623,-0.05705 0.296317,-0.123542 0.466121,-0.200504 0.01328,-0.006 0.02684,-0.01246 0.04031,-0.0186 0.178164,-0.08139 0.37051,-0.172852 0.581876,-0.278534 0.08297,-0.03368 0.155658,-0.06728 0.220659,-0.10077 0.0014,-7.93e-4 0.0022,-0.0013 0.0036,-0.0021 0.06298,-0.03261 0.118556,-0.06528 0.165364,-0.09767 0.136797,-0.07213 0.265269,-0.141792 0.385507,-0.20929 0.0059,-0.0033 0.01065,-0.0065 0.01654,-0.0098 0.114127,-0.06426 0.220889,-0.125984 0.320911,-0.186034 0.0024,-0.0013 0.0043,-0.0027 0.0067,-0.0041 1.460129,-0.877932 1.461409,-1.305864 1.461409,-1.305864 v -5.000118 c 0,0 -3.44e-4,-0.02289 -0.01809,-0.05064 0,0 -5.29e-4,-5.3e-4 -5.29e-4,-5.3e-4 -0.0059,-0.0091 -0.01345,-0.01891 -0.02377,-0.02842 0,0 0.04242,-0.545571 -0.902271,-2.308386 C 41.411722,49.618331 41.412028,49.618485 37.8864,49.14614 36.564288,48.96901 35.737573,48.858408 35.08502,48.857269 Z" />
    <path
       id="circle1290-03-7"
       style="fill:#969696;fill-opacity:1;stroke:none;stroke-width:0.0999998;stroke-opacity:1;stop-color:#000000"
       inkscape:transform-center-x="-3.8600008"
       inkscape:transform-center-y="0.25355531"
       d="m 35.927369,50.334188 a 3.8710666,1.9244824 4.9959594 0 0 -2.334742,0.401526 3.8710666,1.9244824 4.9959594 0 0 -1.120862,1.41025 3.8710666,1.9244824 4.9959594 0 1 1.120862,-1.172538 3.8710666,1.9244824 4.9959594 0 1 5.459098,0.358635 3.8710666,1.9244824 4.9959594 0 1 1.122929,1.319816 3.8710666,1.9244824 4.9959594 0 0 -1.122929,-1.557528 3.8710666,1.9244824 4.9959594 0 0 -3.124356,-0.760161 z" />
    <path
       id="circle3409-7"
       style="fill:none;stroke:#000000;stroke-width:0.0999995;stroke-opacity:1;stop-color:#000000"
       d="m 32.396292,52.49632 c 0.0464,0.478473 0.44702,0.93122 1.123962,1.270206 1.507451,0.75379 3.951648,0.75379 5.459099,0 0.677511,-0.338866 1.078697,-0.791627 1.125512,-1.270206"
       sodipodi:nodetypes="cccc" />
    <path
       style="fill:none;fill-opacity:1;stroke:#000000;stroke-width:0.1;stroke-opacity:1;stop-color:#000000"
       d="m -25.160479,18.824643 v 9.083854"
       id="path4425" />
    <path
       style="fill:none;fill-opacity:1;stroke:#000000;stroke-width:0.1;stroke-opacity:1;stop-color:#000000"
       d="m -21.510479,25.146627 v 2.76187"
       id="path4427" />
    <path
       style="fill:none;fill-opacity:1;stroke:#000000;stroke-width:0.1;stroke-opacity:1;stop-color:#000000"
       d="m -14.21048,25.146627 v 2.76187"
       id="path4429" />
    <path
       style="fill:none;fill-opacity:1;stroke:#000000;stroke-width:0.1;stroke-opacity:1;stop-color:#000000"
       d="m -10.560479,18.824643 v 9.083854"
       id="path4431" />
    <rect
       style="fill:none;fill-opacity:1;stroke:#000000;stroke-width:0.1;stroke-opacity:1;stop-color:#000000"
       id="rect4537"
       width="14.599998"
       height="6.25"
       x="-25.160479"
       y="27.908497" />
    <path
       style="fill:none;fill-opacity:1;stroke:#000000;stroke-width:0.1;stroke-opacity:1;stop-color:#000000"
       d="m -21.510479,27.908496 v 6.250001"
       id="path4652" />
    <path
       style="fill:none;fill-opacity:1;stroke:#000000;stroke-width:0.1;stroke-opacity:1;stop-color:#000000"
       d="m -14.21048,27.908496 v 6.250001"
       id="path4654" />
    <path
       style="fill:none;fill-opacity:1;stroke:#000000;stroke-width:0.1;stroke-opacity:1;stop-color:#000000"
       d="m -25.160479,28.533547 h 14.599998"
       id="path4656" />
    <path
       style="fill:none;fill-opacity:1;stroke:#000000;stroke-width:0.1;stroke-opacity:1;stop-color:#000000"
       d="m -25.160479,33.533547 h 14.599998"
       id="path4656-8" />
    <path
       id="path5111"
       style="fill:#646464;fill-opacity:1;stroke:none;stroke-width:0.1;stroke-opacity:1;stop-color:#000000"
       d="m -48.096261,35.434631 v 2.82487 2.825336 c 3.65,0 3.649907,-0.565254 3.649907,-0.565254 v -2.260082 -2.259616 c 0,0 9.3e-5,-0.565254 -3.649907,-0.565254 z" />
    <path
       id="path5113"
       style="fill:#969696;fill-opacity:1;stroke:none;stroke-width:0.1;stroke-opacity:1;stop-color:#000000"
       d="m -40.796448,35.434631 c -3.649999,0 -3.649906,0.565254 -3.649906,0.565254 v 2.259616 2.260082 c 0,0 -9.3e-5,0.565254 3.649906,0.565254 3.650001,0 3.649907,-0.565254 3.649907,-0.565254 v -2.260082 -2.259616 c 0,0 9.4e-5,-0.565254 -3.649907,-0.565254 z" />
    <path
       id="path5115"
       style="fill:#c8c8c8;fill-opacity:1;stroke:none;stroke-width:0.1;stroke-opacity:1;stop-color:#000000"
       d="m -33.53746,35.434631 c -0.401001,0.0022 -3.609081,0.03552 -3.609081,0.565254 v 2.259616 2.260082 c 0,0.565043 3.650423,0.565254 3.650423,0.565254 v -2.825336 -2.82487 c 0,0 -0.01461,-1.36e-4 -0.04134,0 z" />
    <path
       id="path22955"
       style="fill:none;fill-opacity:1;stroke:#000000;stroke-width:0.1;stroke-opacity:1;stop-color:#000000"
       d="m -47.696285,35.134571 c -0.186902,0 -0.341704,0.12755 -0.386023,0.300241 -0.0048,-2e-6 -0.0092,0 -0.01395,0 v 2.824634 5.16e-4 2.724898 0.09974 c 0.0048,0 0.0092,3e-6 0.01395,0 0.04432,0.172691 0.199121,0.300241 0.386023,0.300241 h 13.800191 c 0.186902,0 0.341704,-0.12755 0.386023,-0.300241 8.9e-4,3e-6 0.01395,0 0.01395,0 v -0.09974 -2.725414 -2.724899 -0.09974 c 0,0 -0.01072,1.6e-5 -0.01395,0 -0.04432,-0.172691 -0.199121,-0.300241 -0.386023,-0.300241 z" />
    <path
       id="rect6294-6"
       style="fill:#323232;fill-opacity:1;stroke:none;stroke-width:0.1;stroke-opacity:1;stop-color:#000000"
       d="m 45.126554,56.269337 v 2.725415 c 0,0.221599 0.178376,0.399976 0.399976,0.399976 h 13.800191 c 0.2216,0 0.399976,-0.178377 0.399976,-0.399976 v -2.725415 z" />
    <path
       id="rect6456-5"
       style="fill:#dcdcdc;fill-opacity:1;stroke:none;stroke-width:0.1;stroke-opacity:1;stop-color:#000000"
       d="m 45.52653,53.144462 c -0.2216,0 -0.399976,0.178377 -0.399976,0.399976 v 2.725415 h 14.600143 v -2.725415 c 0,-0.221599 -0.178376,-0.399976 -0.399976,-0.399976 z" />
    <path
       id="path5111-0"
       style="fill:#646464;fill-opacity:1;stroke:none;stroke-width:0.1;stroke-opacity:1;stop-color:#000000"
       d="m 45.126554,53.444522 v 2.82487 2.825336 c 3.65,0 3.649907,-0.565254 3.649907,-0.565254 v -2.260082 -2.259616 c 0,0 9.3e-5,-0.565254 -3.649907,-0.565254 z" />
    <path
       id="path5113-6"
       style="fill:#969696;fill-opacity:1;stroke:none;stroke-width:0.1;stroke-opacity:1;stop-color:#000000"
       d="m 52.426367,53.444522 c -3.649999,0 -3.649906,0.565254 -3.649906,0.565254 v 2.259616 2.260082 c 0,0 -9.3e-5,0.565254 3.649906,0.565254 3.650001,0 3.649907,-0.565254 3.649907,-0.565254 v -2.260082 -2.259616 c 0,0 9.4e-5,-0.565254 -3.649907,-0.565254 z" />
    <path
       id="path5115-3"
       style="fill:#c8c8c8;fill-opacity:1;stroke:none;stroke-width:0.1;stroke-opacity:1;stop-color:#000000"
       d="m 59.685355,53.444522 c -0.401001,0.0022 -3.609081,0.03552 -3.609081,0.565254 v 2.259616 2.260082 c 0,0.565043 3.650423,0.565254 3.650423,0.565254 v -2.825336 -2.82487 c 0,0 -0.01461,-1.36e-4 -0.04134,0 z" />
    <path
       id="path22955-3"
       style="fill:none;fill-opacity:1;stroke:#000000;stroke-width:0.1;stroke-opacity:1;stop-color:#000000"
       d="m 45.52653,53.144462 c -0.186902,0 -0.341704,0.127551 -0.386023,0.300242 -0.0048,-3e-6 -0.0091,0 -0.01395,0 v 2.824633 5.29e-4 2.724899 0.09974 c 0.0048,0 0.0092,2e-6 0.01395,0 0.04432,0.172691 0.199121,0.300241 0.386023,0.300241 h 13.800191 c 0.186902,0 0.341704,-0.12755 0.386023,-0.300241 9e-4,2e-6 0.01395,0 0.01395,0 v -0.09974 -2.725415 -2.724898 -0.09974 c 0,0 -0.01072,1.6e-5 -0.01395,0 -0.04432,-0.172691 -0.199121,-0.300241 -0.386023,-0.300241 z" />
    <path
       id="path54068"
       style="fill:#b4b4b4;fill-opacity:1;stroke:none;stroke-width:0.108187;stroke-miterlimit:4;stroke-dasharray:none;stroke-opacity:1;stop-color:#000000"
       inkscape:transform-center-x="-0.48109746"
       inkscape:transform-center-y="-0.24055357"
       d="m 137.19646,76.429359 v -2.346627 c -1.9e-4,-0.799543 -0.63553,-1.56631 -1.7663,-2.131652 -1.18123,-0.590768 -2.79974,-0.910014 -4.4695,-0.8816 -1.52727,0.02614 -2.97772,0.341239 -4.05815,0.8816 -1.12931,0.564752 -1.76436,1.330459 -1.76578,2.12907 h -5.2e-4 l 5.2e-4,1.669148 -2.3e-4,4.18e-4 -0.4261,0.212747 c -0.42616,0.213381 -0.42616,1.135425 -0.42616,1.135425 0,0 1.7e-4,4.227756 0,5.022826 -1.7e-4,0.795073 0.18763,1.145479 0.18763,1.145479 0,0 0.90524,1.689129 1.28085,2.38994 0.37561,0.70082 1.07695,0.79478 1.07695,0.79478 0,0 4.89949,0.65641 5.54018,0.74224 0.6407,0.0858 1.2574,-0.22251 1.2574,-0.22251 0,0 3.36165,-1.680729 3.8915,-1.945627 0.52985,-0.264898 0.52993,-1.060217 0.52993,-1.060217 0,0 7e-5,-4.354648 0,-5.149742 -8e-5,-0.795096 -0.3231,-1.398042 -0.3231,-1.398042 l -0.52912,-0.987359 z"
       sodipodi:nodetypes="cccccccccccscscscscsccc" />
    <text
       xml:space="preserve"
       style="font-size:3.50942px;line-height:1.25;font-family:Ste;-inkscape-font-specification:Ste;stroke-width:0.0658016"
       x="130.75116"
       y="67.704155"
       id="text29255-3"><tspan
         sodipodi:role="line"
         style="font-style:normal;font-variant:normal;font-weight:bold;font-stretch:normal;font-family:sans-serif;-inkscape-font-specification:sans-serif;stroke-width:0.0658016"
         x="130.75116"
         y="67.704155"
         id="tspan30709-2">Nylon Locknut</tspan></text>
    <text
       xml:space="preserve"
       style="font-size:3.50942px;line-height:1.25;font-family:Ste;-inkscape-font-specification:Ste;stroke-width:0.0658016"
       x="140.38057"
       y="72.663986"
       id="text29255-4-2"><tspan
         sodipodi:role="line"
         style="font-style:normal;font-variant:normal;font-weight:normal;font-stretch:normal;font-family:sans-serif;-inkscape-font-specification:sans-serif;stroke-width:0.0658016"
         x="140.38057"
         y="72.663986"
         id="tspan40136-9">5/16-18</tspan></text>
    <path
       sodipodi:type="star"
       style="fill:#c8c8c8;fill-opacity:1;stroke:#000000;stroke-width:0.578268;stroke-miterlimit:4;stroke-dasharray:none;stroke-opacity:1;stop-color:#000000"
       id="path44131"
       inkscape:flatsided="true"
       sodipodi:sides="6"
       sodipodi:cx="544.25"
       sodipodi:cy="326.67914"
       sodipodi:r1="26.929134"
       sodipodi:r2="13.464567"
       sodipodi:arg1="-1.5707963"
       sodipodi:arg2="-1.0471975"
       inkscape:rounded="0"
       inkscape:randomized="0"
       transform="matrix(0.26458333,0,0,0.26458333,3.1335431,-4.7001801)"
       inkscape:transform-center-x="1.8141666e-06"
       inkscape:transform-center-y="-0.68037804"
       d="m 544.25,299.75 23.32131,13.46457 0,26.92914 -23.32131,13.46456 -23.32131,-13.46457 0,-26.92913 z" />
    <circle
       style="fill:#c8c8c8;fill-opacity:1;stroke:#000000;stroke-width:0.158498;stroke-miterlimit:4;stroke-dasharray:none;stroke-opacity:1;stop-color:#000000"
       id="path44155"
       cx="147.13303"
       cy="81.733665"
       r="6.0300002" />
    <circle
       style="fill:#ffffff;fill-opacity:1;stroke:#000000;stroke-width:0.16067;stroke-miterlimit:4;stroke-dasharray:none;stroke-opacity:1;stop-color:#000000"
       id="path44259"
       cx="147.13303"
       cy="81.733665"
       r="4.5149999" />
    <circle
       style="fill:#ffffff;fill-opacity:1;stroke:#000000;stroke-width:0.126923;stroke-miterlimit:4;stroke-dasharray:none;stroke-opacity:1;stop-color:#000000"
       id="path44363"
       cx="147.13303"
       cy="81.733665"
       r="3.21" />
    <rect
       style="fill:#969696;fill-opacity:1;stroke:#000000;stroke-width:0.132292;stroke-miterlimit:4;stroke-dasharray:none;stroke-opacity:1;stop-color:#000000"
       id="rect44467-0"
       width="12.341003"
       height="4.3390594"
       x="155.81236"
       y="79.328545"
       rx="1"
       ry="1" />
    <rect
       style="fill:#969696;fill-opacity:1;stroke:#000000;stroke-width:0.132292;stroke-miterlimit:4;stroke-dasharray:none;stroke-opacity:1;stop-color:#000000"
       id="rect44467"
       width="12.341"
       height="6.7399998"
       x="155.81236"
       y="82.278542" />
    <rect
       style="fill:#c8c8c8;fill-opacity:1;stroke:none;stroke-width:0.132292;stroke-miterlimit:4;stroke-dasharray:none;stroke-opacity:1;stop-color:#000000"
       id="rect45175"
       width="11.282662"
       height="1.9869995"
       x="156.34152"
       y="79.857712"
       rx="1.0000006"
       ry="0.99349976" />
    <rect
       style="fill:#c8c8c8;fill-opacity:1;stroke:none;stroke-width:0.132292;stroke-miterlimit:4;stroke-dasharray:none;stroke-opacity:1;stop-color:#000000"
       id="rect45279"
       width="5.6461334"
       height="6.3243256"
       x="156.12889"
       y="82.53434"
       rx="1.0000006"
       ry="1.0000006" />
    <rect
       style="fill:#c8c8c8;fill-opacity:1;stroke:none;stroke-width:0.132292;stroke-miterlimit:4;stroke-dasharray:none;stroke-opacity:1;stop-color:#000000"
       id="rect45281"
       width="5.598175"
       height="6.3563004"
       x="162.23866"
       y="82.502365"
       rx="1.0000006"
       ry="1.0000006" />
    <circle
       style="fill:#ffffff;fill-opacity:1;stroke:#000000;stroke-width:0.127021;stroke-miterlimit:4;stroke-dasharray:none;stroke-opacity:1;stop-color:#000000"
       id="path44259-0-3-1"
       cx="159.5224"
       cy="12.873777"
       r="3.5694208"
       transform="matrix(0.89442719,0.4472136,-0.89442719,0.4472136,0,0)" />
    <ellipse
       style="fill:#969696;fill-opacity:1;stroke:none;stroke-width:0.132292;stroke-miterlimit:4;stroke-dasharray:none;stroke-opacity:1;stop-color:#000000"
       id="path48455"
       cx="131.09163"
       cy="74.060524"
       rx="4.9628124"
       ry="2.3853152" />
    <ellipse
       style="fill:#c8c8c8;fill-opacity:1;stroke:none;stroke-width:0.132292;stroke-miterlimit:4;stroke-dasharray:none;stroke-opacity:1;stop-color:#000000"
       id="path48721"
       cx="131.20901"
       cy="74.614113"
       rx="3.7721231"
       ry="1.8038056" />
    <path
       id="path44155-1-3-4"
       style="fill:#c8c8c8;fill-opacity:1;stroke:none;stroke-width:0.112075;stroke-miterlimit:4;stroke-dasharray:none;stroke-opacity:1;stop-color:#000000"
       d="m 131.16634,74.082733 a 6.0300001,3.0150001 0 0 0 -4.26382,0.88315 6.0300001,3.0150001 0 0 0 -0.42117,0.236681 l -0.51056,-0.429948 -0.20722,-0.172083 v 3.087148 c 0,0.636413 0.32133,1.003215 0.41651,1.098124 a 6.0300001,3.0150001 0 0 0 0.72244,0.443902 6.0300001,3.0150001 0 0 0 8.52764,0 6.0300001,3.0150001 0 0 0 0.60772,-0.367937 c 0.12049,-0.115782 0.52658,-0.558496 0.52658,-1.267622 v -3.045293 l -0.80667,0.594797 a 6.0300001,3.0150001 0 0 0 -0.32763,-0.177769 6.0300001,3.0150001 0 0 0 -4.26382,-0.88315 z m 6.03012,0 -5.2e-4,5.19e-4 v 3.015319 l 5.2e-4,-5.16e-4 z" />
    <path
       id="ellipse908"
       style="fill:#000000;fill-opacity:1;stroke:none;stroke-width:0.132292;stroke-miterlimit:4;stroke-dasharray:none;stroke-opacity:1;stop-color:#000000"
       d="m 131.057,75.008388 a 3.772123,1.8038056 0 0 0 -3.16208,0.821656 l 1.8464,0.923975 3.32796,-0.09509 1.64279,-0.29197 A 3.772123,1.8038056 0 0 0 131.057,75.008384 Z" />
    <path
       id="circle48305"
       style="fill:#ffffff;fill-opacity:1;stroke:none;stroke-width:0.113611;stroke-miterlimit:4;stroke-dasharray:none;stroke-opacity:1;stop-color:#000000"
       d="m 131.01234,72.355708 a 4.5149997,2.2574999 0 0 0 -3.03858,0.659908 4.5149997,2.2574999 0 0 0 0,3.192571 4.5149997,2.2574999 0 0 0 6.38514,0 4.5149997,2.2574999 0 0 0 0,-3.192571 4.5149997,2.2574999 0 0 0 -3.34656,-0.659908 z m 0.0444,0.652155 a 3.2099998,1.605 0 0 1 2.3797,0.469223 3.2099998,1.605 0 0 1 0,2.26963 3.2099998,1.605 0 0 1 -4.53977,0 3.2099998,1.605 0 0 1 0,-2.26963 3.2099998,1.605 0 0 1 2.16007,-0.469223 z" />
    <ellipse
       style="fill:none;fill-opacity:1;stroke:#000000;stroke-width:0.113611;stroke-miterlimit:4;stroke-dasharray:none;stroke-opacity:1;stop-color:#000000"
       id="ellipse49694"
       cx="131.16631"
       cy="74.612015"
       rx="4.5149999"
       ry="2.2574999" />
    <path
       id="path44155-1-3"
       style="fill:#dcdcdc;fill-opacity:1;stroke:none;stroke-width:0.112075;stroke-miterlimit:4;stroke-dasharray:none;stroke-opacity:1;stop-color:#000000"
       d="m 130.96067,71.069481 a 6.0300001,3.0150001 0 0 0 -4.05815,0.8816 6.0300001,3.0150001 0 0 0 0,4.263824 6.0300001,3.0150001 0 0 0 8.52764,0 6.0300001,3.0150001 0 0 0 0,-4.263824 6.0300001,3.0150001 0 0 0 -4.46949,-0.8816 z m 0.0517,0.75706 a 4.5149997,2.2574999 0 0 1 3.34657,0.659908 4.5149997,2.2574999 0 0 1 0,3.192571 4.5149997,2.2574999 0 0 1 -6.38514,0 4.5149997,2.2574999 0 0 1 0,-3.192571 4.5149997,2.2574999 0 0 1 3.03857,-0.659908 z" />
    <path
       id="path49001"
       style="fill:none;fill-opacity:1;stroke:#000000;stroke-width:0.108187;stroke-miterlimit:4;stroke-dasharray:none;stroke-opacity:1;stop-color:#000000"
       inkscape:transform-center-x="-0.48109746"
       inkscape:transform-center-y="-0.24055357"
       d="m 137.19646,76.429359 v -2.346627 c -1.9e-4,-0.799543 -0.63553,-1.56631 -1.7663,-2.131652 -1.18123,-0.590768 -2.79974,-0.910014 -4.4695,-0.8816 -1.52727,0.02614 -2.97772,0.341239 -4.05815,0.8816 -1.12931,0.564752 -1.76436,1.330459 -1.76578,2.12907 h -5.2e-4 l 5.2e-4,1.669148 -2.3e-4,4.18e-4 -0.4261,0.212747 c -0.42616,0.213381 -0.42616,1.135425 -0.42616,1.135425 0,0 1.7e-4,4.227756 0,5.022826 -1.7e-4,0.795073 0.18763,1.145479 0.18763,1.145479 0,0 0.90524,1.689129 1.28085,2.38994 0.37561,0.70082 1.07695,0.79478 1.07695,0.79478 0,0 4.89949,0.65641 5.54018,0.74224 0.6407,0.0858 1.2574,-0.22251 1.2574,-0.22251 0,0 3.36165,-1.680729 3.8915,-1.945627 0.52985,-0.264898 0.52993,-1.060217 0.52993,-1.060217 0,0 7e-5,-4.354648 0,-5.149742 -8e-5,-0.795096 -0.3231,-1.398042 -0.3231,-1.398042 l -0.52912,-0.987359 z"
       sodipodi:nodetypes="cccccccccccscscscscsccc" />
    <path
       id="path44363-4"
       style="fill:none;fill-opacity:1;stroke:#000000;stroke-width:0.089748;stroke-miterlimit:4;stroke-dasharray:none;stroke-opacity:1;stop-color:#000000"
       d="m 127.95942,74.544491 c -8e-5,0.886473 1.4372,1.605111 3.21014,1.605071 1.77274,-1.03e-4 3.2097,-0.718701 3.20962,-1.605071"
       sodipodi:nodetypes="ccc" />
    <ellipse
       style="fill:none;fill-opacity:1;stroke:#000000;stroke-width:0.113611;stroke-miterlimit:4;stroke-dasharray:none;stroke-opacity:1;stop-color:#000000"
       id="path44259-9"
       cx="131.16631"
       cy="74.082848"
       rx="4.5149999"
       ry="2.2574999" />
    <path
       style="fill:#969696;fill-opacity:1;stroke:none;stroke-width:0.132292;stroke-miterlimit:4;stroke-dasharray:none;stroke-opacity:1;stop-color:#000000"
       d="m 124.46744,77.614301 c 0,-0.798938 0.27867,-0.278931 0.27867,-0.278931 0,0 0.74335,1.387107 0.93639,1.747319 0.19304,0.360209 0.19304,0.929399 0.19304,0.929399 0,0 0,4.211283 0,4.828646 0,0.617365 -0.28007,0.09474 -0.28007,0.09474 0,0 -0.74344,-1.387253 -0.93574,-1.746084 -0.19229,-0.35883 -0.19229,-0.894712 -0.19229,-0.894712 z"
       id="path54342" />
    <path
       style="fill:#969696;fill-opacity:1;stroke:none;stroke-width:0.132292;stroke-miterlimit:4;stroke-dasharray:none;stroke-opacity:1;stop-color:#000000"
       d="m 133.34789,81.207227 c 0,-0.539242 0.55059,-0.815266 0.55059,-0.815266 0,0 2.94367,-1.475722 3.41247,-1.710735 0.46879,-0.235014 0.46879,0.421253 0.46879,0.421253 0,0 0,4.509993 0,4.934464 0,0.424468 -0.39656,0.623268 -0.39656,0.623268 0,0 -3.03303,1.520521 -3.53416,1.771748 -0.50113,0.251227 -0.50113,-0.453972 -0.50113,-0.453972 z"
       id="path56539" />
    <path
       style="fill:#646464;fill-opacity:1;stroke:#000000;stroke-width:0.132292;stroke-miterlimit:4;stroke-dasharray:none;stroke-opacity:1;stop-color:#000000"
       d="m 137.19646,76.429357 -5.3e-4,0.669213"
       id="path59234" />
    <path
       style="fill:#646464;fill-opacity:1;stroke:#000000;stroke-width:0.132292;stroke-miterlimit:4;stroke-dasharray:none;stroke-opacity:1;stop-color:#000000"
       d="m 125.13673,75.749296 0.003,1.351341"
       id="path59269" />
    <path
       style="fill:#c7c7c7;fill-opacity:1;stroke:none;stroke-width:0.132292;stroke-miterlimit:4;stroke-dasharray:none;stroke-opacity:1;stop-color:#000000"
       d="m 126.47165,80.985059 c 0,-1.024451 0.93999,-0.898515 0.93999,-0.898515 0,0 3.5041,0.469461 4.34082,0.581562 0.83673,0.112099 0.83673,1.041922 0.83673,1.041922 0,0 0,3.427153 0,4.256267 0,0.829111 -0.9539,0.701312 -0.9539,0.701312 0,0 -3.65585,-0.489794 -4.40975,-0.590796 -0.75389,-0.101004 -0.75389,-1.022575 -0.75389,-1.022575 z"
       id="path59814" />
    <path
       style="fill:#c8c8c8;fill-opacity:1;stroke:#000000;stroke-width:0.144061;stroke-miterlimit:4;stroke-dasharray:none;stroke-opacity:1;stop-color:#000000"
       d="M 139.33409,69.356663 V 89.055104"
       id="path66760"
       sodipodi:nodetypes="cc" />
    <rect
       style="fill:none;fill-opacity:1;stroke:#000000;stroke-width:0.130231;stroke-miterlimit:4;stroke-dasharray:none;stroke-opacity:1;stop-color:#000000"
       id="rect67030"
       width="47"
       height="26.703239"
       x="122.80334"
       y="63.658726" />
    <path
       style="fill:#c8c8c8;fill-opacity:1;stroke:#000000;stroke-width:0.132292;stroke-miterlimit:4;stroke-dasharray:none;stroke-opacity:1;stop-color:#000000"
       d="m 165.06466,64.187892 h 4.2095 v 4.2095 z"
       id="path13761-3-061-7-1-9-6-7-6" />
    <text
       xml:space="preserve"
       style="font-size:3.50942px;line-height:1.25;font-family:Ste;-inkscape-font-specification:Ste;stroke-width:0.0658016"
       x="44.357998"
       y="38.167637"
       id="text29255-3-4"><tspan
         sodipodi:role="line"
         style="font-style:normal;font-variant:normal;font-weight:bold;font-stretch:normal;font-family:sans-serif;-inkscape-font-specification:sans-serif;stroke-width:0.0658016"
         x="44.357998"
         y="38.167637"
         id="tspan30709-2-9">Hex Nut</tspan></text>
    <rect
       style="fill:none;fill-opacity:1;stroke:#000000;stroke-width:0.130231;stroke-miterlimit:4;stroke-dasharray:none;stroke-opacity:1;stop-color:#000000"
       id="rect67030-6"
       width="47"
       height="32.315899"
       x="27.339125"
       y="31.12879" />
    <path
       style="fill:#c8c8c8;fill-opacity:1;stroke:#000000;stroke-width:0.132292;stroke-miterlimit:4;stroke-dasharray:none;stroke-opacity:1;stop-color:#000000"
       d="m 69.600447,31.657958 h 4.2095 v 4.2095 z"
       id="path13761-3-061-7-1-9-6-7-6-18" />
    <path
       id="path54068-3"
       style="fill:#b4b4b4;fill-opacity:1;stroke:none;stroke-width:0.108187;stroke-miterlimit:4;stroke-dasharray:none;stroke-opacity:1;stop-color:#000000"
       inkscape:transform-center-x="-0.48109746"
       inkscape:transform-center-y="-0.24055357"
       d="m 137.19647,108.42427 v -2.34663 c -1.9e-4,-0.79954 -0.63553,-1.56631 -1.7663,-2.13165 -1.18123,-0.59077 -2.79974,-0.91001 -4.4695,-0.8816 -1.52727,0.0261 -2.97772,0.34124 -4.05815,0.8816 -1.12931,0.56475 -1.76436,1.33046 -1.76578,2.12907 h -5.2e-4 l 5.2e-4,1.66915 -2.3e-4,4.2e-4 -0.4261,0.21274 c -0.42616,0.21338 -0.42616,1.13543 -0.42616,1.13543 0,0 1.7e-4,4.22775 0,5.02282 -1.7e-4,0.79508 0.18763,1.14548 0.18763,1.14548 0,0 0.90524,1.68913 1.28085,2.38994 0.37561,0.70082 1.07695,0.79478 1.07695,0.79478 0,0 4.89949,0.65641 5.54018,0.74224 0.6407,0.0858 1.2574,-0.22251 1.2574,-0.22251 0,0 3.36165,-1.68073 3.8915,-1.94562 0.52985,-0.2649 0.52993,-1.06022 0.52993,-1.06022 0,0 7e-5,-4.35465 0,-5.14974 -8e-5,-0.7951 -0.3231,-1.39805 -0.3231,-1.39805 l -0.52912,-0.98735 z"
       sodipodi:nodetypes="cccccccccccscscscscsccc" />
    <text
       xml:space="preserve"
       style="font-size:3.50942px;line-height:1.25;font-family:Ste;-inkscape-font-specification:Ste;stroke-width:0.0658016"
       x="130.75116"
       y="99.699059"
       id="text29255-3-3"><tspan
         sodipodi:role="line"
         style="font-style:normal;font-variant:normal;font-weight:bold;font-stretch:normal;font-family:sans-serif;-inkscape-font-specification:sans-serif;stroke-width:0.0658016"
         x="130.75116"
         y="99.699059"
         id="tspan30709-2-6">Nylon Locknut</tspan></text>
    <text
       xml:space="preserve"
       style="font-size:3.50942px;line-height:1.25;font-family:Ste;-inkscape-font-specification:Ste;stroke-width:0.0658016"
       x="140.38057"
       y="104.6589"
       id="text29255-4-2-7"><tspan
         sodipodi:role="line"
         style="font-style:normal;font-variant:normal;font-weight:normal;font-stretch:normal;font-family:sans-serif;-inkscape-font-specification:sans-serif;stroke-width:0.0658016"
         x="140.38057"
         y="104.6589"
         id="tspan40136-9-6">5/16-18</tspan></text>
    <path
       sodipodi:type="star"
       style="fill:#c8c8c8;fill-opacity:1;stroke:#000000;stroke-width:0.578268;stroke-miterlimit:4;stroke-dasharray:none;stroke-opacity:1;stop-color:#000000"
       id="path44131-3"
       inkscape:flatsided="true"
       sodipodi:sides="6"
       sodipodi:cx="544.25"
       sodipodi:cy="326.67914"
       sodipodi:r1="26.929134"
       sodipodi:r2="13.464567"
       sodipodi:arg1="-1.5707963"
       sodipodi:arg2="-1.0471975"
       inkscape:rounded="0"
       inkscape:randomized="0"
       transform="matrix(0.26458333,0,0,0.26458333,3.1335461,27.294726)"
       inkscape:transform-center-x="1.8141666e-06"
       inkscape:transform-center-y="-0.68037804"
       d="m 544.25,299.75 23.32131,13.46457 0,26.92914 -23.32131,13.46456 -23.32131,-13.46457 0,-26.92913 z" />
    <circle
       style="fill:#c8c8c8;fill-opacity:1;stroke:#000000;stroke-width:0.158498;stroke-miterlimit:4;stroke-dasharray:none;stroke-opacity:1;stop-color:#000000"
       id="path44155-9"
       cx="147.13303"
       cy="113.72858"
       r="6.0300002" />
    <circle
       style="fill:#000000;fill-opacity:1;stroke:#000000;stroke-width:0.16067;stroke-miterlimit:4;stroke-dasharray:none;stroke-opacity:1;stop-color:#000000"
       id="path44259-97"
       cx="147.13303"
       cy="113.72858"
       r="4.5149999" />
    <circle
       style="fill:#ffffff;fill-opacity:1;stroke:#000000;stroke-width:0.126923;stroke-miterlimit:4;stroke-dasharray:none;stroke-opacity:1;stop-color:#000000"
       id="path44363-2"
       cx="147.13303"
       cy="113.72858"
       r="3.21" />
    <rect
       style="fill:#969696;fill-opacity:1;stroke:#000000;stroke-width:0.132292;stroke-miterlimit:4;stroke-dasharray:none;stroke-opacity:1;stop-color:#000000"
       id="rect44467-0-0"
       width="12.341003"
       height="4.3390594"
       x="155.81236"
       y="111.32346"
       rx="1"
       ry="1" />
    <rect
       style="fill:#969696;fill-opacity:1;stroke:#000000;stroke-width:0.132292;stroke-miterlimit:4;stroke-dasharray:none;stroke-opacity:1;stop-color:#000000"
       id="rect44467-9"
       width="12.341"
       height="6.7399998"
       x="155.81236"
       y="114.27345" />
    <rect
       style="fill:#c8c8c8;fill-opacity:1;stroke:none;stroke-width:0.132292;stroke-miterlimit:4;stroke-dasharray:none;stroke-opacity:1;stop-color:#000000"
       id="rect45175-1"
       width="11.282662"
       height="1.9869995"
       x="156.34152"
       y="111.85263"
       rx="1.0000006"
       ry="0.99349976" />
    <rect
       style="fill:#c8c8c8;fill-opacity:1;stroke:none;stroke-width:0.132292;stroke-miterlimit:4;stroke-dasharray:none;stroke-opacity:1;stop-color:#000000"
       id="rect45279-3"
       width="5.6461334"
       height="6.3243256"
       x="156.12889"
       y="114.52925"
       rx="1.0000006"
       ry="1.0000006" />
    <rect
       style="fill:#c8c8c8;fill-opacity:1;stroke:none;stroke-width:0.132292;stroke-miterlimit:4;stroke-dasharray:none;stroke-opacity:1;stop-color:#000000"
       id="rect45281-1"
       width="5.598175"
       height="6.3563004"
       x="162.23866"
       y="114.49728"
       rx="1.0000006"
       ry="1.0000006" />
    <circle
       style="fill:#ffffff;fill-opacity:1;stroke:#000000;stroke-width:0.127021;stroke-miterlimit:4;stroke-dasharray:none;stroke-opacity:1;stop-color:#000000"
       id="path44259-0-3-1-7"
       cx="195.29379"
       cy="48.645164"
       r="3.5694208"
       transform="matrix(0.89442719,0.4472136,-0.89442719,0.4472136,0,0)" />
    <ellipse
       style="fill:#969696;fill-opacity:1;stroke:none;stroke-width:0.132292;stroke-miterlimit:4;stroke-dasharray:none;stroke-opacity:1;stop-color:#000000"
       id="path48455-8"
       cx="131.09163"
       cy="106.05544"
       rx="4.9628124"
       ry="2.3853152" />
    <ellipse
       style="fill:#c8c8c8;fill-opacity:1;stroke:none;stroke-width:0.132292;stroke-miterlimit:4;stroke-dasharray:none;stroke-opacity:1;stop-color:#000000"
       id="path48721-2"
       cx="131.20901"
       cy="106.60903"
       rx="3.7721231"
       ry="1.8038056" />
    <path
       id="path44155-1-3-4-5"
       style="fill:#c8c8c8;fill-opacity:1;stroke:none;stroke-width:0.112075;stroke-miterlimit:4;stroke-dasharray:none;stroke-opacity:1;stop-color:#000000"
       d="m 131.16635,106.07764 a 6.0300001,3.0150001 0 0 0 -4.26382,0.88315 6.0300001,3.0150001 0 0 0 -0.42117,0.23668 l -0.51056,-0.42994 -0.20722,-0.17209 v 3.08715 c 0,0.63641 0.32133,1.00322 0.41651,1.09813 a 6.0300001,3.0150001 0 0 0 0.72244,0.4439 6.0300001,3.0150001 0 0 0 8.52764,0 6.0300001,3.0150001 0 0 0 0.60772,-0.36794 c 0.12049,-0.11578 0.52658,-0.5585 0.52658,-1.26762 v -3.04529 l -0.80667,0.59479 a 6.0300001,3.0150001 0 0 0 -0.32763,-0.17777 6.0300001,3.0150001 0 0 0 -4.26382,-0.88315 z m 6.03012,0 -5.2e-4,5.2e-4 v 3.01532 l 5.2e-4,-5.1e-4 z" />
    <path
       id="ellipse908-2"
       style="fill:#000000;fill-opacity:1;stroke:none;stroke-width:0.132292;stroke-miterlimit:4;stroke-dasharray:none;stroke-opacity:1;stop-color:#000000"
       d="m 131.057,107.0033 a 3.772123,1.8038056 0 0 0 -3.16208,0.82165 l 1.8464,0.92398 3.32796,-0.0951 1.6428,-0.29197 a 3.772123,1.8038056 0 0 0 -3.65508,-1.35858 z" />
    <path
       id="circle48305-9"
       style="fill:#ffffff;fill-opacity:1;stroke:none;stroke-width:0.113611;stroke-miterlimit:4;stroke-dasharray:none;stroke-opacity:1;stop-color:#000000"
       d="m 131.01235,104.35062 a 4.5149997,2.2574999 0 0 0 -3.03858,0.65991 4.5149997,2.2574999 0 0 0 0,3.19257 4.5149997,2.2574999 0 0 0 6.38514,0 4.5149997,2.2574999 0 0 0 0,-3.19257 4.5149997,2.2574999 0 0 0 -3.34656,-0.65991 z m 0.0444,0.65215 a 3.2099998,1.605 0 0 1 2.3797,0.46923 3.2099998,1.605 0 0 1 0,2.26963 3.2099998,1.605 0 0 1 -4.53977,0 3.2099998,1.605 0 0 1 0,-2.26963 3.2099998,1.605 0 0 1 2.16007,-0.46923 z" />
    <ellipse
       style="fill:none;fill-opacity:1;stroke:#000000;stroke-width:0.113611;stroke-miterlimit:4;stroke-dasharray:none;stroke-opacity:1;stop-color:#000000"
       id="ellipse49694-4"
       cx="131.16631"
       cy="106.60693"
       rx="4.5149999"
       ry="2.2574999" />
    <path
       id="path44155-1-3-2"
       style="fill:#dcdcdc;fill-opacity:1;stroke:none;stroke-width:0.112075;stroke-miterlimit:4;stroke-dasharray:none;stroke-opacity:1;stop-color:#000000"
       d="m 130.96068,103.06439 a 6.0300001,3.0150001 0 0 0 -4.05815,0.8816 6.0300001,3.0150001 0 0 0 0,4.26383 6.0300001,3.0150001 0 0 0 8.52764,0 6.0300001,3.0150001 0 0 0 0,-4.26383 6.0300001,3.0150001 0 0 0 -4.46949,-0.8816 z m 0.0517,0.75706 a 4.5149997,2.2574999 0 0 1 3.34657,0.65991 4.5149997,2.2574999 0 0 1 0,3.19257 4.5149997,2.2574999 0 0 1 -6.38514,0 4.5149997,2.2574999 0 0 1 0,-3.19257 4.5149997,2.2574999 0 0 1 3.03857,-0.65991 z" />
    <path
       id="path49001-9"
       style="fill:none;fill-opacity:1;stroke:#000000;stroke-width:0.108187;stroke-miterlimit:4;stroke-dasharray:none;stroke-opacity:1;stop-color:#000000"
       inkscape:transform-center-x="-0.48109746"
       inkscape:transform-center-y="-0.24055357"
       d="m 137.19647,108.42427 v -2.34663 c -1.9e-4,-0.79954 -0.63553,-1.56631 -1.7663,-2.13165 -1.18123,-0.59077 -2.79974,-0.91001 -4.4695,-0.8816 -1.52727,0.0261 -2.97772,0.34124 -4.05815,0.8816 -1.12931,0.56475 -1.76436,1.33046 -1.76578,2.12907 h -5.2e-4 l 5.2e-4,1.66915 -2.3e-4,4.2e-4 -0.4261,0.21274 c -0.42616,0.21338 -0.42616,1.13543 -0.42616,1.13543 0,0 1.7e-4,4.22775 0,5.02282 -1.7e-4,0.79508 0.18763,1.14548 0.18763,1.14548 0,0 0.90524,1.68913 1.28085,2.38994 0.37561,0.70082 1.07695,0.79478 1.07695,0.79478 0,0 4.89949,0.65641 5.54018,0.74224 0.6407,0.0858 1.2574,-0.22251 1.2574,-0.22251 0,0 3.36165,-1.68073 3.8915,-1.94562 0.52985,-0.2649 0.52993,-1.06022 0.52993,-1.06022 0,0 7e-5,-4.35465 0,-5.14974 -8e-5,-0.7951 -0.3231,-1.39805 -0.3231,-1.39805 l -0.52912,-0.98735 z"
       sodipodi:nodetypes="cccccccccccscscscscsccc" />
    <path
       id="path44363-4-1"
       style="fill:none;fill-opacity:1;stroke:#000000;stroke-width:0.089748;stroke-miterlimit:4;stroke-dasharray:none;stroke-opacity:1;stop-color:#000000"
       d="m 127.95943,106.5394 c -8e-5,0.88647 1.4372,1.60511 3.21014,1.60507 1.77274,-1e-4 3.2097,-0.7187 3.20962,-1.60507"
       sodipodi:nodetypes="ccc" />
    <ellipse
       style="fill:none;fill-opacity:1;stroke:#000000;stroke-width:0.113611;stroke-miterlimit:4;stroke-dasharray:none;stroke-opacity:1;stop-color:#000000"
       id="path44259-9-6"
       cx="131.16631"
       cy="106.07775"
       rx="4.5149999"
       ry="2.2574999" />
    <path
       style="fill:#969696;fill-opacity:1;stroke:none;stroke-width:0.132292;stroke-miterlimit:4;stroke-dasharray:none;stroke-opacity:1;stop-color:#000000"
       d="m 124.46745,109.60921 c 0,-0.79894 0.27867,-0.27893 0.27867,-0.27893 0,0 0.74335,1.38711 0.93639,1.74732 0.19304,0.36021 0.19304,0.9294 0.19304,0.9294 0,0 0,4.21128 0,4.82864 0,0.61737 -0.28007,0.0947 -0.28007,0.0947 0,0 -0.74344,-1.38725 -0.93574,-1.74608 -0.19229,-0.35883 -0.19229,-0.89471 -0.19229,-0.89471 z"
       id="path54342-8" />
    <path
       style="fill:#969696;fill-opacity:1;stroke:none;stroke-width:0.132292;stroke-miterlimit:4;stroke-dasharray:none;stroke-opacity:1;stop-color:#000000"
       d="m 133.3479,113.20214 c 0,-0.53924 0.55059,-0.81527 0.55059,-0.81527 0,0 2.94367,-1.47572 3.41247,-1.71073 0.46879,-0.23502 0.46879,0.42125 0.46879,0.42125 0,0 0,4.50999 0,4.93446 0,0.42447 -0.39656,0.62327 -0.39656,0.62327 0,0 -3.03303,1.52052 -3.53416,1.77175 -0.50113,0.25123 -0.50113,-0.45397 -0.50113,-0.45397 z"
       id="path56539-8" />
    <path
       style="fill:#646464;fill-opacity:1;stroke:#000000;stroke-width:0.132292;stroke-miterlimit:4;stroke-dasharray:none;stroke-opacity:1;stop-color:#000000"
       d="m 137.19647,108.42427 -5.3e-4,0.66921"
       id="path59234-7" />
    <path
       style="fill:#646464;fill-opacity:1;stroke:#000000;stroke-width:0.132292;stroke-miterlimit:4;stroke-dasharray:none;stroke-opacity:1;stop-color:#000000"
       d="m 125.13674,107.74421 0.003,1.35134"
       id="path59269-9" />
    <path
       style="fill:#c7c7c7;fill-opacity:1;stroke:none;stroke-width:0.132292;stroke-miterlimit:4;stroke-dasharray:none;stroke-opacity:1;stop-color:#000000"
       d="m 126.47166,112.97997 c 0,-1.02445 0.93999,-0.89852 0.93999,-0.89852 0,0 3.5041,0.46946 4.34082,0.58157 0.83673,0.11209 0.83673,1.04192 0.83673,1.04192 0,0 0,3.42715 0,4.25626 0,0.82912 -0.9539,0.70132 -0.9539,0.70132 0,0 -3.65585,-0.4898 -4.40975,-0.5908 -0.75389,-0.101 -0.75389,-1.02257 -0.75389,-1.02257 z"
       id="path59814-9" />
    <path
       style="fill:#c8c8c8;fill-opacity:1;stroke:#000000;stroke-width:0.144061;stroke-miterlimit:4;stroke-dasharray:none;stroke-opacity:1;stop-color:#000000"
       d="m 139.3341,101.35157 v 19.69844"
       id="path66760-9"
       sodipodi:nodetypes="cc" />
    <rect
       style="fill:none;fill-opacity:1;stroke:#000000;stroke-width:0.130231;stroke-miterlimit:4;stroke-dasharray:none;stroke-opacity:1;stop-color:#000000"
       id="rect67030-5"
       width="47"
       height="26.703239"
       x="122.80334"
       y="95.653625" />
    <path
       style="fill:#c8c8c8;fill-opacity:1;stroke:#000000;stroke-width:0.132292;stroke-miterlimit:4;stroke-dasharray:none;stroke-opacity:1;stop-color:#000000"
       d="m 165.06467,96.182798 h 4.2095 v 4.209502 z"
       id="path13761-3-061-7-1-9-6-7-6-1" />
    <path
       style="fill:#000000;fill-opacity:1;stroke:#000000;stroke-width:0.132292;stroke-miterlimit:4;stroke-dasharray:none;stroke-opacity:1;stop-color:#000000"
       d="m 169.27417,100.3923 h -4.2095 v -4.209501 z"
       id="path13761-3-061-7-1-9-6-7-6-1-9" />
    <path
       id="path54068-3-5"
       style="fill:#b4b4b4;fill-opacity:1;stroke:none;stroke-width:0.108187;stroke-miterlimit:4;stroke-dasharray:none;stroke-opacity:1;stop-color:#000000"
       inkscape:transform-center-x="-0.48109746"
       inkscape:transform-center-y="-0.24055357"
       d="m 137.19647,140.41918 v -2.34663 c -1.9e-4,-0.79954 -0.63553,-1.56631 -1.7663,-2.13165 -1.18123,-0.59077 -2.79974,-0.91001 -4.4695,-0.8816 -1.52727,0.0261 -2.97772,0.34124 -4.05815,0.8816 -1.12931,0.56475 -1.76436,1.33046 -1.76578,2.12907 h -5.2e-4 l 5.2e-4,1.66915 -2.3e-4,4.2e-4 -0.4261,0.21274 c -0.42616,0.21338 -0.42616,1.13543 -0.42616,1.13543 0,0 1.7e-4,4.22775 0,5.02282 -1.7e-4,0.79508 0.18763,1.14548 0.18763,1.14548 0,0 0.90524,1.68913 1.28085,2.38994 0.37561,0.70082 1.07695,0.79478 1.07695,0.79478 0,0 4.89949,0.65641 5.54018,0.74224 0.6407,0.0858 1.2574,-0.22251 1.2574,-0.22251 0,0 3.36165,-1.68073 3.8915,-1.94562 0.52985,-0.2649 0.52993,-1.06022 0.52993,-1.06022 0,0 7e-5,-4.35465 0,-5.14974 -8e-5,-0.7951 -0.3231,-1.39805 -0.3231,-1.39805 l -0.52912,-0.98735 z"
       sodipodi:nodetypes="cccccccccccscscscscsccc" />
    <text
       xml:space="preserve"
       style="font-size:3.50942px;line-height:1.25;font-family:Ste;-inkscape-font-specification:Ste;stroke-width:0.0658016"
       x="130.75116"
       y="131.69398"
       id="text29255-3-3-3"><tspan
         sodipodi:role="line"
         style="font-style:normal;font-variant:normal;font-weight:bold;font-stretch:normal;font-family:sans-serif;-inkscape-font-specification:sans-serif;stroke-width:0.0658016"
         x="130.75116"
         y="131.69398"
         id="tspan30709-2-6-6">Nylon Locknut</tspan></text>
    <text
       xml:space="preserve"
       style="font-size:3.50942px;line-height:1.25;font-family:Ste;-inkscape-font-specification:Ste;stroke-width:0.0658016"
       x="140.38057"
       y="136.65382"
       id="text29255-4-2-7-6"><tspan
         sodipodi:role="line"
         style="font-style:normal;font-variant:normal;font-weight:normal;font-stretch:normal;font-family:sans-serif;-inkscape-font-specification:sans-serif;stroke-width:0.0658016"
         x="140.38057"
         y="136.65382"
         id="tspan40136-9-6-5">5/16-18</tspan></text>
    <path
       sodipodi:type="star"
       style="fill:#c8c8c8;fill-opacity:1;stroke:#000000;stroke-width:0.578268;stroke-miterlimit:4;stroke-dasharray:none;stroke-opacity:1;stop-color:#000000"
       id="path44131-3-3"
       inkscape:flatsided="true"
       sodipodi:sides="6"
       sodipodi:cx="544.25"
       sodipodi:cy="326.67914"
       sodipodi:r1="26.929134"
       sodipodi:r2="13.464567"
       sodipodi:arg1="-1.5707963"
       sodipodi:arg2="-1.0471975"
       inkscape:rounded="0"
       inkscape:randomized="0"
       transform="matrix(0.26458333,0,0,0.26458333,3.1335474,59.289633)"
       inkscape:transform-center-x="1.8141666e-06"
       inkscape:transform-center-y="-0.68037804"
       d="m 544.25,299.75 23.32131,13.46457 0,26.92914 -23.32131,13.46456 -23.32131,-13.46457 0,-26.92913 z" />
    <circle
       style="fill:#c8c8c8;fill-opacity:1;stroke:#000000;stroke-width:0.158498;stroke-miterlimit:4;stroke-dasharray:none;stroke-opacity:1;stop-color:#000000"
       id="path44155-9-8"
       cx="147.13303"
       cy="145.7235"
       r="6.0300002" />
    <circle
       style="fill:#000080;fill-opacity:1;stroke:#000000;stroke-width:0.16067;stroke-miterlimit:4;stroke-dasharray:none;stroke-opacity:1;stop-color:#000000"
       id="path44259-97-2"
       cx="147.13303"
       cy="145.7235"
       r="4.5149999" />
    <circle
       style="fill:#ffffff;fill-opacity:1;stroke:#000000;stroke-width:0.126923;stroke-miterlimit:4;stroke-dasharray:none;stroke-opacity:1;stop-color:#000000"
       id="path44363-2-3"
       cx="147.13303"
       cy="145.7235"
       r="3.21" />
    <rect
       style="fill:#969696;fill-opacity:1;stroke:#000000;stroke-width:0.132292;stroke-miterlimit:4;stroke-dasharray:none;stroke-opacity:1;stop-color:#000000"
       id="rect44467-0-0-6"
       width="12.341003"
       height="4.3390594"
       x="155.81235"
       y="143.31837"
       rx="1"
       ry="1" />
    <rect
       style="fill:#969696;fill-opacity:1;stroke:#000000;stroke-width:0.132292;stroke-miterlimit:4;stroke-dasharray:none;stroke-opacity:1;stop-color:#000000"
       id="rect44467-9-6"
       width="12.341"
       height="6.7399998"
       x="155.81235"
       y="146.26836" />
    <rect
       style="fill:#c8c8c8;fill-opacity:1;stroke:none;stroke-width:0.132292;stroke-miterlimit:4;stroke-dasharray:none;stroke-opacity:1;stop-color:#000000"
       id="rect45175-1-2"
       width="11.282662"
       height="1.9869995"
       x="156.34152"
       y="143.84755"
       rx="1.0000006"
       ry="0.99349976" />
    <rect
       style="fill:#c8c8c8;fill-opacity:1;stroke:none;stroke-width:0.132292;stroke-miterlimit:4;stroke-dasharray:none;stroke-opacity:1;stop-color:#000000"
       id="rect45279-3-4"
       width="5.6461334"
       height="6.3243256"
       x="156.12889"
       y="146.52415"
       rx="1.0000006"
       ry="1.0000006" />
    <rect
       style="fill:#c8c8c8;fill-opacity:1;stroke:none;stroke-width:0.132292;stroke-miterlimit:4;stroke-dasharray:none;stroke-opacity:1;stop-color:#000000"
       id="rect45281-1-0"
       width="5.598175"
       height="6.3563004"
       x="162.23866"
       y="146.4922"
       rx="1.0000006"
       ry="1.0000006" />
    <circle
       style="fill:#ffffff;fill-opacity:1;stroke:#000000;stroke-width:0.127021;stroke-miterlimit:4;stroke-dasharray:none;stroke-opacity:1;stop-color:#000000"
       id="path44259-0-3-1-7-0"
       cx="231.06519"
       cy="84.41655"
       r="3.5694208"
       transform="matrix(0.89442719,0.4472136,-0.89442719,0.4472136,0,0)" />
    <ellipse
       style="fill:#969696;fill-opacity:1;stroke:none;stroke-width:0.132292;stroke-miterlimit:4;stroke-dasharray:none;stroke-opacity:1;stop-color:#000000"
       id="path48455-8-4"
       cx="131.09163"
       cy="138.05037"
       rx="4.9628124"
       ry="2.3853152" />
    <ellipse
       style="fill:#c8c8c8;fill-opacity:1;stroke:none;stroke-width:0.132292;stroke-miterlimit:4;stroke-dasharray:none;stroke-opacity:1;stop-color:#000000"
       id="path48721-2-7"
       cx="131.20901"
       cy="138.60396"
       rx="3.7721231"
       ry="1.8038056" />
    <path
       id="path44155-1-3-4-5-1"
       style="fill:#c8c8c8;fill-opacity:1;stroke:none;stroke-width:0.112075;stroke-miterlimit:4;stroke-dasharray:none;stroke-opacity:1;stop-color:#000000"
       d="m 131.16635,138.07255 a 6.0300001,3.0150001 0 0 0 -4.26382,0.88315 6.0300001,3.0150001 0 0 0 -0.42117,0.23668 l -0.51056,-0.42994 -0.20722,-0.17209 v 3.08715 c 0,0.63641 0.32133,1.00322 0.41651,1.09813 a 6.0300001,3.0150001 0 0 0 0.72244,0.4439 6.0300001,3.0150001 0 0 0 8.52764,0 6.0300001,3.0150001 0 0 0 0.60772,-0.36794 c 0.12049,-0.11578 0.52658,-0.5585 0.52658,-1.26762 v -3.04529 l -0.80667,0.59479 a 6.0300001,3.0150001 0 0 0 -0.32763,-0.17777 6.0300001,3.0150001 0 0 0 -4.26382,-0.88315 z m 6.03012,0 -5.2e-4,5.2e-4 v 3.01532 l 5.2e-4,-5.1e-4 z" />
    <path
       id="ellipse908-2-3"
       style="fill:#000000;fill-opacity:1;stroke:none;stroke-width:0.132292;stroke-miterlimit:4;stroke-dasharray:none;stroke-opacity:1;stop-color:#000000"
       d="m 131.057,138.99821 a 3.772123,1.8038056 0 0 0 -3.16208,0.82165 l 1.8464,0.92398 3.32796,-0.0951 1.6428,-0.29197 a 3.772123,1.8038056 0 0 0 -3.65508,-1.35858 z" />
    <path
       id="circle48305-9-1"
       style="fill:#ffffff;fill-opacity:1;stroke:none;stroke-width:0.113611;stroke-miterlimit:4;stroke-dasharray:none;stroke-opacity:1;stop-color:#000000"
       d="m 131.01235,136.34553 a 4.5149997,2.2574999 0 0 0 -3.03858,0.65991 4.5149997,2.2574999 0 0 0 0,3.19257 4.5149997,2.2574999 0 0 0 6.38514,0 4.5149997,2.2574999 0 0 0 0,-3.19257 4.5149997,2.2574999 0 0 0 -3.34656,-0.65991 z m 0.0444,0.65215 a 3.2099998,1.605 0 0 1 2.3797,0.46923 3.2099998,1.605 0 0 1 0,2.26963 3.2099998,1.605 0 0 1 -4.53977,0 3.2099998,1.605 0 0 1 0,-2.26963 3.2099998,1.605 0 0 1 2.16007,-0.46923 z" />
    <ellipse
       style="fill:none;fill-opacity:1;stroke:#000000;stroke-width:0.113611;stroke-miterlimit:4;stroke-dasharray:none;stroke-opacity:1;stop-color:#000000"
       id="ellipse49694-4-9"
       cx="131.16631"
       cy="138.60185"
       rx="4.5149999"
       ry="2.2574999" />
    <path
       id="path44155-1-3-2-6"
       style="fill:#dcdcdc;fill-opacity:1;stroke:none;stroke-width:0.112075;stroke-miterlimit:4;stroke-dasharray:none;stroke-opacity:1;stop-color:#000000"
       d="m 130.96068,135.0593 a 6.0300001,3.0150001 0 0 0 -4.05815,0.8816 6.0300001,3.0150001 0 0 0 0,4.26383 6.0300001,3.0150001 0 0 0 8.52764,0 6.0300001,3.0150001 0 0 0 0,-4.26383 6.0300001,3.0150001 0 0 0 -4.46949,-0.8816 z m 0.0517,0.75706 a 4.5149997,2.2574999 0 0 1 3.34657,0.65991 4.5149997,2.2574999 0 0 1 0,3.19257 4.5149997,2.2574999 0 0 1 -6.38514,0 4.5149997,2.2574999 0 0 1 0,-3.19257 4.5149997,2.2574999 0 0 1 3.03857,-0.65991 z" />
    <path
       id="path49001-9-4"
       style="fill:none;fill-opacity:1;stroke:#000000;stroke-width:0.108187;stroke-miterlimit:4;stroke-dasharray:none;stroke-opacity:1;stop-color:#000000"
       inkscape:transform-center-x="-0.48109746"
       inkscape:transform-center-y="-0.24055357"
       d="m 137.19647,140.41918 v -2.34663 c -1.9e-4,-0.79954 -0.63553,-1.56631 -1.7663,-2.13165 -1.18123,-0.59077 -2.79974,-0.91001 -4.4695,-0.8816 -1.52727,0.0261 -2.97772,0.34124 -4.05815,0.8816 -1.12931,0.56475 -1.76436,1.33046 -1.76578,2.12907 h -5.2e-4 l 5.2e-4,1.66915 -2.3e-4,4.2e-4 -0.4261,0.21274 c -0.42616,0.21338 -0.42616,1.13543 -0.42616,1.13543 0,0 1.7e-4,4.22775 0,5.02282 -1.7e-4,0.79508 0.18763,1.14548 0.18763,1.14548 0,0 0.90524,1.68913 1.28085,2.38994 0.37561,0.70082 1.07695,0.79478 1.07695,0.79478 0,0 4.89949,0.65641 5.54018,0.74224 0.6407,0.0858 1.2574,-0.22251 1.2574,-0.22251 0,0 3.36165,-1.68073 3.8915,-1.94562 0.52985,-0.2649 0.52993,-1.06022 0.52993,-1.06022 0,0 7e-5,-4.35465 0,-5.14974 -8e-5,-0.7951 -0.3231,-1.39805 -0.3231,-1.39805 l -0.52912,-0.98735 z"
       sodipodi:nodetypes="cccccccccccscscscscsccc" />
    <path
       id="path44363-4-1-2"
       style="fill:none;fill-opacity:1;stroke:#000000;stroke-width:0.089748;stroke-miterlimit:4;stroke-dasharray:none;stroke-opacity:1;stop-color:#000000"
       d="m 127.95943,138.53431 c -8e-5,0.88647 1.4372,1.60511 3.21014,1.60507 1.77274,-10e-5 3.2097,-0.7187 3.20962,-1.60507"
       sodipodi:nodetypes="ccc" />
    <ellipse
       style="fill:none;fill-opacity:1;stroke:#000000;stroke-width:0.113611;stroke-miterlimit:4;stroke-dasharray:none;stroke-opacity:1;stop-color:#000000"
       id="path44259-9-6-8"
       cx="131.16631"
       cy="138.07268"
       rx="4.5149999"
       ry="2.2574999" />
    <path
       style="fill:#969696;fill-opacity:1;stroke:none;stroke-width:0.132292;stroke-miterlimit:4;stroke-dasharray:none;stroke-opacity:1;stop-color:#000000"
       d="m 124.46745,141.60412 c 0,-0.79894 0.27867,-0.27893 0.27867,-0.27893 0,0 0.74335,1.38711 0.93639,1.74732 0.19304,0.36021 0.19304,0.9294 0.19304,0.9294 0,0 0,4.21128 0,4.82864 0,0.61737 -0.28007,0.0947 -0.28007,0.0947 0,0 -0.74344,-1.38725 -0.93574,-1.74608 -0.19229,-0.35883 -0.19229,-0.89471 -0.19229,-0.89471 z"
       id="path54342-8-2" />
    <path
       style="fill:#969696;fill-opacity:1;stroke:none;stroke-width:0.132292;stroke-miterlimit:4;stroke-dasharray:none;stroke-opacity:1;stop-color:#000000"
       d="m 133.3479,145.19705 c 0,-0.53924 0.55059,-0.81527 0.55059,-0.81527 0,0 2.94367,-1.47572 3.41247,-1.71073 0.46879,-0.23502 0.46879,0.42125 0.46879,0.42125 0,0 0,4.50999 0,4.93446 0,0.42447 -0.39656,0.62327 -0.39656,0.62327 0,0 -3.03303,1.52052 -3.53416,1.77175 -0.50113,0.25123 -0.50113,-0.45397 -0.50113,-0.45397 z"
       id="path56539-8-9" />
    <path
       style="fill:#646464;fill-opacity:1;stroke:#000000;stroke-width:0.132292;stroke-miterlimit:4;stroke-dasharray:none;stroke-opacity:1;stop-color:#000000"
       d="m 137.19647,140.41918 -5.3e-4,0.66921"
       id="path59234-7-6" />
    <path
       style="fill:#646464;fill-opacity:1;stroke:#000000;stroke-width:0.132292;stroke-miterlimit:4;stroke-dasharray:none;stroke-opacity:1;stop-color:#000000"
       d="m 125.13674,139.73912 0.003,1.35134"
       id="path59269-9-9" />
    <path
       style="fill:#c7c7c7;fill-opacity:1;stroke:none;stroke-width:0.132292;stroke-miterlimit:4;stroke-dasharray:none;stroke-opacity:1;stop-color:#000000"
       d="m 126.47166,144.97488 c 0,-1.02445 0.93999,-0.89852 0.93999,-0.89852 0,0 3.5041,0.46946 4.34082,0.58157 0.83673,0.11209 0.83673,1.04192 0.83673,1.04192 0,0 0,3.42715 0,4.25626 0,0.82912 -0.9539,0.70132 -0.9539,0.70132 0,0 -3.65585,-0.4898 -4.40975,-0.5908 -0.75389,-0.101 -0.75389,-1.02257 -0.75389,-1.02257 z"
       id="path59814-9-0" />
    <path
       style="fill:#c8c8c8;fill-opacity:1;stroke:#000000;stroke-width:0.144061;stroke-miterlimit:4;stroke-dasharray:none;stroke-opacity:1;stop-color:#000000"
       d="m 139.3341,133.34648 v 19.69844"
       id="path66760-9-7"
       sodipodi:nodetypes="cc" />
    <rect
       style="fill:none;fill-opacity:1;stroke:#000000;stroke-width:0.130231;stroke-miterlimit:4;stroke-dasharray:none;stroke-opacity:1;stop-color:#000000"
       id="rect67030-5-7"
       width="47"
       height="26.703239"
       x="122.80334"
       y="127.64852" />
    <path
       style="fill:#c8c8c8;fill-opacity:1;stroke:#000000;stroke-width:0.132292;stroke-miterlimit:4;stroke-dasharray:none;stroke-opacity:1;stop-color:#000000"
       d="m 165.06467,128.17771 h 4.2095 v 4.2095 z"
       id="path13761-3-061-7-1-9-6-7-6-1-1" />
    <path
       style="fill:#000080;fill-opacity:1;stroke:#000000;stroke-width:0.132292;stroke-miterlimit:4;stroke-dasharray:none;stroke-opacity:1;stop-color:#000000"
       d="m 169.27417,132.38721 h -4.2095 v -4.2095 z"
       id="path13761-3-061-7-1-9-6-7-6-1-9-2" />
    <path
       style="fill:#ffffff;fill-opacity:1;stroke:#000000;stroke-width:0.132292;stroke-miterlimit:4;stroke-dasharray:none;stroke-opacity:1;stop-color:#000000"
       d="m 169.27416,68.397392 h -4.2095 v -4.2095 z"
       id="path13761-3-061-7-1-9-6-7-6-1-4" />
    <text
       xml:space="preserve"
       style="font-size:3.50942px;line-height:1.25;font-family:Ste;-inkscape-font-specification:Ste;stroke-width:0.0658016"
       x="44.357998"
       y="42.243229"
       id="text5582"><tspan
         sodipodi:role="line"
         style="font-style:normal;font-variant:normal;font-weight:normal;font-stretch:normal;font-family:sans-serif;-inkscape-font-specification:sans-serif;stroke-width:0.0658016"
         x="44.357998"
         y="42.243229"
         id="tspan5580">5/16-18&quot;</tspan><tspan
         sodipodi:role="line"
         style="font-style:normal;font-variant:normal;font-weight:normal;font-stretch:normal;font-family:sans-serif;-inkscape-font-specification:sans-serif;stroke-width:0.0658016"
         x="44.357998"
         y="46.677208"
         id="tspan10196">Coarse Thread</tspan></text>
  </g>
</svg>
