<?xml version="1.0" encoding="UTF-8" standalone="no"?>
<!-- Created with Inkscape (http://www.inkscape.org/) -->

<svg
   width="210mm"
   height="297mm"
   viewBox="0 0 210 297"
   version="1.1"
   id="svg5"
   inkscape:version="1.1 (c68e22c387, 2021-05-23)"
   sodipodi:docname="ChicagoScrews.svg"
   xmlns:inkscape="http://www.inkscape.org/namespaces/inkscape"
   xmlns:sodipodi="http://sodipodi.sourceforge.net/DTD/sodipodi-0.dtd"
   xmlns="http://www.w3.org/2000/svg"
   xmlns:svg="http://www.w3.org/2000/svg">
  <sodipodi:namedview
     id="namedview7"
     pagecolor="#ffffff"
     bordercolor="#666666"
     borderopacity="1.0"
     inkscape:pageshadow="2"
     inkscape:pageopacity="0.0"
     inkscape:pagecheckerboard="0"
     inkscape:document-units="mm"
     showgrid="false"
     inkscape:snap-bbox="true"
     inkscape:bbox-paths="true"
     inkscape:bbox-nodes="true"
     inkscape:snap-bbox-edge-midpoints="true"
     inkscape:snap-bbox-midpoints="true"
     inkscape:object-paths="true"
     inkscape:snap-intersection-paths="true"
     inkscape:snap-smooth-nodes="true"
     inkscape:snap-midpoints="true"
     showguides="true"
     inkscape:guide-bbox="true"
     inkscape:zoom="2"
     inkscape:cx="216"
     inkscape:cy="513.75"
     inkscape:window-width="2560"
     inkscape:window-height="1017"
     inkscape:window-x="-8"
     inkscape:window-y="-8"
     inkscape:window-maximized="1"
     inkscape:current-layer="layer1"
     inkscape:snap-global="false" />
  <defs
     id="defs2" />
  <g
     inkscape:label="Layer 1"
     inkscape:groupmode="layer"
     id="layer1">
    <path
       id="path4300"
       style="fill:#c8c8c8;fill-opacity:1;stroke:none;stroke-width:0.0935445;stroke-miterlimit:4;stroke-dasharray:none;stroke-opacity:1;stop-color:#000000"
       d="m 25.333853,42.440304 a 3.9999999,2 0 0 0 -3.305741,0.875397 h -0.0016 l -0.01912,0.0155 a 3.9999999,2 0 0 0 -0.153477,0.125058 l -0.854728,0.696082 h 0.377237 a 3.9999999,2 0 0 0 -0.04237,0.287838 3.9999999,2 0 0 0 3.999756,2.000395 3.9999999,2 0 0 0 3.999757,-2.000395 3.9999999,2 0 0 0 -0.04186,-0.287838 h 0.440801 l -1.07487,-0.836642 h -0.01602 A 3.9999999,2 0 0 0 25.33381,42.440302 Z" />
    <ellipse
       style="fill:#969696;fill-opacity:1;stroke:none;stroke-width:0.0935446;stroke-miterlimit:4;stroke-dasharray:none;stroke-opacity:1;stop-color:#000000"
       id="path4302"
       cx="-25.333855"
       cy="-45.240479"
       rx="4.8500004"
       ry="2.4250002"
       transform="scale(-1)" />
    <path
       id="path4302-2"
       style="fill:#646464;fill-opacity:1;stroke:none;stroke-width:0.0935445;stroke-miterlimit:4;stroke-dasharray:none;stroke-opacity:1;stop-color:#000000"
       d="m 25.333858,48.165372 a 4.8500003,2.4250002 0 0 0 4.849834,-2.424658 v -0.500226 h -0.104386 a 4.8500003,2.4250002 0 0 0 -4.745448,-1.924947 4.8500003,2.4250002 0 0 0 -4.745447,1.924947 h -0.104387 v 0.500226 a 4.8500003,2.4250002 0 0 0 4.849834,2.424658 z" />
    <rect
       style="fill:#c8c8c8;fill-opacity:1;stroke:#323232;stroke-width:0.132292;stroke-miterlimit:4;stroke-dasharray:none;stop-color:#000000"
       id="rect952"
       width="5"
       height="40"
       x="-118.00909"
       y="-178.17274"
       transform="matrix(0,-1,-1,0,0,0)" />
    <path
       style="fill:#c8c8c8;fill-opacity:1;stroke:#323232;stroke-width:0.132292;stroke-miterlimit:4;stroke-dasharray:none;stop-color:#000000"
       d="m 138.17277,120.35908 v -9.7 h -0.49999 l -0.8,0.85 v 8 l 0.8,0.85 z"
       id="path1446" />
    <circle
       style="fill:#c8c8c8;fill-opacity:1;stroke:#323232;stroke-width:0.132292;stroke-miterlimit:4;stroke-dasharray:none;stop-color:#000000"
       id="path1790"
       cx="-24.869061"
       cy="-31.457418"
       r="2.5"
       transform="scale(-1)" />
    <circle
       style="fill:#000000;fill-opacity:1;stroke:none;stroke-width:0.132292;stroke-miterlimit:4;stroke-dasharray:none;stop-color:#000000"
       id="path1790-2"
       cx="-24.869061"
       cy="-31.457418"
       r="2"
       transform="scale(-1)" />
    <path
       id="path2177"
       style="fill:#c8c8c8;fill-opacity:1;stroke:#323232;stroke-width:0.132292;stroke-miterlimit:4;stroke-dasharray:none;stop-color:#000000"
       d="m 66.241782,139.39137 0.77462,-0.89968 v -0.50023 h -9.39994 v 0.50022 l 0.77515,0.89969 h 3.27525 v -0.89969 h 1.29966 v 0.89969 z" />
    <rect
       style="fill:#c8c8c8;fill-opacity:1;stroke:#323232;stroke-width:0.132292;stroke-miterlimit:4;stroke-dasharray:none;stop-color:#000000"
       id="rect2708"
       width="3"
       height="5"
       x="-63.816429"
       y="-137.99146"
       transform="scale(-1)" />
    <path
       style="fill:#c8c8c8;fill-opacity:1;stroke:#323232;stroke-width:0.132292;stroke-miterlimit:4;stroke-dasharray:none;stop-color:#000000"
       d="m 64.186442,132.99146 -3.74001,0.83333"
       id="path3110" />
    <path
       style="fill:#c8c8c8;fill-opacity:1;stroke:#323232;stroke-width:0.132292;stroke-miterlimit:4;stroke-dasharray:none;stop-color:#000000"
       d="m 64.186442,133.82479 -3.74,0.83333"
       id="path3112" />
    <path
       style="fill:#c8c8c8;fill-opacity:1;stroke:#323232;stroke-width:0.132292;stroke-miterlimit:4;stroke-dasharray:none;stop-color:#000000"
       d="m 64.186442,134.65813 -3.74,0.83333"
       id="path3114" />
    <path
       style="fill:#c8c8c8;fill-opacity:1;stroke:#323232;stroke-width:0.132292;stroke-miterlimit:4;stroke-dasharray:none;stop-color:#000000"
       d="m 64.186442,135.49146 -3.74,0.83333"
       id="path3116" />
    <path
       style="fill:#c8c8c8;fill-opacity:1;stroke:#323232;stroke-width:0.132292;stroke-miterlimit:4;stroke-dasharray:none;stop-color:#000000"
       d="m 64.186442,136.32479 -3.74,0.83333"
       id="path3118" />
    <path
       style="fill:#c8c8c8;fill-opacity:1;stroke:#323232;stroke-width:0.132292;stroke-miterlimit:4;stroke-dasharray:none;stop-color:#000000"
       d="m 64.186432,137.15813 -3.73999,0.83333"
       id="path3120" />
    <path
       id="rect2708-6"
       style="fill:#c8c8c8;fill-opacity:1;stroke:none;stroke-width:0.132292;stroke-miterlimit:4;stroke-dasharray:none;stop-color:#000000"
       d="m 26.834073,73.032296 v -4.999693 a 1.5000004,0.75000024 0 0 0 -1.500166,-0.750343 1.5000004,0.75000024 0 0 0 -1.49965,0.750343 1.5000004,0.75000024 0 0 0 0,0.01705 v 4.982641 z" />
    <path
       style="fill:#c8c8c8;fill-opacity:1;stroke:#323232;stroke-width:0.132292;stroke-miterlimit:4;stroke-dasharray:none;stop-color:#000000"
       d="m 27.204009,71.365851 -3.740001,0.833333"
       id="path3118-5" />
    <path
       style="fill:#c8c8c8;fill-opacity:1;stroke:#323232;stroke-width:0.132292;stroke-miterlimit:4;stroke-dasharray:none;stop-color:#000000"
       d="m 27.204006,72.199185 -3.739998,0.833333"
       id="path3120-6" />
    <rect
       style="fill:#c8c8c8;fill-opacity:1;stroke:#323232;stroke-width:0.132292;stroke-miterlimit:4;stroke-dasharray:none;stop-color:#000000"
       id="rect3712"
       width="5"
       height="35"
       x="-93.009117"
       y="-175.67274"
       transform="matrix(0,-1,-1,0,0,0)" />
    <path
       style="fill:#c8c8c8;fill-opacity:1;stroke:#323232;stroke-width:0.132292;stroke-miterlimit:4;stroke-dasharray:none;stop-color:#000000"
       d="m 140.67277,95.359099 v -9.7 h -0.5 l -0.8,0.85 v 8 l 0.8,0.85 z"
       id="path3714" />
    <rect
       style="fill:#c8c8c8;fill-opacity:1;stroke:#323232;stroke-width:0.132292;stroke-miterlimit:4;stroke-dasharray:none;stop-color:#000000"
       id="rect3798"
       width="5"
       height="30"
       x="-68.009102"
       y="-173.17274"
       transform="matrix(0,-1,-1,0,0,0)" />
    <path
       style="fill:#c8c8c8;fill-opacity:1;stroke:#323232;stroke-width:0.132292;stroke-miterlimit:4;stroke-dasharray:none;stop-color:#000000"
       d="m 143.17277,70.359094 v -9.7 h -0.5 l -0.8,0.85 v 8 l 0.8,0.85 z"
       id="path3800" />
    <path
       style="fill:#c8c8c8;fill-opacity:1;stroke:#323232;stroke-width:0.132292;stroke-miterlimit:4;stroke-dasharray:none;stop-color:#000000"
       d="m 99.436135,95.359105 v -9.7 h -0.5 l -0.8,0.85 v 8 l 0.8,0.85 z"
       id="path3808" />
    <path
       style="fill:#c8c8c8;fill-opacity:1;stroke:#323232;stroke-width:0.132292;stroke-miterlimit:4;stroke-dasharray:none;stop-color:#000000"
       d="m 54.69957,120.35911 v -9.7 h -0.5 l -0.799997,0.85 v 8 l 0.799997,0.85 z"
       id="path3808-3" />
    <path
       id="rect3806-9-3"
       style="fill:#969696;fill-opacity:1;stroke:none;stroke-width:0.114568;stroke-miterlimit:4;stroke-dasharray:none;stop-color:#000000"
       d="m 25.333853,44.490306 a 2.4999999,1.2499999 0 0 0 -2.500106,1.250053 v 15.000118 h 5.000212 V 45.740359 a 2.4999999,1.2499999 0 0 0 -2.500106,-1.250053 z" />
    <rect
       style="fill:#c8c8c8;fill-opacity:1;stroke:#323232;stroke-width:0.0935444;stroke-miterlimit:4;stroke-dasharray:none;stop-color:#000000"
       id="rect3806-9-1"
       width="5"
       height="10"
       x="-93.009048"
       y="-65.69957"
       transform="matrix(0,-1,-1,0,0,0)" />
    <path
       style="fill:#c8c8c8;fill-opacity:1;stroke:#323232;stroke-width:0.132292;stroke-miterlimit:4;stroke-dasharray:none;stop-color:#000000"
       d="m 55.699537,95.359088 v -9.70001 h -0.5 l -0.8,0.85 v 8.00001 l 0.8,0.85 z"
       id="path3808-3-2" />
    <ellipse
       style="fill:#646464;fill-opacity:1;stroke:none;stroke-width:0.0935446;stroke-miterlimit:4;stroke-dasharray:none;stop-color:#000000"
       id="path1790-4"
       cx="-25.333855"
       cy="-60.740372"
       transform="scale(-1)"
       rx="2.5"
       ry="1.25" />
    <ellipse
       style="fill:#000000;fill-opacity:1;stroke:none;stroke-width:0.0935446;stroke-miterlimit:4;stroke-dasharray:none;stop-color:#000000"
       id="path1790-2-6"
       cx="-25.333855"
       cy="-60.740372"
       transform="scale(-1)"
       rx="2"
       ry="1" />
    <text
       xml:space="preserve"
       style="font-size:3.65607px;line-height:1.25;font-family:Ste;-inkscape-font-specification:Ste;text-align:center;text-anchor:middle;stroke-width:0.0685512"
       x="59.582195"
       y="78.225891"
       id="text12559"><tspan
         sodipodi:role="line"
         style="font-style:normal;font-variant:normal;font-weight:bold;font-stretch:normal;font-family:sans-serif;-inkscape-font-specification:sans-serif;text-align:center;text-anchor:middle;stroke-width:0.0685512"
         x="59.582195"
         y="78.225891"
         id="tspan15561">Chicago Screws</tspan><tspan
         sodipodi:role="line"
         style="font-style:normal;font-variant:normal;font-weight:bold;font-stretch:normal;font-family:sans-serif;-inkscape-font-specification:sans-serif;text-align:center;text-anchor:middle;stroke-width:0.0685512"
         x="59.582195"
         y="82.845161"
         id="tspan52221">10mm</tspan></text>
    <path
       id="path22308-3"
       style="fill:#c8c8c8;fill-opacity:1;stroke:#000000;stroke-width:0.0935446;stroke-miterlimit:4;stroke-dasharray:none;stroke-opacity:1;stop-color:#000000"
       d="m 22.138331,74.671355 5.472346,-2.736171 a 3.925081,1.9625405 5.8389398e-6 0 0 -5.051396,0.209743 3.925081,1.9625405 5.8389398e-6 0 0 -0.42095,2.526428 z m 0.9201,0.458952 a 3.925081,1.9625405 5.8389398e-6 0 0 5.051756,-0.209928 3.925081,1.9625405 5.8389398e-6 0 0 0.41949,-2.525696 z" />
    <path
       id="path23910-7-9"
       style="fill:none;fill-opacity:1;stroke:#969696;stroke-width:0.3;stroke-miterlimit:4;stroke-dasharray:none;stroke-opacity:1;stop-color:#000000"
       d="m 27.204007,70.532519 c -0.0816,-0.299819 -0.908788,-0.471352 -1.847947,-0.461986 -1.172599,0.01169 -1.847938,0.834131 -1.847951,1.344427"
       sodipodi:nodetypes="csc" />
    <path
       id="path48909"
       style="fill:none;fill-opacity:1;stroke:#dcdcdc;stroke-width:0.0529167;stroke-miterlimit:4;stroke-dasharray:none;stroke-opacity:1;stop-color:#000000"
       d="m 27.204007,70.643603 c -0.0816,-0.299819 -0.908788,-0.471352 -1.847947,-0.461986 -1.172599,0.01169 -1.847938,0.834131 -1.847951,1.344427"
       sodipodi:nodetypes="csc" />
    <path
       id="path22310"
       style="fill:#969696;fill-opacity:1;stroke:none;stroke-width:0.0935445;stroke-miterlimit:4;stroke-dasharray:none;stroke-opacity:1;stop-color:#000000"
       d="m 25.333907,75.38254 a 4.6999707,2.3499853 0 0 0 4.590934,-1.850015 h 0.109037 v -0.500229 a 4.6999707,2.3499853 0 0 0 -4.699971,-2.349727 4.6999707,2.3499853 0 0 0 -4.699974,2.349727 v 0.500229 h 0.108006 a 4.6999707,2.3499853 0 0 0 4.591968,1.850015 z" />
    <path
       id="path23910"
       style="fill:none;fill-opacity:1;stroke:#969696;stroke-width:0.3;stroke-miterlimit:4;stroke-dasharray:none;stroke-opacity:1;stop-color:#000000"
       d="m 27.204009,68.032663 c -0.0816,-0.299819 -0.908788,-0.471352 -1.847947,-0.461986 -1.172599,0.01169 -1.847938,0.834131 -1.847951,1.344427"
       sodipodi:nodetypes="csc" />
    <path
       id="path48911"
       style="fill:none;fill-opacity:1;stroke:#dcdcdc;stroke-width:0.0529167;stroke-miterlimit:4;stroke-dasharray:none;stroke-opacity:1;stop-color:#000000"
       d="m 27.204009,68.143747 c -0.0816,-0.299819 -0.908788,-0.471352 -1.847947,-0.461986 -1.172599,0.01169 -1.847938,0.834131 -1.847951,1.344427"
       sodipodi:nodetypes="csc" />
    <ellipse
       style="fill:#000000;fill-opacity:1;stroke:none;stroke-width:0.0529167;stroke-miterlimit:4;stroke-dasharray:none;stroke-opacity:1;stop-color:#000000"
       id="path22310-4"
       cx="-25.334"
       cy="-73.532738"
       rx="4.6999707"
       ry="2.3499854"
       transform="scale(-1)" />
    <path
       id="path31058"
       style="fill:#969696;fill-opacity:1;stroke:none;stroke-width:0.0529167;stroke-miterlimit:4;stroke-dasharray:none;stroke-opacity:1;stop-color:#000000"
       d="m 25.013513,75.599583 c 1.41406,0.0036 2.98886,-0.05226 3.550171,-0.05219 0.4651,-0.271904 1.47048,-0.716901 1.470194,-2.014862 -7.94e-4,-0.230452 -0.06941,-0.459595 -0.203605,-0.680064 -0.130339,-0.189826 -0.198406,-0.287621 -0.321945,-0.399458 -0.11643,-0.105402 -0.358219,-0.28726 -0.38654,-0.308509 l -0.0036,-0.0036 c -0.0022,-0.0015 -0.0045,-0.0027 -0.0067,-0.0041 -2.01e-4,-1.29e-4 -3.17e-4,-3.89e-4 -5.16e-4,-5.18e-4 l -6.552057,3.292821 c 0.352285,0.128932 1.354807,0.167738 2.454633,0.170535 z" />
    <path
       id="path23910-7"
       style="fill:none;fill-opacity:1;stroke:#969696;stroke-width:0.3;stroke-miterlimit:4;stroke-dasharray:none;stroke-opacity:1;stop-color:#000000"
       d="m 27.204007,69.699185 c -0.0816,-0.299819 -0.908788,-0.471352 -1.847947,-0.461986 -1.172599,0.01169 -1.847938,0.834131 -1.847951,1.344427"
       sodipodi:nodetypes="csc" />
    <path
       id="path23910-9"
       style="fill:none;fill-opacity:1;stroke:#969696;stroke-width:0.3;stroke-miterlimit:4;stroke-dasharray:none;stroke-opacity:1;stop-color:#000000"
       d="m 27.204009,68.865851 c -0.0816,-0.299819 -0.908788,-0.471352 -1.847947,-0.461986 -1.172599,0.01169 -1.847938,0.834131 -1.84795,1.344427"
       sodipodi:nodetypes="csc" />
    <path
       id="path48913"
       style="fill:none;fill-opacity:1;stroke:#dcdcdc;stroke-width:0.0529167;stroke-miterlimit:4;stroke-dasharray:none;stroke-opacity:1;stop-color:#000000"
       d="m 27.204009,68.976935 c -0.0816,-0.299819 -0.908788,-0.471352 -1.847947,-0.461986 -1.172599,0.01169 -1.847938,0.834131 -1.84795,1.344427"
       sodipodi:nodetypes="csc" />
    <path
       id="path30588"
       style="fill:#969696;fill-opacity:1;stroke:none;stroke-width:0.0529167;stroke-miterlimit:4;stroke-dasharray:none;stroke-opacity:1;stop-color:#000000"
       d="m 22.137616,75.571254 5.491758,-2.726542 0.564306,-1.168921 5.29e-4,-0.0062 C 27.373924,71.354343 26.368518,71.183234 25.33392,71.1828 c -2.595524,0 -4.699684,1.051968 -4.699974,2.349728 1.8e-4,0.73251 0.50459,1.346184 1.50368,2.038728 z"
       sodipodi:nodetypes="ccccccc" />
    <path
       id="path22308"
       style="fill:#c8c8c8;fill-opacity:1;stroke:none;stroke-width:0.0935446;stroke-miterlimit:4;stroke-dasharray:none;stroke-opacity:1;stop-color:#000000"
       d="m 22.137616,75.571255 5.47235,-2.736171 a 3.925081,1.9625405 5.8389398e-6 0 0 -5.0514,0.209743 3.925081,1.9625405 5.8389398e-6 0 0 -0.42095,2.526428 z m 0.9201,0.458952 a 3.925081,1.9625405 5.8389398e-6 0 0 5.05176,-0.209928 3.925081,1.9625405 5.8389398e-6 0 0 0.41949,-2.525696 z" />
    <path
       id="path48915"
       style="fill:none;fill-opacity:1;stroke:#dcdcdc;stroke-width:0.0529167;stroke-miterlimit:4;stroke-dasharray:none;stroke-opacity:1;stop-color:#000000"
       d="m 27.204007,69.810269 c -0.0816,-0.299819 -0.908788,-0.471352 -1.847947,-0.461986 -1.172599,0.01169 -1.847938,0.834131 -1.847951,1.344427"
       sodipodi:nodetypes="csc" />
    <path
       style="fill:#646464;fill-opacity:1;stroke:none;stroke-width:0.132292;stroke-miterlimit:4;stroke-dasharray:none;stroke-opacity:1;stop-color:#000000"
       d="m 28.528968,73.294583 0.583438,-1.15946 -6.55377,3.294137 0.49908,0.600948 z"
       id="path31023" />
    <rect
       style="fill:none;fill-opacity:1;stroke:#323232;stroke-width:0.132292;stroke-miterlimit:4;stroke-dasharray:none;stroke-opacity:1;stop-color:#000000"
       id="rect58265"
       width="25"
       height="48.736595"
       x="72.863251"
       y="-83.76786"
       transform="rotate(90)" />
    <rect
       style="fill:#c8c8c8;fill-opacity:1;stroke:#323232;stroke-width:0.13229167;stroke-miterlimit:4;stroke-dasharray:none;stop-color:#000000"
       id="rect3806-9-1-6"
       width="5"
       height="5"
       x="-43.009052"
       y="-60.69957"
       transform="matrix(0,-1,-1,0,0,0)" />
    <path
       style="fill:#c8c8c8;fill-opacity:1;stroke:#323232;stroke-width:0.132292;stroke-miterlimit:4;stroke-dasharray:none;stop-color:#000000"
       d="m 55.699537,45.359089 v -9.70001 h -0.5 l -0.8,0.85 v 8.00001 l 0.8,0.85 z"
       id="path3808-3-2-5" />
    <text
       xml:space="preserve"
       style="font-size:3.65607px;line-height:1.25;font-family:Ste;-inkscape-font-specification:Ste;text-align:center;text-anchor:middle;stroke-width:0.0685512"
       x="59.582195"
       y="28.225895"
       id="text12559-0"><tspan
         sodipodi:role="line"
         style="font-style:normal;font-variant:normal;font-weight:bold;font-stretch:normal;font-family:sans-serif;-inkscape-font-specification:sans-serif;text-align:center;text-anchor:middle;stroke-width:0.0685512"
         x="59.582195"
         y="28.225895"
         id="tspan15561-8">Chicago Screws</tspan><tspan
         sodipodi:role="line"
         style="font-style:normal;font-variant:normal;font-weight:bold;font-stretch:normal;font-family:sans-serif;-inkscape-font-specification:sans-serif;text-align:center;text-anchor:middle;stroke-width:0.0685512"
         x="59.582195"
         y="32.845161"
         id="tspan52221-9">5mm</tspan></text>
    <rect
       style="fill:none;fill-opacity:1;stroke:#323232;stroke-width:0.132292;stroke-miterlimit:4;stroke-dasharray:none;stroke-opacity:1;stop-color:#000000"
       id="rect58265-2"
       width="25"
       height="48.736595"
       x="22.863247"
       y="-83.76786"
       transform="rotate(90)" />
    <text
       xml:space="preserve"
       style="font-size:3.65607px;line-height:1.25;font-family:Ste;-inkscape-font-specification:Ste;text-align:center;text-anchor:middle;stroke-width:0.0685512"
       x="59.582195"
       y="103.22591"
       id="text12559-9"><tspan
         sodipodi:role="line"
         style="font-style:normal;font-variant:normal;font-weight:bold;font-stretch:normal;font-family:sans-serif;-inkscape-font-specification:sans-serif;text-align:center;text-anchor:middle;stroke-width:0.0685512"
         x="59.582195"
         y="103.22591"
         id="tspan15561-5">Chicago Screws</tspan><tspan
         sodipodi:role="line"
         style="font-style:normal;font-variant:normal;font-weight:bold;font-stretch:normal;font-family:sans-serif;-inkscape-font-specification:sans-serif;text-align:center;text-anchor:middle;stroke-width:0.0685512"
         x="59.582195"
         y="107.84517"
         id="tspan52221-7">12mm</tspan></text>
    <rect
       style="fill:none;fill-opacity:1;stroke:#323232;stroke-width:0.132292;stroke-miterlimit:4;stroke-dasharray:none;stroke-opacity:1;stop-color:#000000"
       id="rect58265-5"
       width="25"
       height="48.736595"
       x="97.863235"
       y="-83.76786"
       transform="rotate(90)" />
    <rect
       style="fill:#c8c8c8;fill-opacity:1;stroke:#323232;stroke-width:0.114568;stroke-miterlimit:4;stroke-dasharray:none;stop-color:#000000"
       id="rect3806-9-5"
       width="5"
       height="15"
       x="-43.009125"
       y="-116.93616"
       transform="matrix(0,-1,-1,0,0,0)" />
    <path
       style="fill:#c8c8c8;fill-opacity:1;stroke:#323232;stroke-width:0.132292;stroke-miterlimit:4;stroke-dasharray:none;stop-color:#000000"
       d="m 101.93613,45.359114 v -9.7 h -0.5 l -0.8,0.85 v 8 l 0.8,0.85 z"
       id="path3808-3-3" />
    <text
       xml:space="preserve"
       style="font-size:3.65607px;line-height:1.25;font-family:Ste;-inkscape-font-specification:Ste;text-align:center;text-anchor:middle;stroke-width:0.0685512"
       x="108.31879"
       y="28.22592"
       id="text12559-9-6"><tspan
         sodipodi:role="line"
         style="font-style:normal;font-variant:normal;font-weight:bold;font-stretch:normal;font-family:sans-serif;-inkscape-font-specification:sans-serif;text-align:center;text-anchor:middle;stroke-width:0.0685512"
         x="108.31879"
         y="28.22592"
         id="tspan15561-5-7">Chicago Screws</tspan><tspan
         sodipodi:role="line"
         style="font-style:normal;font-variant:normal;font-weight:bold;font-stretch:normal;font-family:sans-serif;-inkscape-font-specification:sans-serif;text-align:center;text-anchor:middle;stroke-width:0.0685512"
         x="108.31879"
         y="32.845184"
         id="tspan52221-7-5">15mm</tspan></text>
    <rect
       style="fill:none;fill-opacity:1;stroke:#323232;stroke-width:0.132292;stroke-miterlimit:4;stroke-dasharray:none;stroke-opacity:1;stop-color:#000000"
       id="rect58265-5-6"
       width="25"
       height="48.736595"
       x="22.863251"
       y="-132.50446"
       transform="rotate(90)" />
    <text
       xml:space="preserve"
       style="font-size:3.65607px;line-height:1.25;font-family:Ste;-inkscape-font-specification:Ste;text-align:center;text-anchor:middle;stroke-width:0.0685512"
       x="108.31879"
       y="78.225922"
       id="text12559-9-8"><tspan
         sodipodi:role="line"
         style="font-style:normal;font-variant:normal;font-weight:bold;font-stretch:normal;font-family:sans-serif;-inkscape-font-specification:sans-serif;text-align:center;text-anchor:middle;stroke-width:0.0685512"
         x="108.31879"
         y="78.225922"
         id="tspan15561-5-3">Chicago Screws</tspan><tspan
         sodipodi:role="line"
         style="font-style:normal;font-variant:normal;font-weight:bold;font-stretch:normal;font-family:sans-serif;-inkscape-font-specification:sans-serif;text-align:center;text-anchor:middle;stroke-width:0.0685512"
         x="108.31879"
         y="82.845184"
         id="tspan52221-7-1">18mm</tspan></text>
    <rect
       style="fill:none;fill-opacity:1;stroke:#323232;stroke-width:0.132292;stroke-miterlimit:4;stroke-dasharray:none;stroke-opacity:1;stop-color:#000000"
       id="rect58265-5-4"
       width="25"
       height="48.736595"
       x="72.863251"
       y="-132.50446"
       transform="rotate(90)" />
    <rect
       style="fill:#c8c8c8;fill-opacity:1;stroke:#323232;stroke-width:0.132292;stroke-miterlimit:4;stroke-dasharray:none;stop-color:#000000"
       id="rect3806-0"
       width="5"
       height="20"
       x="-118.00911"
       y="-119.43616"
       transform="matrix(0,-1,-1,0,0,0)" />
    <path
       style="fill:#c8c8c8;fill-opacity:1;stroke:#323232;stroke-width:0.132292;stroke-miterlimit:4;stroke-dasharray:none;stop-color:#000000"
       d="m 99.436132,120.35911 v -9.7 h -0.5 l -0.8,0.85 v 8 l 0.8,0.85 z"
       id="path3808-8" />
    <text
       xml:space="preserve"
       style="font-size:3.65607px;line-height:1.25;font-family:Ste;-inkscape-font-specification:Ste;text-align:center;text-anchor:middle;stroke-width:0.0685512"
       x="108.31878"
       y="103.22592"
       id="text12559-9-8-1"><tspan
         sodipodi:role="line"
         style="font-style:normal;font-variant:normal;font-weight:bold;font-stretch:normal;font-family:sans-serif;-inkscape-font-specification:sans-serif;text-align:center;text-anchor:middle;stroke-width:0.0685512"
         x="108.31878"
         y="103.22592"
         id="tspan15561-5-3-07">Chicago Screws</tspan><tspan
         sodipodi:role="line"
         style="font-style:normal;font-variant:normal;font-weight:bold;font-stretch:normal;font-family:sans-serif;-inkscape-font-specification:sans-serif;text-align:center;text-anchor:middle;stroke-width:0.0685512"
         x="108.31878"
         y="107.84518"
         id="tspan52221-7-1-7">20mm</tspan></text>
    <rect
       style="fill:none;fill-opacity:1;stroke:#323232;stroke-width:0.132292;stroke-miterlimit:4;stroke-dasharray:none;stroke-opacity:1;stop-color:#000000"
       id="rect58265-5-4-1"
       width="25"
       height="48.736595"
       x="97.863251"
       y="-132.50446"
       transform="rotate(90)" />
    <text
       xml:space="preserve"
       style="font-size:3.65607px;line-height:1.25;font-family:Ste;-inkscape-font-specification:Ste;text-align:center;text-anchor:middle;stroke-width:0.0685512"
       x="157.05539"
       y="28.225937"
       id="text12559-9-8-7"><tspan
         sodipodi:role="line"
         style="font-style:normal;font-variant:normal;font-weight:bold;font-stretch:normal;font-family:sans-serif;-inkscape-font-specification:sans-serif;text-align:center;text-anchor:middle;stroke-width:0.0685512"
         x="157.05539"
         y="28.225937"
         id="tspan15561-5-3-0">Chicago Screws</tspan><tspan
         sodipodi:role="line"
         style="font-style:normal;font-variant:normal;font-weight:bold;font-stretch:normal;font-family:sans-serif;-inkscape-font-specification:sans-serif;text-align:center;text-anchor:middle;stroke-width:0.0685512"
         x="157.05539"
         y="32.845203"
         id="tspan52221-7-1-2">25mm</tspan></text>
    <rect
       style="fill:none;fill-opacity:1;stroke:#323232;stroke-width:0.132292;stroke-miterlimit:4;stroke-dasharray:none;stroke-opacity:1;stop-color:#000000"
       id="rect58265-5-4-2"
       width="25"
       height="48.736595"
       x="22.863251"
       y="-181.24104"
       transform="rotate(90)" />
    <rect
       style="fill:#c8c8c8;fill-opacity:1;stroke:#323232;stroke-width:0.132292;stroke-miterlimit:4;stroke-dasharray:none;stop-color:#000000"
       id="rect3802-5"
       width="5"
       height="25"
       x="-43.009113"
       y="-170.67276"
       transform="matrix(0,-1,-1,0,0,0)" />
    <path
       style="fill:#c8c8c8;fill-opacity:1;stroke:#323232;stroke-width:0.132292;stroke-miterlimit:4;stroke-dasharray:none;stop-color:#000000"
       d="m 145.67276,45.359107 v -9.7 h -0.5 l -0.8,0.84999 v 8.00001 l 0.8,0.85 z"
       id="path3804-2" />
    <text
       xml:space="preserve"
       style="font-size:3.65607px;line-height:1.25;font-family:Ste;-inkscape-font-specification:Ste;text-align:center;text-anchor:middle;stroke-width:0.0685512"
       x="157.05539"
       y="53.225925"
       id="text12559-9-8-7-6"><tspan
         sodipodi:role="line"
         style="font-style:normal;font-variant:normal;font-weight:bold;font-stretch:normal;font-family:sans-serif;-inkscape-font-specification:sans-serif;text-align:center;text-anchor:middle;stroke-width:0.0685512"
         x="157.05539"
         y="53.225925"
         id="tspan15561-5-3-0-3">Chicago Screws</tspan><tspan
         sodipodi:role="line"
         style="font-style:normal;font-variant:normal;font-weight:bold;font-stretch:normal;font-family:sans-serif;-inkscape-font-specification:sans-serif;text-align:center;text-anchor:middle;stroke-width:0.0685512"
         x="157.05539"
         y="57.845192"
         id="tspan52221-7-1-2-2">30mm</tspan></text>
    <rect
       style="fill:none;fill-opacity:1;stroke:#323232;stroke-width:0.132292;stroke-miterlimit:4;stroke-dasharray:none;stroke-opacity:1;stop-color:#000000"
       id="rect58265-5-4-2-2"
       width="25"
       height="48.736595"
       x="47.863255"
       y="-181.24104"
       transform="rotate(90)" />
    <text
       xml:space="preserve"
       style="font-size:3.65607px;line-height:1.25;font-family:Ste;-inkscape-font-specification:Ste;text-align:center;text-anchor:middle;stroke-width:0.0685512"
       x="47.527176"
       y="130.44478"
       id="text12559-9-8-7-6-0"><tspan
         sodipodi:role="line"
         style="font-style:normal;font-variant:normal;font-weight:bold;font-stretch:normal;font-family:sans-serif;-inkscape-font-specification:sans-serif;text-align:center;text-anchor:middle;stroke-width:0.0685512"
         x="47.527176"
         y="130.44478"
         id="tspan52221-7-1-2-2-8">Chicago </tspan><tspan
         sodipodi:role="line"
         style="font-style:normal;font-variant:normal;font-weight:bold;font-stretch:normal;font-family:sans-serif;-inkscape-font-specification:sans-serif;text-align:center;text-anchor:middle;stroke-width:0.0685512"
         x="47.527176"
         y="135.06404"
         id="tspan63006">Screw </tspan><tspan
         sodipodi:role="line"
         style="font-style:normal;font-variant:normal;font-weight:bold;font-stretch:normal;font-family:sans-serif;-inkscape-font-specification:sans-serif;text-align:center;text-anchor:middle;stroke-width:0.0685512"
         x="47.527176"
         y="139.6833"
         id="tspan63008">Ends</tspan></text>
    <path
       id="rect58265-5-4-2-2-9"
       style="fill:none;fill-opacity:1;stroke:#323232;stroke-width:0.132292;stroke-miterlimit:4;stroke-dasharray:none;stroke-opacity:1;stop-color:#000000"
       d="m 37.947922,126.89151 v 13.77332 h 29.59767 v -13.77332 z"
       sodipodi:nodetypes="ccccc" />
    <text
       xml:space="preserve"
       style="font-size:3.65607px;line-height:1.25;font-family:Ste;-inkscape-font-specification:Ste;text-align:center;text-anchor:middle;stroke-width:0.0685512"
       x="157.05539"
       y="78.225929"
       id="text12559-9-8-7-6-9"><tspan
         sodipodi:role="line"
         style="font-style:normal;font-variant:normal;font-weight:bold;font-stretch:normal;font-family:sans-serif;-inkscape-font-specification:sans-serif;text-align:center;text-anchor:middle;stroke-width:0.0685512"
         x="157.05539"
         y="78.225929"
         id="tspan15561-5-3-0-3-3">Chicago Screws</tspan><tspan
         sodipodi:role="line"
         style="font-style:normal;font-variant:normal;font-weight:bold;font-stretch:normal;font-family:sans-serif;-inkscape-font-specification:sans-serif;text-align:center;text-anchor:middle;stroke-width:0.0685512"
         x="157.05539"
         y="82.845192"
         id="tspan52221-7-1-2-2-6">35mm</tspan></text>
    <rect
       style="fill:none;fill-opacity:1;stroke:#323232;stroke-width:0.132292;stroke-miterlimit:4;stroke-dasharray:none;stroke-opacity:1;stop-color:#000000"
       id="rect58265-5-4-2-2-4"
       width="25"
       height="48.736595"
       x="72.863258"
       y="-181.24104"
       transform="rotate(90)" />
    <text
       xml:space="preserve"
       style="font-size:3.65607px;line-height:1.25;font-family:Ste;-inkscape-font-specification:Ste;text-align:center;text-anchor:middle;stroke-width:0.0685512"
       x="157.05539"
       y="103.22592"
       id="text12559-9-8-7-6-9-0"><tspan
         sodipodi:role="line"
         style="font-style:normal;font-variant:normal;font-weight:bold;font-stretch:normal;font-family:sans-serif;-inkscape-font-specification:sans-serif;text-align:center;text-anchor:middle;stroke-width:0.0685512"
         x="157.05539"
         y="103.22592"
         id="tspan15561-5-3-0-3-3-0">Chicago Screws</tspan><tspan
         sodipodi:role="line"
         style="font-style:normal;font-variant:normal;font-weight:bold;font-stretch:normal;font-family:sans-serif;-inkscape-font-specification:sans-serif;text-align:center;text-anchor:middle;stroke-width:0.0685512"
         x="157.05539"
         y="107.84518"
         id="tspan52221-7-1-2-2-6-5">40mm</tspan></text>
    <rect
       style="fill:none;fill-opacity:1;stroke:#323232;stroke-width:0.132292;stroke-miterlimit:4;stroke-dasharray:none;stroke-opacity:1;stop-color:#000000"
       id="rect58265-5-4-2-2-4-6"
       width="25"
       height="48.736595"
       x="97.863243"
       y="-181.24104"
       transform="rotate(90)" />
    <path
       id="path4300-7"
       style="fill:none;fill-opacity:1;stroke:#323232;stroke-width:0.132292;stroke-miterlimit:4;stroke-dasharray:none;stroke-opacity:1;stop-color:#000000"
       d="m 25.333461,42.440393 c -1.193446,7.92e-4 -2.323847,0.267994 -3.082499,0.728636 h -0.0026 l -0.0078,0.0062 c -0.07489,0.04527 -0.145756,0.09217 -0.212389,0.14056 h -0.0021 l -0.01912,0.0155 c -0.0542,0.04073 -0.105396,0.08245 -0.153479,0.125056 l -0.854729,0.696081 -0.376043,0.511957 -0.135036,0.573766 -0.0041,0.0021 5.16e-4,5.16e-4 v 0.0052 l -5.16e-4,0.001 5.16e-4,0.494027 c 0.0025,0.849483 0.893919,1.636366 2.349727,2.074291 v 12.925308 c -5.9e-5,0.690397 1.119311,1.250082 2.500106,1.250053 1.380795,3e-5 2.500166,-0.559655 2.500107,-1.250053 V 47.815258 c 1.455832,-0.437918 2.347226,-1.224802 2.349788,-2.074291 v -0.500229 -5.16e-4 h -5.19e-4 l -0.116489,-0.529299 -0.334644,-0.558491 -1.074869,-0.836641 h -0.01602 c -0.744643,-0.547545 -1.983013,-0.875325 -3.307292,-0.875398 z"
       sodipodi:nodetypes="sccccccccccccccccccccccccccccss" />
    <path
       id="rect2708-6-0"
       style="color:#000000;fill:none;stroke:#323232;stroke-width:0.132292;stroke-opacity:1;-inkscape-stroke:none"
       d="m 25.267129,76.394137 a 3.925081,1.9625405 5.8389398e-6 0 0 2.842205,-0.573608 3.925081,1.9625405 5.8389398e-6 0 0 0.452167,-0.273368 c 5.72e-4,0 0.0015,0 0.0021,0 0.465037,-0.27187 1.470216,-0.716788 1.470195,-2.014347 a 4.6999707,2.3499854 0 0 1 0,-5.18e-4 v -0.500227 a 4.6999707,2.3499853 0 0 0 -3.199805,-2.225704 v -0.392224 c 0.04047,0.01639 0.07648,0.03281 0.106453,0.04961 0.0849,0.04755 0.114376,0.091 0.118856,0.107487 l 0.06098,-0.01654 c 0,0 5.16e-4,5.16e-4 5.16e-4,5.16e-4 0.02969,0.03128 0.04908,0.0638 0.05788,0.09612 l 0.05064,-0.0155 c -0.0094,-0.03464 -0.02741,-0.06676 -0.05219,-0.09664 l 0.171051,-0.04599 c -0.0363,-0.133422 -0.138965,-0.222295 -0.261483,-0.290939 -0.07371,-0.04129 -0.15867,-0.07641 -0.252698,-0.106971 v -0.514696 c 0.04047,0.01607 0.07648,0.0323 0.106453,0.04909 0.0849,0.04755 0.114376,0.09307 0.118856,0.109556 l 0.06149,-0.01705 c 0.02969,0.03079 0.04908,0.06276 0.05788,0.09509 l 0.05064,-0.01344 c -0.0094,-0.03458 -0.02747,-0.06694 -0.05219,-0.09715 l 0.171051,-0.04754 c -0.0363,-0.133421 -0.138965,-0.222294 -0.261483,-0.290938 -0.07371,-0.04129 -0.15867,-0.07641 -0.252698,-0.106968 v -0.5147 c 0.04047,0.01607 0.07648,0.03281 0.106453,0.04961 0.0849,0.04755 0.114376,0.09255 0.118856,0.109037 l 0.06149,-0.01654 c 0.02969,0.03079 0.04908,0.06225 0.05788,0.09457 l 0.05064,-0.01344 c -0.0094,-0.03437 -0.0272,-0.06658 -0.05168,-0.09663 l 0.170532,-0.04599 c -0.0363,-0.133421 -0.138965,-0.224361 -0.261483,-0.293005 -0.07371,-0.04129 -0.15866,-0.07641 -0.252698,-0.106971 v -0.394808 a 1.5000004,0.75000024 0 0 0 -0.02222,-0.127122 c 0.04972,0.01911 0.09335,0.0386 0.128675,0.05839 0.0849,0.04755 0.114376,0.091 0.118856,0.107487 l 0.05994,-0.01602 c 0.03051,0.03125 0.05048,0.06327 0.05943,0.09612 l 0.05064,-0.01344 c -0.0095,-0.03491 -0.02761,-0.06772 -0.05271,-0.09818 l 0.171567,-0.04651 c -0.0363,-0.133422 -0.138965,-0.222295 -0.261483,-0.290939 -0.122531,-0.06864 -0.275116,-0.120581 -0.451135,-0.162263 -0.08552,-0.02025 -0.17675,-0.03755 -0.272852,-0.05271 a 1.5000004,0.75000024 0 0 0 -1.028877,-0.205155 1.5000004,0.75000024 0 0 0 -1.497584,0.713134 c -0.304829,0.28276 -0.477988,0.617551 -0.478007,0.91984 h 0.132808 c -0.0062,0.03816 -0.0098,0.07518 -0.0098,0.111104 h 0.05271 c 3e-6,-0.0355 0.0034,-0.07241 0.01034,-0.111104 h 0.114723 c 5e-6,-0.120634 0.05798,-0.290092 0.175183,-0.461471 v 0.375688 c -0.303508,0.282556 -0.475932,0.618254 -0.47594,0.919842 h 0.132808 c -0.0062,0.03821 -0.0098,0.07518 -0.0098,0.111104 h 0.05271 c 3e-6,-0.03535 0.0034,-0.07259 0.01034,-0.111104 h 0.114723 c 5e-6,-0.120634 0.05798,-0.290092 0.175183,-0.46147 v 0.375687 c -0.303508,0.282345 -0.475921,0.616188 -0.47594,0.917773 h 0.132808 c -0.0062,0.03815 -0.0098,0.07518 -0.0098,0.111104 h 0.05271 c 3e-6,-0.0355 0.0034,-0.07248 0.01034,-0.111104 h 0.114723 c 5e-6,-0.120636 0.05798,-0.289118 0.175183,-0.45992 v 0.375688 c -0.124145,0.115488 -0.226419,0.239881 -0.303858,0.366903 a 4.6999707,2.3499853 0 0 0 -2.896465,2.168342 v 0.500227 a 4.6999707,2.3499854 0 0 1 0,5.18e-4 c 4.18e-4,0.732282 0.504931,1.346253 1.503786,2.038636 l 0.346137,-0.172091 a 4.6999707,2.3499854 0 0 0 0.07648,0.02894 l -0.0016,0.001 0.499195,0.600996 a 3.925081,1.9625405 5.8389398e-6 0 0 2.209167,0.363802 z" />
    <path
       id="path4300-1"
       style="fill:#c8c8c8;fill-opacity:1;stroke:none;stroke-width:0.0935445;stroke-miterlimit:4;stroke-dasharray:none;stroke-opacity:1;stop-color:#000000"
       d="m 25.17382,81.139523 a 3.9999999,2 0 0 0 -3.30574,0.875397 h -0.002 l -0.0191,0.0155 a 3.9999999,2 0 0 0 -0.15348,0.125058 l -0.85472,0.696082 h 0.37723 a 3.9999999,2 0 0 0 -0.0424,0.287838 3.9999999,2 0 0 0 3.99976,2.000395 3.9999999,2 0 0 0 3.99976,-2.000395 3.9999999,2 0 0 0 -0.0419,-0.287838 h 0.4408 l -1.07487,-0.836642 h -0.016 a 3.9999999,2 0 0 0 -3.30781,-0.875397 z" />
    <ellipse
       style="fill:#969696;fill-opacity:1;stroke:none;stroke-width:0.0935446;stroke-miterlimit:4;stroke-dasharray:none;stroke-opacity:1;stop-color:#000000"
       id="path4302-4"
       cx="-25.173826"
       cy="-83.939697"
       rx="4.8500004"
       ry="2.4250002"
       transform="scale(-1)" />
    <path
       id="path4302-2-5"
       style="fill:#646464;fill-opacity:1;stroke:none;stroke-width:0.0935445;stroke-miterlimit:4;stroke-dasharray:none;stroke-opacity:1;stop-color:#000000"
       d="m 25.17383,86.864591 a 4.8500003,2.4250002 0 0 0 4.84983,-2.424658 v -0.500226 h -0.10438 a 4.8500003,2.4250002 0 0 0 -4.74545,-1.924947 4.8500003,2.4250002 0 0 0 -4.74545,1.924947 h -0.10439 v 0.500226 a 4.8500003,2.4250002 0 0 0 4.84984,2.424658 z" />
    <path
       id="rect2708-6-02"
       style="fill:#c8c8c8;fill-opacity:1;stroke:none;stroke-width:0.132292;stroke-miterlimit:4;stroke-dasharray:none;stop-color:#000000"
       d="m 26.67404,111.73152 v -4.99969 a 1.5000004,0.75000024 0 0 0 -1.50016,-0.75035 1.5000004,0.75000024 0 0 0 -1.49965,0.75035 1.5000004,0.75000024 0 0 0 0,0.017 v 4.98264 z" />
    <path
       style="fill:#c8c8c8;fill-opacity:1;stroke:#323232;stroke-width:0.132292;stroke-miterlimit:4;stroke-dasharray:none;stop-color:#000000"
       d="m 27.04398,110.06507 -3.74,0.83334"
       id="path3118-5-9" />
    <path
       style="fill:#c8c8c8;fill-opacity:1;stroke:#323232;stroke-width:0.132292;stroke-miterlimit:4;stroke-dasharray:none;stop-color:#000000"
       d="m 27.04398,110.89841 -3.74,0.83333"
       id="path3120-6-5" />
    <path
       id="rect3806-9-3-8"
       style="fill:#969696;fill-opacity:1;stroke:none;stroke-width:0.114568;stroke-miterlimit:4;stroke-dasharray:none;stop-color:#000000"
       d="m 25.17382,83.189525 a 2.4999999,1.2499999 0 0 0 -2.5001,1.250053 v 15.000118 h 5.00021 V 84.439578 a 2.4999999,1.2499999 0 0 0 -2.50011,-1.250053 z" />
    <ellipse
       style="fill:#646464;fill-opacity:1;stroke:none;stroke-width:0.0935446;stroke-miterlimit:4;stroke-dasharray:none;stop-color:#000000"
       id="path1790-4-6"
       cx="-25.173826"
       cy="-99.43959"
       transform="scale(-1)"
       rx="2.5"
       ry="1.25" />
    <ellipse
       style="fill:#000000;fill-opacity:1;stroke:none;stroke-width:0.0935446;stroke-miterlimit:4;stroke-dasharray:none;stop-color:#000000"
       id="path1790-2-6-3"
       cx="-25.173826"
       cy="-99.43959"
       transform="scale(-1)"
       rx="2"
       ry="1" />
    <path
       id="path22308-3-6"
       style="fill:#c8c8c8;fill-opacity:1;stroke:#000000;stroke-width:0.0935446;stroke-miterlimit:4;stroke-dasharray:none;stroke-opacity:1;stop-color:#000000"
       d="m 21.9783,113.37058 5.47235,-2.73617 a 3.925081,1.9625405 5.8389398e-6 0 0 -5.0514,0.20974 3.925081,1.9625405 5.8389398e-6 0 0 -0.42095,2.52643 z m 0.9201,0.45895 a 3.925081,1.9625405 5.8389398e-6 0 0 5.05176,-0.20993 3.925081,1.9625405 5.8389398e-6 0 0 0.41949,-2.52569 z" />
    <path
       id="path23910-7-9-3"
       style="fill:none;fill-opacity:1;stroke:#969696;stroke-width:0.3;stroke-miterlimit:4;stroke-dasharray:none;stroke-opacity:1;stop-color:#000000"
       d="m 27.04398,109.23174 c -0.0816,-0.29982 -0.90879,-0.47135 -1.84795,-0.46198 -1.1726,0.0117 -1.84794,0.83413 -1.84795,1.34442"
       sodipodi:nodetypes="csc" />
    <path
       id="path48909-4"
       style="fill:none;fill-opacity:1;stroke:#dcdcdc;stroke-width:0.0529167;stroke-miterlimit:4;stroke-dasharray:none;stroke-opacity:1;stop-color:#000000"
       d="m 27.04398,109.34283 c -0.0816,-0.29982 -0.90879,-0.47136 -1.84795,-0.46199 -1.1726,0.0117 -1.84794,0.83413 -1.84795,1.34443"
       sodipodi:nodetypes="csc" />
    <path
       id="path22310-6"
       style="fill:#969696;fill-opacity:1;stroke:none;stroke-width:0.0935445;stroke-miterlimit:4;stroke-dasharray:none;stroke-opacity:1;stop-color:#000000"
       d="m 25.17388,114.08176 a 4.6999707,2.3499853 0 0 0 4.59093,-1.85001 h 0.10904 v -0.50023 a 4.6999707,2.3499853 0 0 0 -4.69997,-2.34973 4.6999707,2.3499853 0 0 0 -4.69998,2.34973 v 0.50023 h 0.10801 a 4.6999707,2.3499853 0 0 0 4.59197,1.85001 z" />
    <path
       id="path23910-2"
       style="fill:none;fill-opacity:1;stroke:#969696;stroke-width:0.3;stroke-miterlimit:4;stroke-dasharray:none;stroke-opacity:1;stop-color:#000000"
       d="m 27.04398,106.73189 c -0.0816,-0.29982 -0.90879,-0.47136 -1.84795,-0.46199 -1.1726,0.0117 -1.84794,0.83413 -1.84795,1.34443"
       sodipodi:nodetypes="csc" />
    <path
       id="path48911-4"
       style="fill:none;fill-opacity:1;stroke:#dcdcdc;stroke-width:0.0529167;stroke-miterlimit:4;stroke-dasharray:none;stroke-opacity:1;stop-color:#000000"
       d="m 27.04398,106.84297 c -0.0816,-0.29982 -0.90879,-0.47135 -1.84795,-0.46199 -1.1726,0.0117 -1.84794,0.83414 -1.84795,1.34443"
       sodipodi:nodetypes="csc" />
    <ellipse
       style="fill:#000000;fill-opacity:1;stroke:none;stroke-width:0.0529167;stroke-miterlimit:4;stroke-dasharray:none;stroke-opacity:1;stop-color:#000000"
       id="path22310-4-2"
       cx="-25.173964"
       cy="-112.23196"
       rx="4.6999707"
       ry="2.3499854"
       transform="scale(-1)" />
    <path
       id="path31058-9"
       style="fill:#969696;fill-opacity:1;stroke:none;stroke-width:0.0529167;stroke-miterlimit:4;stroke-dasharray:none;stroke-opacity:1;stop-color:#000000"
       d="m 24.85348,114.29881 c 1.41406,0.004 2.98886,-0.0523 3.55017,-0.0522 0.4651,-0.27191 1.47048,-0.71691 1.4702,-2.01487 -8e-4,-0.23045 -0.0694,-0.45959 -0.20361,-0.68006 -0.13034,-0.18983 -0.1984,-0.28762 -0.32194,-0.39946 -0.11643,-0.1054 -0.35822,-0.28726 -0.38654,-0.30851 l -0.004,-0.004 c -0.002,-0.002 -0.004,-0.003 -0.007,-0.004 -2e-4,-1.3e-4 -3.2e-4,-3.9e-4 -5.2e-4,-5.1e-4 l -6.55206,3.29282 c 0.35229,0.12893 1.35481,0.16773 2.45464,0.17053 z" />
    <path
       id="path23910-7-7"
       style="fill:none;fill-opacity:1;stroke:#969696;stroke-width:0.3;stroke-miterlimit:4;stroke-dasharray:none;stroke-opacity:1;stop-color:#000000"
       d="m 27.04398,108.39841 c -0.0816,-0.29982 -0.90879,-0.47135 -1.84795,-0.46199 -1.1726,0.0117 -1.84794,0.83413 -1.84795,1.34443"
       sodipodi:nodetypes="csc" />
    <path
       id="path23910-9-2"
       style="fill:none;fill-opacity:1;stroke:#969696;stroke-width:0.3;stroke-miterlimit:4;stroke-dasharray:none;stroke-opacity:1;stop-color:#000000"
       d="m 27.04398,107.56507 c -0.0816,-0.29981 -0.90879,-0.47135 -1.84795,-0.46198 -1.1726,0.0117 -1.84794,0.83413 -1.84795,1.34442"
       sodipodi:nodetypes="csc" />
    <path
       id="path48913-6"
       style="fill:none;fill-opacity:1;stroke:#dcdcdc;stroke-width:0.0529167;stroke-miterlimit:4;stroke-dasharray:none;stroke-opacity:1;stop-color:#000000"
       d="m 27.04398,107.67616 c -0.0816,-0.29982 -0.90879,-0.47135 -1.84795,-0.46199 -1.1726,0.0117 -1.84794,0.83413 -1.84795,1.34443"
       sodipodi:nodetypes="csc" />
    <path
       id="path30588-0"
       style="fill:#969696;fill-opacity:1;stroke:none;stroke-width:0.0529167;stroke-miterlimit:4;stroke-dasharray:none;stroke-opacity:1;stop-color:#000000"
       d="m 21.97759,114.27048 5.49175,-2.72655 0.56431,-1.16892 5.3e-4,-0.006 c -0.82029,-0.31524 -1.82569,-0.48635 -2.86029,-0.48679 -2.59552,0 -4.69968,1.05197 -4.69997,2.34973 1.8e-4,0.73251 0.50459,1.34618 1.50368,2.03873 z"
       sodipodi:nodetypes="ccccccc" />
    <path
       id="path22308-8"
       style="fill:#c8c8c8;fill-opacity:1;stroke:none;stroke-width:0.0935446;stroke-miterlimit:4;stroke-dasharray:none;stroke-opacity:1;stop-color:#000000"
       d="m 21.97759,114.27048 5.47235,-2.73617 a 3.925081,1.9625405 5.8389398e-6 0 0 -5.0514,0.20974 3.925081,1.9625405 5.8389398e-6 0 0 -0.42095,2.52643 z m 0.9201,0.45895 a 3.925081,1.9625405 5.8389398e-6 0 0 5.05176,-0.20993 3.925081,1.9625405 5.8389398e-6 0 0 0.41949,-2.52569 z" />
    <path
       id="path48915-8"
       style="fill:none;fill-opacity:1;stroke:#dcdcdc;stroke-width:0.0529167;stroke-miterlimit:4;stroke-dasharray:none;stroke-opacity:1;stop-color:#000000"
       d="m 27.04398,108.50949 c -0.0816,-0.29982 -0.90879,-0.47135 -1.84795,-0.46198 -1.1726,0.0117 -1.84794,0.83413 -1.84795,1.34442"
       sodipodi:nodetypes="csc" />
    <path
       style="fill:#646464;fill-opacity:1;stroke:none;stroke-width:0.132292;stroke-miterlimit:4;stroke-dasharray:none;stroke-opacity:1;stop-color:#000000"
       d="m 28.36894,111.99381 0.58344,-1.15946 -6.55377,3.29413 0.49908,0.60095 z"
       id="path31023-6" />
    <path
       id="path4300-7-3"
       style="fill:none;fill-opacity:1;stroke:#323232;stroke-width:0.132292;stroke-miterlimit:4;stroke-dasharray:none;stroke-opacity:1;stop-color:#000000"
       d="m 25.17343,81.139612 c -1.19345,7.92e-4 -2.32385,0.267994 -3.0825,0.728636 h -0.003 l -0.008,0.0062 c -0.0749,0.04527 -0.14575,0.09217 -0.21239,0.14056 h -0.002 l -0.0191,0.0155 c -0.0542,0.04073 -0.10539,0.08245 -0.15348,0.125056 l -0.85473,0.696081 -0.37604,0.511957 -0.13503,0.573766 -0.004,0.0021 5.1e-4,5.16e-4 v 0.0052 l -5.1e-4,0.001 5.1e-4,0.494027 c 0.002,0.849483 0.89392,1.636366 2.34973,2.074291 V 99.43981 c -6e-5,0.6904 1.11931,1.25008 2.5001,1.25005 1.3808,3e-5 2.50017,-0.55965 2.50011,-1.25005 V 86.514477 c 1.45583,-0.437918 2.34723,-1.224802 2.34979,-2.074291 v -0.500229 -5.16e-4 h -5.2e-4 L 29.90639,83.410142 29.57175,82.851651 28.49688,82.01501 h -0.016 c -0.74464,-0.547545 -1.98301,-0.875325 -3.30729,-0.875398 z"
       sodipodi:nodetypes="sccccccccccccccccccccccccccccss" />
    <path
       id="rect2708-6-0-0"
       style="color:#000000;fill:none;stroke:#323232;stroke-width:0.132292;stroke-opacity:1;-inkscape-stroke:none"
       d="m 25.1071,115.09336 a 3.925081,1.9625405 5.8389398e-6 0 0 2.8422,-0.57361 3.925081,1.9625405 5.8389398e-6 0 0 0.45217,-0.27337 c 5.7e-4,0 0.002,0 0.002,0 0.46504,-0.27187 1.47022,-0.71678 1.4702,-2.01434 a 4.6999707,2.3499854 0 0 1 0,-5.2e-4 v -0.50023 a 4.6999707,2.3499853 0 0 0 -3.19981,-2.2257 v -0.39223 c 0.0405,0.0164 0.0765,0.0328 0.10645,0.0496 0.0849,0.0476 0.11438,0.091 0.11886,0.10749 l 0.061,-0.0165 c 0,0 5.2e-4,5.2e-4 5.2e-4,5.2e-4 0.0297,0.0313 0.0491,0.0638 0.0579,0.0961 l 0.0506,-0.0155 c -0.009,-0.0346 -0.0274,-0.0668 -0.0522,-0.0966 l 0.17105,-0.046 c -0.0363,-0.13342 -0.13897,-0.2223 -0.26149,-0.29094 -0.0737,-0.0413 -0.15867,-0.0764 -0.25269,-0.10697 v -0.5147 c 0.0405,0.0161 0.0765,0.0323 0.10645,0.0491 0.0849,0.0476 0.11437,0.0931 0.11885,0.10956 l 0.0615,-0.017 c 0.0297,0.0308 0.0491,0.0628 0.0579,0.0951 l 0.0506,-0.0134 c -0.009,-0.0346 -0.0275,-0.0669 -0.0522,-0.0971 l 0.17106,-0.0475 c -0.0363,-0.13342 -0.13897,-0.2223 -0.26149,-0.29094 -0.0737,-0.0413 -0.15867,-0.0764 -0.2527,-0.10697 v -0.5147 c 0.0405,0.0161 0.0765,0.0328 0.10646,0.0496 0.0849,0.0476 0.11437,0.0926 0.11885,0.10904 l 0.0615,-0.0165 c 0.0297,0.0308 0.0491,0.0623 0.0579,0.0946 l 0.0506,-0.0134 c -0.009,-0.0344 -0.0272,-0.0666 -0.0517,-0.0966 l 0.17054,-0.046 c -0.0363,-0.13342 -0.13897,-0.22436 -0.26149,-0.29301 -0.0737,-0.0413 -0.15866,-0.0764 -0.2527,-0.10697 v -0.39481 a 1.5000004,0.75000024 0 0 0 -0.0222,-0.12712 c 0.0497,0.0191 0.0934,0.0386 0.12868,0.0584 0.0849,0.0476 0.11438,0.091 0.11886,0.10749 l 0.0599,-0.016 c 0.0305,0.0312 0.0505,0.0633 0.0594,0.0961 l 0.0506,-0.0134 c -0.01,-0.0349 -0.0276,-0.0677 -0.0527,-0.0982 l 0.17156,-0.0465 c -0.0363,-0.13342 -0.13896,-0.2223 -0.26148,-0.29094 -0.12253,-0.0686 -0.27512,-0.12058 -0.45114,-0.16226 -0.0855,-0.0203 -0.17675,-0.0376 -0.27285,-0.0527 a 1.5000004,0.75000024 0 0 0 -1.02887,-0.20516 1.5000004,0.75000024 0 0 0 -1.49759,0.71314 c -0.30483,0.28276 -0.47799,0.61755 -0.47801,0.91984 h 0.13281 c -0.006,0.0382 -0.01,0.0752 -0.01,0.1111 h 0.0527 c 10e-6,-0.0355 0.003,-0.0724 0.0103,-0.1111 h 0.11473 c 0,-0.12064 0.058,-0.2901 0.17518,-0.46147 v 0.37568 c -0.30351,0.28256 -0.47593,0.61826 -0.47594,0.91985 h 0.13281 c -0.006,0.0382 -0.01,0.0752 -0.01,0.1111 h 0.0527 c 0,-0.0353 0.003,-0.0726 0.0103,-0.1111 h 0.11472 c 0,-0.12064 0.058,-0.2901 0.17518,-0.46147 v 0.37568 c -0.30351,0.28235 -0.47592,0.61619 -0.47594,0.91778 h 0.13281 c -0.006,0.0382 -0.01,0.0752 -0.01,0.1111 h 0.0527 c 0,-0.0355 0.003,-0.0725 0.0103,-0.1111 h 0.11472 c 10e-6,-0.12064 0.058,-0.28912 0.17519,-0.45992 v 0.37568 c -0.12415,0.11549 -0.22642,0.23988 -0.30386,0.36691 a 4.6999707,2.3499853 0 0 0 -2.89647,2.16834 v 0.50022 a 4.6999707,2.3499854 0 0 1 0,5.2e-4 c 4.2e-4,0.73228 0.50493,1.34626 1.50379,2.03864 l 0.34614,-0.17209 a 4.6999707,2.3499854 0 0 0 0.0765,0.0289 l -0.002,0.001 0.49919,0.60099 a 3.925081,1.9625405 5.8389398e-6 0 0 2.20917,0.36381 z" />
    <path
       id="path4300-1-2"
       style="fill:#c8c8c8;fill-opacity:1;stroke:none;stroke-width:0.0935445;stroke-miterlimit:4;stroke-dasharray:none;stroke-opacity:1;stop-color:#000000"
       d="m 42.930642,165.3106 a 2,3.9999999 0 0 0 0.87539,3.30574 v 0.002 l 0.0155,0.0191 a 2,3.9999999 0 0 0 0.12506,0.15348 l 0.69608,0.85472 v -0.37723 a 2,3.9999999 0 0 0 0.28784,0.0424 2,3.9999999 0 0 0 2.0004,-3.99976 2,3.9999999 0 0 0 -2.0004,-3.99976 2,3.9999999 0 0 0 -0.28784,0.0419 v -0.4408 l -0.83664,1.07487 v 0.016 a 2,3.9999999 0 0 0 -0.87539,3.30781 z" />
    <ellipse
       style="fill:#969696;fill-opacity:1;stroke:none;stroke-width:0.0935446;stroke-miterlimit:4;stroke-dasharray:none;stroke-opacity:1;stop-color:#000000"
       id="path4302-4-2"
       cx="165.31058"
       cy="-45.730804"
       rx="4.8500004"
       ry="2.4250002"
       transform="rotate(90)" />
    <path
       id="path4302-2-5-65"
       style="fill:#646464;fill-opacity:1;stroke:none;stroke-width:0.0935445;stroke-miterlimit:4;stroke-dasharray:none;stroke-opacity:1;stop-color:#000000"
       d="m 48.655702,165.31059 a 2.4250002,4.8500003 0 0 0 -2.42465,-4.84983 h -0.50023 v 0.10438 a 2.4250002,4.8500003 0 0 0 -1.92495,4.74545 2.4250002,4.8500003 0 0 0 1.92495,4.74545 v 0.10439 h 0.50023 a 2.4250002,4.8500003 0 0 0 2.42465,-4.84984 z" />
    <path
       id="rect2708-6-02-5"
       style="fill:#c8c8c8;fill-opacity:1;stroke:none;stroke-width:0.132292;stroke-miterlimit:4;stroke-dasharray:none;stop-color:#000000"
       d="m 72.464292,163.81038 h -4.99969 a 0.75000024,1.5000004 0 0 0 -0.75035,1.50016 0.75000024,1.5000004 0 0 0 0.75035,1.49965 0.75000024,1.5000004 0 0 0 0.017,0 h 4.98264 z" />
    <path
       style="fill:#c8c8c8;fill-opacity:1;stroke:#323232;stroke-width:0.132292;stroke-miterlimit:4;stroke-dasharray:none;stop-color:#000000"
       d="m 70.797842,163.44044 0.83334,3.74"
       id="path3118-5-9-8" />
    <path
       style="fill:#c8c8c8;fill-opacity:1;stroke:#323232;stroke-width:0.132292;stroke-miterlimit:4;stroke-dasharray:none;stop-color:#000000"
       d="m 71.631182,163.44044 0.83333,3.74"
       id="path3120-6-5-0" />
    <path
       id="rect3806-9-3-8-1"
       style="fill:#969696;fill-opacity:1;stroke:none;stroke-width:0.114568;stroke-miterlimit:4;stroke-dasharray:none;stop-color:#000000"
       d="m 44.980642,165.3106 a 1.2499999,2.4999999 0 0 0 1.25005,2.5001 h 15.00012 v -5.00021 h -15.00012 a 1.2499999,2.4999999 0 0 0 -1.25005,2.50011 z" />
    <ellipse
       style="fill:#646464;fill-opacity:1;stroke:none;stroke-width:0.0935446;stroke-miterlimit:4;stroke-dasharray:none;stop-color:#000000"
       id="path1790-4-6-1"
       cx="165.31058"
       cy="-61.230705"
       rx="2.5"
       ry="1.25"
       transform="rotate(90)" />
    <ellipse
       style="fill:#000000;fill-opacity:1;stroke:none;stroke-width:0.0935446;stroke-miterlimit:4;stroke-dasharray:none;stop-color:#000000"
       id="path1790-2-6-3-3"
       cx="165.31058"
       cy="-61.230705"
       rx="2"
       ry="1"
       transform="rotate(90)" />
    <path
       id="path22308-3-6-5"
       style="fill:#c8c8c8;fill-opacity:1;stroke:#000000;stroke-width:0.0935446;stroke-miterlimit:4;stroke-dasharray:none;stroke-opacity:1;stop-color:#000000"
       d="m 74.103352,168.50612 -2.73617,-5.47235 a 1.9625405,3.925081 5.8389398e-6 0 0 0.20974,5.0514 1.9625405,3.925081 5.8389398e-6 0 0 2.52643,0.42095 z m 0.45895,-0.9201 a 1.9625405,3.925081 5.8389398e-6 0 0 -0.20993,-5.05176 1.9625405,3.925081 5.8389398e-6 0 0 -2.52569,-0.41949 z" />
    <path
       id="path23910-7-9-3-2"
       style="fill:none;fill-opacity:1;stroke:#969696;stroke-width:0.3;stroke-miterlimit:4;stroke-dasharray:none;stroke-opacity:1;stop-color:#000000"
       d="m 69.964512,163.44044 c -0.29982,0.0816 -0.47135,0.90879 -0.46198,1.84795 0.0117,1.1726 0.83413,1.84794 1.34442,1.84795"
       sodipodi:nodetypes="csc" />
    <path
       id="path48909-4-0"
       style="fill:none;fill-opacity:1;stroke:#dcdcdc;stroke-width:0.0529167;stroke-miterlimit:4;stroke-dasharray:none;stroke-opacity:1;stop-color:#000000"
       d="m 70.075602,163.44044 c -0.29982,0.0816 -0.47136,0.90879 -0.46199,1.84795 0.0117,1.1726 0.83413,1.84794 1.34443,1.84795"
       sodipodi:nodetypes="csc" />
    <path
       id="path22310-6-8"
       style="fill:#969696;fill-opacity:1;stroke:none;stroke-width:0.0935445;stroke-miterlimit:4;stroke-dasharray:none;stroke-opacity:1;stop-color:#000000"
       d="m 74.814532,165.31054 a 2.3499853,4.6999707 0 0 0 -1.85001,-4.59093 v -0.10904 h -0.50023 a 2.3499853,4.6999707 0 0 0 -2.34973,4.69997 2.3499853,4.6999707 0 0 0 2.34973,4.69998 h 0.50023 v -0.10801 a 2.3499853,4.6999707 0 0 0 1.85001,-4.59197 z" />
    <path
       id="path23910-2-4"
       style="fill:none;fill-opacity:1;stroke:#969696;stroke-width:0.3;stroke-miterlimit:4;stroke-dasharray:none;stroke-opacity:1;stop-color:#000000"
       d="m 67.464662,163.44044 c -0.29982,0.0816 -0.47136,0.90879 -0.46199,1.84795 0.0117,1.1726 0.83413,1.84794 1.34443,1.84795"
       sodipodi:nodetypes="csc" />
    <path
       id="path48911-4-3"
       style="fill:none;fill-opacity:1;stroke:#dcdcdc;stroke-width:0.0529167;stroke-miterlimit:4;stroke-dasharray:none;stroke-opacity:1;stop-color:#000000"
       d="m 67.575742,163.44044 c -0.29982,0.0816 -0.47135,0.90879 -0.46199,1.84795 0.0117,1.1726 0.83414,1.84794 1.34443,1.84795"
       sodipodi:nodetypes="csc" />
    <ellipse
       style="fill:#000000;fill-opacity:1;stroke:none;stroke-width:0.0529167;stroke-miterlimit:4;stroke-dasharray:none;stroke-opacity:1;stop-color:#000000"
       id="path22310-4-2-9"
       cx="165.31046"
       cy="-72.964745"
       rx="4.6999707"
       ry="2.3499854"
       transform="rotate(90)" />
    <path
       id="path31058-9-9"
       style="fill:#969696;fill-opacity:1;stroke:none;stroke-width:0.0529167;stroke-miterlimit:4;stroke-dasharray:none;stroke-opacity:1;stop-color:#000000"
       d="m 75.031582,165.63094 c 0.004,-1.41406 -0.0523,-2.98886 -0.0522,-3.55017 -0.27191,-0.4651 -0.71691,-1.47048 -2.01487,-1.4702 -0.23045,8e-4 -0.45959,0.0694 -0.68006,0.20361 -0.18983,0.13034 -0.28762,0.1984 -0.39946,0.32194 -0.1054,0.11643 -0.28726,0.35822 -0.30851,0.38654 l -0.004,0.004 c -0.002,0.002 -0.003,0.004 -0.004,0.007 -1.3e-4,2e-4 -3.9e-4,3.2e-4 -5.1e-4,5.2e-4 l 3.29282,6.55206 c 0.12893,-0.35229 0.16773,-1.35481 0.17053,-2.45464 z" />
    <path
       id="path23910-7-7-7"
       style="fill:none;fill-opacity:1;stroke:#969696;stroke-width:0.3;stroke-miterlimit:4;stroke-dasharray:none;stroke-opacity:1;stop-color:#000000"
       d="m 69.131182,163.44044 c -0.29982,0.0816 -0.47135,0.90879 -0.46199,1.84795 0.0117,1.1726 0.83413,1.84794 1.34443,1.84795"
       sodipodi:nodetypes="csc" />
    <path
       id="path23910-9-2-8"
       style="fill:none;fill-opacity:1;stroke:#969696;stroke-width:0.3;stroke-miterlimit:4;stroke-dasharray:none;stroke-opacity:1;stop-color:#000000"
       d="m 68.297842,163.44044 c -0.29981,0.0816 -0.47135,0.90879 -0.46198,1.84795 0.0117,1.1726 0.83413,1.84794 1.34442,1.84795"
       sodipodi:nodetypes="csc" />
    <path
       id="path48913-6-9"
       style="fill:none;fill-opacity:1;stroke:#dcdcdc;stroke-width:0.0529167;stroke-miterlimit:4;stroke-dasharray:none;stroke-opacity:1;stop-color:#000000"
       d="m 68.408932,163.44044 c -0.29982,0.0816 -0.47135,0.90879 -0.46199,1.84795 0.0117,1.1726 0.83413,1.84794 1.34443,1.84795"
       sodipodi:nodetypes="csc" />
    <path
       id="path30588-0-6"
       style="fill:#969696;fill-opacity:1;stroke:none;stroke-width:0.0529167;stroke-miterlimit:4;stroke-dasharray:none;stroke-opacity:1;stop-color:#000000"
       d="m 75.003252,168.50683 -2.72655,-5.49175 -1.16892,-0.56431 -0.006,-5.3e-4 c -0.31524,0.82029 -0.48635,1.82569 -0.48679,2.86029 0,2.59552 1.05197,4.69968 2.34973,4.69997 0.73251,-1.8e-4 1.34618,-0.50459 2.03873,-1.50368 z"
       sodipodi:nodetypes="ccccccc" />
    <path
       id="path22308-8-7"
       style="fill:#c8c8c8;fill-opacity:1;stroke:none;stroke-width:0.0935446;stroke-miterlimit:4;stroke-dasharray:none;stroke-opacity:1;stop-color:#000000"
       d="m 75.003252,168.50683 -2.73617,-5.47235 a 1.9625405,3.925081 5.8389398e-6 0 0 0.20974,5.0514 1.9625405,3.925081 5.8389398e-6 0 0 2.52643,0.42095 z m 0.45895,-0.9201 a 1.9625405,3.925081 5.8389398e-6 0 0 -0.20993,-5.05176 1.9625405,3.925081 5.8389398e-6 0 0 -2.52569,-0.41949 z" />
    <path
       id="path48915-8-7"
       style="fill:none;fill-opacity:1;stroke:#dcdcdc;stroke-width:0.0529167;stroke-miterlimit:4;stroke-dasharray:none;stroke-opacity:1;stop-color:#000000"
       d="m 69.242262,163.44044 c -0.29982,0.0816 -0.47135,0.90879 -0.46198,1.84795 0.0117,1.1726 0.83413,1.84794 1.34442,1.84795"
       sodipodi:nodetypes="csc" />
    <path
       style="fill:#646464;fill-opacity:1;stroke:none;stroke-width:0.132292;stroke-miterlimit:4;stroke-dasharray:none;stroke-opacity:1;stop-color:#000000"
       d="m 72.726582,162.11548 -1.15946,-0.58344 3.29413,6.55377 0.60095,-0.49908 z"
       id="path31023-6-2" />
    <path
       id="path4300-7-3-89"
       style="fill:none;fill-opacity:1;stroke:#323232;stroke-width:0.132292;stroke-miterlimit:4;stroke-dasharray:none;stroke-opacity:1;stop-color:#000000"
       d="m 42.930732,165.31099 c 7.9e-4,1.19345 0.26799,2.32385 0.72863,3.0825 v 0.003 l 0.006,0.008 c 0.0453,0.0749 0.0922,0.14575 0.14056,0.21239 v 0.002 l 0.0155,0.0191 c 0.0407,0.0542 0.0825,0.10539 0.12506,0.15348 l 0.69608,0.85473 0.51196,0.37604 0.57376,0.13503 0.002,0.004 5.2e-4,-5.1e-4 h 0.005 l 10e-4,5.1e-4 0.49403,-5.1e-4 c 0.84948,-0.002 1.63636,-0.89392 2.07429,-2.34973 h 12.9253 c 0.6904,6e-5 1.25009,-1.11931 1.25006,-2.5001 3e-5,-1.3808 -0.55966,-2.50017 -1.25006,-2.50011 h -12.92533 c -0.43792,-1.45583 -1.2248,-2.34723 -2.07429,-2.34979 h -0.50023 -5.2e-4 v 5.2e-4 l -0.52929,0.11649 -0.5585,0.33464 -0.83664,1.07487 v 0.016 c -0.54754,0.74464 -0.87532,1.98301 -0.87539,3.30729 z"
       sodipodi:nodetypes="sccccccccccccccccccccccccccccss" />
    <path
       id="rect2708-6-0-0-3"
       style="color:#000000;fill:none;stroke:#323232;stroke-width:0.132292;stroke-opacity:1;-inkscape-stroke:none"
       d="m 75.826132,165.37732 a 1.9625405,3.925081 5.8389398e-6 0 0 -0.57361,-2.8422 1.9625405,3.925081 5.8389398e-6 0 0 -0.27337,-0.45217 c 0,-5.7e-4 0,-0.002 0,-0.002 -0.27187,-0.46504 -0.71678,-1.47022 -2.01434,-1.4702 a 2.3499854,4.6999707 0 0 1 -5.2e-4,0 h -0.50023 a 2.3499853,4.6999707 0 0 0 -2.2257,3.19981 h -0.39223 c 0.0164,-0.0405 0.0328,-0.0765 0.0496,-0.10645 0.0476,-0.0849 0.091,-0.11438 0.10749,-0.11886 l -0.0165,-0.061 c 0,0 5.2e-4,-5.2e-4 5.2e-4,-5.2e-4 0.0313,-0.0297 0.0638,-0.0491 0.0961,-0.0579 l -0.0155,-0.0506 c -0.0346,0.009 -0.0668,0.0274 -0.0966,0.0522 l -0.046,-0.17105 c -0.13342,0.0363 -0.2223,0.13897 -0.29094,0.26149 -0.0413,0.0737 -0.0764,0.15867 -0.10697,0.25269 h -0.5147 c 0.0161,-0.0405 0.0323,-0.0765 0.0491,-0.10645 0.0476,-0.0849 0.0931,-0.11437 0.10956,-0.11885 l -0.017,-0.0615 c 0.0308,-0.0297 0.0628,-0.0491 0.0951,-0.0579 l -0.0134,-0.0506 c -0.0346,0.009 -0.0669,0.0275 -0.0971,0.0522 l -0.0475,-0.17106 c -0.13342,0.0363 -0.2223,0.13897 -0.29094,0.26149 -0.0413,0.0737 -0.0764,0.15867 -0.10697,0.2527 h -0.5147 c 0.0161,-0.0405 0.0328,-0.0765 0.0496,-0.10646 0.0476,-0.0849 0.0926,-0.11437 0.10904,-0.11885 l -0.0165,-0.0615 c 0.0308,-0.0297 0.0623,-0.0491 0.0946,-0.0579 l -0.0134,-0.0506 c -0.0344,0.009 -0.0666,0.0272 -0.0966,0.0517 l -0.046,-0.17054 c -0.13342,0.0363 -0.22436,0.13897 -0.29301,0.26149 -0.0413,0.0737 -0.0764,0.15866 -0.10697,0.2527 h -0.39481 a 0.75000024,1.5000004 0 0 0 -0.12712,0.0222 c 0.0191,-0.0497 0.0386,-0.0934 0.0584,-0.12868 0.0476,-0.0849 0.091,-0.11438 0.10749,-0.11886 l -0.016,-0.0599 c 0.0312,-0.0305 0.0633,-0.0505 0.0961,-0.0594 l -0.0134,-0.0506 c -0.0349,0.01 -0.0677,0.0276 -0.0982,0.0527 l -0.0465,-0.17156 c -0.13342,0.0363 -0.2223,0.13896 -0.29094,0.26148 -0.0686,0.12253 -0.12058,0.27512 -0.16226,0.45114 -0.0203,0.0855 -0.0376,0.17675 -0.0527,0.27285 a 0.75000024,1.5000004 0 0 0 -0.20516,1.02887 0.75000024,1.5000004 0 0 0 0.71314,1.49759 c 0.28276,0.30483 0.61755,0.47799 0.91984,0.47801 v -0.13281 c 0.0382,0.006 0.0752,0.01 0.1111,0.01 v -0.0527 c -0.0355,-1e-5 -0.0724,-0.003 -0.1111,-0.0103 v -0.11473 c -0.12064,0 -0.2901,-0.058 -0.46147,-0.17518 h 0.37568 c 0.28256,0.30351 0.61826,0.47593 0.91985,0.47594 v -0.13281 c 0.0382,0.006 0.0752,0.01 0.1111,0.01 v -0.0527 c -0.0353,0 -0.0726,-0.003 -0.1111,-0.0103 v -0.11472 c -0.12064,0 -0.2901,-0.058 -0.46147,-0.17518 h 0.37568 c 0.28235,0.30351 0.61619,0.47592 0.91778,0.47594 v -0.13281 c 0.0382,0.006 0.0752,0.01 0.1111,0.01 v -0.0527 c -0.0355,0 -0.0725,-0.003 -0.1111,-0.0103 v -0.11472 c -0.12064,-1e-5 -0.28912,-0.058 -0.45992,-0.17519 h 0.37568 c 0.11549,0.12415 0.23988,0.22642 0.36691,0.30386 a 2.3499853,4.6999707 0 0 0 2.16834,2.89647 h 0.50022 a 2.3499854,4.6999707 0 0 1 5.2e-4,0 c 0.73228,-4.2e-4 1.34626,-0.50493 2.03864,-1.50379 l -0.17209,-0.34614 a 2.3499854,4.6999707 0 0 0 0.0289,-0.0765 l 0.001,0.002 0.60099,-0.49919 a 1.9625405,3.925081 5.8389398e-6 0 0 0.36381,-2.20917 z" />
    <path
       id="path4300-1-1"
       style="fill:#c8c8c8;fill-opacity:1;stroke:none;stroke-width:0.0567898;stroke-miterlimit:4;stroke-dasharray:none;stroke-opacity:1;stop-color:#000000"
       d="m 80.827442,141.06201 a 1.2141787,2.4283572 0 0 0 0.53146,2.00688 v 10e-4 l 0.0103,0.0117 a 1.2141787,2.4283572 0 0 0 0.0758,0.0932 l 0.42258,0.5189 v -0.22902 a 1.2141787,2.4283572 0 0 0 0.17474,0.0257 1.2141787,2.4283572 0 0 0 1.21443,-2.42821 1.2141787,2.4283572 0 0 0 -1.21443,-2.42821 1.2141787,2.4283572 0 0 0 -0.17474,0.0254 v -0.2676 l -0.50791,0.65254 v 0.01 a 1.2141787,2.4283572 0 0 0 -0.53146,2.00813 z" />
    <ellipse
       style="fill:#969696;fill-opacity:1;stroke:none;stroke-width:0.0567898;stroke-miterlimit:4;stroke-dasharray:none;stroke-opacity:1;stop-color:#000000"
       id="path4302-4-5"
       cx="141.06198"
       cy="-82.52739"
       rx="2.9443831"
       ry="1.4721916"
       transform="rotate(90)" />
    <path
       id="path4302-2-5-6"
       style="fill:#646464;fill-opacity:1;stroke:none;stroke-width:0.0567898;stroke-miterlimit:4;stroke-dasharray:none;stroke-opacity:1;stop-color:#000000"
       d="m 84.303072,141.06201 a 1.4721917,2.9443834 0 0 0 -1.47199,-2.94428 h -0.30368 v 0.0634 a 1.4721917,2.9443834 0 0 0 -1.1686,2.88091 1.4721917,2.9443834 0 0 0 1.1686,2.88091 v 0.0634 h 0.30368 a 1.4721917,2.9443834 0 0 0 1.47199,-2.94428 z" />
    <path
       id="rect3806-9-3-8-5"
       style="fill:#969696;fill-opacity:1;stroke:none;stroke-width:0.0695531;stroke-miterlimit:4;stroke-dasharray:none;stop-color:#000000"
       d="m 82.071982,141.06201 a 0.75886159,1.5177233 0 0 0 0.75889,1.51779 h 9.10641 v -3.03558 h -9.10641 a 0.75886159,1.5177233 0 0 0 -0.75889,1.51779 z" />
    <ellipse
       style="fill:#646464;fill-opacity:1;stroke:none;stroke-width:0.0567898;stroke-miterlimit:4;stroke-dasharray:none;stop-color:#000000"
       id="path1790-4-6-0"
       cx="141.06198"
       cy="-91.937157"
       rx="1.5177234"
       ry="0.75886172"
       transform="rotate(90)" />
    <ellipse
       style="fill:#000000;fill-opacity:1;stroke:none;stroke-width:0.0567898;stroke-miterlimit:4;stroke-dasharray:none;stop-color:#000000"
       id="path1790-2-6-3-5"
       cx="141.06198"
       cy="-91.937157"
       rx="1.2141787"
       ry="0.60708934"
       transform="rotate(90)" />
    <path
       id="path4300-7-3-8"
       style="fill:none;fill-opacity:1;stroke:#323232;stroke-width:0.132292;stroke-miterlimit:4;stroke-dasharray:none;stroke-opacity:1;stop-color:#000000"
       d="m 80.827502,141.06225 c 4.8e-4,0.72453 0.16269,1.41079 0.44235,1.87135 v 0.002 l 0.005,0.005 c 0.0275,0.0455 0.056,0.0885 0.0852,0.12894 v 0.001 l 0.0103,0.0117 c 0.0247,0.0329 0.05,0.064 0.0758,0.0932 l 0.42257,0.5189 0.31081,0.22829 0.34833,0.082 0.001,0.002 3.1e-4,-3.1e-4 h 0.002 l 6.1e-4,3.1e-4 0.29992,-3.1e-4 c 0.5157,-10e-4 0.99341,-0.54269 1.25929,-1.4265 h 7.84682 c 0.41911,4e-5 0.75889,-0.67952 0.75888,-1.51778 1e-5,-0.83827 -0.33976,-1.51783 -0.75888,-1.51779 h -7.84685 c -0.26585,-0.88382 -0.74357,-1.42498 -1.25927,-1.42653 h -0.30369 -3e-4 v 3.1e-4 l -0.32135,0.0707 -0.33905,0.20316 -0.50791,0.65254 v 0.01 c -0.33242,0.45207 -0.5314,1.20387 -0.53145,2.00782 z"
       sodipodi:nodetypes="sccccccccccccccccccccccccccccss" />
    <path
       id="path1242-78-6-6-1"
       style="fill:none;stroke:#000000;stroke-width:0.132292;stroke-miterlimit:4;stroke-dasharray:none;stop-color:#000000"
       d="m 68.603926,136.45011 c 0,8.5 5.00021,8.50026 5.00021,8.50026 h 19.35902 3.28146 19.359514 c 0,0 4.9997,-2.6e-4 4.9997,-8.50026 h -24.359214 -3.28146 z" />
    <text
       xml:space="preserve"
       style="font-size:3.55556px;line-height:1.25;font-family:Ste;-inkscape-font-specification:Ste;stroke-width:0.0666666"
       x="106.30671"
       y="139.67664"
       id="text3821-6-7-5-2"><tspan
         sodipodi:role="line"
         id="tspan3819-2-4-1-3"
         style="font-style:normal;font-variant:normal;font-weight:bold;font-stretch:normal;font-family:sans-serif;-inkscape-font-specification:sans-serif;text-align:center;text-anchor:middle;stroke-width:0.0666666"
         x="106.30671"
         y="139.67664">Chicago</tspan><tspan
         sodipodi:role="line"
         style="font-style:normal;font-variant:normal;font-weight:bold;font-stretch:normal;font-family:sans-serif;-inkscape-font-specification:sans-serif;text-align:center;text-anchor:middle;stroke-width:0.0666666"
         x="106.30671"
         y="144.16891"
         id="tspan67023">Screws</tspan></text>
    <rect
       style="fill:none;stroke:#000000;stroke-width:0.132292;stroke-miterlimit:4;stroke-dasharray:none;stop-color:#000000"
       id="rect846-3-2-8-2-1"
       width="40"
       height="20"
       x="37.947922"
       y="151.28175"
       ry="5" />
    <text
       xml:space="preserve"
       style="font-size:3.80032px;line-height:1.25;font-family:Ste;-inkscape-font-specification:Ste;stroke-width:0.0712562"
       x="59.372185"
       y="157.36031"
       id="text8073-7-2-8-5-8"><tspan
         sodipodi:role="line"
         id="tspan8071-6-0-6-9-4"
         style="font-style:normal;font-variant:normal;font-weight:bold;font-stretch:normal;font-family:sans-serif;-inkscape-font-specification:sans-serif;text-align:center;text-anchor:middle;stroke-width:0.0712562"
         x="59.372185"
         y="157.36031">Chicago Screws</tspan></text>
    <text
       xml:space="preserve"
       style="font-size:3.24151px;line-height:1.25;font-family:Ste;-inkscape-font-specification:Ste;stroke-width:0.0607786"
       x="59.370354"
       y="160.81374"
       id="text8160-0-0-7-4-4"><tspan
         sodipodi:role="line"
         id="tspan8158-8-5-1-9-8"
         style="font-style:normal;font-variant:normal;font-weight:normal;font-stretch:normal;font-family:sans-serif;-inkscape-font-specification:sans-serif;text-align:center;text-anchor:middle;stroke-width:0.0607786"
         x="59.370354"
         y="160.81374">5mm - 40mm</tspan></text>
    <path
       id="path37237-5-7-1-9"
       style="color:#000000;fill:#c8c8c8;fill-opacity:1;stroke:#000000;stroke-width:0.132292;stroke-miterlimit:4;stroke-dasharray:none;stroke-opacity:1"
       d="m 41.913002,152.41286 c -1.72079,0.44811 -2.96622,1.9938 -2.96622,3.86851 v 9.99991 c 0,1.87471 1.24542,3.42039 2.96622,3.86849 z" />
    <path
       id="path20467-08-8"
       style="color:#000000;fill:#c8c8c8;fill-opacity:1;stroke:#000000;stroke-width:0.132292;stroke-miterlimit:4;stroke-dasharray:none;stroke-opacity:1"
       d="m 69.757966,137.44975 c 0.21106,3.17504 1.10484,4.91966 1.9942,5.67562 0.9994,0.84952 1.85156,0.82424 1.85156,0.82424 h 1.54513 v -6.49986 z"
       sodipodi:nodetypes="cscccc" />
    <path
       id="path4300-1-1-9"
       style="fill:#c8c8c8;fill-opacity:1;stroke:none;stroke-width:0.0567898;stroke-miterlimit:4;stroke-dasharray:none;stroke-opacity:1;stop-color:#000000"
       d="m 77.123276,131.50341 a 1.2141787,2.4283572 0 0 0 0.53146,2.00688 v 0.001 l 0.0103,0.0117 a 1.2141787,2.4283572 0 0 0 0.0758,0.0932 l 0.42258,0.5189 v -0.22902 a 1.2141787,2.4283572 0 0 0 0.17474,0.0257 1.2141787,2.4283572 0 0 0 1.21443,-2.42821 1.2141787,2.4283572 0 0 0 -1.21443,-2.42821 1.2141787,2.4283572 0 0 0 -0.17474,0.0254 v -0.2676 l -0.50791,0.65254 v 0.01 a 1.2141787,2.4283572 0 0 0 -0.53146,2.00813 z" />
    <ellipse
       style="fill:#969696;fill-opacity:1;stroke:none;stroke-width:0.0567898;stroke-miterlimit:4;stroke-dasharray:none;stroke-opacity:1;stop-color:#000000"
       id="path4302-4-5-4"
       cx="131.5034"
       cy="-78.823227"
       rx="2.9443831"
       ry="1.4721916"
       transform="rotate(90)" />
    <path
       id="path4302-2-5-6-7"
       style="fill:#646464;fill-opacity:1;stroke:none;stroke-width:0.0567898;stroke-miterlimit:4;stroke-dasharray:none;stroke-opacity:1;stop-color:#000000"
       d="m 80.598906,131.50341 a 1.4721917,2.9443834 0 0 0 -1.47199,-2.94428 h -0.30368 v 0.0634 a 1.4721917,2.9443834 0 0 0 -1.1686,2.88091 1.4721917,2.9443834 0 0 0 1.1686,2.88091 v 0.0634 h 0.30368 a 1.4721917,2.9443834 0 0 0 1.47199,-2.94428 z" />
    <path
       id="rect2708-6-02-9-8"
       style="fill:#c8c8c8;fill-opacity:1;stroke:none;stroke-width:0.0803131;stroke-miterlimit:4;stroke-dasharray:none;stop-color:#000000"
       d="m 94.107846,130.59265 h -3.03527 a 0.45531713,0.91063422 0 0 0 -0.45552,0.91073 0.45531713,0.91063422 0 0 0 0.45552,0.91042 0.45531713,0.91063422 0 0 0 0.0103,0 h 3.0249 z" />
    <path
       style="fill:#c8c8c8;fill-opacity:1;stroke:#323232;stroke-width:0.0803131;stroke-miterlimit:4;stroke-dasharray:none;stop-color:#000000"
       d="m 93.096156,130.36806 0.50591,2.27051"
       id="path3118-5-9-2-4" />
    <path
       style="fill:#c8c8c8;fill-opacity:1;stroke:#323232;stroke-width:0.0803131;stroke-miterlimit:4;stroke-dasharray:none;stop-color:#000000"
       d="m 93.602066,130.36806 0.5059,2.27051"
       id="path3120-6-5-2-5" />
    <path
       id="rect3806-9-3-8-5-6"
       style="fill:#969696;fill-opacity:1;stroke:none;stroke-width:0.0695531;stroke-miterlimit:4;stroke-dasharray:none;stop-color:#000000"
       d="m 78.367816,131.50341 a 0.75886159,1.5177233 0 0 0 0.75889,1.51779 h 9.10641 v -3.03558 h -9.10641 a 0.75886159,1.5177233 0 0 0 -0.75889,1.51779 z" />
    <ellipse
       style="fill:#646464;fill-opacity:1;stroke:none;stroke-width:0.0567898;stroke-miterlimit:4;stroke-dasharray:none;stop-color:#000000"
       id="path1790-4-6-0-9"
       cx="131.5034"
       cy="-88.232994"
       rx="1.5177234"
       ry="0.75886172"
       transform="rotate(90)" />
    <ellipse
       style="fill:#000000;fill-opacity:1;stroke:none;stroke-width:0.0567898;stroke-miterlimit:4;stroke-dasharray:none;stop-color:#000000"
       id="path1790-2-6-3-5-9"
       cx="131.5034"
       cy="-88.232994"
       rx="1.2141787"
       ry="0.60708934"
       transform="rotate(90)" />
    <path
       id="path22308-3-6-7-9"
       style="fill:#c8c8c8;fill-opacity:1;stroke:#000000;stroke-width:0.0567898;stroke-miterlimit:4;stroke-dasharray:none;stroke-opacity:1;stop-color:#000000"
       d="m 95.102906,133.44338 -1.66112,-3.3222 a 1.1914374,2.3828747 5.8389398e-6 0 0 0.12733,3.06665 1.1914374,2.3828747 5.8389398e-6 0 0 1.53378,0.25555 z m 0.27861,-0.55858 a 1.1914374,2.3828747 5.8389398e-6 0 0 -0.12746,-3.06687 1.1914374,2.3828747 5.8389398e-6 0 0 -1.53332,-0.25467 z" />
    <path
       id="path23910-7-9-3-9-6"
       style="fill:none;fill-opacity:1;stroke:#969696;stroke-width:0.182127;stroke-miterlimit:4;stroke-dasharray:none;stroke-opacity:1;stop-color:#000000"
       d="m 92.590246,130.36806 c -0.18201,0.0495 -0.28615,0.55172 -0.28046,1.12187 0.007,0.71187 0.50639,1.12187 0.81619,1.12187"
       sodipodi:nodetypes="csc" />
    <path
       id="path48909-4-4-2"
       style="fill:none;fill-opacity:1;stroke:#dcdcdc;stroke-width:0.0321252;stroke-miterlimit:4;stroke-dasharray:none;stroke-opacity:1;stop-color:#000000"
       d="m 92.657686,130.36806 c -0.18201,0.0495 -0.28615,0.55172 -0.28046,1.12187 0.007,0.71187 0.50639,1.12187 0.81619,1.12187"
       sodipodi:nodetypes="csc" />
    <path
       id="path22310-6-1-9"
       style="fill:#969696;fill-opacity:1;stroke:none;stroke-width:0.0567898;stroke-miterlimit:4;stroke-dasharray:none;stroke-opacity:1;stop-color:#000000"
       d="m 95.534636,131.50338 a 1.426651,2.853302 0 0 0 -1.12311,-2.78711 v -0.0662 h -0.30368 a 1.426651,2.853302 0 0 0 -1.42649,2.8533 1.426651,2.853302 0 0 0 1.42649,2.85331 h 0.30368 v -0.0656 a 1.426651,2.853302 0 0 0 1.12311,-2.78773 z" />
    <path
       id="path23910-2-5-2"
       style="fill:none;fill-opacity:1;stroke:#969696;stroke-width:0.182127;stroke-miterlimit:4;stroke-dasharray:none;stroke-opacity:1;stop-color:#000000"
       d="m 91.072626,130.36806 c -0.18203,0.0495 -0.28616,0.55172 -0.28049,1.12187 0.007,0.71187 0.5064,1.12187 0.8162,1.12187"
       sodipodi:nodetypes="csc" />
    <path
       id="path48911-4-6-0"
       style="fill:none;fill-opacity:1;stroke:#dcdcdc;stroke-width:0.0321252;stroke-miterlimit:4;stroke-dasharray:none;stroke-opacity:1;stop-color:#000000"
       d="m 91.140056,130.36806 c -0.18202,0.0495 -0.28616,0.55172 -0.28047,1.12187 0.007,0.71187 0.5064,1.12187 0.81618,1.12187"
       sodipodi:nodetypes="csc" />
    <ellipse
       style="fill:#000000;fill-opacity:1;stroke:none;stroke-width:0.0321252;stroke-miterlimit:4;stroke-dasharray:none;stroke-opacity:1;stop-color:#000000"
       id="path22310-4-2-1-1"
       cx="131.50331"
       cy="-94.411629"
       rx="2.8533022"
       ry="1.4266511"
       transform="rotate(90)" />
    <path
       id="path31058-9-3-4"
       style="fill:#969696;fill-opacity:1;stroke:none;stroke-width:0.0321252;stroke-miterlimit:4;stroke-dasharray:none;stroke-opacity:1;stop-color:#000000"
       d="m 95.666416,131.69789 c 0.002,-0.85846 -0.0317,-1.81451 -0.0317,-2.15527 -0.16506,-0.28236 -0.43521,-0.89271 -1.22319,-0.89254 -0.13997,4.8e-4 -0.27901,0.0421 -0.41285,0.12361 -0.11524,0.0791 -0.17462,0.12044 -0.24251,0.19544 -0.0639,0.0707 -0.17441,0.21748 -0.1873,0.23467 l -0.002,0.002 c -0.001,10e-4 -0.001,0.002 -0.002,0.004 -7e-5,1.2e-4 -2.2e-4,2e-4 -3e-4,3.2e-4 l 1.99904,3.97768 c 0.0784,-0.21387 0.10188,-0.82249 0.1036,-1.49018 z" />
    <path
       id="path23910-7-7-3-3"
       style="fill:none;fill-opacity:1;stroke:#969696;stroke-width:0.182127;stroke-miterlimit:4;stroke-dasharray:none;stroke-opacity:1;stop-color:#000000"
       d="m 92.084356,130.36806 c -0.18204,0.0495 -0.28616,0.55172 -0.28048,1.12187 0.007,0.71187 0.5064,1.12187 0.81619,1.12187"
       sodipodi:nodetypes="csc" />
    <path
       id="path23910-9-2-4-7"
       style="fill:none;fill-opacity:1;stroke:#969696;stroke-width:0.182127;stroke-miterlimit:4;stroke-dasharray:none;stroke-opacity:1;stop-color:#000000"
       d="m 91.578436,130.36806 c -0.18201,0.0495 -0.28616,0.55172 -0.28046,1.12187 0.007,0.71187 0.50638,1.12187 0.81617,1.12187"
       sodipodi:nodetypes="csc" />
    <path
       id="path48913-6-1-8"
       style="fill:none;fill-opacity:1;stroke:#dcdcdc;stroke-width:0.0321252;stroke-miterlimit:4;stroke-dasharray:none;stroke-opacity:1;stop-color:#000000"
       d="m 91.645876,130.36806 c -0.18202,0.0495 -0.28614,0.55172 -0.28047,1.12187 0.007,0.71187 0.5064,1.12187 0.81618,1.12187"
       sodipodi:nodetypes="csc" />
    <path
       id="path30588-0-3-9"
       style="fill:#969696;fill-opacity:1;stroke:none;stroke-width:0.0321252;stroke-miterlimit:4;stroke-dasharray:none;stroke-opacity:1;stop-color:#000000"
       d="m 95.649216,133.44381 -1.65525,-3.33398 -0.70965,-0.34259 -0.005,-3.2e-4 c -0.19138,0.49799 -0.29527,1.10836 -0.29554,1.73645 0,1.57571 0.63865,2.85313 1.4265,2.8533 0.4447,-1.1e-4 0.81726,-0.30633 1.23769,-0.91286 z"
       sodipodi:nodetypes="ccccccc" />
    <path
       id="path22308-8-9-5"
       style="fill:#c8c8c8;fill-opacity:1;stroke:none;stroke-width:0.0567898;stroke-miterlimit:4;stroke-dasharray:none;stroke-opacity:1;stop-color:#000000"
       d="m 95.649216,133.44381 -1.66109,-3.3222 a 1.1914374,2.3828747 5.8389398e-6 0 0 0.12731,3.06665 1.1914374,2.3828747 5.8389398e-6 0 0 1.53378,0.25555 z m 0.27862,-0.55858 a 1.1914374,2.3828747 5.8389398e-6 0 0 -0.12746,-3.06687 1.1914374,2.3828747 5.8389398e-6 0 0 -1.53332,-0.25467 z" />
    <path
       id="path48915-8-5-4"
       style="fill:none;fill-opacity:1;stroke:#dcdcdc;stroke-width:0.0321252;stroke-miterlimit:4;stroke-dasharray:none;stroke-opacity:1;stop-color:#000000"
       d="m 92.151776,130.36806 c -0.18202,0.0495 -0.28615,0.55172 -0.28047,1.12187 0.007,0.71187 0.5064,1.12187 0.8162,1.12187"
       sodipodi:nodetypes="csc" />
    <path
       style="fill:#646464;fill-opacity:1;stroke:none;stroke-width:0.0803131;stroke-miterlimit:4;stroke-dasharray:none;stroke-opacity:1;stop-color:#000000"
       d="m 94.267066,129.56369 -0.7039,-0.3542 1.99983,3.97873 0.36484,-0.30299 z"
       id="path31023-6-9-8" />
    <path
       id="path4300-7-3-8-8"
       style="fill:none;fill-opacity:1;stroke:#323232;stroke-width:0.132292;stroke-miterlimit:4;stroke-dasharray:none;stroke-opacity:1;stop-color:#000000"
       d="m 77.123336,131.50365 c 4.8e-4,0.72453 0.16269,1.41079 0.44235,1.87135 v 0.002 l 0.005,0.005 c 0.0275,0.0455 0.056,0.0885 0.0852,0.12894 v 0.001 l 0.0103,0.0117 c 0.0247,0.0329 0.05,0.064 0.0758,0.0932 l 0.42257,0.5189 0.31081,0.22829 0.34833,0.082 0.001,0.002 3.1e-4,-3.1e-4 h 0.002 l 6.1e-4,3.1e-4 0.29992,-3.1e-4 c 0.5157,-0.001 0.99341,-0.54269 1.25929,-1.4265 h 7.84682 c 0.41911,4e-5 0.75889,-0.67952 0.75888,-1.51778 1e-5,-0.83827 -0.33976,-1.51783 -0.75888,-1.51779 h -7.84685 c -0.26585,-0.88382 -0.74357,-1.42498 -1.25927,-1.42653 h -0.30369 -3e-4 v 3.1e-4 l -0.32135,0.0707 -0.33905,0.20316 -0.50791,0.65254 v 0.01 c -0.33242,0.45207 -0.5314,1.20387 -0.53145,2.00782 z"
       sodipodi:nodetypes="sccccccccccccccccccccccccccccss" />
    <path
       id="rect2708-6-0-0-4-2"
       style="color:#000000;fill:none;stroke:#323232;stroke-width:0.132292;stroke-miterlimit:4;stroke-dasharray:none;stroke-opacity:1"
       d="m 96.148776,131.54392 a 1.1914374,2.3828747 5.8389398e-6 0 0 -0.34822,-1.72547 1.1914374,2.3828747 5.8389398e-6 0 0 -0.16598,-0.27451 c 0,-3.4e-4 0,-0.001 0,-0.001 -0.16504,-0.28232 -0.43514,-0.89255 -1.22287,-0.89254 a 1.426651,2.853302 0 0 1 -3.1e-4,0 h -0.3037 a 1.426651,2.853302 0 0 0 -1.35119,1.94257 h -0.23813 c 0.0103,-0.0246 0.0199,-0.0464 0.0302,-0.0646 0.0288,-0.0515 0.0553,-0.0694 0.0652,-0.0722 l -0.0103,-0.037 c 0,0 3.1e-4,-3.1e-4 3.1e-4,-3.1e-4 0.019,-0.018 0.0388,-0.0298 0.0584,-0.0351 l -0.0103,-0.0307 c -0.021,0.005 -0.0405,0.0166 -0.0586,0.0317 l -0.028,-0.10385 c -0.081,0.022 -0.135,0.0844 -0.17663,0.15874 -0.025,0.0447 -0.0464,0.0963 -0.0649,0.15341 h -0.31245 c 0.0103,-0.0246 0.0196,-0.0464 0.0298,-0.0646 0.0288,-0.0515 0.0566,-0.0694 0.0665,-0.0722 l -0.0103,-0.0373 c 0.0188,-0.018 0.0381,-0.0298 0.0577,-0.0351 l -0.008,-0.0307 c -0.021,0.005 -0.0406,0.0167 -0.059,0.0317 l -0.0288,-0.10385 c -0.081,0.022 -0.13499,0.0844 -0.17663,0.15875 -0.0251,0.0447 -0.0463,0.0963 -0.0649,0.15341 h -0.31248 c 0.0103,-0.0246 0.0199,-0.0464 0.0302,-0.0646 0.0288,-0.0515 0.0562,-0.0694 0.0662,-0.0722 l -0.0103,-0.0373 c 0.0187,-0.018 0.0378,-0.0298 0.0574,-0.0351 l -0.008,-0.0307 c -0.0209,0.005 -0.0405,0.0165 -0.0587,0.0314 l -0.028,-0.10354 c -0.081,0.022 -0.13627,0.0844 -0.17788,0.15875 -0.0251,0.0447 -0.0464,0.0963 -0.0649,0.15341 h -0.23969 a 0.45531713,0.91063422 0 0 0 -0.0772,0.0135 c 0.0115,-0.0302 0.0234,-0.0567 0.0353,-0.0781 0.0288,-0.0515 0.0553,-0.0694 0.0652,-0.0722 l -0.0103,-0.0364 c 0.0189,-0.0185 0.0383,-0.0307 0.0583,-0.0361 l -0.008,-0.0307 c -0.0212,0.006 -0.0411,0.0168 -0.0595,0.032 l -0.0283,-0.10416 c -0.081,0.022 -0.13498,0.0844 -0.17662,0.15874 -0.0416,0.0744 -0.0732,0.16702 -0.0984,0.27388 -0.0128,0.0519 -0.0228,0.10731 -0.032,0.16565 a 0.45531713,0.91063422 0 0 0 -0.12448,0.62461 0.45531713,0.91063422 0 0 0 0.43294,0.90917 c 0.17166,0.18506 0.37489,0.29019 0.55842,0.2902 v -0.0806 c 0.0232,0.004 0.0457,0.006 0.0675,0.006 v -0.032 c -0.0216,-1e-5 -0.0439,-0.002 -0.0675,-0.006 v -0.0697 c -0.0732,0 -0.17611,-0.0352 -0.28015,-0.10635 h 0.22808 c 0.17153,0.18426 0.37533,0.28893 0.55842,0.28894 v -0.0806 c 0.0232,0.004 0.0457,0.006 0.0675,0.006 v -0.032 c -0.0215,0 -0.044,-0.002 -0.0675,-0.006 v -0.0696 c -0.0732,0 -0.17611,-0.0352 -0.28016,-0.10636 h 0.22807 c 0.17142,0.18426 0.3741,0.28893 0.55719,0.28894 v -0.0806 c 0.0232,0.004 0.0457,0.006 0.0675,0.006 v -0.032 c -0.0216,0 -0.0441,-0.002 -0.0675,-0.006 v -0.0696 c -0.0732,0 -0.17552,-0.0352 -0.27921,-0.10636 h 0.22806 c 0.0701,0.0754 0.14562,0.13745 0.22274,0.18447 a 1.426651,2.853302 0 0 0 1.31639,1.75842 h 0.30368 a 1.426651,2.853302 0 0 1 3.1e-4,0 c 0.44455,-2.6e-4 0.8173,-0.30654 1.23764,-0.91294 l -0.1044,-0.21013 a 1.426651,2.853302 0 0 0 0.0174,-0.0464 l 6e-4,0.001 0.36485,-0.30306 a 1.1914374,2.3828747 5.8389398e-6 0 0 0.22086,-1.34116 z" />
    <path
       id="path1242-78-6-6-1-8"
       style="fill:none;stroke:#000000;stroke-width:0.132292;stroke-miterlimit:4;stroke-dasharray:none;stop-color:#000000"
       d="m 68.603926,126.89151 c 0,8.5 5.00021,8.50026 5.00021,8.50026 h 19.35902 3.28146 19.359514 c 0,0 4.9997,-2.6e-4 4.9997,-8.50026 h -24.359214 -3.28146 z" />
    <text
       xml:space="preserve"
       style="font-size:3.55556px;line-height:1.25;font-family:Ste;-inkscape-font-specification:Ste;stroke-width:0.0666666"
       x="106.30669"
       y="130.11806"
       id="text3821-6-7-5-2-6"><tspan
         sodipodi:role="line"
         id="tspan3819-2-4-1-3-6"
         style="font-style:normal;font-variant:normal;font-weight:bold;font-stretch:normal;font-family:sans-serif;-inkscape-font-specification:sans-serif;text-align:center;text-anchor:middle;stroke-width:0.0666666"
         x="106.30669"
         y="130.11806">Chicago</tspan><tspan
         sodipodi:role="line"
         style="font-style:normal;font-variant:normal;font-weight:bold;font-stretch:normal;font-family:sans-serif;-inkscape-font-specification:sans-serif;text-align:center;text-anchor:middle;stroke-width:0.0666666"
         x="106.30669"
         y="134.61034"
         id="tspan67023-7">Screws</tspan></text>
    <path
       id="path20467-08-8-5"
       style="color:#000000;fill:#c8c8c8;fill-opacity:1;stroke:#000000;stroke-width:0.132292;stroke-miterlimit:4;stroke-dasharray:none;stroke-opacity:1"
       d="m 69.757966,127.89115 c 0.21106,3.17504 1.10484,4.91966 1.9942,5.67562 0.9994,0.84952 1.85156,0.82424 1.85156,0.82424 h 1.54513 v -6.49986 z"
       sodipodi:nodetypes="cscccc" />
    <rect
       style="fill:#c8c8c8;fill-opacity:1;stroke:#323232;stroke-width:0.13229167;stroke-miterlimit:4;stroke-dasharray:none;stop-color:#000000"
       id="rect3806-9-1-6-0"
       width="5"
       height="6"
       x="-68.009056"
       y="-61.699577"
       transform="matrix(0,-1,-1,0,0,0)" />
    <path
       style="fill:#c8c8c8;fill-opacity:1;stroke:#323232;stroke-width:0.132292;stroke-miterlimit:4;stroke-dasharray:none;stop-color:#000000"
       d="m 55.69954,70.359093 v -9.70001 h -0.5 l -0.8,0.85 v 8.00001 l 0.8,0.85 z"
       id="path3808-3-2-5-8" />
    <text
       xml:space="preserve"
       style="font-size:3.65607px;line-height:1.25;font-family:Ste;-inkscape-font-specification:Ste;text-align:center;text-anchor:middle;stroke-width:0.0685512"
       x="59.582199"
       y="53.225899"
       id="text12559-0-7"><tspan
         sodipodi:role="line"
         style="font-style:normal;font-variant:normal;font-weight:bold;font-stretch:normal;font-family:sans-serif;-inkscape-font-specification:sans-serif;text-align:center;text-anchor:middle;stroke-width:0.0685512"
         x="59.582199"
         y="53.225899"
         id="tspan15561-8-5">Chicago Screws</tspan><tspan
         sodipodi:role="line"
         style="font-style:normal;font-variant:normal;font-weight:bold;font-stretch:normal;font-family:sans-serif;-inkscape-font-specification:sans-serif;text-align:center;text-anchor:middle;stroke-width:0.0685512"
         x="59.582199"
         y="57.845165"
         id="tspan52221-9-6">6mm</tspan></text>
    <rect
       style="fill:none;fill-opacity:1;stroke:#323232;stroke-width:0.132292;stroke-miterlimit:4;stroke-dasharray:none;stroke-opacity:1;stop-color:#000000"
       id="rect58265-2-5"
       width="25"
       height="48.736595"
       x="47.863251"
       y="-83.76786"
       transform="rotate(90)" />
    <path
       style="fill:#c8c8c8;fill-opacity:1;stroke:#323232;stroke-width:0.132292;stroke-miterlimit:4;stroke-dasharray:none;stop-color:#000000"
       d="m 100.93616,70.359125 v -9.7 h -0.5 l -0.800003,0.85 v 8 l 0.800003,0.85 z"
       id="path3808-3-8" />
    <text
       xml:space="preserve"
       style="font-size:3.65607px;line-height:1.25;font-family:Ste;-inkscape-font-specification:Ste;text-align:center;text-anchor:middle;stroke-width:0.0685512"
       x="108.31879"
       y="53.225922"
       id="text12559-9-7"><tspan
         sodipodi:role="line"
         style="font-style:normal;font-variant:normal;font-weight:bold;font-stretch:normal;font-family:sans-serif;-inkscape-font-specification:sans-serif;text-align:center;text-anchor:middle;stroke-width:0.0685512"
         x="108.31879"
         y="53.225922"
         id="tspan15561-5-1">Chicago Screws</tspan><tspan
         sodipodi:role="line"
         style="font-style:normal;font-variant:normal;font-weight:bold;font-stretch:normal;font-family:sans-serif;-inkscape-font-specification:sans-serif;text-align:center;text-anchor:middle;stroke-width:0.0685512"
         x="108.31879"
         y="57.845188"
         id="tspan52221-7-14">17mm</tspan></text>
    <rect
       style="fill:none;fill-opacity:1;stroke:#323232;stroke-width:0.132292;stroke-miterlimit:4;stroke-dasharray:none;stroke-opacity:1;stop-color:#000000"
       id="rect58265-5-7"
       width="25"
       height="48.736595"
       x="47.863251"
       y="-132.50446"
       transform="rotate(90)" />
    <rect
       style="fill:#c8c8c8;fill-opacity:1;stroke:#323232;stroke-width:0.114568;stroke-miterlimit:4;stroke-dasharray:none;stop-color:#000000"
       id="rect94095"
       width="5"
       height="17"
       x="-68.009125"
       y="-117.93616"
       transform="matrix(0,-1,-1,0,0,0)" />
    <rect
       style="fill:#c8c8c8;fill-opacity:1;stroke:#323232;stroke-width:0.114568;stroke-miterlimit:4;stroke-dasharray:none;stop-color:#000000"
       id="rect100833"
       width="5"
       height="12"
       x="-118.00911"
       y="-66.69957"
       transform="matrix(0,-1,-1,0,0,0)" />
    <rect
       style="fill:#c8c8c8;fill-opacity:1;stroke:#323232;stroke-width:0.132292;stroke-miterlimit:4;stroke-dasharray:none;stop-color:#000000"
       id="rect104869"
       width="5"
       height="18"
       x="-93.009102"
       y="-117.43613"
       transform="matrix(0,-1,-1,0,0,0)" />
  </g>
</svg>
