<?xml version="1.0" encoding="UTF-8" standalone="no"?>
<!-- Created with Inkscape (http://www.inkscape.org/) -->

<svg
   width="8.5in"
   height="11in"
   viewBox="0 0 215.9 279.4"
   version="1.1"
   id="svg5"
   inkscape:version="1.2.1 (9c6d41e410, 2022-07-14)"
   sodipodi:docname="MachineLabels(S).svg"
   xmlns:inkscape="http://www.inkscape.org/namespaces/inkscape"
   xmlns:sodipodi="http://sodipodi.sourceforge.net/DTD/sodipodi-0.dtd"
   xmlns="http://www.w3.org/2000/svg"
   xmlns:svg="http://www.w3.org/2000/svg">
  <sodipodi:namedview
     id="namedview7"
     pagecolor="#ffffff"
     bordercolor="#666666"
     borderopacity="1.0"
     inkscape:pageshadow="2"
     inkscape:pageopacity="0.0"
     inkscape:pagecheckerboard="0"
     inkscape:deskcolor="#d1d1d1"
     inkscape:document-units="mm"
     showgrid="false"
     inkscape:showpageshadow="2"
     showguides="true"
     inkscape:zoom="3.2689394"
     inkscape:cx="455.65238"
     inkscape:cy="68.3708"
     inkscape:window-width="1356"
     inkscape:window-height="1040"
     inkscape:window-x="636"
     inkscape:window-y="93"
     inkscape:window-maximized="0"
     inkscape:current-layer="layer1">
    <sodipodi:guide
       position="31.080418,269.97474"
       orientation="0,-1"
       id="guide119843"
       inkscape:locked="false" />
  </sodipodi:namedview>
  <defs
     id="defs2" />
  <g
     inkscape:label="Layer 1"
     inkscape:groupmode="layer"
     id="layer1">
    <rect
       style="fill:#e5e5e5;stroke:#000000;stroke-width:0.132292;stroke-miterlimit:4;stroke-dasharray:none;stop-color:#000000;fill-opacity:1"
       id="rect846-3-2-5"
       width="40"
       height="20"
       x="11.080418"
       y="9.4252605"
       ry="5" />
    <text
       xml:space="preserve"
       style="font-size:4.34794px;line-height:1.25;font-family:Ste;-inkscape-font-specification:Ste;stroke-width:0.081524"
       x="23.504368"
       y="14.067788"
       id="text8073-7-2-5"><tspan
         sodipodi:role="line"
         id="tspan8071-6-0-8"
         style="font-style:normal;font-variant:normal;font-weight:bold;font-stretch:normal;font-family:sans-serif;-inkscape-font-specification:sans-serif;text-align:center;text-anchor:middle;stroke-width:0.081524"
         x="23.504368"
         y="14.067788">1/4-20</tspan></text>
    <path
       id="path91114"
       style="fill:#000000;fill-opacity:1;stroke:none;stroke-width:0.132;stroke-miterlimit:4;stroke-dasharray:none;stroke-opacity:1;stop-color:#000000"
       inkscape:transform-center-x="1.9183539e-06"
       d="m 30.670997,20.246309 -2.597775,1.500166 v 2.999817 l 2.597775,1.500169 2.598293,-1.500169 v -2.999817 z m 0,1.680001 a 1.32,1.32 0 0 1 1.320334,1.320334 1.32,1.32 0 0 1 -1.320334,1.319816 1.32,1.32 0 0 1 -1.319816,-1.319816 1.32,1.32 0 0 1 1.319816,-1.320334 z" />
    <path
       id="path91298"
       style="fill:#808080;fill-opacity:1;stroke:none;stroke-width:0.132;stroke-miterlimit:4;stroke-dasharray:none;stroke-opacity:1;stop-color:#000000"
       d="m 30.670998,21.746476 a 1.5,1.5 0 0 0 -1.49965,1.500167 1.5,1.5 0 0 0 1.49965,1.49965 1.5,1.5 0 0 0 1.500167,-1.49965 1.5,1.5 0 0 0 -1.500167,-1.500167 z m 0,0.179834 a 1.3200001,1.3200001 0 0 1 1.320333,1.320333 1.3200001,1.3200001 0 0 1 -1.320333,1.319816 1.3200001,1.3200001 0 0 1 -1.319816,-1.319816 1.3200001,1.3200001 0 0 1 1.319816,-1.320333 z" />
    <path
       id="path12093-5"
       style="fill:#000000;fill-opacity:1;stroke:none;stroke-width:0.132292;stroke-miterlimit:4;stroke-dasharray:none;stroke-opacity:1;stop-color:#000000"
       d="m 21.143928,19.721277 a 3.5250001,3.5250001 0 0 0 -3.524849,3.525366 3.5250001,3.5250001 0 0 0 3.524849,3.52485 3.5250001,3.5250001 0 0 0 3.52485,-3.52485 3.5250001,3.5250001 0 0 0 -3.52485,-3.525366 z m 0,1.83503 a 1.6900001,1.6900001 0 0 1 1.68982,1.690336 1.6900001,1.6900001 0 0 1 -1.68982,1.689819 1.6900001,1.6900001 0 0 1 -1.689819,-1.689819 1.6900001,1.6900001 0 0 1 1.689819,-1.690336 z" />
    <text
       xml:space="preserve"
       style="font-size:3.14068px;line-height:1.25;font-family:Ste;-inkscape-font-specification:Ste;stroke-width:0.0588878"
       x="23.792343"
       y="17.675024"
       id="text34670"><tspan
         sodipodi:role="line"
         id="tspan34668"
         style="font-style:normal;font-variant:normal;font-weight:bold;font-stretch:normal;font-family:sans-serif;-inkscape-font-specification:sans-serif;text-align:center;text-anchor:middle;stroke-width:0.0588878"
         x="23.792343"
         y="17.675024">Washers</tspan></text>
    <text
       xml:space="preserve"
       style="font-size:3.14068px;line-height:1.25;font-family:Ste;-inkscape-font-specification:Ste;stroke-width:0.0588878"
       x="37.016224"
       y="17.675024"
       id="text35321"><tspan
         sodipodi:role="line"
         id="tspan35319"
         style="font-style:normal;font-variant:normal;font-weight:bold;font-stretch:normal;font-family:sans-serif;-inkscape-font-specification:sans-serif;text-align:center;text-anchor:middle;stroke-width:0.0588878"
         x="37.016224"
         y="17.675024">Nuts</tspan></text>
    <path
       id="path37237"
       style="color:#000000;fill:#000000;stroke:#000000;stroke-width:0.132292;stroke-miterlimit:4;stroke-dasharray:none;stroke-opacity:1"
       d="m 12.079297,19.425073 v 4.9997 c 0,1.87472 1.245422,3.42039 2.966227,3.86849 v -8.86819 z" />
    <path
       id="path40298"
       style="color:#000000;fill:#c8c8c8;fill-opacity:1;stroke:#000000;stroke-width:0.132292;stroke-miterlimit:4;stroke-dasharray:none;stroke-opacity:1"
       d="m 15.045524,10.556363 c -1.720794,0.44811 -2.966227,1.9938 -2.966227,3.8685 v 5.00021 h 2.966227 z" />
    <rect
       style="fill:#e5e5e5;stroke:#000000;stroke-width:0.132292;stroke-miterlimit:4;stroke-dasharray:none;stop-color:#000000;fill-opacity:1"
       id="rect846-3-2-8-2-1"
       width="40"
       height="20"
       x="55.353745"
       y="9.4252758"
       ry="5" />
    <path
       id="path1242-78-5-9-8-8"
       style="fill:#e5e5e5;stroke:#000000;stroke-width:0.132292;stroke-miterlimit:4;stroke-dasharray:none;stop-color:#000000;fill-opacity:1"
       d="m 99.263039,20.008646 c 0,8.499998 5.000211,8.500248 5.000211,8.500248 h 19.35902 3.28146 19.35949 c 0,0 4.9997,-2.5e-4 4.9997,-8.500248 h -24.35919 -3.28146 z" />
    <text
       xml:space="preserve"
       style="font-size:4.34794px;line-height:1.25;font-family:Ste;-inkscape-font-specification:Ste;stroke-width:0.081524"
       x="134.70354"
       y="25.823545"
       id="text3821-6-2-8-2-7"><tspan
         sodipodi:role="line"
         id="tspan3819-2-9-3-3-9"
         style="font-style:normal;font-variant:normal;font-weight:bold;font-stretch:normal;font-family:sans-serif;-inkscape-font-specification:sans-serif;text-align:center;text-anchor:middle;stroke-width:0.081524"
         x="134.70354"
         y="25.823545">1/4-20 Button</tspan></text>
    <text
       xml:space="preserve"
       style="font-size:4.34794px;line-height:1.25;font-family:Ste;-inkscape-font-specification:Ste;stroke-width:0.081524"
       x="76.773453"
       y="14.067785"
       id="text8073-7-2-8-5-8"><tspan
         sodipodi:role="line"
         id="tspan8071-6-0-6-9-4"
         style="font-style:normal;font-variant:normal;font-weight:bold;font-stretch:normal;font-family:sans-serif;-inkscape-font-specification:sans-serif;text-align:center;text-anchor:middle;stroke-width:0.081524"
         x="76.773453"
         y="14.067785">1/4-20 Button</tspan></text>
    <text
       xml:space="preserve"
       style="font-size:3.24151px;line-height:1.25;font-family:Ste;-inkscape-font-specification:Ste;stroke-width:0.0607786"
       x="76.776169"
       y="17.898922"
       id="text8160-0-0-7-4-4"><tspan
         sodipodi:role="line"
         id="tspan8158-8-5-1-9-8"
         style="font-style:normal;font-variant:normal;font-weight:normal;font-stretch:normal;font-family:sans-serif;-inkscape-font-specification:sans-serif;text-align:center;text-anchor:middle;stroke-width:0.0607786"
         x="76.776169"
         y="17.898922">1/4&quot; - 2&quot;</tspan></text>
    <path
       id="path114477-1-5-8-3"
       style="fill:#323232;fill-opacity:1;stroke:none;stroke-width:0.265001;stroke-miterlimit:4;stroke-dasharray:none;stroke-opacity:1;stop-color:#000000"
       d="m 109.45485,25.244184 v -2.1 h 10 v 2.1 z"
       sodipodi:nodetypes="ccccc" />
    <path
       style="fill:#ffffff;stroke:#000000;stroke-width:0.132292;stroke-miterlimit:4;stroke-dasharray:none;stroke-opacity:1;stop-color:#000000"
       d="m 109.45487,22.694374 0.50033,3"
       id="path114479-5-6-5-0"
       sodipodi:nodetypes="cc" />
    <path
       style="fill:#ffffff;stroke:#000000;stroke-width:0.132292;stroke-miterlimit:4;stroke-dasharray:none;stroke-opacity:1;stop-color:#000000"
       d="m 109.9552,22.694374 0.50034,3"
       id="path114481-9-6-2-3"
       sodipodi:nodetypes="cc" />
    <path
       style="fill:#ffffff;stroke:#000000;stroke-width:0.132292;stroke-miterlimit:4;stroke-dasharray:none;stroke-opacity:1;stop-color:#000000"
       d="m 109.9552,22.694374 0.50034,3"
       id="path114483-0-9-9-1"
       sodipodi:nodetypes="cc" />
    <path
       style="fill:#ffffff;stroke:#000000;stroke-width:0.132292;stroke-miterlimit:4;stroke-dasharray:none;stroke-opacity:1;stop-color:#000000"
       d="m 110.4552,22.694374 0.50034,3"
       id="path114485-4-0-6-5"
       sodipodi:nodetypes="cc" />
    <path
       style="fill:#ffffff;stroke:#000000;stroke-width:0.132292;stroke-miterlimit:4;stroke-dasharray:none;stroke-opacity:1;stop-color:#000000"
       d="m 110.9552,22.694374 0.50034,3"
       id="path114487-3-1-6-6"
       sodipodi:nodetypes="cc" />
    <path
       style="fill:#ffffff;stroke:#000000;stroke-width:0.132292;stroke-miterlimit:4;stroke-dasharray:none;stroke-opacity:1;stop-color:#000000"
       d="m 111.4552,22.694374 0.50034,3"
       id="path114489-6-2-1-7"
       sodipodi:nodetypes="cc" />
    <path
       style="fill:#ffffff;stroke:#000000;stroke-width:0.132292;stroke-miterlimit:4;stroke-dasharray:none;stroke-opacity:1;stop-color:#000000"
       d="m 111.9552,22.694374 0.50034,3"
       id="path114491-7-3-4-2"
       sodipodi:nodetypes="cc" />
    <path
       style="fill:#ffffff;stroke:#000000;stroke-width:0.132292;stroke-miterlimit:4;stroke-dasharray:none;stroke-opacity:1;stop-color:#000000"
       d="m 112.4552,22.694374 0.50034,3"
       id="path114493-5-7-1-8"
       sodipodi:nodetypes="cc" />
    <path
       style="fill:#ffffff;stroke:#000000;stroke-width:0.132292;stroke-miterlimit:4;stroke-dasharray:none;stroke-opacity:1;stop-color:#000000"
       d="m 114.95519,22.694374 0.50033,3"
       id="path114495-4-5-5-3"
       sodipodi:nodetypes="cc" />
    <path
       style="fill:#ffffff;stroke:#000000;stroke-width:0.132292;stroke-miterlimit:4;stroke-dasharray:none;stroke-opacity:1;stop-color:#000000"
       d="m 115.45518,22.694374 0.50034,3"
       id="path114497-8-0-7-3"
       sodipodi:nodetypes="cc" />
    <path
       style="fill:#ffffff;stroke:#000000;stroke-width:0.132292;stroke-miterlimit:4;stroke-dasharray:none;stroke-opacity:1;stop-color:#000000"
       d="m 115.95518,22.694374 0.50034,3"
       id="path114499-5-2-8-1"
       sodipodi:nodetypes="cc" />
    <path
       style="fill:#ffffff;stroke:#000000;stroke-width:0.132292;stroke-miterlimit:4;stroke-dasharray:none;stroke-opacity:1;stop-color:#000000"
       d="m 116.45518,22.694374 0.50034,3"
       id="path114501-6-2-8-3"
       sodipodi:nodetypes="cc" />
    <path
       style="fill:#ffffff;stroke:#000000;stroke-width:0.132292;stroke-miterlimit:4;stroke-dasharray:none;stroke-opacity:1;stop-color:#000000"
       d="m 112.9552,22.694374 0.50034,3"
       id="path114503-1-9-5-7"
       sodipodi:nodetypes="cc" />
    <path
       style="fill:#ffffff;stroke:#000000;stroke-width:0.132292;stroke-miterlimit:4;stroke-dasharray:none;stroke-opacity:1;stop-color:#000000"
       d="m 113.45519,22.694374 0.50034,3"
       id="path114505-8-3-8-3"
       sodipodi:nodetypes="cc" />
    <path
       style="fill:#ffffff;stroke:#000000;stroke-width:0.132292;stroke-miterlimit:4;stroke-dasharray:none;stroke-opacity:1;stop-color:#000000"
       d="m 113.95519,22.694374 0.50034,3"
       id="path114507-5-4-1-7"
       sodipodi:nodetypes="cc" />
    <path
       style="fill:#ffffff;stroke:#000000;stroke-width:0.132292;stroke-miterlimit:4;stroke-dasharray:none;stroke-opacity:1;stop-color:#000000"
       d="m 114.45519,22.694374 0.50034,3"
       id="path114509-6-2-4-5"
       sodipodi:nodetypes="cc" />
    <path
       style="fill:#ffffff;stroke:#000000;stroke-width:0.132292;stroke-miterlimit:4;stroke-dasharray:none;stroke-opacity:1;stop-color:#000000"
       d="m 116.95518,22.694374 0.50034,3"
       id="path114511-6-8-5-5"
       sodipodi:nodetypes="cc" />
    <path
       style="fill:#ffffff;stroke:#000000;stroke-width:0.132292;stroke-miterlimit:4;stroke-dasharray:none;stroke-opacity:1;stop-color:#000000"
       d="m 117.45552,22.694374 0.50034,3"
       id="path114495-5-5-1-6-2"
       sodipodi:nodetypes="cc" />
    <path
       style="fill:#ffffff;stroke:#000000;stroke-width:0.132292;stroke-miterlimit:4;stroke-dasharray:none;stroke-opacity:1;stop-color:#000000"
       d="m 117.95552,22.694374 0.50033,3"
       id="path114497-4-9-0-7-4"
       sodipodi:nodetypes="cc" />
    <path
       style="fill:#ffffff;stroke:#000000;stroke-width:0.132292;stroke-miterlimit:4;stroke-dasharray:none;stroke-opacity:1;stop-color:#000000"
       d="m 118.45551,22.694374 0.50034,3"
       id="path114499-1-1-0-2-6"
       sodipodi:nodetypes="cc" />
    <path
       style="fill:#ffffff;stroke:#000000;stroke-width:0.132292;stroke-miterlimit:4;stroke-dasharray:none;stroke-opacity:1;stop-color:#000000"
       d="m 118.95551,22.694374 0.50034,3"
       id="path114501-1-8-5-6-5"
       sodipodi:nodetypes="cc" />
    <path
       id="path114513-8-9-3-7"
       style="fill:#323232;fill-opacity:1;stroke:none;stroke-width:0.132;stroke-miterlimit:4;stroke-dasharray:none;stroke-opacity:1;stop-color:#000000"
       d="m 109.03815,21.444634 c -0.60368,-10e-6 -1.58336,0.90667 -1.58336,1.69963 v 1.05007 1.05007 c 0,0.79296 0.97968,1.69964 1.58336,1.69963 h 0.41652 v -2.7497 -2.7497 z" />
    <path
       id="path37237-5-7-1-9"
       style="color:#000000;fill:#c8c8c8;fill-opacity:1;stroke:#000000;stroke-width:0.132292;stroke-miterlimit:4;stroke-dasharray:none;stroke-opacity:1"
       d="m 59.318825,10.556363 c -1.72079,0.44811 -2.96622,1.99379 -2.96622,3.8685 v 9.999908 c 0,1.87471 1.24542,3.42039 2.96622,3.86849 z" />
    <path
       id="path20467-70-6"
       style="color:#000000;fill:#000000;fill-opacity:1;stroke:#000000;stroke-width:0.132292;stroke-miterlimit:4;stroke-dasharray:none;stroke-opacity:1"
       d="m 100.41708,21.008276 c 0.21106,3.175038 1.10484,4.919668 1.9942,5.675628 0.9994,0.84952 1.85156,0.82424 1.85156,0.82424 h 1.54513 v -6.499868 z"
       sodipodi:nodetypes="cscccc" />
    <path
       id="path1216-1-3-7-1"
       style="fill:#323232;fill-opacity:1;stroke:none;stroke-width:0.342374;stroke-miterlimit:4;stroke-dasharray:none;stroke-opacity:1;stop-color:#000000"
       d="m 78.564835,25.837191 v -4.199996 h 10 v 4.199996 z"
       sodipodi:nodetypes="ccccc" />
    <path
       style="fill:#ffffff;stroke:#000000;stroke-width:0.209099;stroke-miterlimit:4;stroke-dasharray:none;stroke-opacity:1;stop-color:#000000"
       d="m 78.564835,21.237405 0.75,4.999896"
       id="path1218-0-3-0-4"
       sodipodi:nodetypes="cc" />
    <path
       style="fill:#ffffff;stroke:#000000;stroke-width:0.209099;stroke-miterlimit:4;stroke-dasharray:none;stroke-opacity:1;stop-color:#000000"
       d="m 79.314835,21.237405 0.75,4.999896"
       id="path1218-0-1-4-8-0"
       sodipodi:nodetypes="cc" />
    <path
       style="fill:#ffffff;stroke:#000000;stroke-width:0.209099;stroke-miterlimit:4;stroke-dasharray:none;stroke-opacity:1;stop-color:#000000"
       d="m 80.064835,21.237405 0.75,4.999896"
       id="path1218-0-8-6-5-4"
       sodipodi:nodetypes="cc" />
    <path
       style="fill:#ffffff;stroke:#000000;stroke-width:0.209099;stroke-miterlimit:4;stroke-dasharray:none;stroke-opacity:1;stop-color:#000000"
       d="m 80.814835,21.237405 0.75,4.999896"
       id="path1218-0-1-9-7-4-8"
       sodipodi:nodetypes="cc" />
    <path
       style="fill:#ffffff;stroke:#000000;stroke-width:0.209099;stroke-miterlimit:4;stroke-dasharray:none;stroke-opacity:1;stop-color:#000000"
       d="m 81.564835,21.237405 0.75,4.999896"
       id="path1218-0-84-8-8-2"
       sodipodi:nodetypes="cc" />
    <path
       style="fill:#ffffff;stroke:#000000;stroke-width:0.209099;stroke-miterlimit:4;stroke-dasharray:none;stroke-opacity:1;stop-color:#000000"
       d="m 82.314835,21.237405 0.75,4.999896"
       id="path1218-0-1-93-5-1-8"
       sodipodi:nodetypes="cc" />
    <path
       style="fill:#ffffff;stroke:#000000;stroke-width:0.209099;stroke-miterlimit:4;stroke-dasharray:none;stroke-opacity:1;stop-color:#000000"
       d="m 83.064835,21.237405 0.75,4.999896"
       id="path1218-0-8-0-9-8-2"
       sodipodi:nodetypes="cc" />
    <path
       style="fill:#ffffff;stroke:#000000;stroke-width:0.209099;stroke-miterlimit:4;stroke-dasharray:none;stroke-opacity:1;stop-color:#000000"
       d="m 83.814835,21.237405 0.75,4.999896"
       id="path1218-0-1-9-8-9-2-4"
       sodipodi:nodetypes="cc" />
    <path
       style="fill:#ffffff;stroke:#000000;stroke-width:0.209099;stroke-miterlimit:4;stroke-dasharray:none;stroke-opacity:1;stop-color:#000000"
       d="m 84.648075,21.237245 0.75,4.999896"
       id="path1218-0-7-9-5-4"
       sodipodi:nodetypes="cc" />
    <path
       style="fill:#ffffff;stroke:#000000;stroke-width:0.209099;stroke-miterlimit:4;stroke-dasharray:none;stroke-opacity:1;stop-color:#000000"
       d="m 85.398075,21.237245 0.75,4.999896"
       id="path1218-0-1-0-0-0-1"
       sodipodi:nodetypes="cc" />
    <path
       style="fill:#ffffff;stroke:#000000;stroke-width:0.209099;stroke-miterlimit:4;stroke-dasharray:none;stroke-opacity:1;stop-color:#000000"
       d="m 86.148075,21.237245 0.75,4.999896"
       id="path1218-0-8-7-4-6-4"
       sodipodi:nodetypes="cc" />
    <path
       style="fill:#ffffff;stroke:#000000;stroke-width:0.209099;stroke-miterlimit:4;stroke-dasharray:none;stroke-opacity:1;stop-color:#000000"
       d="m 86.898075,21.237245 0.75,4.999896"
       id="path1218-0-1-9-88-6-0-8"
       sodipodi:nodetypes="cc" />
    <path
       style="fill:#ffffff;stroke:#000000;stroke-width:0.209099;stroke-miterlimit:4;stroke-dasharray:none;stroke-opacity:1;stop-color:#000000"
       d="m 87.648075,21.237245 0.75,4.999896"
       id="path1218-0-84-9-3-0-4"
       sodipodi:nodetypes="cc" />
    <path
       id="path29579-2-4-7-0"
       style="fill:#323232;fill-opacity:1;stroke:none;stroke-width:0.132292;stroke-opacity:1;stop-color:#000000"
       d="m 78.564835,19.067195 v 4.669996 4.67 h -0.79995 c -2.32,0 -2.32028,-2.67012 -2.32028,-2.67012 v -1.99988 -1.999876 c 0,0 2.8e-4,-2.67012 2.32028,-2.67012 z" />
    <path
       id="circle1208-7-7-7-1-6-5-6-8-9"
       style="fill:#323232;fill-opacity:1;stroke:none;stroke-width:0.449309;stroke-miterlimit:4;stroke-dasharray:none;stroke-opacity:1;stop-color:#000000"
       d="M 69.186991 19.067053 A 4.6700001 4.6700001 0 0 0 64.516992 23.737052 A 4.6700001 4.6700001 0 0 0 69.186991 28.407052 A 4.6700001 4.6700001 0 0 0 73.856991 23.737052 A 4.6700001 4.6700001 0 0 0 69.186991 19.067053 z M 69.186991 22.037415 L 70.659253 22.886975 L 70.659253 24.58713 L 69.186991 25.437207 L 67.71473 24.58713 L 67.71473 22.886975 L 69.186991 22.037415 z " />
    <path
       id="path1242-78-5-8-1"
       style="fill:#e5e5e5;stroke:#000000;stroke-width:0.132292;stroke-miterlimit:4;stroke-dasharray:none;stop-color:#000000;fill-opacity:1"
       d="m 99.263039,9.4252758 c 0,8.4999972 5.000211,8.5002572 5.000211,8.5002572 h 19.35901 3.28146 19.35949 c 0,0 4.99971,-2.6e-4 4.99971,-8.5002572 h -24.35921 -3.28145 z" />
    <text
       xml:space="preserve"
       style="font-size:4.34794px;line-height:1.25;font-family:Ste;-inkscape-font-specification:Ste;stroke-width:0.081524"
       x="125.1785"
       y="15.240166"
       id="text3821-6-2-9-7"><tspan
         sodipodi:role="line"
         id="tspan3819-2-9-0-5"
         style="font-style:normal;font-variant:normal;font-weight:bold;font-stretch:normal;font-family:sans-serif;-inkscape-font-specification:sans-serif;text-align:center;text-anchor:middle;stroke-width:0.081524"
         x="125.1785"
         y="15.240166">1/4-20 Nuts &amp; Washers</tspan></text>
  </g>
</svg>
