<?xml version="1.0" encoding="UTF-8" standalone="no"?>
<!-- Created with Inkscape (http://www.inkscape.org/) -->

<svg
   width="8.5in"
   height="11in"
   viewBox="0 0 215.9 279.4"
   version="1.1"
   id="svg5"
   inkscape:version="1.2.1 (9c6d41e410, 2022-07-14)"
   sodipodi:docname="Seals.svg"
   xmlns:inkscape="http://www.inkscape.org/namespaces/inkscape"
   xmlns:sodipodi="http://sodipodi.sourceforge.net/DTD/sodipodi-0.dtd"
   xmlns="http://www.w3.org/2000/svg"
   xmlns:svg="http://www.w3.org/2000/svg">
  <sodipodi:namedview
     id="namedview7"
     pagecolor="#ffffff"
     bordercolor="#666666"
     borderopacity="1.0"
     inkscape:pageshadow="2"
     inkscape:pageopacity="0.0"
     inkscape:pagecheckerboard="0"
     inkscape:deskcolor="#d1d1d1"
     inkscape:document-units="mm"
     showgrid="false"
     inkscape:showpageshadow="2"
     inkscape:zoom="1.1557446"
     inkscape:cx="137.14103"
     inkscape:cy="331.38809"
     inkscape:window-width="2560"
     inkscape:window-height="1017"
     inkscape:window-x="2552"
     inkscape:window-y="-8"
     inkscape:window-maximized="1"
     inkscape:current-layer="layer1" />
  <defs
     id="defs2" />
  <g
     inkscape:label="Layer 1"
     inkscape:groupmode="layer"
     id="layer1">
    <rect
       style="fill:#ffffff;stroke:#000000;stroke-width:0.132292;stroke-miterlimit:4;stroke-dasharray:none;stop-color:#000000"
       id="rect34533-0-8-7-3-96-6-7-2"
       width="30"
       height="40"
       x="22.480032"
       y="57.835823" />
    <text
       xml:space="preserve"
       style="font-size:4.23333px;line-height:1.25;font-family:Ste;-inkscape-font-specification:Ste;stroke-width:0.264583"
       x="23.145636"
       y="62.036076"
       id="text34591-3-6-7-40-30-5-83-8"><tspan
         sodipodi:role="line"
         id="tspan34589-2-0-0-8-00-3-9-64"
         style="font-style:normal;font-variant:normal;font-weight:bold;font-stretch:normal;font-size:4.23333px;font-family:sans-serif;-inkscape-font-specification:sans-serif;stroke-width:0.264583"
         x="23.145636"
         y="62.036076">#13 O-Ring</tspan></text>
    <text
       xml:space="preserve"
       style="font-size:2.82222px;line-height:1.25;font-family:Ste;-inkscape-font-specification:Ste;text-align:start;text-anchor:start;stroke-width:0.264583"
       x="25.025267"
       y="65.140167"
       id="text34595-6-0-4-2-8-2-6-4"><tspan
         sodipodi:role="line"
         style="font-style:normal;font-variant:normal;font-weight:normal;font-stretch:normal;font-size:2.82222px;font-family:sans-serif;-inkscape-font-specification:sans-serif;text-align:start;text-anchor:start;stroke-width:0.264583"
         x="25.025267"
         y="65.140167"
         id="tspan34593-0-1-5-1-3-3-1-3">7/8&quot; OD</tspan><tspan
         sodipodi:role="line"
         style="font-style:normal;font-variant:normal;font-weight:normal;font-stretch:normal;font-size:2.82222px;font-family:sans-serif;-inkscape-font-specification:sans-serif;text-align:start;text-anchor:start;stroke-width:0.264583"
         x="25.025267"
         y="68.667946"
         id="tspan57610">11/16&quot; ID</tspan><tspan
         sodipodi:role="line"
         style="font-style:normal;font-variant:normal;font-weight:normal;font-stretch:normal;font-size:2.82222px;font-family:sans-serif;-inkscape-font-specification:sans-serif;text-align:start;text-anchor:start;stroke-width:0.264583"
         x="25.025267"
         y="72.195717"
         id="tspan57612">3/32&quot; Tube Dia</tspan></text>
    <path
       id="path57242"
       style="fill:#000000;fill-opacity:1;stroke:none;stroke-width:0.264999;stop-color:#000000"
       d="M 37.480035,73.515326 A 11,11 0 0 0 26.480186,84.515688 11,11 0 0 0 37.480035,95.515533 11,11 0 0 0 48.479875,84.515688 11,11 0 0 0 37.480035,73.515326 Z m 0,2.500106 a 8.5,8.5 0 0 1 8.50025,8.500256 8.5,8.5 0 0 1 -8.50025,8.49974 8.5,8.5 0 0 1 -8.49974,-8.49974 8.5,8.5 0 0 1 8.49974,-8.500256 z" />
    <rect
       style="fill:#ffffff;stroke:#000000;stroke-width:0.132292;stroke-miterlimit:4;stroke-dasharray:none;stop-color:#000000"
       id="rect34533-0-8-7-3-96-6-7-8"
       width="30"
       height="40"
       x="52.480034"
       y="57.835823" />
    <text
       xml:space="preserve"
       style="font-size:4.23333px;line-height:1.25;font-family:Ste;-inkscape-font-specification:Ste;stroke-width:0.264583"
       x="53.145638"
       y="62.036079"
       id="text34591-3-6-7-40-30-5-83-4"><tspan
         sodipodi:role="line"
         id="tspan34589-2-0-0-8-00-3-9-69"
         style="font-style:normal;font-variant:normal;font-weight:bold;font-stretch:normal;font-size:4.23333px;font-family:sans-serif;-inkscape-font-specification:sans-serif;stroke-width:0.264583"
         x="53.145638"
         y="62.036079">#13 O-Ring</tspan></text>
    <text
       xml:space="preserve"
       style="font-size:2.82222px;line-height:1.25;font-family:Ste;-inkscape-font-specification:Ste;text-align:start;text-anchor:start;stroke-width:0.264583"
       x="55.025276"
       y="65.140175"
       id="text34595-6-0-4-2-8-2-6-46"><tspan
         sodipodi:role="line"
         style="font-style:normal;font-variant:normal;font-weight:normal;font-stretch:normal;font-size:2.82222px;font-family:sans-serif;-inkscape-font-specification:sans-serif;text-align:start;text-anchor:start;stroke-width:0.264583"
         x="55.025276"
         y="65.140175"
         id="tspan34593-0-1-5-1-3-3-1-7">7/8&quot; OD</tspan><tspan
         sodipodi:role="line"
         style="font-style:normal;font-variant:normal;font-weight:normal;font-stretch:normal;font-size:2.82222px;font-family:sans-serif;-inkscape-font-specification:sans-serif;text-align:start;text-anchor:start;stroke-width:0.264583"
         x="55.025276"
         y="68.667953"
         id="tspan57610-4">11/16&quot; ID</tspan><tspan
         sodipodi:role="line"
         style="font-style:normal;font-variant:normal;font-weight:normal;font-stretch:normal;font-size:2.82222px;font-family:sans-serif;-inkscape-font-specification:sans-serif;text-align:start;text-anchor:start;stroke-width:0.264583"
         x="55.025276"
         y="72.195724"
         id="tspan57612-0">3/32&quot; Tube Dia</tspan></text>
    <path
       id="path75959-2"
       style="fill:#ffffff;stroke:#000000;stroke-width:0.132292;stroke-miterlimit:4;stroke-dasharray:none;stop-color:#000000"
       d="m 18.885829,141.90824 c 0,8.5 5.00021,8.50025 5.00021,8.50025 h 19.35902 3.28145 19.359511 c 0,0 4.9997,-2.5e-4 4.9997,-8.50025 h -24.359211 -3.28145 z" />
    <text
       xml:space="preserve"
       style="font-size:4.34794px;line-height:1.25;font-family:Ste;-inkscape-font-specification:Ste;stroke-width:0.081524"
       x="36.406872"
       y="147.72316"
       id="text75963-8"><tspan
         sodipodi:role="line"
         id="tspan75961-2"
         style="font-style:normal;font-variant:normal;font-weight:bold;font-stretch:normal;font-family:sans-serif;-inkscape-font-specification:sans-serif;text-align:center;text-anchor:middle;stroke-width:0.081524"
         x="36.406872"
         y="147.72316">Seals</tspan></text>
    <path
       id="path57242-6"
       style="fill:#000000;fill-opacity:1;stroke:none;stroke-width:0.264999;stop-color:#000000"
       d="m 67.480044,73.515326 a 11,11 0 0 0 -10.99985,11.000362 11,11 0 0 0 10.99985,10.999844 11,11 0 0 0 10.99984,-10.999844 11,11 0 0 0 -10.99984,-11.000362 z m 0,2.500106 a 8.5,8.5 0 0 1 8.50025,8.500256 8.5,8.5 0 0 1 -8.50025,8.49974 8.5,8.5 0 0 1 -8.49974,-8.49974 8.5,8.5 0 0 1 8.49974,-8.500256 z" />
    <path
       id="path57242-2"
       style="fill:#000000;fill-opacity:1;stroke:none;stroke-width:0.264998;stop-color:#000000"
       d="m 25.055795,143.28763 a 2.7542391,2.7542391 0 0 0 -2.754201,2.75433 2.7542391,2.7542391 0 0 0 2.754201,2.7542 2.7542391,2.7542391 0 0 0 2.754199,-2.7542 2.7542391,2.7542391 0 0 0 -2.754199,-2.75433 z m 0,0.62599 a 2.1282756,2.1282756 0 0 1 2.128338,2.12834 2.1282756,2.1282756 0 0 1 -2.128338,2.12821 2.1282756,2.1282756 0 0 1 -2.12821,-2.12821 2.1282756,2.1282756 0 0 1 2.12821,-2.12834 z" />
    <path
       id="path75959-2-6"
       style="fill:#ffffff;stroke:#000000;stroke-width:0.132292;stroke-miterlimit:4;stroke-dasharray:none;stop-color:#000000"
       d="m 18.885828,153.25295 c 0,8.5 5.00021,8.50025 5.00021,8.50025 h 19.35902 3.28145 19.359511 c 0,0 4.9997,-2.5e-4 4.9997,-8.50025 h -24.359211 -3.28145 z" />
    <text
       xml:space="preserve"
       style="font-size:4.34794px;line-height:1.25;font-family:Ste;-inkscape-font-specification:Ste;stroke-width:0.081524"
       x="36.406872"
       y="159.06787"
       id="text75963-8-3"><tspan
         sodipodi:role="line"
         id="tspan75961-2-0"
         style="font-style:normal;font-variant:normal;font-weight:bold;font-stretch:normal;font-family:sans-serif;-inkscape-font-specification:sans-serif;text-align:center;text-anchor:middle;stroke-width:0.081524"
         x="36.406872"
         y="159.06787">Seals</tspan></text>
    <path
       id="path57242-2-7"
       style="fill:#000000;fill-opacity:1;stroke:none;stroke-width:0.264998;stop-color:#000000"
       d="m 25.055794,154.63234 a 2.7542391,2.7542391 0 0 0 -2.754201,2.75434 2.7542391,2.7542391 0 0 0 2.754201,2.7542 2.7542391,2.7542391 0 0 0 2.754199,-2.7542 2.7542391,2.7542391 0 0 0 -2.754199,-2.75434 z m 0,0.62599 a 2.1282756,2.1282756 0 0 1 2.128338,2.12835 2.1282756,2.1282756 0 0 1 -2.128338,2.12821 2.1282756,2.1282756 0 0 1 -2.12821,-2.12821 2.1282756,2.1282756 0 0 1 2.12821,-2.12835 z" />
    <rect
       style="fill:#ffffff;stroke:#000000;stroke-width:0.132292;stroke-miterlimit:4;stroke-dasharray:none;stop-color:#000000"
       id="rect34533-0-8-7-3-96-6-7-9"
       width="30"
       height="40"
       x="22.480032"
       y="97.835823" />
    <text
       xml:space="preserve"
       style="font-size:4.23333px;line-height:1.25;font-family:Ste;-inkscape-font-specification:Ste;stroke-width:0.264583"
       x="23.145636"
       y="102.03607"
       id="text34591-3-6-7-40-30-5-83-1-8"><tspan
         sodipodi:role="line"
         id="tspan34589-2-0-0-8-00-3-9-5"
         style="font-style:normal;font-variant:normal;font-weight:bold;font-stretch:normal;font-size:4.23333px;font-family:sans-serif;-inkscape-font-specification:sans-serif;stroke-width:0.264583"
         x="23.145636"
         y="102.03607">Gasket Ring</tspan></text>
    <path
       id="circle60716"
       style="fill:#995e5e;fill-opacity:1;stroke:#000000;stroke-width:0.132;stroke-dasharray:none;stroke-opacity:1;stop-color:#000000"
       d="m 37.480035,109.68593 a 13.1,13.1 0 0 0 -12.66848,9.79992 h -0.4315 v 3.30006 a 13.1,13.1 0 0 0 13.09998,13.09997 13.1,13.1 0 0 0 13.09997,-13.09997 v -3.30006 h -0.42323 a 13.1,13.1 0 0 0 -12.67674,-9.79992 z m 0,5.09995 a 8,8 0 0 1 8.00003,8.00003 8,8 0 0 1 -8.00003,8.00002 8,8 0 0 1 -8.00003,-8.00002 8,8 0 0 1 8.00003,-8.00003 z" />
    <path
       id="path59930"
       style="fill:#bb7878;fill-opacity:1;stroke:#000000;stroke-width:0.132;stroke-dasharray:none;stroke-opacity:1;stop-color:#000000"
       d="m 37.480035,106.38587 a 13.1,13.1 0 0 0 -13.09998,13.09998 13.1,13.1 0 0 0 13.09998,13.09997 13.1,13.1 0 0 0 13.09997,-13.09997 13.1,13.1 0 0 0 -13.09997,-13.09998 z m 0,5.09995 a 8,8 0 0 1 8.00003,8.00003 8,8 0 0 1 -8.00003,8.00003 8,8 0 0 1 -8.00003,-8.00003 8,8 0 0 1 8.00003,-8.00003 z" />
    <path
       id="path60790"
       style="fill:none;fill-opacity:1;stroke:#000000;stroke-width:0.265;stroke-dasharray:none;stroke-opacity:1;stop-color:#000000"
       d="m 37.479805,106.38575 a 13.1,13.1 0 0 0 -13.09997,13.09997 v 3.30006 a 13.1,13.1 0 0 0 13.09997,13.09997 13.1,13.1 0 0 0 13.09998,-13.09997 v -3.30006 a 13.1,13.1 0 0 0 -13.09998,-13.09997 z m 0,8.4 a 8,8 0 0 1 7.82743,6.35 8,8 0 0 1 -7.82743,6.35 8,8 0 0 1 -7.82381,-6.35 8,8 0 0 1 7.82381,-6.35 z" />
    <rect
       style="fill:#ffffff;stroke:#000000;stroke-width:0.132292;stroke-miterlimit:4;stroke-dasharray:none;stop-color:#000000"
       id="rect34533-0-8-7-3-96-6-7-9-4"
       width="30"
       height="40"
       x="52.480034"
       y="97.835823" />
    <text
       xml:space="preserve"
       style="font-size:4.23333px;line-height:1.25;font-family:Ste;-inkscape-font-specification:Ste;stroke-width:0.264583"
       x="53.145638"
       y="102.03608"
       id="text34591-3-6-7-40-30-5-83-1-8-5"><tspan
         sodipodi:role="line"
         id="tspan34589-2-0-0-8-00-3-9-5-3"
         style="font-style:normal;font-variant:normal;font-weight:bold;font-stretch:normal;font-size:4.23333px;font-family:sans-serif;-inkscape-font-specification:sans-serif;stroke-width:0.264583"
         x="53.145638"
         y="102.03608">Gasket Ring</tspan></text>
    <path
       id="circle60716-1"
       style="fill:#995e5e;fill-opacity:1;stroke:#000000;stroke-width:0.132;stroke-dasharray:none;stroke-opacity:1;stop-color:#000000"
       d="m 67.480037,109.68593 a 13.1,13.1 0 0 0 -12.66848,9.79992 h -0.4315 v 3.30006 a 13.1,13.1 0 0 0 13.09998,13.09997 13.1,13.1 0 0 0 13.09997,-13.09997 v -3.30006 h -0.42323 a 13.1,13.1 0 0 0 -12.67674,-9.79992 z m 0,5.09995 a 8,8 0 0 1 8.00003,8.00003 8,8 0 0 1 -8.00003,8.00002 8,8 0 0 1 -8.00003,-8.00002 8,8 0 0 1 8.00003,-8.00003 z" />
    <path
       id="path59930-7"
       style="fill:#bb7878;fill-opacity:1;stroke:#000000;stroke-width:0.132;stroke-dasharray:none;stroke-opacity:1;stop-color:#000000"
       d="m 67.480037,106.38587 a 13.1,13.1 0 0 0 -13.09998,13.09998 13.1,13.1 0 0 0 13.09998,13.09997 13.1,13.1 0 0 0 13.09997,-13.09997 13.1,13.1 0 0 0 -13.09997,-13.09998 z m 0,5.09995 a 8,8 0 0 1 8.00003,8.00003 8,8 0 0 1 -8.00003,8.00003 8,8 0 0 1 -8.00003,-8.00003 8,8 0 0 1 8.00003,-8.00003 z" />
    <path
       id="path60790-3"
       style="fill:none;fill-opacity:1;stroke:#000000;stroke-width:0.265;stroke-dasharray:none;stroke-opacity:1;stop-color:#000000"
       d="m 67.479807,106.38575 a 13.1,13.1 0 0 0 -13.09997,13.09997 v 3.30006 a 13.1,13.1 0 0 0 13.09997,13.09997 13.1,13.1 0 0 0 13.09998,-13.09997 v -3.30006 a 13.1,13.1 0 0 0 -13.09998,-13.09997 z m 0,8.4 a 8,8 0 0 1 7.82743,6.35 8,8 0 0 1 -7.82743,6.35 8,8 0 0 1 -7.82381,-6.35 8,8 0 0 1 7.82381,-6.35 z" />
  </g>
</svg>
